<?xml version="1.0" encoding="utf-8"?>
<!-- Generator: Adobe Illustrator 14.0.0, SVG Export Plug-In . SVG Version: 6.00 Build 43363)  -->
<!DOCTYPE svg PUBLIC "-//W3C//DTD SVG 1.1//EN" "http://www.w3.org/Graphics/SVG/1.1/DTD/svg11.dtd">
<svg version="1.1"
	 id="svg1551" xmlns:dc="http://purl.org/dc/elements/1.1/" sodipodi:docname="Avattava silta 131.svg" xmlns:sodipodi="http://inkscape.sourceforge.net/DTD/sodipodi-0.dtd" xmlns:inkscape="http://www.inkscape.org/namespaces/inkscape" xmlns:cc="http://web.resource.org/cc/" xmlns:rdf="http://www.w3.org/1999/02/22-rdf-syntax-ns#" inkscape:version="0.43" xmlns:svg="http://www.w3.org/2000/svg" sodipodi:docbase="/home/tomilepp/svg/liikennemerkit" sodipodi:version="0.32"
	 xmlns="http://www.w3.org/2000/svg" xmlns:xlink="http://www.w3.org/1999/xlink" x="0px" y="0px" width="325px" height="120px"
	 viewBox="0 0 325 120" enable-background="new 0 0 325 120" xml:space="preserve">
<sodipodi:namedview  id="base" inkscape:current-layer="layer1" inkscape:window-y="11" inkscape:window-x="290" inkscape:cy="303.30308" inkscape:cx="234" inkscape:zoom="0.35355339" inkscape:window-height="544" inkscape:window-width="760" inkscape:pageshadow="2" inkscape:pageopacity="0.0" borderopacity="1.0" bordercolor="#666666" pagecolor="#ffffff" inkscape:document-units="px">
	</sodipodi:namedview>
<g id="layer1" inkscape:groupmode="layer" inkscape:label="Layer 1">
	<path id="path1650_1_" d="M85.222,17.711h147.88v15.857H85.222"/>
	<path id="path1652" d="M48.232,33.568l-39.63,68.721h76.62V33.568H48.232"/>
	<path id="path1654" d="M233.102,33.568h37l39.63,68.721h-76.63V33.568"/>
	<path id="path1656" d="M85.222,57.409c3.83-0.67,7.99,0.38,12.5,3.17c8.87,4.16,17.83,4.16,26.89,0c6.23-4.603,12.53-4.603,18.9,0
		c10.04,4.83,19.85,4.83,29.41,0c5.86-4.603,11.88-4.603,18.04,0c9.32,4.6,18.84,4.6,28.59,0c4.13-3.29,8.65-4.21,13.55-2.75v10.479
		c-4.897-1.448-9.42-0.54-13.55,2.75c-9.75,4.603-19.27,4.603-28.59,0c-6.16-4.6-12.18-4.6-18.04,0c-9.562,4.83-19.37,4.83-29.41,0
		c-6.37-4.6-12.67-4.6-18.9,0c-9.06,4.16-18.02,4.16-26.89,0c-4.91-3.027-8.21-3.92-12.5-3.158V57.409"/>
	<path id="path1658" d="M85.222,78.579c3.83-0.681,7.99,0.38,12.5,3.17c8.87,4.16,17.83,4.16,26.89,0c6.23-4.601,12.53-4.601,18.9,0
		c10.04,4.83,19.85,4.83,29.41,0c5.86-4.601,11.88-4.601,18.04,0c9.32,4.59,18.84,4.59,28.59,0c4.13-3.29,8.65-4.21,13.55-2.75
		v10.479c-4.897-1.447-9.42-0.54-13.55,2.75c-9.75,4.603-19.27,4.603-28.59,0c-6.16-4.6-12.18-4.6-18.04,0
		c-9.562,4.83-19.37,4.83-29.41,0c-6.37-4.6-12.67-4.6-18.9,0c-9.06,4.16-18.02,4.16-26.89,0c-4.91-3.027-8.21-3.92-12.5-3.17
		V78.579"/>
</g>
</svg>
