<?xml version="1.0" encoding="utf-8"?>
<!-- Generator: Adobe Illustrator 16.0.0, SVG Export Plug-In . SVG Version: 6.00 Build 0)  -->
<!DOCTYPE svg PUBLIC "-//W3C//DTD SVG 1.1//EN" "http://www.w3.org/Graphics/SVG/1.1/DTD/svg11.dtd">
<svg version="1.1" id="Layer_1" xmlns="http://www.w3.org/2000/svg" xmlns:xlink="http://www.w3.org/1999/xlink" x="0px" y="0px"
	 width="256px" height="256px" viewBox="0 0 256 256" enable-background="new 0 0 256 256" xml:space="preserve">
<g>
	<path id="path2856" d="M198.319,159.704c0.002,8.2-6.645,14.85-14.845,14.85s-14.846-6.649-14.842-14.85
		c-0.004-8.2,6.642-14.849,14.842-14.849S198.321,151.504,198.319,159.704L198.319,159.704z"/>
	<path id="path3745" d="M86.011,159.79c0.003,8.2-6.644,14.85-14.843,14.85s-14.846-6.649-14.842-14.85
		c-0.004-8.2,6.643-14.849,14.842-14.849S86.014,151.59,86.011,159.79L86.011,159.79z"/>
	<path d="M222.304,89.978L33.207,90.099c-0.609-0.02-0.68,0.493-0.823,0.939l0.147,6.646c0.914,0.983,3.125,0.833,2.74,2.952
		l-11.057,31.915l-0.303,24.422c0.757,1.322,1.601,2.027,2.839,3.027h26.116c0-25,36.334-25,36.334,0h75.622
		c0-24,37.242-25,37.242,0l28.143,0.037c2.316-0.863,4.995-1.47,6.793-6.549v-27.023C232.505,114.005,230.882,91.685,222.304,89.978
		z M62.119,101.302l-0.041,23.149c-0.384,0.908-0.761,1.82-1.824,2.199l-26.605-0.137c-0.902-0.787-1.833-1.521-1.975-3.145
		l7.969-22.16c0.524-1.754,1.246-2.255,1.999-2.558l18.994,0.07C61.759,99.393,62.154,99.704,62.119,101.302z M93.35,126.556
		l-23.495,0.085c-1.063-0.379-1.73-1.234-2.115-2.141l0.004-23.931c0.372-1.308,0.621-1.314,1.745-1.985l17.426,0.029
		c0.753,0.303,1.475,0.803,1.999,2.558l6.409,22.241C95.183,125.035,94.252,125.77,93.35,126.556z M125.634,126.516l-22.624,0.055
		c-1.063-0.379-1.44-1.291-1.825-2.199l-6.525-22.246c-0.035-1.599,0.359-2.854,1.484-3.524l23.056-0.029
		c0.753,0.303,1.475,0.803,1.999,2.558l6.41,22.242C127.467,124.994,126.536,125.729,125.634,126.516z M157.687,126.516
		l-22.624,0.055c-1.063-0.379-1.44-1.291-1.824-2.199l-6.526-22.246c-0.035-1.599,0.36-2.854,1.484-3.524l23.057-0.029
		c0.753,0.303,1.475,0.803,1.998,2.558l6.41,22.242C159.519,124.994,158.589,125.729,157.687,126.516z M189.927,126.516
		l-22.624,0.055c-1.063-0.379-1.439-1.291-1.824-2.199l-6.525-22.246c-0.035-1.599,0.36-2.854,1.483-3.524l23.058-0.029
		c0.753,0.303,1.475,0.803,1.998,2.558l6.41,22.242C191.76,124.994,190.829,125.729,189.927,126.516z M222.427,126.557
		l-22.625,0.057c-1.063-0.38-1.44-1.293-1.824-2.2l-6.525-22.247c-0.034-1.598,0.359-2.853,1.483-3.523l23.057-0.029
		c0.753,0.303,1.475,0.803,1.998,2.557l6.41,22.241C224.258,125.035,223.328,125.771,222.427,126.557z"/>
</g>
</svg>
