<?xml version="1.0" encoding="utf-8"?>
<!-- Generator: Adobe Illustrator 16.0.0, SVG Export Plug-In . SVG Version: 6.00 Build 0)  -->
<!DOCTYPE svg PUBLIC "-//W3C//DTD SVG 1.1//EN" "http://www.w3.org/Graphics/SVG/1.1/DTD/svg11.dtd">
<svg version="1.1" id="Layer_1" xmlns="http://www.w3.org/2000/svg" xmlns:xlink="http://www.w3.org/1999/xlink" x="0px" y="0px"
	 width="256px" height="256px" viewBox="0 0 256 256" enable-background="new 0 0 256 256" xml:space="preserve">
<g>
	<path d="M84.251,142.539c-6.023,0.198-10.386,3.96-11.376,9.721c-0.77,7.701,3.164,12.878,11.376,13.391
		c6.86-0.408,11.167-4.765,11.531-11.57C95.452,147.314,91.073,142.908,84.251,142.539z"/>
	<path d="M179.943,142.539c-6.025,0.198-10.386,3.96-11.376,9.721c-0.777,7.701,3.162,12.878,11.376,13.391
		c6.859-0.408,11.166-4.765,11.529-11.57C191.145,147.314,186.764,142.908,179.943,142.539z"/>
	<path d="M240.806,79.926l-1.875-4.165l-2.997-3.449l-3.807-2.448l-4.38-1.282H29.324l-2.223,0.467l-4.126,1.915l-3.438,2.97
		l-2.464,3.83l-1.282,4.384v92.175l1.282,4.39l2.464,3.818l3.438,2.981l4.126,1.914l4.5,0.655l196.146-0.188l4.38-1.287l3.807-2.438
		l2.997-3.448l1.875-4.171l0.661-4.517V84.437L240.806,79.926z M233.627,172.068l-0.158,1.568l-0.468,1.502l-0.721,1.376
		l-1.001,1.193l-1.215,1.001l-1.376,0.753l-1.503,0.44l-1.563,0.154H32.014l-1.562-0.154l-1.502-0.44l-1.375-0.753l-1.216-1.001
		l-1.001-1.222l-0.72-1.381l-0.468-1.508l-0.154-1.563V84.344l0.154-1.534l0.468-1.508l0.72-1.408l1.001-1.193l1.216-1.002
		l1.375-0.752l1.502-0.434l1.562-0.155l-0.005-0.006l193.804,0.061l3.063,0.6l2.596,1.755l1.75,2.602l0.594,3.07L233.627,172.068z"
		/>
	<path d="M206.607,97.414l-0.226-0.802l-0.374-0.941l-0.59-0.841l-0.813-0.627l-0.94-0.407l-1.029-0.127H46.025l-1.062,0.127
		l-1.002,0.439l-0.847,0.655l-0.648,0.841l-0.435,1.008l-0.126,53.486l0.126,1.002l0.374,0.939l0.616,0.782l0.781,0.628l0.941,0.373
		l1.001,0.126h23.126c-0.132-8.669,6.926-15.393,15.375-15.393c8.692-0.064,15.409,6.895,15.409,15.393l0.005,0.006h65.1
		l0.161-2.195l0.466-2.166l0.782-2.036l1.062-1.937l1.309-1.727l1.53-1.568l1.782-1.315l1.903-1.066l2.063-0.754l2.156-0.468h4.38
		l2.122,0.468l2.063,0.754l1.937,1.066l1.754,1.315l1.563,1.568l1.305,1.727l1.061,1.937l0.754,2.036l0.468,2.166l0.152,2.195
		h19.314v-21.822L206.607,97.414z M77.722,120.689H47.686v-23.17h30.036V120.689z M112.351,120.689H83.003v-23.17h29.348V120.689z
		 M146.947,120.689h-29.315v-23.17h29.315V120.689z M152.229,120.689v-23.17h25.471l2.657,23.17H152.229z M186.545,128.401
		l-3.533-30.883h19.629l7.344,30.883H186.545z"/>
</g>
</svg>
