<?xml version="1.0" encoding="utf-8"?>
<!-- Generator: Adobe Illustrator 16.0.0, SVG Export Plug-In . SVG Version: 6.00 Build 0)  -->
<!DOCTYPE svg PUBLIC "-//W3C//DTD SVG 1.1//EN" "http://www.w3.org/Graphics/SVG/1.1/DTD/svg11.dtd">
<svg version="1.1" id="Layer_1" xmlns="http://www.w3.org/2000/svg" xmlns:xlink="http://www.w3.org/1999/xlink" x="0px" y="0px"
	 width="256px" height="256px" viewBox="0 0 256 256" enable-background="new 0 0 256 256" xml:space="preserve">
<path id="Car" d="M78.114,50.254c-23.591-0.02-19.29,3.276-30.484,29.146c-22.506,55.36-20.475,23.234-19.968,60.575
	c0.796,35.387-12.52,25.825,100.082,27.344c113.47-1.23,99.938,8.175,100.733-28.442c0.145-33.361,1.803-6.581-19.762-57.743
	c-17.224-39.946-2.09-29.085-77.061-30.604C105.331,50.958,88.836,50.263,78.114,50.254z M70.771,62.88
	c0.905-0.016,2.109,0.026,3.792,0.018l107.75-0.018c5.833,0.021,4.989-0.354,7.394,5.215l15.318,35.408L50.46,103.931l15.405-35.613
	C68.022,63.575,68.058,62.929,70.771,62.88z M53.771,116.489c7.774,0,14.067,6.311,14.067,14.084
	c0,7.774-6.293,14.066-14.067,14.066c-7.774,0-14.084-6.292-14.084-14.066C39.687,122.8,45.997,116.489,53.771,116.489z
	 M201.938,116.489c7.773,0,14.066,6.311,14.066,14.084c0,7.774-6.293,14.066-14.066,14.066c-7.774,0-14.085-6.292-14.085-14.066
	C187.854,122.8,194.164,116.489,201.938,116.489z M68.267,171.351l-28.837,0.052c0.257,36.159-2.696,34.271,16.022,34.344
	C71.172,205.513,68.179,207.541,68.267,171.351z M187.871,171.659c0.232,36.312-1.9,33.656,14.993,33.881
	c16.339-0.096,13.703,2.366,13.896-33.881H187.871z"/>
</svg>
