<?xml version="1.0" encoding="utf-8"?>
<!-- Generator: Adobe Illustrator 14.0.0, SVG Export Plug-In . SVG Version: 6.00 Build 43363)  -->
<!DOCTYPE svg PUBLIC "-//W3C//DTD SVG 1.1//EN" "http://www.w3.org/Graphics/SVG/1.1/DTD/svg11.dtd">
<svg version="1.1"
	 id="svg2" xmlns:dc="http://purl.org/dc/elements/1.1/" sodipodi:docname="health_hospital.svg" xmlns:sodipodi="http://sodipodi.sourceforge.net/DTD/sodipodi-0.dtd" xmlns:inkscape="http://www.inkscape.org/namespaces/inkscape" xmlns:cc="http://creativecommons.org/ns#" xmlns:rdf="http://www.w3.org/1999/02/22-rdf-syntax-ns#" inkscape:version="0.47 r22583" xmlns:svg="http://www.w3.org/2000/svg" inkscape:output_extension="org.inkscape.output.svg.inkscape" sodipodi:version="0.32"
	 xmlns="http://www.w3.org/2000/svg" xmlns:xlink="http://www.w3.org/1999/xlink" x="0px" y="0px" width="580px" height="580px"
	 viewBox="0 0 580 580" enable-background="new 0 0 580 580" xml:space="preserve">
<sodipodi:namedview  id="base" inkscape:current-layer="svg2" inkscape:window-y="0" inkscape:window-x="0" inkscape:cy="281.19503" inkscape:cx="300.07316" inkscape:zoom="0.92167712" showgrid="false" inkscape:window-height="997" inkscape:window-width="1280" inkscape:pageshadow="2" inkscape:pageopacity="0.0" objecttolerance="10.0" borderopacity="1.0" guidetolerance="10.0" bordercolor="#666666" gridtolerance="10.0" pagecolor="#ffffff" inkscape:window-maximized="1">
	</sodipodi:namedview>
<defs>
	
	
		<inkscape:perspective  id="perspective2441" sodipodi:type="inkscape:persp3d" inkscape:vp_z="580 : 290 : 1" inkscape:persp3d-origin="290 : 193.33333 : 1" inkscape:vp_x="0 : 290 : 1" inkscape:vp_y="0 : 1000 : 0">
		</inkscape:perspective>
	
		<inkscape:perspective  id="perspective3452" sodipodi:type="inkscape:persp3d" inkscape:vp_z="60 : 30 : 1" inkscape:persp3d-origin="30 : 20 : 1" inkscape:vp_x="0 : 30 : 1" inkscape:vp_y="0 : 1000 : 0">
		</inkscape:perspective>
	
		<inkscape:perspective  id="perspective4471" sodipodi:type="inkscape:persp3d" inkscape:vp_z="744.09448 : 526.18109 : 1" inkscape:persp3d-origin="372.04724 : 350.78739 : 1" inkscape:vp_x="0 : 526.18109 : 1" inkscape:vp_y="0 : 1000 : 0">
		</inkscape:perspective>
	
		<inkscape:perspective  id="perspective4668" sodipodi:type="inkscape:persp3d" inkscape:vp_z="12 : 6 : 1" inkscape:persp3d-origin="6 : 4 : 1" inkscape:vp_x="0 : 6 : 1" inkscape:vp_y="0 : 1000 : 0">
		</inkscape:perspective>
	
		<inkscape:perspective  id="perspective4904" sodipodi:type="inkscape:persp3d" inkscape:vp_z="32 : 16 : 1" inkscape:persp3d-origin="16 : 10.666667 : 1" inkscape:vp_x="0 : 16 : 1" inkscape:vp_y="0 : 1000 : 0">
		</inkscape:perspective>
	
		<inkscape:perspective  id="perspective5233" sodipodi:type="inkscape:persp3d" inkscape:vp_z="32 : 16 : 1" inkscape:persp3d-origin="16 : 10.666667 : 1" inkscape:vp_x="0 : 16 : 1" inkscape:vp_y="0 : 1000 : 0">
		</inkscape:perspective>
	
		<inkscape:perspective  id="perspective5412" sodipodi:type="inkscape:persp3d" inkscape:vp_z="500 : 250 : 1" inkscape:persp3d-origin="250 : 166.66667 : 1" inkscape:vp_x="0 : 250 : 1" inkscape:vp_y="0 : 1000 : 0">
		</inkscape:perspective>
	
		<inkscape:perspective  id="perspective8631" sodipodi:type="inkscape:persp3d" inkscape:vp_z="1 : 0.5 : 1" inkscape:persp3d-origin="0.5 : 0.33333333 : 1" inkscape:vp_x="0 : 0.5 : 1" inkscape:vp_y="0 : 1000 : 0">
		</inkscape:perspective>
</defs>
<g id="path2958" sodipodi:nodetypes="ccccccccccccccccccccccccccccccccc">
	<path d="M81.818,460.623c-1.657,0-3-1.343-3-3V235.527c0,0-29.508,0.263-29.517,0.263c-0.804,0-1.575-0.323-2.14-0.897
		c-0.57-0.581-0.88-1.368-0.859-2.181l0.355-96.706c0.006-1.653,1.348-2.989,3-2.989h32.16c1.657,0,3,1.343,3,3v29.161h26.16
		v-29.161c0-1.657,1.343-3,3-3h32.161c1.657,0,3,1.343,3,3v29.161h26.16v-29.161c0-1.657,1.343-3,3-3h32.161c1.657,0,3,1.343,3,3
		V232.5c0,1.657-1.343,3-3,3h-29.161v58.318h26.161v-29.157c0-1.657,1.343-3,3-3h32.16c1.657,0,3,1.343,3,3v29.157h26.161v-29.157
		c0-1.657,1.343-3,3-3h32.16c1.657,0,3,1.343,3,3v93.479h0.84c1.657,0,3,1.343,3,3v12.161c0,1.657-1.343,3-3,3H245.62v81.321
		c0,1.657-1.343,3-3,3H81.818z"/>
	<path d="M210.46,136.017V232.5h-32.161v64.318h32.161v-32.157h32.16v32.157h32.161v-32.157h32.16v32.157v32.162v32.16h3.84v12.161
		H242.62v84.321H81.818V232.5l-32.517,0.29l0.002-0.075l0.354-96.698h32.16v32.161h32.16v-32.161h32.161v32.161h32.16v-32.161
		H210.46 M210.46,130.017h-32.161c-3.313,0-6,2.686-6,6v26.161h-20.16v-26.161c0-3.314-2.687-6-6-6h-32.161c-3.313,0-6,2.686-6,6
		v26.161h-20.16v-26.161c0-3.314-2.686-6-6-6h-32.16c-3.305,0-5.988,2.673-6,5.978l-0.354,96.631l0,0.008
		c-0.042,1.627,0.578,3.201,1.719,4.362c1.128,1.148,2.67,1.794,4.279,1.794c0.018,0,0.036,0,0.054,0l26.463-0.236v219.069
		c0,3.313,2.686,6,6,6H242.62c3.313,0,6-2.687,6-6v-78.321h62.161c3.313,0,6-2.687,6-6v-12.161c0-2.553-1.594-4.732-3.84-5.6V328.98
		v-32.162v-32.157c0-3.314-2.687-6-6-6h-32.16c-3.314,0-6,2.686-6,6v26.157H248.62v-26.157c0-3.314-2.687-6-6-6h-32.16
		c-3.313,0-6,2.686-6,6v26.157h-20.161V238.5h26.161c3.314,0,6-2.687,6-6v-96.483C216.46,132.703,213.774,130.017,210.46,130.017
		L210.46,130.017z"/>
</g>
<g id="path2958-0" sodipodi:nodetypes="ccccccccccccccccccccccccccccccccc">
	<path d="M339.194,460.623c-1.657,0-3-1.343-3-3v-81.321h-45.114c-1.657,0-3-1.343-3-3v-9.161h-13.118c-1.657,0-3-1.343-3-3v-96.479
		c0-1.657,1.343-3,3-3h32.118c1.657,0,3,1.343,3,3v29.161h26.114v-29.161c0-1.657,1.343-3,3-3h32.116c1.657,0,3,1.343,3,3v29.161
		h26.116V235.5H371.31c-1.657,0-3-1.343-3-3v-96.483c0-1.657,1.343-3,3-3h32.117c1.657,0,3,1.343,3,3v29.161h26.116v-29.161
		c0-1.657,1.343-3,3-3h32.116c1.657,0,3,1.343,3,3v29.161h26.117v-29.161c0-1.657,1.343-3,3-3h32.115c1.652,0,2.994,1.336,3,2.989
		l0.352,96.688c0.006,0.783-0.291,1.569-0.832,2.134c-0.566,0.591-1.349,0.962-2.167,0.962c-0.008,0-29.468-0.263-29.468-0.263
		v222.096c0,1.657-1.343,3-3,3H339.194z"/>
	<path d="M531.892,136.017l0.352,96.698l0.004,0.075l-32.471-0.29v225.123H339.194v-84.321h-48.114v-12.161h-16.118v-32.16v-32.158
		v-32.161h32.118v32.161h32.114v-32.161h32.116v32.161h32.116V232.5H371.31v-96.483h32.117v32.161h32.116v-32.161h32.116v32.161
		h32.117v-32.161H531.892 M531.892,130.017h-32.115c-3.313,0-6,2.686-6,6v26.161h-20.117v-26.161c0-3.314-2.687-6-6-6h-32.116
		c-3.313,0-6,2.686-6,6v26.161h-20.116v-26.161c0-3.314-2.687-6-6-6H371.31c-3.313,0-6,2.686-6,6V232.5c0,3.313,2.687,6,6,6h26.116
		v52.322H377.31v-26.161c0-3.314-2.687-6-6-6h-32.116c-3.313,0-6,2.686-6,6v26.161h-20.114v-26.161c0-3.314-2.687-6-6-6h-32.118
		c-3.313,0-6,2.686-6,6v32.161v32.158v32.16c0,3.313,2.687,6,6,6h10.118v6.161c0,3.313,2.686,6,6,6h42.114v78.321
		c0,3.313,2.687,6,6,6h160.583c3.313,0,6-2.687,6-6V238.554l26.417,0.236c0.018,0,0.036,0,0.054,0c1.635,0,3.199-0.667,4.332-1.848
		c1.126-1.175,1.726-2.757,1.663-4.381l-0.351-96.565C537.88,132.69,535.198,130.017,531.892,130.017L531.892,130.017z"/>
</g>
</svg>
