<?xml version="1.0" encoding="utf-8"?>
<!-- Generator: Adobe Illustrator 14.0.0, SVG Export Plug-In . SVG Version: 6.00 Build 43363)  -->
<!DOCTYPE svg PUBLIC "-//W3C//DTD SVG 1.1//EN" "http://www.w3.org/Graphics/SVG/1.1/DTD/svg11.dtd">
<svg version="1.1" id="Ebene_1" xmlns="http://www.w3.org/2000/svg" xmlns:xlink="http://www.w3.org/1999/xlink" x="0px" y="0px"
	 width="512px" height="512px" viewBox="0 0 512 512" enable-background="new 0 0 512 512" xml:space="preserve">
<g>
	<g>
		<path d="M235.452,112.463l26.213,13.98c14.394-5.688,20.638-24.026,13.944-40.96c-6.692-16.934-23.784-26.05-38.179-20.362
			c-4.68,1.849-8.498,5.036-11.291,9.078c-4.275,6.189-5.704,13.91-3.925,21.22C223.994,102.728,228.814,108.923,235.452,112.463"/>
	</g>
	<g>
		<path d="M242.205,282.339c4.878,6.058,7.35,15.22,9.758,24.147c1.029,3.812,2.135,7.913,3.354,11.281l6.406-10.234
			c4.681,1.572,9.378,3.101,14.09,4.585c-0.569-10.306-1.014-21.362,2.146-30.577C266.106,283.257,254.144,283.523,242.205,282.339"
			/>
	</g>
	<g>
		<path d="M229.675,290.234l-10.619-6.198l-6.188,14.712l-9.481,22.421l-9.501,22.411l-9.538,22.393l-1.233,2.894
			c-1.174,2.771-1.361,5.97-0.292,9.035l7.51,21.499l3.784,10.742l3.919,10.713l1.958,5.355c0.653,1.785,1.291,3.574,1.915,5.366
			c0.627,1.791,1.233,3.587,1.827,5.387c0.595,1.799,1.164,3.604,1.726,5.409c0.548,1.81,1.096,3.618,1.61,5.436
			c0.531,1.812,1.023,3.637,1.518,5.457c0.232,0.918,0.417,1.849,0.544,2.79c-0.636,0.604-1.273,1.209-1.897,1.829
			c-1.657,1.637-3.288,3.307-4.896,5.001c-1.609,1.694-3.196,3.416-4.76,5.164c-0.744,0.84-1.494,1.672-2.242,2.507
			c-0.272-0.052-0.541-0.106-0.814-0.155c-1.276-0.241-2.557-0.474-3.845-0.687c-1.286-0.221-2.582-0.416-3.886-0.594
			c-1.914-0.255-3.921,0.471-5.213,2.089c-1.961,2.457-1.56,6.037,0.896,7.998c1.029,0.821,2.065,1.623,3.112,2.401
			c1.044,0.784,2.095,1.551,3.15,2.307c1.052,0.771,2.119,1.496,3.18,2.244c1.058,0.752,2.136,1.457,3.203,2.188
			c1.895,1.293,4.446,1.463,6.553,0.22l2.676-1.579c2.026-1.197,4.004-2.45,6.007-3.676c1.996-1.231,3.971-2.49,5.921-3.776
			c1.952-1.285,3.884-2.595,5.785-3.938c0.953-0.67,1.893-1.356,2.827-2.049c0.936-0.691,1.858-1.396,2.763-2.124l3.643-2.928
			c0.196-0.159,0.384-0.334,0.562-0.521c2.246-2.372,2.145-6.115-0.228-8.362c-1.646-1.559-2.646-3.265-3.506-5.003
			c-0.824-1.746-1.395-3.551-1.77-5.399c-0.345-1.854-0.691-3.711-1.002-5.574c-0.324-1.859-0.615-3.729-0.906-5.597
			c-0.277-1.871-0.548-3.744-0.794-5.622c-0.244-1.879-0.477-3.76-0.689-5.646c-0.215-1.886-0.417-3.773-0.604-5.665l-0.56-5.676
			l-1.117-11.353l-1.253-11.32l-1.657-14.625l10.389-16.765l12.856-20.669l5.412-8.683c-4.024-5.421-6.174-13.374-8.436-21.763
			C235.944,302.658,233.139,292.256,229.675,290.234"/>
	</g>
	<g>
		<path d="M440.597,374.938c-1.339-2.822-4.714-4.024-7.537-2.687c-1.236,0.587-2.46,1.189-3.671,1.809
			c-1.211,0.618-2.416,1.244-3.607,1.886c-1.202,0.63-2.384,1.281-3.568,1.933l-0.066,0.038c-0.806-0.025-1.61-0.051-2.413-0.058
			l-3.235-0.046c-2.158-0.039-4.311-0.026-6.457,0.008c-2.148,0.035-4.29,0.106-6.427,0.226c-0.751,0.039-1.499,0.091-2.247,0.147
			c-1.05-1.055-2.01-2.177-2.886-3.362c-1.226-1.713-2.455-3.423-3.648-5.159c-1.21-1.727-2.391-3.475-3.569-5.223
			c-1.169-1.756-5.745-8.86-6.859-10.659c-2.234-3.593-11.003-18.099-13.214-21.71c-2.224-3.604-4.489-7.17-6.75-10.744
			l-13.547-21.452c-0.813-1.277-1.969-2.415-3.385-3.206c0,0-8.391-4.598-10.348-5.606c-1.964-0.993-15.82-7.63-17.814-8.535
			c-5.403-2.45-14.445-6.172-20.523-8.696l-0.297-12.547c4.428-2.896,7.771-6.449,9.494-9.756
			c9.143-5.996,21.793-16.478,33.317-33.627c12.043-17.922,20.373-39.482,24.758-64.084c5.4-30.301,4.288-67.821-2.308-106.683
			c0.307-0.99,0.473-2.042,0.473-3.131v-9.7h-9.646v9.7c0,0.532-0.434,0.964-0.966,0.964h-4.614c-0.53,0-0.964-0.432-0.964-0.964
			v-19.4c0-0.531,0.434-0.964,0.964-0.964h4.614c0.532,0,0.966,0.433,0.966,0.964v4.882h9.646V24.61c0-5.85-4.759-10.61-10.61-10.61
			h-4.614c-5.851,0-10.609,4.76-10.609,10.61v19.4c0,2.967,1.229,5.651,3.199,7.578l-1.123,0.28l2.249,19.832l-30.266,48.703
			l-42.352,22.304l-55.323,0.665l-52.339,0.295l-0.161-0.298c-1.069-1.977-2.187-3.925-3.305-5.872
			c-1.128-1.941-2.266-3.875-3.428-5.796l-1.75-2.875c-0.589-0.955-1.17-1.915-1.771-2.862c-1.189-1.903-2.387-3.802-3.607-5.685
			c-1.205-1.894-2.45-3.763-3.682-5.64c-1.233-1.876-2.502-3.73-3.752-5.596l-3.37-4.902c-0.589-1.486-1.207-2.963-1.872-4.423
			c-0.231-0.515-0.454-1.033-0.703-1.542l-0.73-1.533l-0.767-1.521c-0.25-0.509-0.529-1.008-0.794-1.512l-1.354-2.562
			c-1.091-2.042-3.032-3.614-5.468-4.157c-1.484-0.331-2.982-0.621-4.473-0.927c-1.499-0.286-2.997-0.575-4.505-0.835
			c-1.505-0.266-3.017-0.509-4.533-0.736c-0.761-0.11-1.52-0.223-2.284-0.315c-0.767-0.091-1.527-0.197-2.299-0.268L103,99.1
			c0.672,0.387,1.354,0.741,2.032,1.109c0.678,0.367,1.362,0.713,2.046,1.062c1.37,0.691,2.745,1.366,4.127,2.018
			c0.742,0.355,1.488,0.701,2.235,1.043l0.206,1.01c0.108,0.557,0.241,1.105,0.365,1.656c0.491,2.205,1.071,4.381,1.697,6.542
			c0.146,0.493,0.357,1.017,0.616,1.487l0.543,0.989l3.244,5.908c1.105,1.955,2.192,3.921,3.312,5.867
			c1.124,1.944,2.234,3.896,3.383,5.823c1.134,1.938,2.292,3.86,3.457,5.778c0.576,0.963,1.172,1.914,1.761,2.869l1.781,2.857
			c1.194,1.9,2.41,3.787,3.637,5.667c1.237,1.874,2.475,3.747,3.761,5.591l1.928,2.766c0.665,0.908,1.308,1.829,1.992,2.726
			l0.149,0.196c2.146,2.799,5.316,4.82,9.069,5.442l63.427,10.508l7.455,87.238l10.521,1.672
			c15.459,2.455,31.019,2.193,46.329-0.756l0.005-0.266c0.759,0.177,1.588,0.272,2.484,0.272c1.352,0,2.842-0.202,4.414-0.591
			l1.984,84.097c-5.203,1.998-8.908,7.045-8.908,12.943v43.928c0,6.508,4.51,11.98,10.569,13.462l1.796,76.111l9.642-0.229
			l-1.816-77.02c4.468-2.303,7.531-6.962,7.531-12.325v-43.928c0-5.996-3.827-11.114-9.168-13.041l-0.716-30.35
			c1.938,0.533,3.877,1.068,5.822,1.584c2.118,0.558,4.237,1.11,6.369,1.636c2.13,0.524,10.682,2.537,12.832,3.007
			c1.136,0.24,2.271,0.478,3.41,0.708l12.543,13.386c2.89,3.087,5.771,6.182,8.696,9.239c2.938,3.049,14.769,15.188,17.684,18.256
			c1.459,1.532,2.901,3.076,4.336,4.629c1.433,1.552,7.04,7.86,8.404,9.464c1.38,1.596,2.727,3.214,4.073,4.832
			c1.324,1.639,2.489,3.397,3.448,5.316c0.931,1.939,1.747,3.97,2.039,6.405c0.012,0.096,0.027,0.212,0.045,0.308
			c0.566,3.285,3.689,5.489,6.976,4.922l4.188-0.723c1.049-0.184,2.094-0.393,3.136-0.622c1.043-0.229,13.459-3.593,15.514-4.261
			l3.082-0.988c1.028-0.322,2.052-0.684,3.077-1.023l2.871-0.95c0.535-0.18,1.031-0.503,1.425-0.964l1.312-1.539l1.296-1.557
			c0.863-1.04,1.729-2.077,2.573-3.138c0.854-1.05,1.696-2.115,2.531-3.188c0.837-1.07,1.661-2.159,2.472-3.263
			C441.232,379.089,441.519,376.88,440.597,374.938 M283.696,179.139l48.189-33.123l1.592-1.092c1.743-1.207,3.2-2.879,4.161-4.94
			l21.956-47.081c1.197,21.186,0.233,40.824-2.902,58.694c-4.075,23.224-11.805,43.527-22.972,60.346
			c-9.794,14.749-20.582,24.226-28.754,29.955c-0.757-0.175-1.583-0.272-2.479-0.272c-3.897,0-8.953,1.645-13.807,4.782
			c-2.478,1.602-4.618,3.413-6.337,5.274L283.696,179.139z M284.563,260.882c-0.775,0-1.278-0.104-1.551-0.196
			c0.082-1.232,1.694-4.432,5.667-7.725l0.169,7.167C287.383,260.591,285.914,260.882,284.563,260.882 M298.13,406.553
			c0,1.222-0.994,2.215-2.215,2.215c-1.223,0-2.216-0.993-2.216-2.215v-43.928c0-1.222,0.993-2.215,2.216-2.215
			c1.221,0,2.215,0.993,2.215,2.215V406.553z"/>
	</g>
</g>
</svg>
