<?xml version="1.0" encoding="utf-8"?>
<!-- Generator: Adobe Illustrator 14.0.0, SVG Export Plug-In . SVG Version: 6.00 Build 43363)  -->
<!DOCTYPE svg PUBLIC "-//W3C//DTD SVG 1.1//EN" "http://www.w3.org/Graphics/SVG/1.1/DTD/svg11.dtd">
<svg version="1.1" id="Ebene_1" xmlns="http://www.w3.org/2000/svg" xmlns:xlink="http://www.w3.org/1999/xlink" x="0px" y="0px"
	 width="349.51px" height="310.785px" viewBox="0 0 349.51 310.785" enable-background="new 0 0 349.51 310.785"
	 xml:space="preserve">
<rect x="19.438" y="220.392" transform="matrix(-0.7571 0.6533 -0.6533 -0.7571 186.4173 376.1823)" width="7.676" height="4.708"/>
<path d="M329.795,221.556c-0.511-16.582-7.368-32.14-19.242-43.604c-11.872-11.566-27.533-17.913-44.114-17.913
	c-0.615,0-1.332,0-1.945,0c-5.016,0.103-9.827,0.921-14.535,2.15c-1.943-10.134-3.377-21.393-3.685-33.164l5.221,2.968l1.022,0.614
	c0.819,0.409,1.74,0.614,2.661,0.409l10.85-2.354l4.505-0.921c-1.229,3.992-4.913,6.858-9.213,6.858v6.653
	c9.008,0,16.275-7.268,16.275-16.275c0-10.44-8.496-19.038-19.038-19.038h-18.321v0.103l-14.74-8.598l-23.133-48.824
	c-3.786-5.732-9.621-9.724-16.376-11.055c-6.96-1.433-14.228,0.205-20.062,4.401l-47.903,34.699
	c-8.803,6.346-11.464,18.219-6.244,27.738l10.748,20.88l6.755,13.92l11.771,24.36l-4.401,11.771
	c-1.023,2.865-2.149,5.732-3.173,8.496c-1.024,2.865-2.048,5.731-3.071,8.598c-1.023,2.865-2.047,5.731-3.07,8.598
	c-0.512,1.433-1.023,2.865-1.638,4.299c-0.512,1.433-1.126,2.865-1.638,4.196c-0.614,1.433-1.126,2.764-1.74,4.196
	c-0.614,1.434-1.126,2.764-1.74,4.197c-0.614,1.33-1.33,2.661-2.252,3.992c-0.921,1.228-1.842,2.456-3.275,3.479
	c-1.228,0.921-2.149,2.354-2.251,4.095c-0.205,2.252,0.818,4.196,2.559,5.424h30.399c3.378,3.174,7.882,5.221,12.896,5.221
	c10.237,0,18.526-8.291,18.526-18.526c0-2.252-0.409-4.401-1.125-6.448l64.483-72.161c0.717,6.858,1.741,13.307,2.866,19.448
	c-8.803,3.377-16.684,8.699-23.337,15.762c-11.565,12.386-17.708,28.455-17.196,45.446c0.512,16.582,7.37,32.14,19.244,43.604
	c11.872,11.566,27.533,17.912,44.114,17.912c0.614,0,1.331,0,1.945,0C303.286,285.835,330.921,256.459,329.795,221.556
	 M258.453,114.492c4.812,0,9.008,2.764,11.055,6.858l-3.48-0.819l-7.471-1.842l-7.166-4.094h7.062V114.492z M158.657,235.374
	c-3.07,0-5.834-1.125-7.983-3.07l6.653-4.094c0.409,0.102,0.818,0.204,1.33,0.204c2.663,0,4.913-2.149,4.913-4.913
	c0-2.661-2.148-4.913-4.913-4.913c-2.354,0-4.4,1.74-4.811,3.992l-6.653,4.196c-0.307-1.023-0.409-2.149-0.409-3.275
	c0-6.551,5.322-11.976,11.976-11.976c6.55,0,11.976,5.323,11.976,11.976C170.632,230.051,165.208,235.374,158.657,235.374
	 M166.026,137.01l63.666,5.118l-59.674,66.736c-3.174-2.457-7.062-3.89-11.362-3.89c-6.857,0-12.794,3.685-16.069,9.212
	c-0.205,0.307-0.409,0.614-0.614,0.922c-0.818,1.33-1.535,2.559-2.252,3.991c-0.716,1.433-1.33,2.661-1.944,4.095
	c-0.409,1.023-0.922,2.149-1.331,3.173l-0.818-0.205c-1.023-0.307-2.149-0.614-3.173-0.921c-0.513-0.103-0.922-0.205-1.434-0.41
	c0.717-1.33,1.331-2.66,2.047-3.991c0.717-1.331,1.434-2.661,2.149-3.991c0.717-1.331,1.434-2.662,2.252-3.992
	c0.717-1.331,1.536-2.662,2.252-3.89c1.535-2.661,3.071-5.22,4.709-7.779c1.535-2.559,3.173-5.22,4.708-7.778
	c1.535-2.662,3.07-5.221,4.605-7.882l9.111-15.763c1.227-2.047,1.535-4.709,0.818-7.165l-0.512-1.638l-9.315-29.479l-4.605-14.739
	l-4.504-14.535l48.516-26.715l19.858,32.856l0.204,0.409c0.613,1.024,1.534,1.945,2.66,2.559l23.748,13.716
	c0,2.661,0.103,5.22,0.204,7.779l-75.948-6.039L166.026,137.01z M267.974,276.93c-0.513,0-1.127,0-1.638,0
	c-13.921,0-27.125-5.322-37.155-15.046c-10.032-9.724-15.865-22.825-16.274-36.746c-0.409-14.329,4.708-27.841,14.534-38.28
	c5.221-5.527,11.361-9.826,18.22-12.693c1.638,7.063,3.479,13.409,5.22,18.732c6.141,19.14,12.385,30.91,12.59,31.422
	c0.613,1.127,1.74,1.74,2.969,1.74c0.512,0,1.022-0.102,1.535-0.409c1.638-0.818,2.251-2.866,1.329-4.503
	c-0.101-0.104-6.242-11.771-12.18-30.298c-1.74-5.425-3.583-11.771-5.221-18.936c4.096-1.126,8.394-1.843,12.796-1.944
	c0.512,0,1.125,0,1.638,0c13.919,0,27.124,5.322,37.154,15.046s15.866,22.825,16.274,36.745
	C320.788,251.341,297.554,276.009,267.974,276.93"/>
<path d="M214.44,55.74c7.983,5.834,19.858,2.866,26.716-6.448c6.858-9.314,5.937-21.597-2.048-27.432
	c-2.559-1.842-5.63-2.866-8.699-2.968c-4.811-0.205-9.418,1.638-12.693,5.118c-3.275,3.48-5.015,8.086-4.604,12.897L214.44,55.74z"
	/>
<path d="M119.455,260.144c-9.826,10.44-23.029,16.377-37.359,16.786c-0.512,0-1.126,0-1.638,0c-13.921,0-27.124-5.322-37.155-15.046
	c-10.03-9.724-15.865-22.825-16.274-36.746c-0.409-14.329,4.708-27.841,14.534-38.28c9.826-10.441,23.03-16.377,37.36-16.787
	c0.512,0,1.126,0,1.638,0c8.291,0,16.274,1.843,23.542,5.425l-26.511,46.367l5.732,3.275l26.51-46.367
	c2.764,1.843,5.425,3.89,7.882,6.244c2.763,2.661,5.117,5.526,7.164,8.598l0.512-1.535c0.41-1.433,0.922-2.866,1.331-4.401
	l1.331-4.401c0.102-0.512,0.307-0.921,0.409-1.433c-1.229-1.434-2.457-2.764-3.787-4.095c-3.071-2.968-6.347-5.526-9.826-7.778
	l12.59-22.007l-5.732-3.275l-12.59,22.007c-8.803-4.402-18.526-6.756-28.557-6.756c-0.614,0-1.331,0-1.945,0
	c-16.991,0.512-32.651,7.574-44.319,19.959c-11.566,12.385-17.708,28.455-17.196,45.446c0.512,16.581,7.37,32.14,19.243,43.604
	c11.873,11.566,27.533,17.912,44.115,17.912c0.614,0,1.33,0,1.944,0c16.991-0.512,32.651-7.574,44.32-19.959
	c5.63-5.938,9.929-12.795,12.795-20.165h-10.851C126.21,251.649,123.14,256.153,119.455,260.144"/>
<path d="M205.229,203.747c0.717-1.843-0.205-3.891-2.047-4.606c-1.022-0.409-2.149-0.819-3.173-1.126h-0.102l-8.087,9.008h0.512
	c0.513,0,1.126-0.104,1.638-0.104l1.638-0.102c0.512,0,1.126-0.103,1.638-0.103s1.127-0.103,1.638-0.204
	c1.126-0.104,2.253-0.205,3.378-0.41C203.591,205.895,204.718,204.974,205.229,203.747"/>
<path d="M198.372,118.177l-1.434-0.716l-30.605-16.377l-9.826-5.22l6.039,26.51l40.84,2.968
	C202.978,122.373,201.136,119.712,198.372,118.177"/>
<path d="M186.6,182.763c0.409-1.433,0.819-2.968,1.229-4.401s0.921-2.969,1.331-4.401c0.922-2.968,1.843-5.834,2.865-8.803
	c0.922-2.968,1.945-5.834,2.866-8.802l2.765-8.803l0.818-2.661l-19.346-1.433l-1.229,9.212c-0.409,3.071-0.717,6.142-1.126,9.212
	c-0.306,3.071-0.716,6.142-1.125,9.212c-0.204,1.535-0.409,3.07-0.614,4.606c-0.205,1.535-0.41,3.07-0.717,4.606
	c-0.205,1.535-0.512,3.07-0.717,4.503c-0.205,1.536-0.512,3.071-0.818,4.504c-0.307,1.535-0.717,2.968-1.33,4.401
	c-0.615,1.433-1.332,2.865-2.457,4.196c-0.717,0.819-1.125,1.843-1.229,2.968c-0.102,0.819,0,1.639,0.307,2.457L186.6,182.763z"/>
</svg>
