<?xml version="1.0" encoding="utf-8"?>
<!-- Generator: Adobe Illustrator 16.0.0, SVG Export Plug-In . SVG Version: 6.00 Build 0)  -->
<!DOCTYPE svg PUBLIC "-//W3C//DTD SVG 1.1//EN" "http://www.w3.org/Graphics/SVG/1.1/DTD/svg11.dtd">
<svg version="1.1" id="Layer_1" xmlns="http://www.w3.org/2000/svg" xmlns:xlink="http://www.w3.org/1999/xlink" x="0px" y="0px"
	 width="256px" height="256px" viewBox="0 0 256 256" enable-background="new 0 0 256 256" xml:space="preserve">
<g>
	<path stroke="#000000" stroke-width="2" stroke-miterlimit="5" d="M127.602,38.133c-9.869-0.24-18.298-0.159-28.327-5.833
		c5.273,7.99,17.698,10.147,28.446,9.907"/>
	<path stroke="#000000" stroke-width="2" stroke-miterlimit="5" d="M122.008,20.195c-9.308-8.15-23.571-3.915-14.343,12.305
		c5.992-4.874,11.146,0.76,13.144,5.753c-3.756,1.958-9.268,2.957-14.662,2.557c6.991,4.914,15.342,3.795,22.533-0.12"/>
	<polygon points="92.044,164.825 92.044,94.704 81.058,94.704 81.058,174.043 	"/>
	<polygon points="106.228,152.925 106.228,94.704 95.24,94.704 95.24,162.145 	"/>
	<polygon points="77.862,176.727 77.862,90.708 66.875,90.708 66.875,185.943 	"/>
	<polygon points="49.497,200.526 49.497,52.754 38.51,52.754 38.51,209.746 	"/>
	<polygon points="63.679,188.625 63.679,78.723 52.693,78.723 52.693,197.845 	"/>
	<path stroke="#000000" stroke-width="2" stroke-miterlimit="5" d="M100.555,172.927l-19.657,24.492l-15.101-6.794l-4.914,4.517
		l-0.521,8.868l5.354-5.433l0.399-7.671l-0.399,7.671l13.144,2.156L59.685,212l3.955,11.587l1.398-9.75l-4.994-2.195l8.709,3.834
		l12.225-11.665l-0.521,23.29l8.031,3.598l-3.436-7.552l-4.315-0.278l7.831,0.478l-4.156-20.374l14.503,7.47l4.834-5.313
		l-4.834,5.233l0.399,7.071l5.514-6.511l-0.32-5.913l-18.978-5.313l23.372-21.654"/>
	<path d="M135.99,83.318c-85.814,0-85.534-32.561-76.586-44.187c8.071,11.746,24.929,6.313,27.446-4.754
		C70.91,9.808,49.297,32.1,38.311,24.989c0.999,3.875,3.715,7.87,7.59,9.388c-3.476,3.516-7.391,8.071-7.391,18.377
		c0,33.839,34.997,46.543,69.036,50.099c1.078,12.625,3.395,29.605,7.63,45.805L86.171,180.3l16.061-3.178l-0.479,21.253
		l13.463-20.194c0,48.163-13.263,52.358-24.249,48.441c1.277,8.988,17.777,12.743,25.649,6.352L128,245.6"/>
	<polygon points="217.49,209.746 217.49,52.754 206.506,52.754 206.506,200.529 	"/>
	<polygon points="189.125,185.943 189.125,90.708 178.139,90.708 178.139,176.727 	"/>
	<polygon points="203.309,197.845 203.309,78.723 192.32,78.723 192.32,188.625 	"/>
	<polygon points="160.762,162.145 160.762,94.704 149.773,94.704 149.773,152.925 	"/>
	<polygon points="174.941,174.043 174.941,94.704 163.957,94.704 163.957,164.825 	"/>
	<path stroke="#000000" stroke-width="2" stroke-miterlimit="5" d="M155.447,172.927l19.654,24.492l15.104-6.794l4.912,4.517
		l0.52,8.868l-5.352-5.433l-0.402-7.671l0.402,7.671l-13.145,2.156L196.316,212l-3.955,11.587l-1.396-9.75l4.992-2.195l-8.711,3.834
		l-12.225-11.665l0.521,23.29l-8.031,3.598l3.436-7.552l4.316-0.278l-7.832,0.478l4.154-20.374l-14.502,7.47l-4.834-5.313
		l4.834,5.233l-0.398,7.071l-5.514-6.511l0.32-5.913l18.977-5.313l-23.371-21.654"/>
	<path d="M120.01,83.318c85.816,0,85.535-32.561,76.585-44.187c-8.068,11.746-24.928,6.313-27.445-4.754
		c15.939-24.569,37.555-2.277,48.539-9.388c-0.998,3.875-3.715,7.87-7.588,9.388c3.473,3.516,7.389,8.071,7.389,18.377
		c0,33.839-34.996,46.543-69.035,50.099c-1.078,12.625-3.395,29.605-7.631,45.805l29.004,31.642l-16.059-3.178l0.479,21.253
		l-13.463-20.194c0,48.163,13.264,52.358,24.25,48.441c-1.279,8.988-17.779,12.743-25.65,6.352L128,245.6"/>
	<path d="M106.827,88.552c0-28.846,15.66-27.687,14.143-44.746c0-2.078,5.354-1.398,5.033-3.675
		c-0.958-6.233-11.666-20.375-6.231-24.451c5.433-4.075,19.895,12.146,31.522,6.993c-2.359,3.516-4.955,5.113-9.309,6.392
		c11.824,33.479,10.188,63.123,6.51,72.312"/>
	<path fill="#FFFFFF" d="M121.081,19.504c-0.348-0.184-0.727-0.005-0.647,0.659c0.272,2.229,1.199,3.863,2.146,5.525
		c0.347,0.607,0.786,0.987,1.601,0.392c1.104-0.807,2.114-1.761,2.904-2.877c-2.229-1.709-2.469-1.81-4.138,2.202
		c-0.196-1.627-0.12-3.356,0.231-4.774"/>
</g>
</svg>
