<?xml version="1.0" encoding="utf-8"?>
<!-- Generator: Adobe Illustrator 16.0.0, SVG Export Plug-In . SVG Version: 6.00 Build 0)  -->
<!DOCTYPE svg PUBLIC "-//W3C//DTD SVG 1.1//EN" "http://www.w3.org/Graphics/SVG/1.1/DTD/svg11.dtd">
<svg version="1.1" id="Layer_1" xmlns="http://www.w3.org/2000/svg" xmlns:xlink="http://www.w3.org/1999/xlink" x="0px" y="0px"
	 width="256px" height="256px" viewBox="0 0 256 256" enable-background="new 0 0 256 256" xml:space="preserve">
<g>
	<path d="M212.087,41.466l10.588,21.607l-14.799,8.025L197.401,48.98L212.087,41.466z"/>
	<path d="M191.026,74.252h8.88l7.514-4.269l-4.44-9.403l7.855-5.396l-1.025-2.562l-9.903,5.692"/>
	<path d="M45.312,52.736l-8.994-8.515l-2.982,6.262l11.976,5.555 M57.379,64.007l-9.54-18.784l-1.389,7.513l10.929,21.516
		 M48.727,55.014h-4.553c-1.867,3.29-4.041,6.5-5.009,9.107l9.563,1.138"/>
	<g>
		<path d="M117.372,21.465c0.008,0,0.017,0,0.025,0c-0.009-0.004-0.016-0.008-0.025-0.012V21.465z"/>
		<path d="M157.102,68.811c-8.311-1.479-14.058-7.741-14.627-8.994c-4.327-8.765,15.796-6.591,24.447-6.591
			c-1.139-6.488-2.178-8.196-4.568-13.092c-4.783-8.196-9-11.839-16.742-15.254c-6.823-2.615-21.372-3.413-28.211-3.415
			c6.466,3.065,7.377,4.307,9.877,7.605c1.48,2.959,1.366,5.692,1.366,17.531c0,7.627-0.684,14.924-0.57,15.266l-7.742,2.163
			c-0.684-0.228-2.049-3.745-3.301-5.225c-6.831,7.741-17.269,9.881-26.468,10.564c-5.191,0.684-20.172-2.39-26.183-5.009
			c0,0-0.307,98.574-0.318,143.895c8.31,0,14.401-2.619,19.284-10.361c1.218-1.479,2.664-4.324,2.664-17.416
			c0-13.662,0.103-65.345,0.103-65.345c0-3.188,2.248-7.399,5.664-10.587c2.629-2.504,4.225-3.529,8.225-4.44v107.237l55,0.227
			V98.512c2,0.91,6.402,3.643,8.11,6.147c1.708,2.391,3.654,5.009,5.136,10.359c1.48,6.831,0.746,64.091,0.746,65.345
			c0,9.107-0.709,16.164,3.161,21.742c3.416,4.668,12.847,7.059,17.847,7.514V65.839C179,69.392,166.777,70.746,157.102,68.811z
			 M150.312,79.37C146.205,83.625,139,87.171,129,87.476V128h23v5h-23v72h-5v-72h-22v-5h22V87.475
			c-8-0.285-13.744-2.846-18.297-5.977c-3.842-2.419-6.947-5.408-8.085-9.534l3.94-1.844c1.138,3.558,3.28,5.549,6.552,7.684
			c4.269,2.846,11.103,5.408,18.787,5.408c9.246,0,17.22-3.416,21.062-7.4c1.992-1.85,3.273-3.13,3.985-5.692l3.88,1.565
			C154.971,74.958,152.729,77.093,150.312,79.37z"/>
	</g>
	<path stroke="#000000" d="M107.821,211.543c-1.468,0.455-2.174,4.896-3.881,7.059c-2.209,2.846-12.136,8.879-12.136,20.832
		c6.591-4.211,9.426-6.262,16.256-11.156c5.556-3.869,7.969-4.439,8.47-5.123v-11.611H107.821z M135.928,211.543
		c0.115,7.398,0,10.357,0.685,11.611c1.252,1.709,3.868,1.936,9.79,6.375c5.462,4.324,8.425,6.719,14,9.904
		c-1.022-13.318-4.097-12.41-8.99-17.986c-2.62-2.393-6.262-9.676-6.49-9.904H135.928z"/>
	<g>
		<path d="M116.894,24.3c-2.003-1.002-4.394-1.89-6.409-1.708v0c-0.285,0.023-0.581,0.069-0.854,0.137
			c-8.39,3.7-4.144,11.817-6.694,24.476l2.709,0.569c0,2.698,0.433,4.406,0.82,7.684c7.547,0.706,11.816-0.285,12.386,0
			c1.935,1.708,4.895,7.833,4.895,7.833l0.569-0.284c0,0,1.024-27.755,0.228-30.031C123.861,29.423,119.877,26.143,116.894,24.3z
			 M114.617,27.009c2.641,2.003,2.414,2.709,2.277,5.26C113.912,30.561,113.912,29.718,114.617,27.009z M111.338,26.724
			c3.131,2.265,2.562,2.699,2.277,5.271C110.77,30.708,110.633,29.423,111.338,26.724z M107.867,26.872
			c3.563,1.56,2.994,3.12,2.128,5.408C108.151,30.287,107.445,30.002,107.867,26.872z M110,38.814v-0.296
			c0-1.559,0.59-2.414,2.023-3.118c2.551-0.569,4.612,0.854,5.75,2.994C114.063,40.807,114,40.807,110,38.814z M120.218,32.131
			c-3.187-1.423-3.586-2.414-2.732-5.123C119.763,29.286,120.332,29.57,120.218,32.131z"/>
		<path d="M62.639,63.574c-4.133-2.561-1.856-6.83-2.425-8.253c0-0.285-8.948-7.696-12.374-10.11
			c-2.846,3.984,3.267,6.694,4.405,8.687c1.993,2.982-0.136,7.684,4.987,10.814l-0.149,2.277c-7.684-2.141-5.123-9.404-6.545-12.102
			c-1.423-1.708-2.562-2.277-4.554-3.7c-3.723-2.561-6.113-4.827-9.677-6.967l-1.274,2.277c4.554,3.551,7.536,4.689,9.244,6.261
			l-0.569,1.423c-2.413-1.139-8.105-4.85-9.392-5.556l-0.99,1.856c4.417,3.119,8.692,5.271,9.545,5.977
			c2.425,1.286,4.13,1.275,6.13,2.561v1.844c-4-0.706-5.561-2.709-6.983-1.844l-1.08,1.423c2.425,0,6.087,2.414,6.087,2.414
			l-0.589,1.708c-2.846-0.99-3.118-1.855-6.373-2.562l-1.143,2.562L65.1,78.658l-0.081-13.98
			C64.176,64.416,63.355,63.961,62.639,63.574z"/>
		<path d="M207.635,53.784c0.913-0.569,1.822-1.013,2.164-1.241c-0.796-1.218-1.251-2.208-2.164-2.242
			c-0.227-0.012-0.683,0.091-1.138,0.318l-6.943,3.495c-2.847,1.708-4.781,2.732-4.781,2.732c-2.732,1.479,2.292,6.25-1.464,7.65
			c-1.707,0.661-3.309,1.366-4.309,1.673v15.027l16.375-10.006l-2.684-5.454c-1.252,3.871-3.332,5.123-6.978,5.807l-0.584-2.277
			c2.96-0.911,4.888-1.582,5.684-4.77c0.455-2.39-1.143-3.529-0.118-5.692C200.81,58.235,204.902,55.492,207.635,53.784z"/>
	</g>
</g>
</svg>
