<?xml version="1.0" encoding="utf-8"?>
<!-- Generator: Adobe Illustrator 14.0.0, SVG Export Plug-In . SVG Version: 6.00 Build 43363)  -->
<!DOCTYPE svg PUBLIC "-//W3C//DTD SVG 1.1//EN" "http://www.w3.org/Graphics/SVG/1.1/DTD/svg11.dtd">
<svg version="1.1" id="Ebene_1" xmlns="http://www.w3.org/2000/svg" xmlns:xlink="http://www.w3.org/1999/xlink" x="0px" y="0px"
	 width="950.001px" height="800.007px" viewBox="0 0 950.001 800.007" enable-background="new 0 0 950.001 800.007"
	 xml:space="preserve">
<g>
	<path d="M450.001,0c-50,0-100,25-100,100c0,26.834,2.185,31.41,7.812,54.69l34.375,142.184L206.25,410.939L37.5,312.498
		c-5.616-3.299-12.938-3.4-21.875-1.549C6.689,312.798-0.018,323.382,0,334.382c0.019,11,4.816,17.371,12.5,21.875l725,425
		c22.778,13.15,43.33,18.445,62.5,18.75c13.411,0,26.59-1.75,37.5-6.25c26.508-10.895,43.093-30.59,54.688-42.186
		c5.812-5.814,7.812-12.904,7.812-20.314c0-10.576-6.438-21.811-20.312-23.436c-8.95-1.043-16.224,2.197-21.875,9.375
		c-11.734,14.879-26.388,26.039-39.062,31.25c-12.674,5.209-26.69,6.125-56.25-10.941L298.438,465.632l179.688-104.686
		c16.637-11.4,25.1-33.541,20.312-53.125l-20.312-82.816l178.78,105.242l33.72,128.535c3.854,14.389,14.495,26.801,28.126,32.811
		l114.062,50c80.304,35.201,91.744-41.293,40.625-63.449l-93.75-40.625l-79.688-312.474l-153.125-87.5
		c-39.312-22.694-71.875-37.5-96.875-37.5V0L450.001,0z M850.001,100c-55.229,0-100,44.77-100,100c0,55.229,44.772,100,100,100
		c55.229,0,100-44.771,100-100C950.001,144.77,905.228,100,850.001,100z"/>
</g>
</svg>
