<?xml version="1.0" encoding="utf-8"?>
<!-- Generator: Adobe Illustrator 14.0.0, SVG Export Plug-In . SVG Version: 6.00 Build 43363)  -->
<!DOCTYPE svg PUBLIC "-//W3C//DTD SVG 1.1//EN" "http://www.w3.org/Graphics/SVG/1.1/DTD/svg11.dtd">
<svg version="1.1" id="Ebene_1" xmlns="http://www.w3.org/2000/svg" xmlns:xlink="http://www.w3.org/1999/xlink" x="0px" y="0px"
	 width="484.72px" height="416.69px" viewBox="0 0 484.72 416.69" enable-background="new 0 0 484.72 416.69" xml:space="preserve">
<g>
	<g>
		<path fill-rule="evenodd" clip-rule="evenodd" d="M319.457,289.667c1.726,22.604,12.759,35.901,27.996,44.994
			c4.147-1.716,4.286-3.563,9.999-2c3.616,4.508,7.392,15.668,3,21.997c-51.973,0.01-98.842,6.541-152.981,3
			c-3.739-8.253-1.16-17.267,8.999-16.998c1.419-2.247,1.477-5.855,5-5.999c-1.053-18.332-1.26-43.438-2-67.991
			c-0.431-14.289-1.481-34.939-1-45.994c0.473-10.861-1.44-8.775-7.999-15.999c-4.827-5.315-8.794-14.904-14.998-15.998
			c-9.702-1.711-16.508,6.942-25.997,9.999c-31.21,0.931-56.576-17.028-54.993-46.994c1.016-19.214,22.818-37.47,45.995-30.996
			c3.52,6.582,9.284,17.8,4,26.997c10.226,7.574,17.127-9.523,29.996-9.999c8.382-0.31,15.455,5.376,23.997,4
			c0.507-9.788-5.574-25.56,0-39.995c8.517-1.837,12.062,26.943,5.999,32.996c7.742,30.99,3.602,61.521,3,100.988
			c17.667-9.182,43.422-3.199,58.992-10.999c2.323-9.186-9.487-8.907-5-16.998c-4.209-2.456-8.628-4.704-10.997-8.999
			c11.939-16.651,46.019-7.246,52.992,6.999c-2.213,4.452-7.245,6.087-13.998,6c-1.318,4.29-8.442,7.176-5,12.998
			c9.053-0.181,32.561,13.232,33.996,21.997c0.644,3.928-1.785,7.654-2,11.999c-0.114,2.352-1.985,1.419-1.998,1
			c0.108,3.34,2.328,5.461,1.998,6.999c-1.001,4.681-7.039,8.494-3.998,14.998c8.342,6.322,23.101,6.229,24.996,18.997
			c-0.973,0.028-0.775,1.225-1,2C342.362,303.921,331.253,293.991,319.457,289.667z M145.479,143.685
			c4.601-2.93,4.472,2.161,7.999,3c0.83-7.496-4.354-8.978-10.999-8.999C142.435,140.729,144.59,141.573,145.479,143.685z
			 M138.479,163.682c5.372-5.09,2.043-8.087-1-13.999c-1.333,0-2.667,0-4,0C131.983,154.408,134.609,161.251,138.479,163.682z
			 M149.478,160.683c-1.614,2.385-1.593,6.405-3,8.999c8.088,2.286,14.686-4.305,16.998-10.999
			C158.267,154.338,156.418,161.232,149.478,160.683z M229.468,335.661c28.814,3.15,36.526-14.801,39.996-36.995
			c-12.994-7.941,4.426-22.607,5.998-31.996c-10.949-0.716-13.188-10.144-23.997-10.999c-1.388-1.278-0.61-4.721-2-5.999
			c-6.66,2.379-9.861-2.904-14.997,1c-3.371-1.296-3.866-5.467-6.999-6.999C227.162,274.417,229.458,308.294,229.468,335.661z
			 M267.464,253.67c4.868,0.464,6.285,4.38,10.998,5c0.708-3.708-1.707-4.291-1-7.999
			C273.169,250.71,270.101,251.975,267.464,253.67z M318.457,275.668c0.929-8.596-4.854-18.231-9.999-23.997
			C305.92,262.167,312.111,270.899,318.457,275.668z M298.46,286.667c-3.291,0.042-4.979,1.688-9,1
			c-6.411,15.253-11.903,31.424-16.996,47.994c19.453-1.171,34.56,2.702,47.992-2C315.757,315.364,303.836,304.287,298.46,286.667z"
			/>
	</g>
</g>
</svg>
