<?xml version="1.0" encoding="iso-8859-1"?>
<!-- Generator: Adobe Illustrator 14.0.0, SVG Export Plug-In . SVG Version: 6.00 Build 43363)  -->
<!DOCTYPE svg PUBLIC "-//W3C//DTD SVG 1.1//EN" "http://www.w3.org/Graphics/SVG/1.1/DTD/svg11.dtd">
<svg version="1.1" id="Layer_1" xmlns="http://www.w3.org/2000/svg" xmlns:xlink="http://www.w3.org/1999/xlink" x="0px" y="0px"
	 width="256px" height="256px" viewBox="0 0 256 256" style="enable-background:new 0 0 256 256;" xml:space="preserve">
<g>
	<path d="M128,15.988C65.033,15.988,13.988,67.032,13.988,130c0,62.967,51.046,114.012,114.013,114.012
		c62.968,0,114.012-51.045,114.012-114.012C242.012,67.032,190.968,15.988,128,15.988z M211.05,110.11
		c-0.638,1.889-1.52,3.706-2.339,5.251c-3.337,6.295-8.422,10.665-14.913,13.568c-7.438,3.326-15.382,6.07-23.287,8.14
		c-3.511,0.92-15.962,2.274-15.331,7.923c0.267,2.383,2.498,3.9,4.347,4.97c5.78,3.344,11.709,6.138,17.187,9.98
		c2.331,1.635,4.886,2.525,6.846,4.656c3.165,3.442,5.621,8.08,5.737,12.795c0.113,4.566,0.774,9.666-0.27,14.165
		c-1.293,5.57-7.011,11.365-12.214,13.407c-0.042-0.003-0.227-0.273-0.33-0.311c-1.762,1.03-5.344-0.905-6.804-2.292
		c-2.571,1.496-5.852,1.089-8.668,0.705c0.134,0.005,0.267,0.012,0.399,0.021c-4.042-0.797-6.095-2.417-8.939-5.089
		c-2.094-1.965-2.776-3.864-5.285-2.592c-1.28,0.649-2.207,2.022-3.447,2.746c-2.329,1.359-5.287,2.071-7.788,3.083
		c-1.14,0.462-2.909,0.769-3.73,1.719c-1.583,1.834-0.97,5.689-1.496,7.896c-0.615,2.581-2.441,4.755-5.44,4.061
		c-2.142-0.496-2.847-2.52-4.019-4.221c-1.78,2.668-6.17,6.282-8.396,1.859c-1.801-3.583-0.74-7.966,0.216-11.642
		c0.438-1.684,3.519-8.034,0.767-8.604c-3.057-0.633-8.98,2.991-11.89,4.058c-4.734,1.736-9.017,4.117-11.917,8.379
		c-0.755,1.109-1.479,2.26-2.184,3.424c-1.406,2.324-2.75,4.711-4.032,7.113l-1.222-0.584c1.097-2.533,2.255-5.027,3.5-7.504
		c0.623-1.234,1.271-2.463,1.962-3.679c3.687-6.479,10.398-9.538,17.005-12.284c3.453-1.438,8.646-4.829,12.289-2.582
		c3.975,2.451,2.156,7.704,1.551,11.396c-0.207,1.265-0.495,2.593-0.37,3.838c1.778-1.028,3.453-1.835,5.495-0.845
		c0.97-8.979,12.017-9.826,17.673-14.902c3.36-3.017,8.542-3.94,12.571-1.452c2.334,1.44,4.062,3.817,6.376,5.288
		c4.434,2.82,9.261-2.942,14.418,0.55c0.805-1.153,1.671-2.27,2.518-3.395c-0.021-0.002-0.129,0.169-0.146,0.191
		c0.12-0.094,0.207-0.303,0.286-0.432c-0.038,0.029-0.07,0.063-0.095,0.104c0.062-0.113,0.218-0.096,0.314-0.135
		c-0.684-5.799-0.431-11.796-5.39-15.793c-5.709-4.602-13.469-7.349-20.101-10.353c-8.913-4.038-13.191-12.412-12.026-22.237
		c1.269-10.697,10.554-13.437,19.56-16.019c10.371-2.974,20.513-5.715,30.618-9.61c-4.471,0.396-8.657-2.205-10.288-6.36
		c-5.694,4.381-12.249,4.526-16.467-1.881c-10.608,5.302-16.511-8.544-17.507-16.62c-0.562-4.559,1.029-9.661,2.808-13.832
		c1.68-3.941,3.785-7.492,6.145-11.071c-5.263,2.71-15.889,8.613-20.99,2.944c-1.964-2.184-2.93-4.972-3.733-7.736
		c-0.45-1.55-0.759-3.092-1.049-4.682c-0.41-2.237-1.181-4.489-1.676-6.686c-1.2,1.291-2.148,3.021-3.139,4.504
		c-4.332,6.486-9.26,8.026-14.302,1.02c-0.612,1.649-4.781,15.2-8.259,11.566c-1.589,0.399-3.093-0.182-4.244-1.304
		c0.183,1.99-0.382,7.499,1.074,8.813c-0.09,0.281-0.265,0.122,0,0.58c-1.812,2.775-1.769,5.53-5.086,7.43
		c5.607,5.071,10.793,10.787,16.127,16.145c2.494,2.504,5.219,5.403,6.923,8.513c1.831,3.34,3.153,7.092,4.493,10.645
		c1.404,3.724,4.002,9.245,3.108,13.348c-1.8,8.256-14.246-9.785-16.066-12.321c0.004-0.023-0.191,0.065-0.201,0.058
		c0.845,3.622,1.948,9.555-2.792,10.451c-6.339,1.199-11.559-5.282-17.449-6.49c-4.841-0.994-10.191,0.795-15.137-0.232
		c-3.311-0.688-6.536-2.262-9.669-3.498c-3.782-1.492-13.204-6.534-16.928-4.159c-2.229-1.1-5.754-0.997-8.27-0.991
		c-0.062-0.315-0.08-0.802-0.03-1.119c6.29,0.09,12.274,0.042,18.406,1.8c8.039,2.304,15.075,6.304,23.643,5.782
		c3.44-0.209,6.93-0.355,10.294,0.53c2.314,0.608,12.77,7.363,14.761,4.625c1.608-2.21-2.15-6.832,1.022-9.515
		c4.725-3.997,10.713,8.294,13.664,10.772c-2.914-7.868-5.102-15.938-11.007-22.105c-3.588-3.747-7.463-7.257-11.269-10.778
		c-2.961-2.74-11.191-8.344-10.358-12.719c0.612-3.215,4.718-3.941,5.419-6.89c0.488-2.057-0.902-5.29-0.995-7.49
		c-0.128-3.057-1.392-7.27,1.369-9.492c2.349-1.891,7.945-1.678,8.62,1.893c1.014-3.567,2.165-9.33,5.163-11.63
		c4.189-3.215,8.021,0.913,10.379,4.291c2.021-3.651,4.361-8.111,7.113-11.244c1.842-2.097,5.215-4.651,8.048-3.018
		c3.938,2.271,4.381,10.303,5.098,14.197c0.644,3.495,1.11,7.114,2.861,10.265c4.595-1.615,9.174-3.301,13.394-5.766
		c3.159-1.845,5.902-4.432,9.124-6.146c4.618-2.458,10.832-0.151,10.933,5.695c0.066,3.859-3.232,6.539-5.312,9.418
		c-2.842,3.936-5.748,8.005-7.909,12.36c-1.898,3.826-2.905,7.784-3.43,12.003c0.039,0.009,0.077,0.005,0.115-0.012
		c0.045-0.013,0.055-0.036,0.028-0.069c0.251,1.6,0.818,4.746,1.933,6.357c4.246-6.154,13.767-6.295,15.121,2.38
		c3.709-3.33,7.625-7.691,12.75-5.673c4.731,1.792,4.381,5.368,5.348,8.917c4.916-2.175,11.188-5.231,16.219-1.855
		C212.672,101.521,212.443,105.989,211.05,110.11z"/>
</g>
</svg>
