<?xml version="1.0" encoding="iso-8859-1"?>
<!-- Generator: Adobe Illustrator 14.0.0, SVG Export Plug-In . SVG Version: 6.00 Build 43363)  -->
<!DOCTYPE svg PUBLIC "-//W3C//DTD SVG 1.1//EN" "http://www.w3.org/Graphics/SVG/1.1/DTD/svg11.dtd">
<svg version="1.1" id="Layer_1" xmlns="http://www.w3.org/2000/svg" xmlns:xlink="http://www.w3.org/1999/xlink" x="0px" y="0px"
	 width="256px" height="256px" viewBox="0 0 256 256" style="enable-background:new 0 0 256 256;" xml:space="preserve">
<g id="Layer_10" style="display:none;">
	
		<circle style="display:inline;fill:none;stroke:#010101;stroke-width:4;stroke-miterlimit:10;" cx="128.157" cy="128.157" r="125.831"/>
</g>
<g id="Layer_1_1_" style="display:none;">
	<g style="display:inline;">
		<path d="M126.208,61.689c7.293,0.692,13.834-5.722,14.65-14.337c0.815-8.552-4.466-16.098-11.761-16.79
			c-2.391-0.251-4.655,0.314-6.728,1.446c-3.146,1.698-5.408,4.653-6.228,8.112c-0.815,3.458-0.126,7.105,1.949,10.061
			L126.208,61.689z"/>
		<path d="M108.097,135.389l-0.125,9.621l-0.188,10.629l-0.188,8.678l-5.345,7.168l-3.647,4.973l-3.646,5.025L93.132,184
			c-0.629,0.816-1.195,1.697-1.824,2.518c-0.628,0.815-1.257,1.635-1.886,2.45c-0.629,0.817-1.258,1.636-1.887,2.452
			s-1.26,1.637-1.949,2.391c-0.629,0.816-1.321,1.571-1.95,2.394c-0.691,0.755-1.446,1.51-2.264,2.139
			c-0.44,0.313-0.88,0.632-1.32,0.884c-0.503,0.25-0.943,0.502-1.572,0.688c-0.438,0.125-0.88,0.377-1.258,0.688
			c-1.446,1.258-1.635,3.521-0.377,4.967l1.446,1.699c0.312,0.377,0.629,0.754,1.006,1.066c0.312,0.377,0.69,0.689,1.006,1.068
			c0.691,0.688,1.383,1.385,2.138,2.074c0.691,0.688,1.446,1.317,2.201,2.014c0.754,0.629,1.509,1.318,2.264,1.947l1.195,1.009
			c0.314,0.251,0.629,0.377,1.069,0.438c0.628,0,1.195,0.062,1.823,0.062c0.629,0,1.193,0.062,1.822,0.062s1.26,0,1.824,0.063
			c0.629,0,1.258,0,1.887,0c0.943,0,1.823-0.503,2.266-1.384c0.754-1.319,0.251-2.955-1.006-3.646
			c-0.566-0.312-1.069-0.629-1.637-0.881c-0.564-0.312-1.067-0.564-1.635-0.816c-0.438-0.25-0.88-0.438-1.383-0.688
			c-0.377-0.691-0.817-1.386-1.195-2.074c-0.503-0.881-1.006-1.696-1.509-2.519c-0.377-0.629-0.817-1.317-1.257-1.946
			c0.251-0.378,0.564-0.692,0.88-1.009c0.691-0.756,1.446-1.444,2.138-2.198c0.692-0.756,1.446-1.447,2.201-2.201
			c0.754-0.688,1.509-1.444,2.264-2.142c0.757-0.688,1.511-1.383,2.266-2.071c0.755-0.69,1.509-1.388,2.327-2.076l2.325-2.071
			l4.653-4.091l4.59-4.147l9.183-8.361c0.941-0.816,1.57-1.949,1.822-3.271l0.251-1.442l0.125-0.565
			c-0.689-1.132-1.383-2.265-2.138-3.521C117.718,156.832,112.185,147.84,108.097,135.389z"/>
		<path d="M164.505,218.459c-0.754-0.314-1.572-0.566-2.393-0.881c-0.378-0.126-0.815-0.252-1.191-0.377
			c-0.378-0.127-0.819-0.252-1.195-0.378l-1.19-0.378c-0.382-0.125-0.816-0.252-1.193-0.377c-0.815-0.252-1.569-0.502-2.396-0.691
			c-0.812-0.252-1.568-0.439-2.389-0.691c-0.817-0.188-1.573-0.438-2.391-0.629c-0.503-0.125-0.944-0.252-1.445-0.312
			c-0.062-0.565-0.128-1.069-0.188-1.638c-0.064-1.066-0.064-2.141-0.125-3.146c0-1.065-0.064-2.139-0.064-3.207
			c0-1.065,0-2.139,0-3.207c0-1.065,0.064-2.139,0.064-3.207c0.062-2.139,0.125-4.272,0.188-6.352l0.126-3.207l0.125-3.207
			c0.064-2.142,0.125-4.275,0.125-6.354l0.253-12.703v-0.062l-0.754-2.771c-0.254-0.938-0.504-1.886-0.818-2.828
			c-0.312-0.94-0.562-1.887-0.879-2.769c-0.629-1.823-1.258-3.711-1.887-5.532c-1.32-3.646-2.705-7.229-4.216-10.813
			c-0.376-0.884-0.754-1.765-1.132-2.704c-0.377-0.88-0.753-1.764-1.131-2.645c-0.759-1.761-1.572-3.521-2.328-5.278
			c-0.376-0.884-0.814-1.765-1.193-2.646c-0.378-0.88-0.815-1.762-1.194-2.642c-0.755-1.572-1.509-3.144-2.263-4.653l-0.062-0.251
			l-1.135-4.339l6.413-39.806c0.439-2.641-0.312-5.345-2.074-7.42c-1.696-2.075-4.274-3.27-6.979-3.333l-7.986-0.126
			c-0.941,0-1.822,0.063-2.767,0.251l-10.565-1.886c-0.941-0.188-1.947-0.251-2.893-0.251c-6.729,0-12.765,4.024-15.344,10.187
			L74.708,106.77c-1.446,3.458-1.132,7.42,0.941,10.564c2.014,3.144,5.473,5.093,9.244,5.219l4.779,0.126l0.062-6.037l-4.716-0.126
			c-1.761-0.063-3.396-0.943-4.339-2.452c-0.942-1.446-1.132-3.333-0.438-4.968l13.332-31.568c1.635-3.961,5.532-6.477,9.81-6.477
			c0.629,0,1.258,0.063,1.824,0.188l3.836,0.692c-0.377,0.503-0.754,1.006-1.069,1.509l0.943-1.32l-14.84,24.839l-0.943,1.572v1.509
			l-0.691,33.267l-0.062,3.711l2.327,0.881l6.414,2.519l4.59-6.103l-1.886-2.517l0.629-29.808l16.727-21.758l-12.766,21.632
			c1.132,29.995,11.634,47.227,18.737,58.796c1.636,2.642,3.083,5.029,4.214,7.23c0.252,0.438,0.504,0.813,0.814,1.258
			c0.438,0.629,0.817,1.259,1.257,1.888l1.64,10.25c0.312,2.073,0.688,4.214,1.005,6.288l0.562,3.146l0.566,3.146
			c0.376,2.071,0.754,4.213,1.13,6.288c0.19,1.065,0.315,2.072,0.505,3.144c0.189,1.07,0.314,2.076,0.439,3.146
			c0.126,1.07,0.251,2.076,0.377,3.146c0.127,1.068,0.252,2.075,0.378,3.146c0.125,1.066,0.125,2.14,0,3.207
			c-0.062,0.504-0.126,1.066-0.312,1.637c-0.128,0.564-0.312,1.066-0.562,1.635c-0.189,0.377-0.314,0.756-0.314,1.195
			c-0.188,1.887,1.193,3.584,3.146,3.771l17.041-0.063c0.438,0,0.815-0.063,1.258-0.126c0.438-0.063,0.815-0.063,1.259-0.127
			c0.816-0.062,1.634-0.188,2.517-0.313c0.941-0.126,1.763-0.755,2.142-1.696C166.58,220.533,165.888,219.023,164.505,218.459z"/>
		<path d="M180.665,80.051l0.127,21.003l-1.069,0.629l-2.577,1.572l-18.358-6.603L140.61,76.215v16.979l10.69,12.011
			c0.629,0.692,1.383,1.258,2.326,1.572l21.945,7.86l1.32,0.503c1.383,0.503,2.829,0.126,3.896-0.754l0.562,109.983h2.521
			l0.754-144.444h-3.961L180.665,80.051L180.665,80.051z"/>
	</g>
</g>
<g>
	<path style="fill:none;" d="M113.549,43.768c0.003,0.003,0.007,0.006,0.01,0.01l-0.018-0.021
		C113.528,43.739,113.529,43.742,113.549,43.768z"/>
	<path style="fill:none;" d="M149.055,52.789l0.014,0.029c-0.01-0.022-0.015-0.036-0.022-0.054L149.055,52.789z"/>
	<path style="fill:none;" d="M116.767,43.246l-0.035,0.094c0.011-0.023,0.025-0.045,0.033-0.071l0.02-0.057
		c0.004-0.014,0.006-0.02-0.002-0.001L116.767,43.246z"/>
	<path style="fill:none;" d="M121.729,44.871c-0.002,0.005,0.014-0.016,0.019-0.022l0.036-0.049l0.021-0.033
		c-0.012,0.015-0.024,0.029-0.036,0.044L121.729,44.871z"/>
	<polygon style="fill:none;" points="125.021,224.768 125.025,224.781 125.02,224.764 	"/>
	<path style="fill:none;" d="M125,224.688l0.006,0.023l0.011,0.032c-0.003-0.011-0.004-0.016-0.011-0.036
		C125.005,224.7,125.003,224.693,125,224.688z"/>
	<polygon style="fill:none;" points="169.786,94.844 169.793,94.836 169.788,94.84 	"/>
	<path style="fill:none;" d="M202.898,101.593c0.018-0.016,0.039-0.027,0.057-0.042l0.055-0.05l0.028-0.025
		c0.007-0.01,0.021-0.021,0.009-0.013l-0.053,0.046L202.898,101.593z"/>
	<path style="fill:none;" d="M204.943,100.855l0.066-0.021l0.067-0.021l0.009-0.003c-0.01,0.003-0.021,0.004-0.031,0.007
		L204.943,100.855z"/>
	<path style="fill:none;" d="M93.909,78.217c0.026-0.003,0.073-0.014,0.113-0.024l-0.043,0.009L93.909,78.217z"/>
	<path style="fill:none;" d="M94.052,78.185c0.018-0.004,0.034-0.014,0.051-0.019l-0.094,0.027
		C94.025,78.19,94.038,78.188,94.052,78.185z"/>
	<path style="fill:none;" d="M94.816,75.384l0.009,0.01c-0.004-0.004-0.007-0.01-0.011-0.013
		C94.797,75.368,94.801,75.371,94.816,75.384z"/>
	<path style="fill:none;" d="M101.036,52.934c-0.003-0.01,0,0.018,0,0.025l0.006,0.074l0.001,0.015c0-0.031,0.005-0.062-0.001-0.093
		L101.036,52.934z"/>
	<path style="fill:none;" d="M104.701,53.162l-0.018,0.043c-0.005,0.009-0.017,0.042-0.007,0.02l0.063-0.15l0.002-0.005l0.002-0.005
		c-0.002,0.004-0.005,0.008-0.008,0.013C104.725,53.104,104.715,53.133,104.701,53.162z"/>
	<path style="fill:none;" d="M130.034,131.027c0.038,0.02,0.01,0.004-0.021-0.014l0.014,0.01L130.034,131.027z"/>
	<path style="fill:none;" d="M98.36,53.938l-0.045-0.058c-0.002-0.001-0.027-0.035-0.013-0.012l0.033,0.046
		c0.023,0.032,0.052,0.061,0.078,0.091l-0.007-0.011L98.36,53.938z"/>
	<path style="fill:none;" d="M178.414,204.645l-0.055,0.013c-0.019,0.003-0.038,0.01-0.058,0.014
		c0.01-0.001,0.022-0.002,0.032-0.003c0.096-0.011,0.102-0.021,0.143-0.023c0.003-0.004,0.032-0.006,0.012-0.006h-0.036
		C178.436,204.639,178.428,204.641,178.414,204.645z"/>
	<path style="fill:none;" d="M166.535,146.784v-0.021l-0.054,0.793C166.517,147.325,166.541,147.071,166.535,146.784z"/>
	<path style="fill:none;" d="M209.419,103.75l0.005,0.284c0,0.041,0.003,0.001,0.004-0.014l0.003-0.057
		c0.002-0.037,0.002-0.076-0.003-0.113C209.428,103.816,209.423,103.783,209.419,103.75z"/>
	<path style="fill:none;" d="M191.334,205.805l-0.054-0.031l0.119,0.104l0.149,0.131l0.037,0.031l0.01,0.006
		c-0.085-0.074-0.206-0.181-0.21-0.186l-0.004-0.003l-0.021-0.019c-0.004-0.003,0.023,0.021,0.024,0.021l0.076,0.059l0.154,0.122
		l0.037,0.029c0.013,0.011,0.037,0.027,0.009,0.002c-0.033-0.032-0.066-0.063-0.104-0.098
		C191.49,205.913,191.412,205.859,191.334,205.805z"/>
	<path style="fill:none;" d="M211.282,113.16l0.048-0.068c-0.006,0.008-0.014,0.013-0.02,0.021
		C211.299,113.127,211.286,113.154,211.282,113.16z"/>
	<path style="fill:none;" d="M130.141,222.96c-0.012,0.005-0.033,0.024-0.048,0.032c0.054-0.027,0.085-0.043,0.104-0.053h-0.002
		C130.182,222.946,130.17,222.95,130.141,222.96z"/>
	<path style="fill:none;" d="M223.314,110.247c0.047-0.013,0.093-0.025,0.14-0.041l0.117-0.044l0.059-0.023
		c-0.006,0.002-0.015,0.005-0.018,0.005L223.314,110.247z"/>
	<path style="fill:none;" d="M174.542,204.852c-0.024-0.019-0.081-0.049-0.07-0.049c-0.015-0.016-0.025-0.023-0.042-0.035
		c-0.015-0.01-0.033-0.018-0.049-0.027l0.028,0.023l0.018,0.016c0.017,0.015,0.027,0.024,0.046,0.04
		c0.139,0.106,0.371,0.283,0.161,0.1C174.608,204.895,174.575,204.872,174.542,204.852z"/>
	<path style="fill:none;" d="M136.129,222.729c0.004,0.002-0.062-0.062-0.089-0.084c-0.009-0.007-0.017-0.014-0.025-0.021
		c0.005,0.006,0.01,0.012,0.015,0.017c0.006,0.006,0.012,0.012,0.021,0.02l0.022,0.017L136.129,222.729z"/>
	<path style="fill:none;" d="M140.314,216.179c0.039-0.067,0.06-0.111,0.068-0.132c0.009-0.033-0.012-0.021-0.033,0.042
		C140.339,216.109,140.325,216.151,140.314,216.179z"/>
	<path style="fill:none;" d="M136.045,222.656c-0.013-0.012-0.008-0.007-0.013-0.013c0.025,0.029,0.058,0.069,0.079,0.091
		l0.044,0.037c0.001-0.004,0.001-0.004,0.001-0.008v-0.004c0.014,0.012-0.06-0.056-0.106-0.1L136.045,222.656z"/>
	<path style="fill:none;" d="M174.518,204.865l0.062,0.047c0.023,0.019-0.042-0.037-0.106-0.093
		c-0.008-0.006-0.017-0.013-0.023-0.019L174.518,204.865z"/>
	<path style="fill:none;" d="M174.376,204.738c-0.001-0.001-0.003-0.002-0.004-0.003c0,0.001-0.002,0,0.032,0.03l0.025,0.021
		c0.005,0.004,0.014,0.011,0.02,0.015l-0.022-0.021C174.406,204.762,174.388,204.747,174.376,204.738z"/>
	<path d="M192.26,200.566l0.017-0.021l0.005-0.007c0.004-0.006-0.029,0.038-0.025,0.032L192.26,200.566z"/>
	<path d="M169.061,85.493c-0.002-0.005-0.004-0.013,0.002,0.009l0.002,0.008c-0.001-0.001,0.001-0.003,0-0.004L169.061,85.493z"/>
	<path d="M174.449,204.801c0.007,0.006,0.016,0.013,0.023,0.019c-0.019-0.016-0.029-0.025-0.046-0.04L174.449,204.801z"/>
	<polygon points="191.382,205.857 191.386,205.86 191.362,205.839 	"/>
	<path d="M230.979,103.12c-1.497-7.338-8.045-8.188-14.922-6.383c-2.205,0.579-4.369,1.32-6.527,2.05
		c-0.287-3.353-2.961-7.271-5.826-8.882c-5.956-3.351-11.076,1.456-15.091,5.564c0.299-3.066-2.853-6.104-5.416-7.155
		c-5.128-2.103-8.787,0.452-11.948,4.346c-1.656-5.792-2.763-11.526-0.573-17.35c2.426-6.451,7.59-11.287,11.652-16.687
		c3.003-3.991,6.785-9.92,4.139-15.035c-2.697-5.214-9.106-3.992-13.447-1.863c-5.444,2.671-21.098,19.563-25.852,8.567
		c-2.963-6.855,0.912-14.613-4.409-20.966c-8.202-9.792-16.577,6.895-19.486,12.991c-3.154-4.526-9.505-9.286-13.573-2.902
		c-2.038,3.198-3.048,7.737-4.223,11.365c-6.335-5.35-13.036-3.241-11.858,5.957c0.561,4.377,2.815,9.229,0.076,13.275
		c-1.982,2.927-5.551,4.501-4.157,8.615c1.433,4.227,7.534,8.306,10.823,11.391c3.564,3.343,7.25,6.607,10.594,10.178
		c7.52,8.031,12.131,17.317,15.294,27.746c-2.406-3.089-9.86-15.538-15.154-12.124c-4.204,2.712,2.377,11.786-4.226,11.113
		c-4.157-0.424-8.228-3.398-12.093-4.826c-4.446-1.642-8.751-1.746-13.431-1.547c-4.905,0.208-9.619,0.104-14.346-1.373
		c-4.354-1.359-8.433-3.434-12.854-4.611c-6.368-1.695-14.638-3.396-21.276-2.226c-0.089,0.345-0.076,1.205,0.033,1.544
		c9.1-0.184,17.336,0.831,25.958,4.161c8.15,3.147,14.994,4.849,23.771,5.127c3.685,0.117,7.313,0.345,10.771,1.73
		c3.165,1.268,5.953,3.312,9.099,4.624c2.851,1.188,6.675,1.889,9.203-0.347c2.932-2.591,2.04-6.833,1.494-10.208
		c4.558,3.263,5.654,9.134,9.427,13.074c2.104,2.197,5.867,4.397,8.471,1.655c2.537-2.673,0.945-7.28-0.221-10.176
		c-3.478-8.633-7.372-18.502-13.534-25.565c-3.003-3.442-6.639-6.789-9.92-9.989c-3.582-3.494-6.945-7.303-10.689-10.616
		c6.988-4.034,5.442-12.269,4.609-19.043c1.581,3.001,6.883,1.497,8.772-0.189c3.116-2.779,4.135-7.827,5.438-11.691
		c3.622,6.401,9.196,7.967,14.009,2.101c2.35-2.863,4.426-6.148,6.38-9.292c1.044,6.698,1.851,14.568,6,20.175
		c6.352,8.581,17.393,2.749,24.932-0.838c-8.077,11.936-18.21,38.966,0.387,47.378c3.158,1.429,6.243,1.055,9.451,0.027
		c4.491,6.915,12.61,7.837,18.668,2.146c2.748,4.519,6.093,7.521,11.711,7.355c-10.511,3.748-21.126,6.884-31.822,10.038
		c-8.816,2.6-18.263,6.004-23.408,14.174c-4.947,7.854-3.959,17.625,2.563,24.243c7.423,7.531,18.224,9.159,27.128,14.183
		c10.229,5.772,9.461,15.707,7.944,26.014c-5.326-1.812-9.043,0.396-14.227,0.117c-4.893-0.264-6.722-5.62-10.837-7.515
		c-4.636-2.134-9.684,0.086-13.547,2.775c-3.866,2.691-7.36,4.894-11.661,6.835c-4.615,2.085-6.378,5.246-8.035,9.898
		c-0.935-1.69-4.868,0.331-6.263,0.995c1.485-5.625,4.094-17.157-4.726-17.775c-4.969-0.349-10.338,2.597-14.625,4.748
		c-4.261,2.139-8.651,4.459-11.945,7.98c-4.551,4.864-7.087,11.466-9.734,17.468c0.246,0.182,0.977,0.532,1.268,0.605
		c3.3-6.228,6.652-13.171,12.518-17.403c4.674-3.372,10.761-4.993,16.019-7.279c3.321-1.444,7.732-2.77,7.406,2.476
		c-0.298,4.797-3.839,8.439-3.526,13.538c0.145,2.352,0.883,6.583,3.501,7.532c2.766,1.002,5.31-2.285,6.905-4.055
		c0.656,2.535,3.234,4.365,5.789,4.589c4.978,0.436,5.023-4.086,5.294-7.765c0.438-5.945,4.414-7.387,9.41-9.535
		c2.964-1.274,8.693-6.345,11.972-5.157c2.077,0.753,3.574,3.779,5.172,5.207c2.372,2.121,5.153,3.165,8.202,3.93
		c-0.089-0.013-0.178-0.018-0.268-0.014c7.321,1.366,15.597,2.953,22.56-0.63c7.466-3.842,10.005-12.394,10.213-20.255
		c0.203-7.669-1.3-16.245-6.461-22.21c-5.706-6.596-14.646-9.761-22.142-13.777c-3.445-1.847-13.876-6.63-10.572-12.079
		c2.245-3.704,8.774-4.581,12.584-5.487c5.495-1.307,10.842-3.029,16.194-4.83c8.656-2.913,18.073-5.714,25.428-11.325
		c6.438-4.912,10.69-12.922,9.842-21.163C231.148,104.072,231.073,103.583,230.979,103.12z M93.909,78.217l0.07-0.016l0.043-0.009
		C93.983,78.203,93.936,78.213,93.909,78.217z M94.052,78.185c-0.014,0.002-0.028,0.005-0.043,0.008l0.094-0.027
		C94.086,78.171,94.07,78.181,94.052,78.185z M94.816,75.384c-0.015-0.013-0.019-0.016-0.002-0.003
		c0.004,0.003,0.007,0.009,0.011,0.013L94.816,75.384z M130.034,131.027l-0.008-0.004l-0.014-0.01
		C130.044,131.031,130.073,131.047,130.034,131.027z M98.335,53.914l-0.033-0.046c-0.015-0.023,0.011,0.011,0.013,0.012l0.045,0.058
		l0.047,0.056l0.007,0.011C98.387,53.975,98.358,53.946,98.335,53.914z M101.042,53.033l-0.006-0.074c0-0.007-0.003-0.035,0-0.025
		l0.006,0.021c0.006,0.031,0,0.062,0.001,0.093L101.042,53.033z M104.742,53.07l-0.002,0.005l-0.063,0.15
		c-0.01,0.022,0.002-0.011,0.007-0.02l0.018-0.043c0.014-0.029,0.023-0.058,0.035-0.085c0.002-0.004,0.005-0.008,0.008-0.013
		L104.742,53.07z M113.549,43.768c-0.021-0.026-0.021-0.029-0.008-0.011l0.018,0.021C113.556,43.774,113.552,43.771,113.549,43.768z
		 M116.765,43.269c-0.008,0.025-0.022,0.047-0.033,0.071l0.035-0.094l0.016-0.035c0.008-0.019,0.006-0.013,0.002,0.001
		L116.765,43.269z M121.783,44.8l-0.036,0.049c-0.005,0.006-0.021,0.027-0.019,0.022l0.039-0.059
		c0.011-0.015,0.023-0.03,0.036-0.044L121.783,44.8z M149.055,52.789l-0.009-0.025c0.008,0.019,0.013,0.032,0.022,0.054
		L149.055,52.789z M169.786,94.844c-0.001,0.001,0.002-0.003,0.002-0.004c0.001-0.001,0.004-0.002,0.005-0.003L169.786,94.844z
		 M203.037,101.476l-0.028,0.025l-0.055,0.05c-0.018,0.016-0.039,0.027-0.057,0.042l0.096-0.084l0.053-0.046
		C203.058,101.455,203.044,101.466,203.037,101.476z M205.076,100.813l-0.067,0.021l-0.066,0.021l0.111-0.038
		c0.011-0.003,0.021-0.004,0.031-0.007L205.076,100.813z M125.007,224.711L125,224.688c0.002,0.006,0.004,0.013,0.007,0.02
		c0.006,0.021,0.008,0.025,0.011,0.036L125.007,224.711z M125.021,224.768l-0.001-0.004c0.001,0.004,0.004,0.014,0.005,0.018
		L125.021,224.768z M130.093,222.992c0.015-0.008,0.036-0.027,0.048-0.032c0.029-0.01,0.041-0.014,0.055-0.021h0.002
		C130.178,222.949,130.147,222.965,130.093,222.992z M136.156,222.764c0,0.004,0,0.004-0.001,0.008l-0.044-0.037
		c-0.021-0.021-0.054-0.062-0.079-0.091c0.005,0.006,0,0.001,0.013,0.013l0.005,0.004c-0.009-0.008-0.015-0.014-0.021-0.02
		c-0.005-0.005-0.01-0.011-0.015-0.017c0.009,0.007,0.017,0.014,0.025,0.021c0.026,0.022,0.093,0.086,0.089,0.084l-0.057-0.052
		l-0.022-0.017c0.047,0.044,0.12,0.111,0.106,0.1V222.764z M140.314,216.179c0.012-0.027,0.025-0.069,0.035-0.09
		c0.021-0.063,0.042-0.075,0.033-0.042C140.373,216.067,140.353,216.111,140.314,216.179z M174.579,204.912l-0.062-0.047
		l-0.068-0.064c-0.006-0.004-0.015-0.011-0.02-0.015l-0.025-0.021c-0.034-0.03-0.032-0.029-0.032-0.03
		c0.001,0.001,0.003,0.002,0.004,0.003c0.012,0.009,0.029,0.023,0.051,0.041l-0.018-0.016l-0.028-0.023
		c0.016,0.01,0.034,0.018,0.049,0.027c0.017,0.012,0.027,0.02,0.042,0.035c-0.011,0,0.046,0.03,0.07,0.049
		c0.033,0.021,0.065,0.043,0.092,0.067c0.21,0.184-0.022,0.007-0.161-0.1C174.537,204.875,174.603,204.931,174.579,204.912z
		 M178.477,204.645c-0.041,0.002-0.047,0.013-0.143,0.023c-0.01,0.001-0.022,0.002-0.032,0.003c0.02-0.004,0.039-0.011,0.058-0.014
		l0.055-0.013c0.014-0.004,0.021-0.006,0.038-0.006h0.036C178.509,204.639,178.48,204.641,178.477,204.645z M191.654,206.07
		l-0.037-0.029l-0.154-0.122l-0.076-0.059c0.004,0.005,0.125,0.111,0.21,0.186l-0.01-0.006l-0.037-0.031l-0.149-0.131l-0.119-0.104
		l0.054,0.031c0.078,0.055,0.155,0.108,0.224,0.17c0.038,0.034,0.071,0.065,0.104,0.098
		C191.691,206.098,191.666,206.081,191.654,206.07z M166.535,146.784c0.006,0.287-0.019,0.541-0.054,0.772l0.054-0.793V146.784z
		 M209.428,104.02c-0.001,0.015-0.004,0.055-0.004,0.014l-0.005-0.284c0.004,0.033,0.009,0.066,0.009,0.1
		c0.005,0.037,0.005,0.076,0.003,0.113L209.428,104.02z M211.282,113.16c0.004-0.006,0.017-0.033,0.028-0.047
		c0.006-0.008,0.014-0.013,0.02-0.021L211.282,113.16z M223.571,110.162l-0.117,0.044c-0.047,0.015-0.093,0.027-0.14,0.041
		l0.298-0.103c0.003,0,0.012-0.002,0.018-0.005L223.571,110.162z"/>
</g>
</svg>
