<?xml version="1.0" encoding="utf-8"?>
<!-- Generator: Adobe Illustrator 16.0.0, SVG Export Plug-In . SVG Version: 6.00 Build 0)  -->
<!DOCTYPE svg PUBLIC "-//W3C//DTD SVG 1.1//EN" "http://www.w3.org/Graphics/SVG/1.1/DTD/svg11.dtd">
<svg version="1.1" id="Layer_1" xmlns="http://www.w3.org/2000/svg" xmlns:xlink="http://www.w3.org/1999/xlink" x="0px" y="0px"
	 width="256px" height="256px" viewBox="0 0 256 256" enable-background="new 0 0 256 256" xml:space="preserve">
<g>
	<path id="path6" d="M237.411,155.771l-3.266,1.36l-3.499,1.457c-7.467,3.111-15.864,3.111-23.329,0l-6.999-2.916
		c-7.464-3.109-15.863-3.109-23.328,0l-6.998,2.916c-7.467,3.111-15.864,3.111-23.329,0l-6.999-2.916
		c-3.697-1.539-7.661-2.332-11.664-2.332c-4.004,0-7.968,0.793-11.665,2.332l-6.999,2.916c-7.465,3.111-15.864,3.111-23.329,0
		l-6.999-2.916c-7.465-3.109-15.864-3.109-23.329,0l-6.999,2.916c-7.466,3.111-15.864,3.111-23.329,0l-3.5-1.457l-3.266-1.36v13.063
		l3.266,1.361l3.5,1.457c7.465,3.111,15.863,3.111,23.329,0l6.999-2.916c7.465-3.11,15.864-3.11,23.329,0l6.999,2.916
		c7.465,3.111,15.864,3.111,23.329,0l6.999-2.916c3.697-1.539,7.661-2.332,11.665-2.332c4.003,0,7.967,0.793,11.664,2.332
		l6.999,2.916c7.465,3.111,15.862,3.111,23.329,0l6.998-2.916c7.465-3.11,15.864-3.11,23.328,0l6.999,2.916
		c7.465,3.111,15.862,3.111,23.329,0l3.499-1.457l3.266-1.361V155.771z"/>
	<path id="path8" d="M237.411,180.266l-3.266,1.361l-3.499,1.457c-7.467,3.111-15.864,3.111-23.329,0l-6.999-2.918
		c-7.464-3.109-15.863-3.109-23.328,0l-6.998,2.918c-7.467,3.111-15.864,3.111-23.329,0l-6.999-2.918
		c-3.697-1.539-7.661-2.33-11.664-2.33c-4.004,0-7.968,0.791-11.665,2.33l-6.999,2.918c-7.465,3.111-15.864,3.111-23.329,0
		l-6.999-2.918c-7.465-3.109-15.864-3.109-23.329,0l-6.999,2.918c-7.466,3.111-15.864,3.111-23.329,0l-3.5-1.457l-3.266-1.361
		v13.064l3.266,1.359l3.5,1.459c7.465,3.111,15.863,3.111,23.329,0l6.999-2.918c7.465-3.109,15.864-3.109,23.329,0l6.999,2.918
		c7.465,3.111,15.864,3.111,23.329,0l6.999-2.918c3.697-1.539,7.661-2.332,11.665-2.332c4.003,0,7.967,0.793,11.664,2.332
		l6.999,2.918c7.465,3.111,15.862,3.111,23.329,0l6.998-2.918c7.465-3.109,15.864-3.109,23.328,0l6.999,2.918
		c7.465,3.111,15.862,3.111,23.329,0l3.499-1.459l3.266-1.359V180.266z"/>
	<path id="path10" d="M223.809,147.455c6.728-9.607,10.337-21.053,10.337-32.783v-3.266h-21.774l5.444-11.431h-44.092l5.445-11.431
		h-46.271l4.899-9.799H98.605l-4.899,9.799H65.945l-5.444,11.431H19.45l3.487,8.63l0,0c2.086,5.164,4.973,9.967,8.552,14.232l0,0
		l5.697,5.956l0,0c5.031,5.996,8.867,12.901,11.298,20.341l0,0l7.198-3.202c7.465-3.111,15.864-3.111,23.329,0l6.999,2.917
		c7.465,3.109,15.864,3.109,23.329,0l6.999-2.917c3.697-1.539,7.661-2.333,11.665-2.333c4.003,0,7.967,0.794,11.664,2.333
		l6.999,2.917c7.465,3.109,15.862,3.109,23.329,0l6.998-2.917c7.465-3.111,15.864-3.111,23.328,0l6.999,2.917
		c3.696,1.54,7.659,2.331,11.665,2.331h0.456C221.188,150.332,222.692,149.051,223.809,147.455L223.809,147.455z"/>
	<path id="path12" d="M101.872,68.948h39.192l5.444-11.431h-39.193L101.872,68.948z"/>
</g>
</svg>
