<?xml version="1.0" encoding="utf-8"?>
<!-- Generator: Adobe Illustrator 16.0.0, SVG Export Plug-In . SVG Version: 6.00 Build 0)  -->
<!DOCTYPE svg PUBLIC "-//W3C//DTD SVG 1.1//EN" "http://www.w3.org/Graphics/SVG/1.1/DTD/svg11.dtd">
<svg version="1.1" xmlns="http://www.w3.org/2000/svg" xmlns:xlink="http://www.w3.org/1999/xlink" x="0px" y="0px" width="256px"
	 height="256px" viewBox="0 0 256 256" enable-background="new 0 0 256 256" xml:space="preserve">
<g id="Layer_1">
</g>
<g id="Layer_2">
	<path d="M239.899,149.845c-0.117,0.061-0.246,0.105-0.402,0.117c-2.957,0.217-15.391,0.91-18.51,1.098
		c-0.826-3.914-1.851-7.022-2.675-10.935c-0.588-2.749-2.688-9.375-3.813-11.25c-0.432-0.719-13.062,0.949-15.151,0.506
		c-1.023-3.313-2.045-6.626-3.066-9.939c-0.391-0.965-1.327-3.197-1.688-3.607c-0.088,0.04-17.678,0.941-17.719,0.791
		c-0.004-0.406,0.36-5.208,0.356-5.614c0.211-1.841,0.42-3.683,0.631-5.525c0.811-0.228,5.763-0.673,7.7-0.736
		c0.025-0.018-0.043-3.206,0.375-4.063c-1.313-1-8.092-0.268-9.375-0.063c-0.586,0.095-4.517,0.503-4.46,0.742
		c0.182,0.784-0.978,15.197-0.978,15.196c-1.85,0.207-6.813,0.707-8.665,0.913c-0.188,1.848-0.391,3.986-0.58,5.834
		c0.033-0.03,0.055-0.055,0.086-0.084c-0.027,0.232-0.055,0.467-0.082,0.702c0,0.001,0,0.001,0,0.002
		c-0.436,3.763-0.973,7.803-1.041,8.294c-0.104,0.744-0.494,1.721-0.736,2.578c-0.162,0.002-0.287,0-0.328-0.013
		c-1.268,0-12.353,0.079-15.653-0.165c-0.188-0.014-0.102-0.959-0.237-0.969c-0.373-1.178-0.746-2.355-1.119-3.533
		c-0.002-0.015,0-0.028,0-0.043c-0.006-0.002-0.012-0.003-0.018-0.004c-0.334-0.625-0.586-1.313-1.018-1.857
		c-2.473-3.126-5.703-2.799-7.537,0.759c-0.322,0.628-0.348,1.419-0.713,2.011c-0.387,0.623-0.369,2.793-0.6,3.396
		c-3.55-0.049-39.175-0.135-45.342-0.26c-0.35-0.008-0.309-1.854-0.479-1.875c-3.625-0.438-15.62-0.203-16.438-0.188
		c-1.25,0.024-5.563-0.201-7.313-0.063c-1.06,0.084-5.033,0.168-6.012,0.582c-0.692,0.969-1.524,3.657-2.217,4.627
		c-0.386,0.051-4.371-0.03-4.792-0.042c-0.029-0.283,0.089-2.067,0.062-2.351c-0.07-2.886,1.012-10.392-0.607-10.354
		c-1.164,0.027-6.83,0.097-8-0.125c-2.85,0.792-5.69-0.566-8.905,0.325c0,1.831-0.106,3.129,0.312,3.3
		c0.549,0.29,1.155,0.366,1.784,0.342c-0.224,1.863-0.722,3.135-0.878,4.127c-0.312,1.447-0.483,2.594-0.781,4.25
		c-0.38,2.583-0.835,6.636-1.193,8.597c-1.469-0.357-4.462-0.152-5.786-0.301c0.189,3.697,0.342,6.713,0.521,10.221
		c-0.044,0.215,0.198,11.109,0.195,11.141c-0.141,0.846,0.091,3.928,0.305,4.404h52.614h0.042h38.372h36.499h69.539
		c0.361-0.131,6.92-1.65,8.674-2.094c-0.01-0.16,0.609-0.391,0.699-0.566c0.32-0.637,0.625-1.281,0.92-1.93h0.002
		c0.002-0.006,0.006-0.012,0.008-0.018c0.002-0.004,0.004-0.008,0.004-0.01c0.504-1.113,2.316-6.367,2.838-7.809
		c0.238-0.654,0.477-1.311,0.715-1.965c0-0.092,0.002-0.184,0.037-0.281c0.086-0.242,0.275-0.686,0.516-1.244
		c0.012-0.033,0.025-0.068,0.037-0.104c0.002,0,0.006,0,0.008,0c0.063-0.145,0.125-0.291,0.191-0.447
		c0.076-0.18,0.154-0.359,0.229-0.537c0.502-1.184,1.066-2.586,1.438-3.807C240.423,149.901,240.155,149.872,239.899,149.845z
		 M96.058,148.354c-1.405,0.758-2.868,0.342-4.318,0.211c-0.032-0.039-0.055-0.074-0.084-0.113
		c-1.154,0.482-2.299,0.566-3.425-0.184c0.972-3.898,0.972-3.898,4.901-3.49C96.898,144.478,97.424,145.12,96.058,148.354z
		 M102.365,148.456c-1.294,0-2.588,0-3.85,0c-0.434-3.373,0.015-3.916,2.963-3.813c0.508,0.02,1.014,0.111,1.521,0.17
		c1.101-0.156,2.446-0.498,2.378,1.244C105.307,147.837,104.26,148.772,102.365,148.456z M128.857,145.584
		c0.028,0.021,0.057,0.043,0.085,0.065 M127.969,146c-0.318,0.997-0.073,2.167-0.177,3.104c-0.459,0.063-1.581-0.201-2.006,0.021
		c-0.42,0.002-0.836,0.004-1.254,0.006c-1.088-0.18-2.174-0.357-3.261-0.537c-0.44-0.043-0.597-0.051-1.187-0.178
		c-0.03-0.768,0.176-2.813,0.145-3.581c1.292-0.188,1.628-0.22,3.063-0.044c0.414,0.014,0.836,0.196,1.25,0.208
		c1.667,0.167,1.375,0.209,3.083,0.417 M129.064,146.032c0-0.006-0.004-0.01-0.004-0.014 M129,145.229
		c1.313-0.104,1.729,0,3.657-0.039c0.576-0.139,1.152-0.277,1.73-0.414c0.863,0,1.729,0,2.582,0
		c0.107,3.838-0.365,4.016-3.741,3.995c-0.381,0.105-0.792-0.144-1.179-0.081c-2.708,0.445-2.913,0.26-2.985-2.658 M167.024,148.425
		c-2.324,1.217-4.654,0.02-6.969,0.428c-0.131-3.742,0.285-4.211,3.324-4.158c0.604,0.012,1.207,0.078,1.809,0.117
		c0.777,0,1.557,0,2.836,0C167.626,146.245,167.325,147.335,167.024,148.425z M178.255,148.94c-1.498-0.189-2.998-0.383-4.738-0.604
		c-0.053-0.994-0.105-1.967-0.184-3.428c2.373-0.041,4.57-0.17,6.76-0.086c1.637,0.064,0.959,1.473,1.111,2.375
		C181.532,149.999,179.88,149.444,178.255,148.94z M186.669,148.552c-1.004,0.164-2.004,0.326-3.004,0.49l-0.303-0.047l-0.303,0.021
		c-0.695,0.195-1.465-0.098-1.236-0.738c0.418-1.174,0.227-2.648,1.459-3.48c1.564-0.012,3.127-0.021,4.689-0.033
		c1.006,0.037,2.014,0.072,3.021,0.109C189.931,148.616,189.735,148.784,186.669,148.552z"/>
</g>
</svg>
