<?xml version="1.0" encoding="utf-8"?>
<!-- Generator: Adobe Illustrator 16.0.0, SVG Export Plug-In . SVG Version: 6.00 Build 0)  -->
<!DOCTYPE svg PUBLIC "-//W3C//DTD SVG 1.1//EN" "http://www.w3.org/Graphics/SVG/1.1/DTD/svg11.dtd">
<svg version="1.1" xmlns="http://www.w3.org/2000/svg" xmlns:xlink="http://www.w3.org/1999/xlink" x="0px" y="0px" width="256px"
	 height="256px" viewBox="0 0 256 256" enable-background="new 0 0 256 256" xml:space="preserve">
<g id="Layer_1">
</g>
<g id="Layer_2">
</g>
<g id="Layer_3">
	<path d="M242.025,150.216c-0.768,0.063-1.544,0.01-2.314,0.008l0.02-0.035c0.147-0.499,0.233-1.026,0.452-1.492
		c0.593-1.269,1.248-2.506,1.865-3.764c0.155-0.317,0.262-0.658,0.437-1.107c-1.796,0-3.435,0.035-5.072-0.014
		c-0.924-0.027-1.669,0.155-2.304,0.9c-0.751,0.884-1.726,1.241-2.945,1.191c-2.267-0.092-4.54-0.025-6.809-0.025h-1.751
		c0-0.564,0.036-1.356-0.002-2.239c-0.012-0.279,0.04-0.771-0.22-0.835c-0.834-0.208-1.392-0.46-1.683-0.633
		c-0.922-0.545-1.696-1.226-2.262-2.163c-0.081-0.135-2.152-3.301-2.293-3.131c-6.547-0.004-13.092-0.006-19.639-0.01
		c-0.01-2.916-0.018-5.83-0.027-8.746c-0.008-1.993-0.025-2.009-2.049-2.012c-0.146-0.001-0.293,0.015-0.438-0.002
		c-1.172-0.137-1.639,0.319-1.611,1.555c0.07,3.059,0.02,6.121,0.016,9.182c-1.852,0.006-3.701,0.012-5.553,0.018
		c-0.02-0.682-0.055-1.363-0.053-2.045c0.018-7.219,0.047-14.436,0.059-21.654c0-0.619,0.152-1.275-0.26-1.843
		c-1.193-0.085-1.635-0.69-1.547-1.901c0.053-0.744,0.154-1.619-0.676-2.436c-0.715,1.252-0.076,2.688-1.076,3.763v-3.737
		c1-0.971,1.811-1.811,2.74-2.608c0.162,1.448,0.246,1.448,1.041,1.14c0.008-0.035,0.072-0.074,0.063-0.105
		c-0.018-0.067-0.031-0.131-0.061-0.195c0.225-0.622-0.01-1.293,0.258-1.968c-0.4,0.187-0.922-0.917-1.133,0.208
		c-1.213,1.109-2.408,2.233-3.475,3.49c-0.08,0.114-0.158,0.229-0.238,0.344c-1.525,1.065-2.65,2.559-4.025,3.785
		c-5.227,4.654-9.893,9.887-15.057,14.605c-1.359,0.031-2.719,0.064-4.078,0.096c-0.398-0.146-0.838-0.229-1.186-0.455
		c-0.766-0.496-1.311-0.327-1.746,0.422c-2.053,0.014-4.105,0.026-6.16,0.04c-0.299-0.088-0.598-0.176-0.895-0.264
		c-0.172-0.673-1.076-0.8-1.152-1.544l0.582-0.56c0.443,0.376,0.871,0.772,1.334,1.122c0.385,0.291,0.598,0.988,1.301,0.613
		c0.207-0.266,0.291-0.571,0.303-0.901c-0.449-1.171-1.445-1.851-2.346-2.617c1-1.198,2.414-1.798,3.758-2.441
		c0.625-0.301,0.797-0.526,0.641-1.14c-0.615-0.082-0.977,0.302-1.414,0.482c-1.514,0.623-2.811,1.777-4.543,1.861
		c-0.24-0.244-0.48-0.488-0.721-0.733c-0.121-0.216-0.242-0.432-0.361-0.647c-0.66-0.904-1.42-1.71-2.342-2.353
		c-0.99-0.255-1.635-0.743-1.471-1.917c0.064-0.465,0.057-1.068-0.543-1.203c-0.631-0.143-1.369-0.363-1.758,0.492
		c-0.377,0.676-0.889,1.354,0.023,2.014c-0.848,0.539-1.795,0.221-2.693,0.323c0.117-1.704,0.654-3.378,1.336-4.937
		c0.248-0.568,0.018-0.879,0.018-1.231v-7.102c-1-0.001-1-0.003-1-0.005v2.988c-2,0.01-3.895-0.057-5.889,0.057
		c-1.07,0.061-1.207-0.464-1.551-1.357c0.275-0.135,0.098-2.089,0.336-2.254c-0.182-0.918-1.205-0.853-1.355-1.535
		c-0.057-0.258-0.055-0.547-0.139-0.795c-0.182-2.768-0.238-13.082-0.227-13.082h-4.405c-0.029,0,0.069,1.52,0.047,2.971
		c-0.115,0.231-0.015,8.594,0.002,10.436c-0.002,0.203-0.016,0.406-0.018,0.61c0.223,0.876-0.92,0.858-1.29,1.616
		c-0.018,0.836,0.168,1.148,0.068,1.775c0.008,0.006,0.016,0.008,0.024,0.012c-0.006,0-0.027-0.001-0.03-0.002
		c-0.372,0.551-1.299,1.834-2.139,0.854c-0.178-0.207-0.569-0.301-0.753,0.038c-0.485,0.885-1.325,0.63-2.067,0.704l0.007-0.012
		c0.005-4.075,0.015-8.15,0.011-12.225c0-0.622,0.11-1.271-0.282-1.836l-0.327,0.639c-0.189,0.092-0.377,0.184-0.566,0.275
		c-0.24-0.023-0.488-0.02-0.72-0.078c-1.664-0.413-1.897-0.314-1.882,1.337c0.003,0.333-0.062,0.886,0.126,0.886h1.313
		c0.437,0,0.944,0.391,1.456,0.342c0.016,2.369,0.032,4.773,0.048,7.143c-0.02,2.219-0.075,4.456-0.04,6.675
		c0.011,0.665-0.452,1.334-0.064,1.981c0.517,0.863,0.559,1.834,0.687,2.785c-0.028,0.76-0.055,1.521-0.083,2.282
		c-0.483,0.01-0.979,0.097-1.447,0.019c-3.061-0.508-5.438,0.536-7.252,3.032c-0.415,0.571-0.941,1.138-1.795,1.042
		c-1.665-0.643-3.008-1.966-4.861-2.504c-0.005,0.695-0.165,1.128,0.589,1.283c1.209,0.25,2.122,1.145,3.188,1.716
		c0.654,0.351,0.556,0.729,0.072,1.25c-0.62,0.665-1.792,1.159-1.792,2.126v0.287c-1-0.283-1.245-1.043-1.676-1.689
		c-1.45-2.178-3.404-2.813-5.861-2.431c-0.048,0.007-0.079,0.007-0.126,0.003c-0.981-0.102-1.264,0.402-1.241,1.309
		c0.033,1.314-0.004,2.633-0.015,3.949c-0.968-0.02-1.933-0.04-2.9-0.061c-4.539-4.89-9.607-9.24-14.254-14.021
		c-1.356-1.395-2.784-2.719-4.18-4.076c-0.05-0.357-0.25-0.566-0.609-0.619c-1.375-1.209-2.396-2.904-4.425-3.215l-0.012,0.022
		c0.008,0.085,0.017,0.171,0.027,0.257c-0.006,0.372,0.289,0.479,0.547,0.618c1.229,0.425,1.912,1.53,2.708,2.446
		c-0.011,1.329-0.021,3.049-0.031,4.049h-0.045c-0.509-1-0.168-1.942-0.258-2.881c-0.055-0.578,0.009-1.225-0.849-1.197
		c-0.723-0.02-0.883,0.426-0.886,1.021c-0.005,1.012-0.011,2.016-0.016,3.027c-0.285,0.096-0.621,0.059-0.837,0.328
		c-0.007,3.597-0.014,7.191-0.021,10.789c-0.003,4.285,0,8.57-0.017,12.855c-0.002,0.617,0.158,1.275-0.293,1.826
		c-1.752-0.016-3.505-0.031-5.258-0.047c-0.009-2.914-0.018-5.83-0.029-8.744c-0.007-1.992-0.024-2.007-2.049-2.01
		c-0.146-0.001-0.293,0.015-0.437-0.002c-1.171-0.136-1.641,0.315-1.612,1.553c0.07,3.059,0.02,6.121,0.017,9.182
		c-6.354-0.098-12.715,0.321-19.065-0.183c0-0.002,0-0.004,0-0.007c-0.131-0.304-0.239-0.554-0.35-0.81
		c-0.257,0.211-0.44,0.361-0.575,0.472c0.125,0.261,0.236,0.493,0.348,0.728c-0.181,0.023-0.362,0.046-0.543,0.068
		c-1.505,2.179-3.026,4.346-4.504,6.541c-0.447,0.665-0.622,1.239-0.989,2.193c-3.05,0.011-6.102-0.033-9.15,0.059
		c-1.221,0.037-2.139-0.268-2.918-1.215c-0.313-0.379-0.838-0.797-1.284-0.816c-1.968-0.089-3.944-0.038-6.098-0.038
		c0.286,0.613,0.49,1.04,0.684,1.472c0.728,1.622,1.452,3.249,2.178,4.874c-0.959,0.02-1.917,0.055-2.876,0.057
		c-0.898,0.002-1.63,0.371-2.352,0.885c1.084,0.987,1.335,1.081,2.434,1.123c1.715,0.063,3.45-0.226,5.138,0.298
		c1.939,0.578,3.878,1.156,5.817,1.734c0.225,0.3,2.884,1.038,3.066,1.25c5.47,1.778,16.475,4.423,16.581,4.469
		c1.782,0.242,5.402,0.668,5.427,0.663c0.019,0.023,7.101,0.808,8.395,0.852c1.072,0.12,3.161,0.328,4.233,0.448
		c-0.01,0.076,4.496,0.196,4.958,0.167c0.674-0.044,1.354,0.029,2.032,0.029c35.163,0.002,70.325,0.004,105.488,0
		c3.633,0,7.264-0.033,10.896-0.044c0.571-0.002,8.097-0.501,8.917-0.593c2.135,0.005,6.305-0.682,6.304-0.64
		c8.185-1.389,27.321-6.229,27.732-6.602c1.937-0.581,3.873-1.163,5.812-1.747c1.269-0.096,2.535-0.204,3.804-0.285
		c0.663-0.042,1.328-0.034,1.992-0.051c0.639-0.248,1.329-0.421,1.805-1.118C243.988,150.506,243.092,150.128,242.025,150.216z
		 M92.074,125.712c-0.012,0.054-0.007,0.099-0.006,0.146c-0.717,0.383-1.185,1.041-1.737,1.605
		c-0.957-0.137-1.073,0.533-1.172,1.221c-0.345,0.17-0.4,0.52-0.517,0.832c-2.225,1.451-3.929,3.447-5.66,5.412
		c-0.239-0.051-0.465-0.012-0.679,0.109c-0.311,0.234-0.625,0.461-0.998,0.594c-2.063,0.734-3.334-0.129-3.395-2.311
		c-0.015-0.535-0.005-1.07-0.006-1.605c-0.004-6.029,0.023-12.059-0.023-18.088c-0.006-0.817,0.264-1.808-0.781-2.306
		c-0.063-0.004-0.115,0.014-0.17,0.027l0.011-0.014c0.109-0.534-0.034-0.989-0.239-1.426c0.238,0.289,0.486,0.571,0.745,0.844
		c4.534,4.768,9.465,9.131,14.112,13.784c0.314,0.314,0.645,0.626,1.004,0.903C92.398,125.467,92.236,125.545,92.074,125.712z
		 M182.291,111.333v-0.003c0,0.288-0.287,0.705-0.287,1.082c0.004,3.154,0.014,6.309,0.025,9.464
		c-0.146,0.048-0.287,0.114-0.402,0.233c-0.457,0.703-0.344,1.503-0.352,2.271c-0.029,3.065,0.021,6.131-0.025,9.196
		c-0.029,1.811-0.795,2.418-2.596,2.25c-0.785-0.072-1.355-0.482-1.906-0.969c-0.227-0.111-0.465-0.139-0.713-0.107
		c-0.004,0.002-0.006,0.004-0.012,0.004c-1.861-2.188-3.908-4.195-6.09-6.064c-0.109-0.871-0.521-1.367-1.479-1.242
		c-0.285,0.039-0.553-0.033-0.809-0.15c0.031-0.059,0.064-0.119,0.088-0.189c-0.143-1.506-0.451-1.957-1.477-1.722
		c1.254-0.885,2.414-1.887,3.521-2.959c3.426-3.322,6.637-6.861,10.238-10.01c1.115-0.976,2.234-1.983,3.123-3.181
		C182.773,109.903,182.291,110.561,182.291,111.333z"/>
</g>
</svg>
