<?xml version="1.0" encoding="utf-8"?>
<!-- Generator: Adobe Illustrator 16.0.0, SVG Export Plug-In . SVG Version: 6.00 Build 0)  -->
<!DOCTYPE svg PUBLIC "-//W3C//DTD SVG 1.1//EN" "http://www.w3.org/Graphics/SVG/1.1/DTD/svg11.dtd">
<svg version="1.1" id="Layer_1" xmlns="http://www.w3.org/2000/svg" xmlns:xlink="http://www.w3.org/1999/xlink" x="0px" y="0px"
	 width="256px" height="256px" viewBox="0 0 256 256" enable-background="new 0 0 256 256" xml:space="preserve">
<g>
	<ellipse fill="none" cx="163.459" cy="166.242" rx="3.152" ry="1.871"/>
	<path fill="none" d="M158.033,175.307c1.291,0.013,4.117-1.653,4.251-6.973c-0.906,3.036-1.865,4.298-4.252,4.463
		c-1.168-0.025-1.916-0.574-2.979-0.651c-1.327,0.09-2.076,1.229-2.721,3.262c1.327-0.599,1.499-1.038,2.563-1.006
		C156.047,174.388,156.777,175.319,158.033,175.307z"/>
	<path fill="none" d="M159.143,148.016c-0.729-1.099-1.865-1.981-3.252-1.931c-0.393,1.177-0.017,2.381,0.761,3.699
		c1.19,1.829,3.713,4.208,5.111,7.405C160.653,153.537,160.276,149.892,159.143,148.016z"/>
	<path fill="none" d="M124.064,110.228c0.786-2.617,1.31-6.544,4.975-6.544c1.309,0,1.833,1.309,1.833,2.355
		c0,1.833-1.572,3.141-1.572,4.974c0,1.832,0.786,2.618,2.356,2.618s2.355-0.262,2.617-1.832c-1.832,0.523-2.356,0.261-2.356-1.047
		c0-1.833,4.451-4.45,4.451-9.162c0-1.833-1.571-4.188-3.665-4.188C129.824,97.401,124.064,99.757,124.064,110.228z"/>
	<path fill="none" d="M151.942,165.326c0.262,1.57,1.047,1.832,2.618,1.832c1.569,0,2.354-0.784,2.354-2.617
		c0-1.832-1.57-3.14-1.57-4.974c0-1.047,0.523-2.355,1.833-2.355c3.664,0,4.188,3.927,4.973,6.544
		c0-10.47-5.759-12.826-8.638-12.826c-2.095,0-3.664,2.356-3.664,4.188c0,4.712,4.449,7.329,4.449,9.163
		C154.298,165.589,153.774,165.85,151.942,165.326z"/>
	<ellipse fill="none" cx="122.757" cy="112.714" rx="3.151" ry="1.872"/>
	<path fill="none" d="M114.35,118.617c-1.328,0.089-2.077,1.229-2.721,3.262c1.328-0.599,1.499-1.038,2.564-1.006
		c1.15-0.014,1.881,0.917,3.138,0.905c1.291,0.013,4.116-1.652,4.25-6.972c-0.905,3.036-1.865,4.298-4.251,4.463
		C116.161,119.244,115.414,118.693,114.35,118.617z"/>
	<path fill="none" d="M122.757,88.763c-5.234,0-1.31,13.611,0,21.464C124.064,102.374,127.992,88.763,122.757,88.763z"/>
	<path fill="none" d="M128.183,121.777c1.256,0.013,1.987-0.918,3.139-0.905c1.063-0.032,1.234,0.407,2.563,1.006
		c-0.645-2.033-1.393-3.172-2.721-3.262c-1.063,0.077-1.812,0.627-2.98,0.651c-2.386-0.165-3.346-1.427-4.25-4.463
		C124.065,120.125,126.891,121.79,128.183,121.777z"/>
	<path fill="none" d="M121.06,103.662c-1.109-3.653-1.486-7.298-2.621-9.174c-0.727-1.098-1.864-1.981-3.25-1.931
		c-0.392,1.176-0.018,2.38,0.761,3.699C117.14,98.085,119.662,100.463,121.06,103.662z"/>
	<path fill="none" d="M163.459,163.756c1.309-7.853,5.235-21.464,0-21.464C158.225,142.292,162.15,155.903,163.459,163.756z"/>
	<path fill="none" d="M122.757,126.717c3.926,0,1.308-7.329,0-11.517C121.447,119.388,118.83,126.717,122.757,126.717z"/>
	<path fill="none" d="M129.565,96.256c0.777-1.319,1.152-2.523,0.76-3.699c-1.387-0.051-2.523,0.833-3.251,1.931
		c-1.135,1.876-1.512,5.521-2.62,9.174C125.852,100.463,128.374,98.085,129.565,96.256z"/>
	<path fill="none" d="M147,75h9c3,0,3-5,0-5h-9C144,70,144,75,147,75z"/>
	<circle fill="none" cx="139.556" cy="70.44" r="1.44"/>
	<path fill="none" d="M170.268,149.784c0.778-1.318,1.152-2.522,0.76-3.699c-1.386-0.051-2.521,0.832-3.25,1.931
		c-1.136,1.876-1.512,5.521-2.62,9.174C166.554,153.992,169.076,151.613,170.268,149.784z"/>
	<circle fill="none" cx="162.327" cy="70.44" r="1.44"/>
	<circle fill="none" cx="139.556" cy="74.629" r="1.44"/>
	<circle fill="none" cx="162.327" cy="74.629" r="1.44"/>
	<polygon fill="none" points="133.011,72.535 122.542,67.823 112.071,72.535 122.542,77.247 	"/>
	<circle fill="none" cx="82.754" cy="74.629" r="1.44"/>
	<circle fill="none" cx="82.754" cy="70.44" r="1.44"/>
	<circle fill="none" cx="105.527" cy="70.44" r="1.44"/>
	<circle fill="none" cx="105.527" cy="74.629" r="1.44"/>
	<path fill="none" d="M90,75h9c3,0,3-5,0-5h-9C87,70,87,75,90,75z"/>
	<path fill="none" d="M131.163,217.559c-1.063,0.077-1.812,0.628-2.98,0.652c-2.386-0.164-3.346-1.427-4.25-4.462
		c0.133,5.319,2.958,6.983,4.25,6.971c1.256,0.013,1.987-0.917,3.139-0.903c1.063-0.033,1.234,0.407,2.563,1.005
		C133.239,218.789,132.491,217.648,131.163,217.559z"/>
	<path fill="none" d="M122.757,225.66c3.926,0,1.308-7.329,0-11.517C121.447,218.331,118.83,225.66,122.757,225.66z"/>
	<path fill="none" d="M153.905,190.569c-3.141-2.354-12.826-3.287-12.564-4.728c0-1.047,4.188,0.754,7.329,0.754
		c2.879,0,3.927-2.682,2.879-5.299L137.153,144h3.926c1.31-10,5.235-17.397,8.639-17.397c3.926,0,3.926,3.022,3.141,6.425
		c3.142-0.785,4.973-3.376,4.45-6.78c4.712-1.57,4.712-8.06,0.785-11.462c-3.141,8.638-15.705,2.215-19.632,19.215h-31.41
		c-3.927-17-16.491-10.594-19.632-19.231c-3.927,3.403-3.927,9.823,0.785,11.393c-0.523,3.404,1.309,5.991,4.45,6.774
		c-0.523-3.402-0.523-6.347,3.141-6.347c3.403,0,7.329,7.411,8.638,17.411h3.927l-14.397,37.297c-1.046,2.617,0,5.362,2.879,5.362
		c3.142,0,7.33-1.832,7.33-0.785c0.262,1.44-9.423,2.356-12.565,4.711c-3.664,2.618-4.45,8.638-10.732,6.282
		c2.094,7.067,7.33,8.115,13.611,4.449c2.618,1.311,5.759,0.524,7.329-2.094c-9.161-5.234,8.9-6.543,8.9-14.396
		c0-1.832-1.832-2.619-3.141-3.402l7.853-24.082l7.329,13.088l7.329-13.088l7.853,24.082c-1.31,0.783-3.142,1.57-3.142,3.402
		c0,7.853,18.062,9.161,8.9,14.396c1.57,2.618,4.711,3.404,7.328,2.094c6.283,3.666,11.518,2.61,13.612-4.457
		C158.354,199.215,157.57,193.188,153.905,190.569z M122.757,155.778L115.428,144h14.658L122.757,155.778z"/>
	<path fill="none" d="M132.703,196.344c-2.879,0-8.639,2.355-8.639,12.825c0.786-2.617,1.31-6.542,4.975-6.542
		c1.309,0,1.833,1.308,1.833,2.355c0,1.832-1.572,3.141-1.572,4.974c0,1.831,0.786,2.618,2.356,2.618s2.355-0.263,2.617-1.833
		c-1.832,0.523-2.356,0.262-2.356-1.048c0-1.832,4.451-4.449,4.451-9.161C136.368,198.699,134.797,196.344,132.703,196.344z"/>
	<path fill="none" d="M115.188,191.501c-0.392,1.175-0.018,2.38,0.761,3.698c1.191,1.829,3.713,4.207,5.111,7.405
		c-1.109-3.653-1.486-7.298-2.621-9.174C117.711,192.331,116.574,191.449,115.188,191.501z"/>
	<path fill="none" d="M117.33,218.211c-1.169-0.024-1.916-0.575-2.98-0.652c-1.328,0.09-2.077,1.23-2.721,3.263
		c1.328-0.598,1.499-1.038,2.564-1.005c1.15-0.014,1.881,0.916,3.138,0.903c1.291,0.013,4.116-1.651,4.25-6.971
		C120.676,216.784,119.716,218.047,117.33,218.211z"/>
	<ellipse fill="none" cx="122.756" cy="211.656" rx="3.152" ry="1.872"/>
	<path fill="none" d="M111.239,111.798c0.262,1.57,1.047,1.832,2.618,1.832c1.57,0,2.356-0.786,2.356-2.618
		c0-1.833-1.571-3.141-1.571-4.974c0-1.046,0.524-2.355,1.833-2.355c3.665,0,4.188,3.927,4.973,6.544
		c0-10.471-5.757-12.827-8.637-12.827c-2.095,0-3.665,2.356-3.665,4.188c0,4.712,4.45,7.329,4.45,9.162
		C113.596,112.059,113.072,112.322,111.239,111.798z"/>
	<path fill="none" d="M163.459,180.247c3.927,0,1.309-7.329,0-11.518C162.15,172.918,159.533,180.247,163.459,180.247z"/>
	<path fill="none" d="M171.866,172.146c-1.064,0.077-1.812,0.626-2.981,0.651c-2.386-0.165-3.346-1.427-4.25-4.463
		c0.134,5.319,2.959,6.985,4.25,6.973c1.257,0.013,1.987-0.919,3.139-0.905c1.064-0.032,1.235,0.407,2.563,1.006
		C173.942,173.374,173.194,172.235,171.866,172.146z"/>
	<path fill="none" d="M173.405,150.93c-2.879,0-8.638,2.356-8.638,12.826c0.786-2.617,1.31-6.544,4.975-6.544
		c1.308,0,1.832,1.309,1.832,2.355c0,1.834-1.571,3.142-1.571,4.974c0,1.833,0.786,2.617,2.355,2.617
		c1.571,0,2.356-0.262,2.618-1.832c-1.833,0.523-2.356,0.263-2.356-1.046c0-1.834,4.451-4.451,4.451-9.163
		C177.071,153.286,175.501,150.93,173.405,150.93z"/>
	<path fill="none" d="M76.627,172.797c-1.168-0.025-1.917-0.574-2.98-0.651c-1.328,0.09-2.077,1.229-2.721,3.262
		c1.328-0.599,1.498-1.038,2.563-1.006c1.151-0.014,1.881,0.918,3.138,0.905c1.292,0.013,4.117-1.653,4.251-6.973
		C79.973,171.37,79.014,172.632,76.627,172.797z"/>
	<ellipse fill="none" cx="82.054" cy="166.243" rx="3.153" ry="1.872"/>
	<path fill="none" d="M86.371,148.016c-1.134,1.876-1.511,5.521-2.619,9.174c1.397-3.197,3.919-5.576,5.11-7.405
		c0.778-1.318,1.153-2.522,0.761-3.699C88.236,146.034,87.099,146.917,86.371,148.016z"/>
	<path fill="none" d="M80.356,157.189c-1.108-3.652-1.486-7.298-2.62-9.174c-0.728-1.099-1.865-1.981-3.251-1.931
		c-0.392,1.177-0.018,2.381,0.76,3.699C76.437,151.613,78.959,153.992,80.356,157.189z"/>
	<path fill="none" d="M70.537,165.326c0.262,1.57,1.047,1.832,2.618,1.832c1.57,0,2.355-0.784,2.355-2.617
		c0-1.832-1.571-3.14-1.571-4.974c0-1.047,0.524-2.355,1.833-2.355c3.665,0,4.188,3.927,4.973,6.544
		c0-10.47-5.759-12.826-8.638-12.826c-2.094,0-3.665,2.356-3.665,4.188c0,4.712,4.45,7.329,4.45,9.163
		C72.893,165.589,72.369,165.85,70.537,165.326z"/>
	<path fill="none" d="M92,150.93c-2.879,0-8.638,2.356-8.638,12.826c0.785-2.617,1.309-6.544,4.973-6.544
		c1.309,0,1.833,1.309,1.833,2.355c0,1.834-1.57,3.142-1.57,4.974c0,1.833,0.785,2.617,2.355,2.617c1.57,0,2.356-0.262,2.618-1.832
		c-1.833,0.523-2.356,0.263-2.356-1.046c0-1.834,4.45-4.451,4.45-9.163C95.665,153.286,94.095,150.93,92,150.93z"/>
	<path fill="none" d="M87.479,175.307c1.257,0.013,1.987-0.919,3.138-0.905c1.065-0.032,1.235,0.407,2.563,1.006
		c-0.644-2.033-1.393-3.172-2.721-3.262c-1.063,0.077-1.811,0.626-2.979,0.651c-2.386-0.165-3.346-1.427-4.251-4.463
		C83.363,173.653,86.188,175.319,87.479,175.307z"/>
	<path fill="none" d="M130.325,191.501c-1.387-0.052-2.523,0.83-3.251,1.93c-1.135,1.876-1.512,5.521-2.62,9.174
		c1.397-3.198,3.92-5.576,5.111-7.405C130.343,193.881,130.718,192.676,130.325,191.501z"/>
	<path fill="none" d="M82.054,142.292c-5.235,0-1.309,13.611,0,21.464C83.363,155.903,87.289,142.292,82.054,142.292z"/>
	<path fill="none" d="M122.757,187.707c-5.234,0-1.31,13.609,0,21.462C124.064,201.316,127.992,187.707,122.757,187.707z"/>
	<path fill="none" d="M111.239,210.741c0.262,1.57,1.047,1.833,2.618,1.833c1.57,0,2.356-0.787,2.356-2.618
		c0-1.833-1.571-3.142-1.571-4.974c0-1.048,0.524-2.355,1.833-2.355c3.665,0,4.188,3.925,4.973,6.542
		c0-10.47-5.757-12.825-8.637-12.825c-2.095,0-3.665,2.355-3.665,4.188c0,4.712,4.45,7.329,4.45,9.161
		C113.596,211.003,113.072,211.265,111.239,210.741z"/>
	<path fill="none" d="M82.054,168.729c-1.309,4.188-3.926,11.518,0,11.518C85.98,180.247,83.363,172.918,82.054,168.729z"/>
	<path d="M64.872,44.537c-0.317-0.049-0.634-0.026-0.934,0.097c-1.288,0.528-1.78,2.549-1.1,4.514
		c0.45,1.299,1.301,2.417,2.198,2.759c1,4.612,1.389,8.093,1.366,12.093h-1.231c-0.523,1-0.523,2,0,3h1.056
		c-0.019,1-0.031,0.572-0.052,0.781l0.09-0.033l10.47,4.749l-10.47,4.731l-1.258-0.894C64.783,77.378,64.423,78,64.17,79h116.743
		c-0.254-1,0.046-1.019-0.178-2.063l-1.916,0.355l-10.471-4.735l10.471-4.724l0.09-0.047c-0.021-0.211-0.034,0.213-0.053-0.787
		h1.486c0.523-1,0.523-2,0-3h-1.662c-0.022-4,0.346-7.227,1.271-11.626l0.159-0.44c1.025-0.195,2.053-1.265,2.563-2.74
		c0.681-1.965,0.188-4.008-1.1-4.537c-0.384-0.158-0.795-0.161-1.2-0.041c0.148-10.462,1.067-14.86,6.772-16.835
		c-4.974-3.141-9.422-2.359-12.041,3.924c-0.784-1.571-1.045-2.357-2.617-3.143c-1.308,5.759,0.263,10.208,3.928,14.919
		c-3.928-3.926-9.162-5.235-13.612-5.235c0,0.785,0.262,1.832,1.31,2.617c-3.403,2.618-4.712,3.926-6.021,6.544
		c1.309,2.617,2.617,3.926,6.021,6.544c-1.048,0.785-1.31,1.832-1.31,2.618c4.45,0,9.685-1.309,13.612-5.236
		c-1.832,4.45-7.854,8.639-10.471,8.639c-2.215,0-8.171-3.383-12.333-9.179c1.275-0.724,2.146-2.077,2.146-3.647
		c0-2.325-1.887-4.209-4.211-4.209s-4.209,1.885-4.209,4.209c0,1.57,0.87,2.924,2.145,3.647c-4.159,5.796-10.115,9.179-12.331,9.179
		c-2.617,0-9.161-3.403-10.471-8.639c3.927,3.927,9.162,5.236,13.611,5.236c0-0.786-0.262-1.833-1.309-2.618
		c3.403-2.618,4.712-3.927,6.021-6.544c-1.309-2.618-2.617-3.926-6.021-6.544c1.047-0.785,1.309-1.832,1.309-2.617
		c-4.449,0-9.685,1.309-13.611,5.235c3.927-3.926,5.234-9.161,5.234-13.611c-0.784,0-1.831,0.261-2.617,1.309
		c-2.617-3.403-3.926-4.712-6.543-6.021c-2.617,1.309-3.927,2.617-6.543,6.021c-0.786-1.047-1.833-1.309-2.617-1.309
		c0,4.45,1.308,9.685,5.234,13.611c-3.926-3.926-9.161-5.235-13.61-5.235c0,0.785,0.261,1.832,1.308,2.617
		c-3.403,2.618-4.712,3.926-6.02,6.544c1.308,2.617,2.617,3.926,6.02,6.544c-1.047,0.785-1.308,1.832-1.308,2.618
		c4.449,0,9.684-1.309,13.61-5.236c-1.308,5.236-7.853,8.639-10.469,8.639c-2.216,0-8.172-3.383-12.333-9.179
		c1.275-0.724,2.145-2.077,2.145-3.647c0-2.325-1.884-4.209-4.209-4.209c-2.325,0-4.209,1.885-4.209,4.209
		c0,1.57,0.87,2.924,2.145,3.647c-4.161,5.796-10.117,9.179-12.332,9.179c-2.617,0-8.638-4.188-10.47-8.639
		c3.926,3.927,9.161,5.236,13.611,5.236c0-0.786-0.262-1.833-1.309-2.618c3.402-2.618,4.711-3.927,6.02-6.544
		c-1.309-2.618-2.618-3.926-6.02-6.544c1.047-0.785,1.309-1.832,1.309-2.617c-4.45,0-9.685,1.309-13.611,5.235
		c3.665-4.711,5.235-9.161,3.926-14.92c-1.57,0.785-1.833,1.57-2.617,3.141c-2.618-6.283-7.067-7.067-12.041-3.927
		C64.06,29.746,64.44,34.123,64.872,44.537z M162.327,69c0.797,0,1.439,0.645,1.439,1.44s-0.643,1.44-1.439,1.44
		c-0.795,0-1.439-0.645-1.439-1.44S161.532,69,162.327,69z M162.327,73.189c0.797,0,1.439,0.645,1.439,1.439s-0.643,1.44-1.439,1.44
		c-0.795,0-1.439-0.645-1.439-1.44S161.532,73.189,162.327,73.189z M147,70h9c3,0,3,5,0,5h-9C144,75,144,70,147,70z M139.556,69
		c0.795,0,1.439,0.645,1.439,1.44s-0.645,1.44-1.439,1.44s-1.439-0.645-1.439-1.44S138.761,69,139.556,69z M139.556,73.189
		c0.795,0,1.439,0.645,1.439,1.439s-0.645,1.44-1.439,1.44s-1.439-0.645-1.439-1.44S138.761,73.189,139.556,73.189z M122.542,67.823
		l10.469,4.712l-10.469,4.712l-10.47-4.712L122.542,67.823z M105.527,69c0.796,0,1.44,0.645,1.44,1.44s-0.645,1.44-1.44,1.44
		c-0.795,0-1.439-0.645-1.439-1.44S104.732,69,105.527,69z M105.527,73.189c0.796,0,1.44,0.645,1.44,1.439s-0.645,1.44-1.44,1.44
		c-0.795,0-1.439-0.645-1.439-1.44S104.732,73.189,105.527,73.189z M90,70h9c3,0,3,5,0,5h-9C87,75,87,70,90,70z M82.754,69
		c0.795,0,1.44,0.645,1.44,1.44s-0.645,1.44-1.44,1.44c-0.794,0-1.439-0.645-1.439-1.44S81.96,69,82.754,69z M82.754,73.189
		c0.795,0,1.44,0.645,1.44,1.439s-0.645,1.44-1.44,1.44c-0.794,0-1.439-0.645-1.439-1.44S81.96,73.189,82.754,73.189z"/>
	<path d="M57,81v130.003C57,222.781,63.862,232,75.641,232h39.263c3.926,0,6.543,2.617,7.853,8.899
		c1.308-6.282,3.926-8.899,7.853-8.899h39.263c11.78,0,18.128-9.219,18.128-20.997V81H57z M171.027,146.085
		c0.393,1.177,0.019,2.381-0.76,3.699c-1.191,1.829-3.714,4.208-5.11,7.405c1.108-3.652,1.484-7.298,2.62-9.174
		C168.506,146.917,169.642,146.034,171.027,146.085z M163.459,142.292c5.235,0,1.309,13.611,0,21.464
		C162.15,155.903,158.225,142.292,163.459,142.292z M149.849,155.117c0-1.831,1.569-4.188,3.664-4.188
		c2.879,0,8.638,2.356,8.638,12.826c-0.785-2.617-1.309-6.544-4.973-6.544c-1.31,0-1.833,1.309-1.833,2.355
		c0,1.834,1.57,3.142,1.57,4.974c0,1.833-0.785,2.617-2.354,2.617c-1.571,0-2.356-0.262-2.618-1.832
		c1.832,0.523,2.355,0.263,2.355-1.046C154.298,162.446,149.849,159.829,149.849,155.117z M155.891,146.085
		c1.387-0.051,2.523,0.832,3.252,1.931c1.134,1.876,1.511,5.521,2.62,9.174c-1.398-3.197-3.921-5.576-5.111-7.405
		C155.874,148.466,155.498,147.262,155.891,146.085z M155.053,172.146c1.063,0.077,1.812,0.626,2.979,0.651
		c2.387-0.165,3.346-1.427,4.252-4.463c-0.134,5.319-2.96,6.985-4.251,6.973c-1.256,0.013-1.986-0.919-3.138-0.905
		c-1.064-0.032-1.236,0.407-2.563,1.006C152.977,173.374,153.726,172.235,155.053,172.146z M160.307,166.242
		c0-1.033,1.411-1.871,3.152-1.871s3.152,0.838,3.152,1.871c0,1.034-1.411,1.872-3.152,1.872S160.307,167.276,160.307,166.242z
		 M136.368,101.589c0,4.712-4.451,7.329-4.451,9.162c0,1.308,0.524,1.571,2.356,1.047c-0.262,1.57-1.047,1.832-2.617,1.832
		s-2.356-0.786-2.356-2.618c0-1.833,1.572-3.141,1.572-4.974c0-1.046-0.524-2.355-1.833-2.355c-3.665,0-4.188,3.927-4.975,6.544
		c0-10.471,5.76-12.827,8.639-12.827C134.797,97.401,136.368,99.757,136.368,101.589z M121.581,114.805
		c-0.134,5.32-2.959,6.985-4.25,6.972c-1.257,0.013-1.988-0.918-3.138-0.905c-1.065-0.032-1.236,0.407-2.564,1.006
		c0.644-2.033,1.393-3.172,2.721-3.262c1.064,0.077,1.811,0.627,2.98,0.651C119.716,119.103,120.676,117.841,121.581,114.805z
		 M119.604,112.714c0-1.034,1.41-1.872,3.152-1.872c1.741,0,3.151,0.838,3.151,1.872c0,1.033-1.41,1.873-3.151,1.873
		C121.015,114.586,119.604,113.747,119.604,112.714z M122.757,115.2c1.308,4.188,3.926,11.517,0,11.517
		C118.83,126.717,121.447,119.388,122.757,115.2z M123.933,114.805c0.904,3.036,1.864,4.298,4.25,4.463
		c1.169-0.024,1.917-0.575,2.98-0.651c1.328,0.089,2.076,1.229,2.721,3.262c-1.328-0.599-1.499-1.038-2.563-1.006
		c-1.151-0.014-1.883,0.917-3.139,0.905C126.891,121.79,124.065,120.125,123.933,114.805z M130.325,92.557
		c0.393,1.176,0.018,2.38-0.76,3.699c-1.191,1.83-3.714,4.208-5.111,7.406c1.108-3.653,1.485-7.298,2.62-9.174
		C127.802,93.389,128.938,92.506,130.325,92.557z M122.757,88.763c5.235,0,1.308,13.611,0,21.464
		C121.447,102.374,117.522,88.763,122.757,88.763z M115.188,92.557c1.386-0.051,2.523,0.833,3.25,1.931
		c1.135,1.876,1.512,5.521,2.621,9.174c-1.397-3.198-3.919-5.576-5.111-7.406C115.17,94.937,114.796,93.733,115.188,92.557z
		 M112.811,97.401c2.879,0,8.637,2.356,8.637,12.827c-0.784-2.617-1.308-6.544-4.973-6.544c-1.309,0-1.833,1.309-1.833,2.355
		c0,1.833,1.571,3.141,1.571,4.974c0,1.832-0.786,2.618-2.356,2.618c-1.571,0-2.356-0.262-2.618-1.832
		c1.833,0.523,2.357,0.261,2.357-1.047c0-1.833-4.45-4.45-4.45-9.162C109.146,99.757,110.716,97.401,112.811,97.401z
		 M82.054,142.292c5.234,0,1.309,13.611,0,21.464C80.745,155.903,76.819,142.292,82.054,142.292z M93.572,165.326
		c-0.262,1.57-1.048,1.832-2.618,1.832c-1.571,0-2.355-0.784-2.355-2.617c0-1.832,1.57-3.14,1.57-4.974
		c0-1.047-0.524-2.355-1.833-2.355c-3.665,0-4.188,3.927-4.973,6.544c0-10.47,5.758-12.826,8.638-12.826
		c2.094,0,3.665,2.356,3.665,4.188c0,4.712-4.45,7.329-4.45,9.163C91.215,165.589,91.739,165.85,93.572,165.326z M87.48,172.797
		c1.168-0.025,1.917-0.574,2.979-0.651c1.328,0.09,2.077,1.229,2.721,3.262c-1.328-0.599-1.499-1.038-2.563-1.006
		c-1.151-0.014-1.881,0.918-3.138,0.905c-1.291,0.013-4.116-1.653-4.25-6.973C84.134,171.37,85.094,172.632,87.48,172.797z
		 M82.054,168.114c-1.741,0-3.153-0.838-3.153-1.872c0-1.033,1.412-1.871,3.153-1.871s3.153,0.838,3.153,1.871
		C85.207,167.276,83.795,168.114,82.054,168.114z M88.862,149.784c-1.191,1.829-3.713,4.208-5.11,7.405
		c1.108-3.652,1.485-7.298,2.619-9.174c0.729-1.099,1.865-1.981,3.252-1.931C90.015,147.262,89.64,148.466,88.862,149.784z
		 M74.485,146.085c1.386-0.051,2.523,0.832,3.251,1.931c1.134,1.876,1.512,5.521,2.62,9.174c-1.397-3.197-3.92-5.576-5.111-7.405
		C74.467,148.466,74.094,147.262,74.485,146.085z M68.442,155.117c0-1.831,1.57-4.188,3.665-4.188c2.879,0,8.638,2.356,8.638,12.826
		c-0.785-2.617-1.309-6.544-4.973-6.544c-1.309,0-1.833,1.309-1.833,2.355c0,1.834,1.571,3.142,1.571,4.974
		c0,1.833-0.786,2.617-2.355,2.617c-1.571,0-2.356-0.262-2.618-1.832c1.832,0.523,2.356,0.263,2.356-1.046
		C72.893,162.446,68.442,159.829,68.442,155.117z M76.627,175.307c-1.256,0.013-1.987-0.919-3.138-0.905
		c-1.065-0.032-1.235,0.407-2.563,1.006c0.644-2.033,1.393-3.172,2.721-3.262c1.063,0.077,1.812,0.626,2.98,0.651
		c2.386-0.165,3.346-1.427,4.251-4.463C80.745,173.653,77.919,175.319,76.627,175.307z M82.054,168.729
		c1.309,4.188,3.926,11.518,0,11.518C78.128,180.247,80.745,172.918,82.054,168.729z M109.146,200.532
		c0-1.833,1.57-4.188,3.665-4.188c2.879,0,8.637,2.355,8.637,12.825c-0.784-2.617-1.308-6.542-4.973-6.542
		c-1.309,0-1.833,1.308-1.833,2.355c0,1.832,1.571,3.141,1.571,4.974c0,1.831-0.786,2.618-2.356,2.618
		c-1.571,0-2.356-0.263-2.618-1.833c1.833,0.523,2.357,0.262,2.357-1.048C113.596,207.861,109.146,205.244,109.146,200.532z
		 M122.757,209.169c-1.31-7.853-5.234-21.462,0-21.462C127.992,187.707,124.064,201.316,122.757,209.169z M127.074,193.431
		c0.728-1.1,1.864-1.981,3.251-1.93c0.393,1.175,0.018,2.38-0.76,3.698c-1.191,1.829-3.714,4.207-5.111,7.405
		C125.563,198.951,125.939,195.307,127.074,193.431z M125.908,211.656c0,1.033-1.41,1.872-3.151,1.872
		c-1.742,0-3.152-0.839-3.152-1.872s1.41-1.871,3.152-1.871C124.498,209.785,125.908,210.623,125.908,211.656z M121.06,202.604
		c-1.397-3.198-3.919-5.576-5.111-7.405c-0.779-1.318-1.152-2.523-0.761-3.698c1.386-0.052,2.523,0.83,3.25,1.93
		C119.573,195.307,119.95,198.951,121.06,202.604z M117.331,220.72c-1.257,0.013-1.988-0.917-3.138-0.903
		c-1.065-0.033-1.236,0.407-2.564,1.005c0.644-2.032,1.393-3.173,2.721-3.263c1.064,0.077,1.811,0.628,2.98,0.652
		c2.386-0.164,3.346-1.427,4.251-4.462C121.447,219.068,118.622,220.732,117.331,220.72z M122.757,225.66
		c-3.927,0-1.31-7.329,0-11.517C124.064,218.331,126.683,225.66,122.757,225.66z M131.321,219.816
		c-1.151-0.014-1.883,0.916-3.139,0.903c-1.292,0.013-4.117-1.651-4.25-6.971c0.904,3.035,1.864,4.298,4.25,4.462
		c1.169-0.024,1.917-0.575,2.98-0.652c1.328,0.09,2.076,1.23,2.721,3.263C132.556,220.224,132.385,219.783,131.321,219.816z
		 M134.273,210.741c-0.262,1.57-1.047,1.833-2.617,1.833s-2.356-0.787-2.356-2.618c0-1.833,1.572-3.142,1.572-4.974
		c0-1.048-0.524-2.355-1.833-2.355c-3.665,0-4.188,3.925-4.975,6.542c0-10.47,5.76-12.825,8.639-12.825
		c2.094,0,3.665,2.355,3.665,4.188c0,4.712-4.451,7.329-4.451,9.161C131.917,211.003,132.441,211.265,134.273,210.741z
		 M151.025,201.316c-2.617,1.311-5.758,0.524-7.328-2.094c9.161-5.234-8.9-6.543-8.9-14.396c0-1.832,1.832-2.619,3.142-3.402
		l-7.853-24.082l-7.329,13.088l-7.329-13.088l-7.853,24.082c1.309,0.783,3.141,1.57,3.141,3.402c0,7.853-18.061,9.161-8.9,14.396
		c-1.57,2.618-4.711,3.404-7.329,2.094c-6.282,3.666-11.517,2.618-13.611-4.449c6.282,2.355,7.068-3.664,10.732-6.282
		c3.142-2.354,12.827-3.271,12.565-4.711c0-1.047-4.188,0.785-7.33,0.785c-2.879,0-3.925-2.745-2.879-5.362L108.361,144h-3.927
		c-1.309-10-5.235-17.411-8.638-17.411c-3.665,0-3.665,2.944-3.141,6.347c-3.141-0.783-4.973-3.37-4.45-6.774
		c-4.712-1.569-4.712-7.99-0.785-11.393c3.141,8.638,15.705,2.231,19.632,19.231h31.41c3.927-17,16.491-10.578,19.632-19.215
		c3.927,3.403,3.927,9.893-0.785,11.462c0.522,3.404-1.309,5.995-4.45,6.78c0.785-3.402,0.785-6.425-3.141-6.425
		c-3.403,0-7.329,7.397-8.639,17.397h-3.926l14.396,37.297c1.048,2.617,0,5.299-2.879,5.299c-3.141,0-7.329-1.801-7.329-0.754
		c-0.262,1.44,9.424,2.373,12.564,4.728c3.665,2.618,4.449,8.646,10.732,6.29C162.543,203.927,157.309,204.982,151.025,201.316z
		 M163.459,180.247c-3.926,0-1.309-7.329,0-11.518C164.768,172.918,167.386,180.247,163.459,180.247z M172.023,174.401
		c-1.151-0.014-1.882,0.918-3.139,0.905c-1.291,0.013-4.116-1.653-4.25-6.973c0.904,3.036,1.864,4.298,4.25,4.463
		c1.17-0.025,1.917-0.574,2.981-0.651c1.328,0.09,2.076,1.229,2.72,3.262C173.259,174.809,173.088,174.369,172.023,174.401z
		 M174.977,165.326c-0.262,1.57-1.047,1.832-2.618,1.832c-1.569,0-2.355-0.784-2.355-2.617c0-1.832,1.571-3.14,1.571-4.974
		c0-1.047-0.524-2.355-1.832-2.355c-3.665,0-4.188,3.927-4.975,6.544c0-10.47,5.759-12.826,8.638-12.826
		c2.096,0,3.666,2.356,3.666,4.188c0,4.712-4.451,7.329-4.451,9.163C172.62,165.589,173.144,165.85,174.977,165.326z"/>
	<polygon points="122.757,155.778 130.086,144 115.428,144 	"/>
</g>
</svg>
