<?xml version="1.0" encoding="utf-8"?>
<!-- Generator: Adobe Illustrator 16.0.0, SVG Export Plug-In . SVG Version: 6.00 Build 0)  -->
<!DOCTYPE svg PUBLIC "-//W3C//DTD SVG 1.1//EN" "http://www.w3.org/Graphics/SVG/1.1/DTD/svg11.dtd">
<svg version="1.1" id="Layer_1" xmlns="http://www.w3.org/2000/svg" xmlns:xlink="http://www.w3.org/1999/xlink" x="0px" y="0px"
	 width="256px" height="256px" viewBox="0 0 256 256" enable-background="new 0 0 256 256" xml:space="preserve">
<g>
	<path id="rect3178" stroke="#000000" stroke-width="3.3696" stroke-linecap="round" stroke-linejoin="round" d="M70.122,212.77
		l20.617-16.08c1.752-1.367,4.429-0.865,5.979,1.123l9.647,12.377c1.55,1.986,1.386,4.709-0.367,6.074L85.382,232.34
		c-1.753,1.369-4.43,0.865-5.979-1.123l-9.648-12.377C68.205,216.854,68.37,214.135,70.122,212.77z"/>
	<path id="rect3180" stroke="#000000" stroke-width="3.3696" stroke-linecap="round" stroke-linejoin="round" d="M186.48,212.77
		l-20.617-16.08c-1.754-1.367-4.429-0.865-5.979,1.123l-9.647,12.377c-1.551,1.986-1.386,4.709,0.366,6.074l20.617,16.076
		c1.752,1.369,4.429,0.865,5.979-1.123l9.648-12.377C188.396,216.854,188.231,214.135,186.48,212.77z"/>
	<g>
		<path id="path3184" stroke="#000000" stroke-width="3.3696" d="M79.214,73.936l0.437-33.024l-6.006-8.41
			c14.086,9.533,24.024,13.816,24.024,13.816s-8.409,2.403-8.409,7.209c0,4.806,4.782,7.208,12.613,7.208
			c7.808,0,18.62-5.973,18.62-11.414c0-5.407-10.21-8.411-10.21-8.411c2.118-6.885,19.821-18.021,19.52-18.021
			c-0.3,0,17.402,11.136,19.521,18.021c0,0-10.211,3.004-10.211,8.411c0,5.44,10.812,11.414,18.619,11.414
			c7.83,0,12.612-2.402,12.612-7.208c0-4.807-8.408-7.209-8.408-7.209s9.938-4.283,24.024-13.816l-6.006,8.41l0.436,33.024H79.214z"
			/>
		<path id="path2298" stroke="#000000" stroke-width="3.3696" d="M92.865,85.971c0,0-39.041,25.832-42.044,63.679
			c-3.002,37.846,19.22,62.477,19.22,62.477l20.421-15.619c0,0-16.763-25.4-7.809-53.467c9.01-28.235,34.236-33.641,46.248-33.641
			c12.013,0,35.438,5.406,44.446,33.641c8.955,28.066-7.808,53.467-7.808,53.467l20.42,15.619c0,0,22.224-24.631,19.22-62.477
			c-3.003-37.847-42.042-63.679-42.042-63.679H92.865z M92.273,99.638l5.968,6.749l-6.738,5.97l-5.434-1.605l-0.545-5.143
			L92.273,99.638z M166.322,100.408l6.738,5.97l-0.534,5.143l-5.434,1.605l-6.748-5.97L166.322,100.408z M78.628,120.129l3.097,4.75
			l-3.792,8.174l-5.622,0.707l-3.097-4.75l3.782-8.177L78.628,120.129z M179.968,120.898l5.622,0.705l3.791,8.175l-3.098,4.751
			l-5.621-0.705l-3.791-8.176L179.968,120.898z M67.366,146.045l4.664,3.211l-0.384,9l-4.937,2.799l-4.664-3.211l0.385-9.002
			L67.366,146.045z M191.229,146.814l4.927,2.797l0.396,9.002l-4.675,3.209l-4.927-2.795l-0.394-9.002L191.229,146.814z
			 M67.854,173.848l5.33,1.914l1.905,8.814l-4.063,3.953l-5.33-1.924l-1.905-8.816L67.854,173.848z M190.731,174.619l4.063,3.939
			l-1.896,8.816l-5.331,1.924l-4.063-3.951l1.896-8.813L190.731,174.619z M85.498,105.633l-12.454,15.071 M69.18,129.07
			l-6.788,19.764 M62.025,157.914l1.745,19.861 M167.122,113.107l9.833,12.548 M180.728,133.879l5.903,16.045 M187,159.258
			l-1.565,17.436"/>
	</g>
</g>
</svg>
