<?xml version="1.0" encoding="utf-8"?>
<!-- Generator: Adobe Illustrator 16.0.0, SVG Export Plug-In . SVG Version: 6.00 Build 0)  -->
<!DOCTYPE svg PUBLIC "-//W3C//DTD SVG 1.1//EN" "http://www.w3.org/Graphics/SVG/1.1/DTD/svg11.dtd">
<svg version="1.1" id="Layer_1" xmlns="http://www.w3.org/2000/svg" xmlns:xlink="http://www.w3.org/1999/xlink" x="0px" y="0px"
	 width="256px" height="256px" viewBox="0 0 256 256" enable-background="new 0 0 256 256" xml:space="preserve">
<g>
	<g>
		<path fill-rule="evenodd" clip-rule="evenodd" fill="none" d="M257.932,257.932c-85.668,0-171.3,0-256.896,0
			c0-85.668,0-171.3,0-256.896c85.668,0,171.3,0,256.896,0C257.932,86.704,257.932,172.336,257.932,257.932z M85.616,250.586
			c-0.705-1.552-1.231-2.686-1.737-3.828c-1.847-4.168-1.268-5.988,2.906-7.931c1.438-0.67,3.174-1.052,4.755-0.998
			c4.965,0.169,9.931,0.49,14.876,0.968c8.25,0.798,16.472,1.914,24.73,2.609c6.789,0.571,13.63,1.184,20.417,0.934
			c6.729-0.248,9.054-5.611,5.058-11.07c-1.936-2.644-4.594-4.772-7.004-7.05c-1.675-1.582-3.487-3.019-5.238-4.519
			c2.105-0.733,3.586-0.778,5.063-0.726c6.318,0.229,12.641,0.781,18.95,0.665c10.213-0.189,19.637-3.181,27.939-9.275
			c3.479-2.555,6.821-5.293,10.28-7.873c5.598-4.176,11.183-8.451,19.005-6.242c0.36-6.834-5.358-6.236-9.504-7.963
			c5.503-5.288,7.98-11.354,9.089-18.307c0.736-4.614,3.225-8.731,7.231-11.565c0.909-0.644,2.042-0.97,3.254-1.524
			c-4.889-3.883-8.599-1.406-11.667-1.188c0-4.863,0.063-9.476-0.016-14.084c-0.092-5.342,0.842-10.248,5.071-14.027
			c0.538-0.48,0.755-1.32,1.174-2.09c-4.285-3.017-7.278,1.243-11.109,1.447c-0.265-2.825,0.004-5.762-0.881-8.297
			c-2.406-6.901-2.356-13.304,2.216-19.314c0.109-0.145-0.14-0.56-0.207-0.8c-4.195-1.645-6.742,1.603-9.338,3.345
			c-1.669-4.173-3.761-7.98-4.663-12.051c-0.942-4.26-0.744-8.773-1.059-13.407c-4.682-1.083-5.513,4.429-8.871,5.621
			c-3.165-3.984-4.234-7.026-3.915-10.941c0.243-2.977,1.472-5.128,4.704-5.461c1.801-0.186,3.646-0.382,5.433-0.196
			c9.057,0.94,17.308,4.496,25.487,8.179c6.468,2.913,12.843,6.033,19.775,9.306c1.835-10.199-1.501-18.65-7.255-26.408
			c3.137-1.652,7.278-1.376,8.161-6.412c-7.581,1.146-12.772-1.974-17.173-7.414c-2.917-3.607-6.59-6.602-9.843-9.79
			c1.666-1.226,3.946-2.901,6.226-4.577c-0.177-0.42-0.354-0.841-0.531-1.261c-4.591,0-9.434,0.917-13.705-0.252
			c-4.481-1.228-8.238-4.891-12.644-6.673c-3.73-1.511-7.933-1.857-12.16-2.768c1.357-2.716,4.99-4.882,3.393-9.19
			c-2.433,1.424-4.571,3.095-6.996,3.979c-2.604,0.949-5.464,1.489-8.238,1.607c-3.475,0.149-6.985-0.568-10.462-0.439
			c-3.375,0.126-6.728,0.85-10.223,1.33c0.488-3.531,2.618-6.747,0.805-10.058c-4,3.264-7.673,6.605-11.7,9.446
			c-3.646,2.572-7.694,4.572-11.538,6.87c-18.309,10.945-22.438,26.06-13.56,45.103c3.893,8.352,9.142,16.165,14.472,23.732
			c10.813,15.354,19.434,31.364,21.778,50.491c2.092,17.067-2.321,31.761-12.944,44.901c-0.823,1.02-1.886,1.848-2.892,2.817
			c1.548-8.447,3.537-16.378,4.358-24.428c1.53-14.99,1.517-30.054-4.063-44.362c-10.359-26.563-27.968-47.221-52.133-62.301
			c-8.461-5.28-16.59-10.938-23.457-18.292c-4.294-4.599-7.309-9.756-8.747-15.894c-0.25-1.068-1.266-1.957-1.929-2.929
			c-0.723,0.985-1.702,1.877-2.102,2.98c-0.439,1.214-0.587,2.646-0.445,3.937c0.82,7.458-2.654,12.282-9.037,15.593
			c-4.986,2.586-8.842,6.512-11.794,11.249c-6.637,10.65-8.18,22.681-8.953,34.832c-0.088,1.389,1.394,3.366,2.701,4.269
			c6.244,4.311,13.281,4.932,20.546,3.533c5.123-0.987,9.961-0.852,13.992,2.931c3.399,3.189,7.008,6.235,9.283,10.87
			c-7.521,0.837-14.817,1.538-22.031,1.041c-4.988-0.344-10.152-0.829-12.808-7.212c-2.53-6.082-8.512-6.27-13.549-1.613
			c-1.192,1.102-2.559,2.015-3.845,3.015c-1.141,0.886-2.771,1.549-3.298,2.713c-0.65,1.433-0.381,3.282-0.517,5.056
			c-5.855,3.392-6.378,5.13-4.385,11.674c0.494,1.622-0.003,3.756-0.61,5.453c-0.907,2.533-1.376,4.725,0.867,6.813
			c0.825,0.769,1.284,1.915,2.009,2.809c3.012,3.713,5.824,7.633,9.188,10.999c1.988,1.989,3.996,3.38,4.643,6.567
			c0.814,4.014,2.763,4.247,6.597,1.334c-2.928-4.208-0.825-6.883,2.767-9.609c4.74-3.599,7.36-8.504,6.817-14.738
			c-0.064-0.741,0.351-1.525,0.557-2.345c10.462-0.689,20.607-0.777,30.245,3.494c-1.011,0.602-1.983,0.688-2.955,0.782
			c-10.046,0.979-18.904,7.902-21.09,17.191c-3.872,16.449,1.079,36.749,15.997,47.391c6.725,4.797,14.063,8.749,21.21,12.936
			c4.458,2.612,9.078,4.947,13.626,7.406c-2.371,0.795-4.348,0.839-6.324,0.788c-8.822-0.228-17.643-0.479-26.465-0.729
			c-4.494-0.126-8.117,1.781-10.915,5.101c-3.747,4.443-1.826,11.313,3.817,13.343c-0.141-2.546-1.175-5.489-0.167-7.288
			c1.095-1.952,3.964-3.152,6.297-4.092c2.083-0.84,4.487-0.878,6.75-1.27c-4.185,3.771-9.504,6.212-7.905,13.001
			c0.81,3.439,3.278,4.987,7.83,5.334c-0.598-2.169-1.367-4.301-1.706-6.499c-0.146-0.939,0.299-2.526,1-2.946
			c3.421-2.053,7.181-3.134,11.945-3.503c-3.381,3.799-8.308,5.62-6.695,11.133C77.243,248.046,80.708,249.841,85.616,250.586z"/>
		<path fill-rule="evenodd" clip-rule="evenodd" d="M85.616,250.586c-4.908-0.745-8.373-2.54-9.708-7.102
			c-1.613-5.513,3.314-7.334,6.695-11.133c-4.764,0.369-8.524,1.45-11.945,3.503c-0.7,0.42-1.145,2.007-1,2.946
			c0.339,2.198,1.108,4.33,1.706,6.499c-4.552-0.347-7.021-1.895-7.83-5.334c-1.599-6.789,3.72-9.229,7.905-13.001
			c-2.263,0.392-4.668,0.43-6.75,1.27c-2.333,0.939-5.202,2.14-6.297,4.092c-1.009,1.799,0.026,4.742,0.167,7.288
			c-5.643-2.03-7.564-8.899-3.817-13.343c2.798-3.319,6.421-5.227,10.915-5.101c8.822,0.249,17.643,0.501,26.465,0.729
			c1.976,0.051,3.953,0.007,6.324-0.788c-4.548-2.459-9.168-4.794-13.626-7.406c-7.147-4.187-14.485-8.139-21.21-12.936
			c-14.918-10.642-19.869-30.941-15.997-47.391c2.187-9.289,11.044-16.212,21.09-17.191c0.971-0.095,1.944-0.181,2.955-0.782
			c-9.637-4.271-19.782-4.184-30.245-3.494c-0.207,0.819-0.622,1.604-0.557,2.345c0.543,6.234-2.077,11.14-6.817,14.738
			c-3.592,2.727-5.695,5.401-2.767,9.609c-3.833,2.913-5.782,2.68-6.597-1.334c-0.647-3.188-2.654-4.578-4.643-6.567
			c-3.363-3.366-6.176-7.286-9.188-10.999c-0.725-0.894-1.184-2.04-2.009-2.809c-2.244-2.089-1.774-4.28-0.867-6.813
			c0.607-1.697,1.104-3.832,0.61-5.453c-1.994-6.544-1.471-8.282,4.385-11.674c0.136-1.774-0.133-3.624,0.517-5.056
			c0.527-1.164,2.158-1.828,3.298-2.713c1.286-1,2.653-1.913,3.845-3.015c5.037-4.657,11.019-4.469,13.549,1.613
			c2.656,6.383,7.82,6.868,12.808,7.212c7.214,0.497,14.51-0.203,22.031-1.041c-2.275-4.635-5.884-7.681-9.283-10.87
			c-4.031-3.783-8.87-3.918-13.992-2.931c-7.265,1.399-14.302,0.778-20.546-3.533c-1.308-0.903-2.79-2.88-2.701-4.269
			c0.773-12.151,2.315-24.182,8.953-34.832c2.953-4.737,6.808-8.662,11.794-11.249c6.383-3.311,9.857-8.135,9.037-15.593
			c-0.142-1.291,0.006-2.723,0.445-3.937c0.4-1.103,1.379-1.995,2.102-2.98c0.663,0.973,1.679,1.861,1.929,2.929
			c1.438,6.137,4.453,11.294,8.747,15.894c6.866,7.354,14.995,13.011,23.457,18.292c24.165,15.08,41.774,35.738,52.133,62.301
			c5.58,14.308,5.594,29.372,4.063,44.362c-0.821,8.05-2.811,15.98-4.358,24.428c1.006-0.97,2.068-1.798,2.892-2.817
			c10.623-13.141,15.036-27.834,12.944-44.901c-2.345-19.126-10.966-35.137-21.778-50.491c-5.33-7.567-10.579-15.381-14.472-23.732
			c-8.877-19.042-4.749-34.158,13.56-45.103c3.844-2.298,7.892-4.297,11.538-6.87c4.027-2.84,7.7-6.182,11.7-9.446
			c1.813,3.311-0.316,6.527-0.805,10.058c3.495-0.479,6.848-1.204,10.223-1.33c3.477-0.129,6.987,0.588,10.462,0.439
			c2.774-0.118,5.634-0.658,8.238-1.607c2.425-0.884,4.563-2.555,6.996-3.979c1.598,4.308-2.035,6.475-3.393,9.19
			c4.228,0.911,8.43,1.257,12.16,2.768c4.405,1.782,8.162,5.445,12.644,6.673c4.271,1.169,9.114,0.252,13.705,0.252
			c0.178,0.42,0.354,0.841,0.531,1.261c-2.279,1.675-4.56,3.351-6.226,4.577c3.253,3.188,6.926,6.183,9.843,9.79
			c4.4,5.44,9.592,8.561,17.173,7.414c-0.883,5.036-5.024,4.76-8.161,6.412c5.754,7.758,9.09,16.209,7.255,26.408
			c-6.933-3.272-13.308-6.393-19.775-9.306c-8.18-3.683-16.431-7.238-25.487-8.179c-1.786-0.186-3.632,0.011-5.433,0.196
			c-3.232,0.333-4.461,2.485-4.704,5.461c-0.319,3.915,0.75,6.957,3.915,10.941c3.358-1.191,4.189-6.704,8.871-5.621
			c0.314,4.633,0.116,9.146,1.059,13.407c0.902,4.071,2.994,7.878,4.663,12.051c2.596-1.742,5.143-4.99,9.338-3.345
			c0.067,0.24,0.316,0.656,0.207,0.8c-4.572,6.01-4.622,12.413-2.216,19.314c0.885,2.535,0.616,5.472,0.881,8.297
			c3.831-0.204,6.824-4.463,11.109-1.447c-0.419,0.77-0.636,1.61-1.174,2.09c-4.229,3.779-5.163,8.685-5.071,14.027
			c0.079,4.608,0.016,9.221,0.016,14.084c3.068-0.219,6.778-2.695,11.667,1.188c-1.212,0.555-2.345,0.881-3.254,1.524
			c-4.007,2.834-6.495,6.951-7.231,11.565c-1.108,6.953-3.586,13.019-9.089,18.307c4.146,1.727,9.864,1.129,9.504,7.963
			c-7.822-2.209-13.407,2.066-19.005,6.242c-3.459,2.58-6.802,5.318-10.28,7.873c-8.303,6.095-17.727,9.086-27.939,9.275
			c-6.31,0.116-12.632-0.437-18.95-0.665c-1.478-0.053-2.958-0.008-5.063,0.726c1.751,1.5,3.563,2.937,5.238,4.519
			c2.41,2.277,5.068,4.406,7.004,7.05c3.996,5.459,1.671,10.822-5.058,11.07c-6.787,0.25-13.628-0.362-20.417-0.934
			c-8.259-0.695-16.48-1.812-24.73-2.609c-4.945-0.478-9.912-0.799-14.876-0.968c-1.581-0.054-3.317,0.328-4.755,0.998
			c-4.174,1.942-4.753,3.763-2.906,7.931C84.385,247.9,84.911,249.034,85.616,250.586z M45.401,61.705
			c0.271-0.408,0.541-0.815,0.812-1.223c-1.345-0.926-2.623-2.008-4.095-2.64c-0.271-0.116-1.325,1.596-2.319,2.841
			C42.255,61.131,43.829,61.418,45.401,61.705z"/>
		<path fill-rule="evenodd" clip-rule="evenodd" fill="none" d="M45.401,61.705c-1.573-0.287-3.146-0.574-5.602-1.021
			c0.994-1.246,2.048-2.958,2.319-2.841c1.472,0.632,2.75,1.714,4.095,2.64C45.942,60.89,45.672,61.297,45.401,61.705z"/>
	</g>
</g>
</svg>
