<?xml version="1.0" encoding="utf-8"?>
<!-- Generator: Adobe Illustrator 16.0.0, SVG Export Plug-In . SVG Version: 6.00 Build 0)  -->
<!DOCTYPE svg PUBLIC "-//W3C//DTD SVG 1.1//EN" "http://www.w3.org/Graphics/SVG/1.1/DTD/svg11.dtd">
<svg version="1.1" id="Layer_1" xmlns="http://www.w3.org/2000/svg" xmlns:xlink="http://www.w3.org/1999/xlink" x="0px" y="0px"
	 width="256px" height="256px" viewBox="0 0 256 256" enable-background="new 0 0 256 256" xml:space="preserve">
<g>
	<path d="M186.94,137.228c1.897-2.57,3.836-5.384,5.69-8.37c-11.592,4.642-36.146,12.973-63.033,12.973
		c-27.947,0-53.214-9.002-64.105-13.506c1.093,1.823,2.21,3.529,3.321,5.113c0.947,1.335,1.889,2.572,2.807,3.709
		c0.042,0.052,0.083,0.101,0.125,0.152c4.126,2.001,25.231,11.414,56.994,11.414C159.484,148.713,181.521,139.683,186.94,137.228z"
		/>
	<path d="M187.634,143.501c-2.648,3.351-5.087,6.139-6.968,8.191c2.508,0.477,4.43,1.326,6.099,2.251
		c2.352-2.231,8.646-8.62,14.63-18.307c6.533-10.579,13.961-27.28,13.358-47.921l-5.954,3.234c-0.16,3.541-0.516,6.918-1.027,10.136
		c-0.534,5.33-2.021,10.644-4.076,15.748c-3.634,9.944-8.611,17.647-13.059,23.158C189.627,141.241,188.622,142.407,187.634,143.501
		z"/>
	<path d="M175,118.655c5-1.847,18.726-6.196,26.198-10.146c0.63-2.369,0.927-4.85,1.362-7.442
		c-8.219,4.153-23.561,9.278-27.561,10.896V118.655z"/>
	<path d="M222.43,155.307c-3.58,0-5.771,1.531-8.657,3.168c-3.61,2.047-7.548,4.525-14.377,4.525h-0.11
		c-6.377,0-9.722-1.493-12.707-3.326c-2.847-1.748-5.267-2.674-10.378-2.674h-0.158c-5.163,0-7.411,0.807-10.016,2.518
		c-2.816,1.852-6.008,3.596-12.639,3.596c-6.55,0-9.969-1.528-12.984-3.342c-2.914-1.752-5.431-2.771-10.818-2.771h-0.162
		c-5.306,0-7.772,0.818-10.628,2.58c-2.952,1.822-6.299,3.533-12.699,3.533c-6.392,0-10.018-1.532-13.217-3.349
		C89.77,157.998,87.084,157,81.906,157h-0.159c-5.171,0-7.5,0.822-10.196,2.553c-2.86,1.834-6.101,3.562-12.57,3.562l-0.189-0.177
		c-6.891-0.042-11.299-2.46-15.188-4.517c-3.071-1.624-6.575-3.07-10.012-3.07c-5.713,0-8.592,2.158-9.592,3.04v37.129
		c0,0.939,2.075,14.772,10.562,23.521c8.423,8.683,24.06,10.96,25.53,11.96h55.827c0.36,0,7.659,0.173,13.663,7.385
		c5.816-7.238,12.035-7.385,12.322-7.385h56.384c1.234,0,16.644-2.731,25.369-13.002c8.979-10.567,8.343-22.269,8.343-22.376
		v-37.038C231,157.589,228.457,155.307,222.43,155.307z"/>
	<path d="M87.902,152.016c2.918,0.756,5.095,1.991,7.101,3.131c3.002,1.704,5.837,3.315,11.093,3.315
		c5.181,0,7.618-1.504,10.441-3.245c1.32-0.815,2.722-1.678,4.438-2.386c-18.901-0.878-33.361-4.806-42.186-7.959
		c5.027,4.712,8.846,6.969,8.9,7.001C87.764,151.916,87.834,151.964,87.902,152.016z"/>
	<path d="M153.388,158.462c5.345,0,7.631-1.502,10.277-3.241c2.083-1.369,4.376-2.875,8.117-3.556
		c1.311-0.848,4.814-3.255,9.06-7.339c-8.94,3.2-23.858,7.369-42.949,8.431c1.841,0.72,3.329,1.61,4.727,2.45
		C145.523,156.953,148.031,158.462,153.388,158.462z"/>
	<path d="M71.936,153.602c1.821-0.972,4.013-1.81,7.029-2.147c-2.826-2.582-6.442-6.221-10.159-10.859
		c-1.172-1.464-2.389-3.077-3.612-4.828c-1.543-2.185-3.097-4.62-4.593-7.304c-3.447-6.129-6.532-13.382-8.308-21.59
		c-1.142-4.927-1.921-10.281-2.182-16.067l-5.954-3.233c-0.604,20.702,6.866,37.445,13.437,48.048
		C63.402,144.992,69.454,151.225,71.936,153.602z"/>
	<path d="M56.585,108.354C64.021,112.347,76,116.785,82,118.655v-6.669c-5-1.545-18.289-6.389-26.844-10.602
		c0.203,1.412,0.451,2.795,0.735,4.153C56.108,106.494,56.34,107.433,56.585,108.354z"/>
	<path d="M196.184,122.681c1.394-2.637,2.672-5.361,3.763-8.137c0.047-0.133-0.239-0.266-0.192-0.399
		c-10.303,4.749-24.754,9.3-25.754,9.523v-0.003c0,0.004,0.311,0.01,0.299,0.014c-0.926,0.272-22.742,6.683-44.867,6.683
		c-21.84,0-44.006-6.407-44.943-6.681c-0.015-0.004,0.014-0.012-0.001-0.017l0.02,0.004c-0.714-0.225-15.372-4.858-25.692-9.654
		c1.014,2.92,2.156,5.642,3.369,8.169c3.963,1.841,34.205,15.348,67.41,15.348C160.642,137.529,189.312,125.724,196.184,122.681z"/>
	<path d="M68.263,35.173c0.019,0,1.938,0.04,2.954,1.462c0.624,0.875,0.787,1.707,0.975,2.67c0.173,0.885,0.369,1.889,0.953,2.94
		c0.238,0.428,0.498,0.806,0.778,1.138c-0.532,0.989-0.835,2.12-0.835,3.319c0,3.528,2.612,6.45,6.002,6.951
		c0.256,3.376,0.989,5.465,1.546,6.607c-0.528,0.576-1.063,1.438-1.063,2.572c0,0.915,0.281,1.643,0.666,2.199
		c-0.881,0.858-1.813,2.268-1.813,4.396c0,2.17,0.968,3.593,1.865,4.446c-0.393,0.547-0.718,1.266-0.718,2.149
		c0,2.205,1.621,3.445,2.479,3.617C82.136,79.657,82.222,80,82.308,80h94.726c0.085,0,0.171-0.343,0.256-0.359
		c0.856-0.172,2.479-1.246,2.479-3.45c0-0.883-0.325-1.686-0.719-2.232c0.896-0.853,1.865-2.318,1.865-4.488
		c0-2.128-0.932-3.558-1.813-4.416c0.386-0.556,0.667-1.296,0.667-2.21c0-1.133-0.535-2.001-1.063-2.577
		c0.561-1.15,1.299-3.264,1.551-6.683c3.177-0.676,5.568-3.504,5.568-6.881c0-0.072-0.006-0.143-0.016-0.212
		c0.005-0.069,0.007-0.141,0.002-0.212c-0.056-0.924-0.29-1.8-0.667-2.591c0.387-0.396,0.738-0.876,1.053-1.442
		c0.584-1.051,0.779-2.055,0.952-2.94c0.188-0.964,0.351-1.796,0.975-2.67c1.014-1.418,2.944-1.462,2.955-1.462
		c0.718,0,1.301-0.582,1.301-1.3c0-2.08-1.135-6.165-5.429-6.738c-0.335-0.045-0.671-0.068-0.997-0.068
		c-3.244,0-5.092,2.135-5.899,3.393c-0.267-0.023-0.577-0.04-0.915-0.04c-1.477,0-2.71,0.311-3.666,0.923
		c-2.164,1.385-3.047,4.707-3.141,5.081c-0.145,0.582,0.127,1.188,0.658,1.467c0.95,0.498,1.68,1.016,2.208,1.449
		c-0.524,0.218-1.177,0.399-1.891,0.399c-1.349,0-3.073-1.763-3.569-2.379c-0.34-0.425-0.91-0.594-1.428-0.421
		c-1.191,0.397-3.027,2.057-2.297,5.601c-2.08,0.863-4.611,2.308-4.611,4.235c0,1.949,2.608,3.272,4.543,3.985
		c-0.5,2.914,1.663,5.599,1.771,5.729c0.295,0.36,0.762,0.535,1.218,0.458c0.459-0.076,0.844-0.392,1.006-0.828
		c0.009-0.023,0.905-2.333,3.735-2.333c0.301,0,0.613,0.025,0.939,0.075c-1.33,1.578-4.06,3.942-8.473,3.942
		c-4.044,0-7.069-2.569-8.942-4.813c2.309-1.155,3.9-3.538,3.9-6.29c0-0.071-0.005-0.141-0.014-0.21
		c0.005-0.07,0.006-0.141,0.001-0.213c-0.223-3.708-3.308-6.612-7.02-6.612c-3.067,0-5.676,1.977-6.635,4.722
		c-0.712-1.45-2.95-2.457-4.87-3.077c0.654-3.247-1.353-6.063-1.45-6.197c-0.278-0.383-0.744-0.586-1.214-0.526
		c-0.47,0.059-0.87,0.368-1.046,0.808c-0.684,1.706-1.458,2.469-2.041,2.649c-0.155-0.369-0.193-0.742-0.12-1.142
		c0.271-1.493,2.011-2.949,2.655-3.382c0.324-0.216,0.535-0.566,0.574-0.954s-0.098-0.773-0.374-1.049
		c-1.168-1.168-2.735-1.786-4.531-1.786c-0.375,0-0.72,0.027-1.021,0.065c-0.813-1.925-2.326-4.682-4.324-4.682
		s-3.511,2.757-4.323,4.682c-0.302-0.039-0.647-0.065-1.022-0.065c-1.796,0-3.362,0.618-4.531,1.786
		c-0.275,0.276-0.412,0.661-0.374,1.049c0.039,0.388,0.25,0.738,0.574,0.954c0.602,0.399,2.38,1.878,2.655,3.376
		c0.073,0.402,0.036,0.777-0.12,1.148c-0.582-0.18-1.357-0.943-2.04-2.649c-0.176-0.44-0.577-0.749-1.047-0.808
		c-0.472-0.059-0.935,0.143-1.213,0.526c-0.098,0.134-2.105,2.95-1.45,6.197c-2.316,0.747-5.104,2.057-5.104,4.03
		c0,0.032,0.007,0.063,0.009,0.095c-0.602-3.295-3.486-5.771-6.913-5.771c-3.625,0-6.618,2.759-6.992,6.289
		c-0.581-1.52-2.676-2.68-4.45-3.415c0.73-3.543-1.105-5.204-2.297-5.601c-0.516-0.172-1.085-0.004-1.425,0.42
		c-0.498,0.617-2.223,2.38-3.572,2.38c-0.711,0-1.364-0.182-1.889-0.4c0.528-0.434,1.258-0.951,2.208-1.448
		c0.531-0.279,0.803-0.885,0.657-1.467c-0.094-0.375-0.977-3.696-3.14-5.081c-0.956-0.612-2.189-0.923-3.667-0.923
		c-0.337,0-0.648,0.017-0.916,0.04c-0.807-1.258-2.655-3.393-5.898-3.393c-0.326,0-0.662,0.023-0.998,0.068
		c-4.294,0.573-5.428,4.658-5.428,6.738C66.962,34.591,67.544,35.173,68.263,35.173z M178.789,42.703
		c2.111,0,3.863,1.651,3.991,3.759c0.002,0.041,0.006,0.082,0.011,0.121c-0.003,0.04-0.004,0.08-0.004,0.12c0,2.206-1.794,4-3.998,4
		s-3.997-1.794-3.997-4C174.792,44.497,176.585,42.703,178.789,42.703z M172.854,67.851c0.344,0.448,0.729,1.119,0.729,1.864
		c0,0.752-0.385,1.42-0.727,1.867l-4.041-1.867L172.854,67.851z M87.776,71.293c-0.343-0.449-0.729-1.119-0.729-1.865
		c0-0.751,0.383-1.418,0.727-1.866l4.04,1.866L87.776,71.293z M104.95,71.639c-2.292,0-4.005-1.148-4.005-2.175
		s1.713-2.175,4.005-2.175c2.227,0,3.884,1.082,3.997,2.063l0.007,0.136C108.928,70.508,107.224,71.639,104.95,71.639z
		 M129.598,72.308l-6.522-2.879l6.522-2.879l6.523,2.879L129.598,72.308z M158.245,69.35l0.006,0.137
		c-0.025,1.021-1.729,2.153-4.004,2.153c-2.292,0-4.005-1.148-4.005-2.175s1.713-2.175,4.005-2.175
		C156.474,67.289,158.13,68.37,158.245,69.35z M154.067,42.703c2.11,0,3.862,1.651,3.99,3.759c0.002,0.04,0.007,0.08,0.013,0.119
		c-0.004,0.04-0.006,0.081-0.006,0.122c0,2.206-1.793,4-3.997,4c-2.205,0-3.998-1.794-3.998-4
		C150.069,44.497,151.862,42.703,154.067,42.703z M135.278,52.311c2.295,0,3.587,2.723,3.598,2.746
		c0.17,0.376,0.509,0.648,0.912,0.734c0.402,0.085,0.823-0.024,1.133-0.297c2.072-1.829,2.176-4.543,2.029-6.104
		c1.38-0.494,3.168-1.313,4.096-2.463c0.088,2.786,1.798,5.168,4.22,6.226c-1.605,2.189-4.355,4.652-8.626,4.652
		c-5.558,0-8.376-3.223-9.453-4.872C133.929,52.519,134.63,52.311,135.278,52.311z M129.672,40.052c2.225,0,4.073,1.741,4.205,3.925
		l0.01,0.292c0,2.326-1.891,4.217-4.215,4.217s-4.214-1.892-4.214-4.217C125.458,41.943,127.348,40.052,129.672,40.052z
		 M111.803,46.702c0-0.072-0.005-0.143-0.015-0.212c0.005-0.069,0.006-0.14,0.002-0.211c-0.009-0.143-0.029-0.281-0.046-0.421
		c0.422,1.723,2.872,2.896,4.646,3.531c-0.147,1.561-0.043,4.274,2.029,6.104c0.31,0.273,0.729,0.382,1.133,0.297
		c0.403-0.086,0.741-0.358,0.912-0.734c0.013-0.027,1.312-2.746,3.598-2.746c0.647,0,1.348,0.208,2.091,0.622
		c-1.079,1.652-3.896,4.873-9.453,4.873c-4.386,0-7.172-2.596-8.759-4.832C110.229,51.811,111.803,49.439,111.803,46.702z
		 M104.77,42.703c2.11,0,3.863,1.651,3.99,3.759c0.003,0.041,0.007,0.082,0.012,0.121c-0.003,0.04-0.004,0.08-0.004,0.12
		c0,2.206-1.794,4-3.998,4s-3.997-1.794-3.997-4C100.772,44.497,102.565,42.703,104.77,42.703z M85.665,53.787
		c2.78,0,3.703,2.249,3.736,2.333c0.163,0.436,0.547,0.751,1.006,0.828s0.924-0.099,1.219-0.458c0.107-0.13,2.271-2.815,1.771-5.729
		c1.667-0.614,3.828-1.682,4.397-3.211c0.305,2.524,1.948,4.642,4.2,5.614c-1.88,2.198-4.852,4.641-8.794,4.641
		c-4.443,0-7.161-2.362-8.482-3.941C85.045,53.813,85.362,53.787,85.665,53.787z M80.121,42.703c2.11,0,3.863,1.652,3.99,3.76
		c0.002,0.041,0.007,0.08,0.012,0.119c-0.003,0.04-0.005,0.081-0.005,0.122c0,2.206-1.793,4-3.997,4c-2.205,0-3.998-1.794-3.998-4
		S77.917,42.703,80.121,42.703z"/>
</g>
</svg>
