<?xml version="1.0" encoding="utf-8"?>
<!-- Generator: Adobe Illustrator 16.0.0, SVG Export Plug-In . SVG Version: 6.00 Build 0)  -->
<!DOCTYPE svg PUBLIC "-//W3C//DTD SVG 1.1//EN" "http://www.w3.org/Graphics/SVG/1.1/DTD/svg11.dtd">
<svg version="1.1" id="Layer_1" xmlns="http://www.w3.org/2000/svg" xmlns:xlink="http://www.w3.org/1999/xlink" x="0px" y="0px"
	 width="256px" height="256px" viewBox="0 0 256 256" enable-background="new 0 0 256 256" xml:space="preserve">
<path fill-rule="evenodd" clip-rule="evenodd" fill="none" d="M17.561,43.48c0-9.76,0.013-19.52-0.024-29.28
	c-0.003-0.822,0.162-0.983,0.984-0.983c34.4,0.026,68.8,0.023,103.2,0.023c-0.477,0.564-1.141,1.056-1.39,1.708
	c-0.487,1.276-1.348,1.793-2.625,1.883c-2.709,0.189-5.415,0.442-8.126,0.593c-1.026,0.057-2.108,0.07-3.09-0.185
	c-4.538-1.175-9.013-0.901-13.498,0.273c-2.408,0.63-4.854,0.905-7.358,0.569c-2.603-0.349-5.147,0.008-7.71,0.604
	c-1.718,0.399-3.555,0.468-5.329,0.407c-2.839-0.098-5.661-0.352-8.447,0.476c-0.557,0.165-1.189,0.058-1.78,0.132
	c-2.605,0.329-5.216,0.626-7.804,1.063c-0.512,0.086-0.93,0.737-1.391,1.128c0.425,0.409,0.791,1.054,1.288,1.18
	c1.416,0.358,2.881,0.673,4.333,0.699c3.329,0.06,6.677,0.075,9.811,1.277c2.694,1.033,5.429,1.23,8.237,1.128
	c3.151-0.115,6.283-0.27,9.435,0.276c2.901,0.502,5.856,0.871,8.796,0.939c4.05,0.094,8.045,0.433,12.01,1.266
	c3.393,0.712,6.804,1.053,10.164-0.187c0.626-0.231,0.707,0.164,0.768,0.546c0.214,1.339,0.368,2.687,0.584,4.024
	c0.228,1.408,0.728,1.871,2.148,1.9c0.956,0.02,1.936,0.015,2.865-0.175c0.863-0.177,1.673-0.622,1.667-1.727
	c-0.029-5.595-0.073-11.19-0.091-16.785c-0.004-1.288-0.413-2.326-1.546-3.013c33.835,0,67.669,0,101.521,0c0,0.394,0,0.789,0,1.184
	c0,77.147-0.003,154.295,0.027,231.443c0,0.985-0.214,1.159-1.174,1.159c-68.429-0.028-136.858-0.028-205.287-0.003
	c-0.916,0-1.198-0.104-1.197-1.136c0.033-66.989,0.03-133.979,0.03-200.968c0.867,0.714,1.501,1.813,2.81,1.813
	c2.951-0.001,5.924,0.188,8.847-0.106c3.584-0.361,7.137-0.899,10.729-0.235c2.673,0.494,5.257,0.441,7.916-0.394
	c1.621-0.51,3.498-0.594,5.197-0.377c2.396,0.306,4.727,1.108,7.102,1.618c1.052,0.226,1.157,0.589,0.628,1.486
	C57.103,54.989,53.497,61.3,49.769,67.54c-1.561,2.612-3.762,4.635-6.47,6.095c-3.058,1.648-4.885,4.259-5.329,7.672
	c-0.498,3.826-1.568,7.389-3.688,10.647c-3.748,5.76-7.435,11.56-11.123,17.358c-1.913,3.008-1.393,6.755,1.132,9.331
	c0.651,0.664,1.31,1.505,1.528,2.375c1.007,4.003,3.625,6.426,7.264,8.036c1.223,0.541,2.451,1.236,3.426,2.134
	c1.547,1.425,2.974,3.005,4.285,4.652c1.629,2.048,3.611,3.471,6.226,3.604c2.043,0.105,3.015,1.048,3.696,2.897
	c1.266,3.439,2.594,6.88,4.22,10.159c4.596,9.27,10.878,17.394,17.583,25.208c1.815,2.116,4.131,3.337,6.893,3.769
	c10.456,1.637,20.911,3.281,31.362,4.949c6.018,0.961,12.044,1.474,18.144,0.875c5.767-0.565,11.545-1.004,17.317-1.505
	c7.047-0.612,14.096-1.196,21.139-1.857c6.67-0.627,13.309-1.058,19.848,1.02c1.572,0.5,3.223,0.552,4.779-0.303
	c3.247-1.782,6.283-3.798,8.397-6.96c4.62-6.909,6.119-14.406,4.197-22.512c-0.66-2.787-0.772-5.521-0.021-8.289
	c0.982-3.622,1.928-7.254,2.932-10.87c1.228-4.423,2.476-8.84,3.777-13.242c0.2-0.677,0.612-1.648,1.135-1.81
	c2.108-0.655,2.631-2.235,2.908-4.108c0.607-4.11,1.223-8.219,1.89-12.319c0.246-1.512,0.858-2.029,2.323-2.301
	c1.83-0.34,3.365-1.226,4.635-2.571c0.98-1.04,1.02-1.961,0.276-3.219c-0.648-1.097-1.356-2.184-1.815-3.362
	c-6.287-16.142-12.535-32.299-18.794-48.452c-0.61-1.575-0.777-3.19-0.313-4.819c0.48-1.688,1.03-3.356,1.59-5.02
	c0.089-0.264,0.353-0.514,0.6-0.672c3.29-2.114,6.603-4.192,9.882-6.323c0.893-0.581,0.958-2.021,0.342-3.614
	c-0.399-1.034-1.26-0.603-1.949-0.638c-0.334-0.017-0.694,0.16-1.016,0.307c-1.525,0.695-3.091,1.322-4.55,2.139
	c-1.872,1.049-3.67,2.233-5.472,3.404c-0.8,0.52-1.501,1.189-2.295,1.721c-1.571,1.053-2.094,0.844-2.824-0.944
	c-1.001-2.448-0.951-4.961-0.744-7.544c0.111-1.398-0.119-2.871-0.459-4.246c-0.334-1.351-1.514-1.541-2.466-0.522
	c-0.351,0.374-0.677,0.81-0.88,1.276c-0.557,1.277-1.083,2.571-1.547,3.885c-0.641,1.816-1.373,2.149-3.26,1.841
	c-1.394-0.227-2.913-0.407-4.252-0.087c-2.153,0.514-4.239,1.375-6.288,2.243c-2.547,1.078-5.155,1.747-7.92,1.552
	c-1.627-0.115-3.24-0.416-5.108-0.667c2.016-2.294,3.795-4.291,5.535-6.321c0.408-0.476,0.772-1.028,1.005-1.606
	c0.473-1.179,0.095-2.583-0.816-3.265c-1.01-0.756-1.973-0.354-2.893,0.209c-0.442,0.27-0.853,0.594-1.264,0.911
	c-1.552,1.195-3.091,2.408-4.653,3.589c-0.257,0.194-0.6,0.296-0.919,0.383c-0.474,0.13-1.08,0.061-1.424,0.335
	c-1.248,0.995-2.41,2.098-3.605,3.16c-4.932,4.379-9.858,8.763-14.804,13.126c-0.464,0.41-1.05,0.681-1.579,1.016
	c-0.027-0.647-0.109-1.297-0.072-1.941c0.072-1.232-0.19-1.579-1.44-1.674c-0.438-0.034-0.879-0.036-1.318-0.034
	c-3.316,0.01-6.633,0.004-9.949,0.044c-3.231,0.039-6.467,0.028-9.69,0.221c-2.795,0.167-5.573,0.53-8.334-0.244
	c-0.259-0.073-0.559-0.029-0.836-0.003c-2.033,0.191-2.653,1.187-1.711,2.985c2.057,3.926,4.182,7.817,6.304,11.708
	c0.696,1.276,1.81,1.858,3.281,1.755c0.475-0.033,0.958-0.003,1.433,0.045c0.776,0.079,1.287,0.552,1.364,1.297
	c0.2,1.938-0.061,3.736-1.718,5.081c-4.005,3.249-7.992,6.521-11.984,9.786c-1.237,1.012-2.482,2.002-3.172,3.53
	c-0.159,0.352-0.679,0.712-1.069,0.756c-1.164,0.131-1.993,0.724-2.743,1.548c-0.616,0.677-1.262,1.332-1.937,1.952
	c-1.111,1.022-1.084,1.969,0.126,2.865c1.524,1.128,1.52,1.126,0.847,2.907c-2.788,7.381-4.298,14.952-3.521,22.89
	c0.09,0.926-0.224,1.892-0.354,2.859c-3.108-1.409-5.341-3.459-6.934-6.196c-1.164-2-2.445-3.95-3.42-6.041
	c-4.441-9.531-5.875-19.498-4.179-29.911c1.026-6.297,2.93-12.341,5.024-18.338c0.247-0.708,0.62-1.141,1.476-1.333
	c0.746-0.167,1.478-0.741,2.04-1.31c0.866-0.877,1.601-1.889,2.357-2.869c1.171-1.519,2.407-3.002,3.42-4.622
	c0.358-0.572,0.398-1.623,0.109-2.228c-0.205-0.428-1.196-0.58-1.858-0.654c-0.425-0.048-0.952,0.182-1.33,0.439
	c-1.781,1.212-3.63,2.354-5.263,3.748c-3.801,3.241-7.485,6.619-11.231,9.924c-0.687,0.606-1.442,1.135-2.296,1.8
	c-0.451-3.571-0.78-6.874-1.307-10.144c-0.5-3.105-1.179-6.183-1.835-9.261c-0.214-1.003-1.01-1.627-1.98-1.647
	c-1.054-0.021-1.599,0.854-1.857,1.768c-0.259,0.917-0.401,1.875-0.516,2.824c-0.217,1.787-0.19,1.774-1.95,1.464
	c-4.754-0.838-9.295-0.459-13.503,2.198c-1.767,1.115-3.731,1.334-5.761,0.664c-3.04-1.003-5.95-0.764-8.793,0.782
	c-3.501,1.903-7.257,3.095-11.193,3.733C20.657,42.83,19.112,43.176,17.561,43.48z M118.704,193.165
	c-0.002-0.182-0.004-0.363-0.006-0.545c-0.473-0.187-0.951-0.54-1.419-0.527c-1.224,0.033-2.518,0.012-3.649,0.401
	c-2.215,0.762-4.32,1.833-6.507,2.684c-0.863,0.335-1.916,0.777-2.722,0.564c-4.418-1.169-8.911-1.8-13.442-2.251
	c-1.279-0.128-1.692-0.795-1.144-1.947c0.392-0.823,0.222-1.322-0.627-1.514c-2.089-0.469-4.175-0.994-6.292-1.288
	c-1.321-0.184-2.522,0.347-3.647,1.203c-0.957,0.729-2.136,1.389-3.298,1.579c-2.55,0.418-5.147,0.59-7.732,0.736
	c-5.66,0.321-11.047,1.585-15.992,4.438c-0.437,0.252-1.023,0.776-1.007,1.15c0.021,0.478,0.484,1.095,0.931,1.37
	c2.776,1.711,5.907,2.547,8.998,3.454c0.933,0.274,2.074-0.531,1.997-1.356c-0.108-1.172,0.813-1.64,1.462-2.35
	c-0.029,1.029-0.123,2.045-0.539,2.905c-0.421,0.871-0.585,1.383,0.358,2.04c1.385,0.965,2.567,2.224,3.966,3.163
	c0.64,0.43,1.583,0.461,2.402,0.547c0.492,0.051,0.902-0.176,0.435-0.8c-0.512-0.686-0.988-1.398-1.593-2.26
	c1.424,0.178,2.633,0.441,3.844,0.456c2.506,0.031,5.015-0.055,7.521-0.129c0.604-0.019,0.903,0.172,1.184,0.733
	c0.423,0.846,0.942,1.676,1.566,2.385c1.016,1.154,1.313,1.075,2.704,0.474c1.224-0.531,2.512-1.016,3.82-1.225
	c1.512-0.243,1.985-0.539,1.388-1.916c-0.528-1.22,0.186-1.44,0.927-1.61c0.838-0.193,1.784-0.37,2.587-0.17
	c1.6,0.397,3.134,1.059,4.696,1.608c0.16,0.056,0.357,0.175,0.483,0.126c1.058-0.412,2.1-0.862,3.151-1.289
	c1.224-0.497,1.398-0.928,0.723-2.044c1.429-0.128,2.811-0.312,4.08,0.485c2.235,1.404,4.793,1.651,7.306,2.045
	c0.299,0.047,0.641-0.182,0.962-0.282c-0.158-0.287-0.283-0.6-0.479-0.858c-0.864-1.136-1.865-2.188-2.588-3.405
	c-0.569-0.958-0.645-2.062,0.313-3.016c0.589-0.588,1.048-1.308,1.551-1.979C116.185,193.871,116.847,192.564,118.704,193.165z
	 M178.274,201.919c1.688-0.029,3.146-0.278,4.51,0.603c2.183,1.41,4.728,1.591,7.202,1.971c0.358,0.055,0.772-0.106,1.134-0.242
	c0.634-0.237,0.746-0.53,0.23-1.126c-1.251-1.443-2.44-2.944-3.578-4.479c-0.195-0.265-0.176-0.931,0.024-1.208
	c1.051-1.457,2.198-2.844,3.296-4.269c0.2-0.26,0.321-0.58,0.479-0.873c-0.37-0.046-0.754-0.181-1.107-0.124
	c-2.639,0.421-5.04,1.49-7.336,2.807c-1.435,0.823-2.876,0.923-4.488,0.552c-2.718-0.625-5.471-1.103-8.222-1.572
	c-1.374-0.235-2.811-0.179-4.148-0.527c-0.637-0.165-1.145-0.938-1.615-1.515c-0.084-0.104,0.268-0.615,0.477-0.894
	c0.42-0.558,0.232-0.914-0.364-1.037c-2.099-0.433-4.192-0.938-6.314-1.188c-1.246-0.147-2.495,0.127-3.548,1.089
	c-1.301,1.188-2.952,1.755-4.692,1.92c-3.695,0.353-7.406,0.561-11.094,0.977c-4.14,0.467-7.979,1.924-11.557,4.036
	c-0.419,0.248-1.006,0.991-0.901,1.203c0.371,0.753,0.871,1.691,1.567,1.991c2.365,1.019,4.813,1.864,7.281,2.604
	c0.504,0.151,1.412-0.288,1.819-0.738c0.758-0.838,1.274-1.892,1.916-2.839c0.093-0.137,0.325-0.247,0.489-0.242
	c0.103,0.004,0.31,0.286,0.277,0.375c-0.234,0.652-0.452,1.325-0.803,1.916c-0.321,0.539-0.839,0.958-1.203,1.477
	c-0.344,0.487-0.229,1.098,0.377,1.078c1.382-0.043,1.883,1.13,2.798,1.727c1.221,0.797,2.529,1.462,3.82,2.146
	c0.163,0.087,0.444-0.052,0.671-0.086c-0.063-0.252-0.048-0.581-0.205-0.739c-0.479-0.482-1.035-0.886-1.536-1.349
	c-0.151-0.14-0.222-0.369-0.329-0.558c0.168-0.08,0.331-0.206,0.506-0.227c0.233-0.028,0.486-0.01,0.715,0.049
	c3.346,0.868,6.734,0.647,10.114,0.354c0.817-0.072,1.32,0.035,1.556,0.854c0.023,0.08,0.153,0.13,0.259,0.214
	c0.186-0.286,0.339-0.523,0.522-0.807c0.688,0.97,1.309,1.85,1.934,2.726c0.46,0.644,0.942,0.743,1.74,0.413
	c1.232-0.51,2.546-0.905,3.862-1.112c1.394-0.22,1.478-0.178,1.219-1.575c-0.029-0.156-0.088-0.308-0.145-0.456
	c-0.268-0.697-0.05-1.116,0.667-1.369c1.462-0.515,2.875-0.606,4.268,0.22c0.28,0.166,0.888,0.334,0.931,0.261
	c0.39-0.669,0.88-0.322,1.227-0.099c1.802,1.161,3.467,0.245,5.108-0.346C179.306,203.441,179.338,202.969,178.274,201.919z
	 M141.139,228.033c1.478-0.285,2.854-0.325,4.151,0.48c2.382,1.479,5.016,2.002,7.774,2.015c0.289,0.002,0.578-0.172,0.867-0.265
	c-0.166-0.249-0.311-0.517-0.502-0.745c-0.817-0.975-1.676-1.916-2.464-2.914c-0.392-0.496-0.429-1.003,0.453-1.105
	c-1.413-0.83-1.438-1.143-0.459-2.353c1.093-1.349,2.119-2.753,3.225-4.198c-0.286-0.106-0.39-0.178-0.493-0.177
	c-0.277,0.001-0.555,0.028-0.832,0.054c-2.524,0.226-4.77,1.238-6.93,2.481c-1.627,0.936-3.308,1.164-5.182,0.798
	c-3.711-0.725-7.446-1.34-11.188-1.895c-2.086-0.31-2.461-0.625-2.093-2.663c0.112-0.621-0.015-0.885-0.601-1.032
	c-1.236-0.312-2.454-0.698-3.697-0.977c-2.736-0.612-5.173-0.089-7.396,1.742c-0.773,0.638-1.919,1.016-2.937,1.126
	c-3.252,0.352-6.529,0.477-9.789,0.775c-4.839,0.442-9.372,1.844-13.511,4.458c-0.87,0.549-0.87,1.034-0.205,1.67
	c0.256,0.245,0.529,0.528,0.849,0.645c2.618,0.952,5.24,1.898,7.882,2.781c0.867,0.289,1.632,0.033,2.165-0.818
	c0.636-1.017,1.343-1.989,2.077-3.065c0.516,0.957,0.102,1.679-0.351,2.384c-0.343,0.534-0.748,1.03-1.063,1.58
	c-0.111,0.193-0.147,0.631-0.031,0.723c1.833,1.459,3.668,2.918,5.574,4.278c0.396,0.283,1.083,0.251,1.625,0.215
	c0.564-0.038,0.747-0.39,0.38-0.919c-0.534-0.769-1.044-1.555-1.396-2.082c3.116,0.084,6.289,0.21,9.463,0.237
	c1.676,0.015,3.283-0.06,3.914,2.001c0.141,0.463,0.527,0.975,0.943,1.196c0.497,0.264,1.192,0.431,1.722,0.306
	c1.728-0.408,3.415-0.984,5.127-1.461c0.502-0.14,0.793-0.298,0.627-0.896c-0.105-0.379-0.04-0.806-0.147-1.185
	c-0.184-0.646,0.05-0.94,0.66-1.151c1.49-0.516,2.851-0.546,4.384,0.139c1.446,0.646,2.992,1.651,4.763,0.679
	c0.586-0.322,1.271-0.466,1.91-0.692C142.209,229.564,142.208,229.564,141.139,228.033z"/>
<path fill-rule="evenodd" clip-rule="evenodd" d="M17.561,43.48c1.552-0.304,3.097-0.65,4.657-0.903
	c3.937-0.638,7.692-1.83,11.193-3.733c2.843-1.545,5.753-1.785,8.793-0.782c2.029,0.67,3.994,0.451,5.761-0.664
	c4.208-2.658,8.75-3.037,13.503-2.198c1.759,0.311,1.733,0.323,1.95-1.464c0.115-0.949,0.257-1.907,0.516-2.824
	c0.259-0.915,0.803-1.79,1.857-1.768c0.971,0.02,1.767,0.644,1.98,1.647c0.656,3.078,1.336,6.156,1.835,9.261
	c0.526,3.271,0.855,6.573,1.307,10.144c0.854-0.665,1.609-1.193,2.296-1.8c3.746-3.306,7.431-6.683,11.231-9.924
	c1.633-1.393,3.482-2.535,5.263-3.748c0.378-0.257,0.904-0.487,1.33-0.439c0.663,0.074,1.653,0.226,1.858,0.654
	c0.29,0.605,0.25,1.655-0.109,2.228c-1.014,1.62-2.249,3.104-3.42,4.622c-0.757,0.98-1.491,1.992-2.357,2.869
	c-0.562,0.568-1.293,1.143-2.04,1.31c-0.855,0.192-1.229,0.625-1.476,1.333c-2.094,5.998-3.999,12.042-5.024,18.338
	c-1.695,10.413-0.262,20.38,4.179,29.911c0.975,2.091,2.256,4.04,3.42,6.041c1.593,2.737,3.825,4.787,6.934,6.196
	c0.129-0.967,0.444-1.933,0.354-2.859c-0.777-7.938,0.733-15.509,3.521-22.89c0.673-1.78,0.677-1.778-0.847-2.907
	c-1.211-0.896-1.237-1.843-0.126-2.865c0.674-0.62,1.32-1.275,1.937-1.952c0.75-0.825,1.58-1.417,2.743-1.548
	c0.39-0.044,0.91-0.404,1.069-0.756c0.69-1.528,1.935-2.518,3.172-3.53c3.992-3.265,7.979-6.538,11.984-9.786
	c1.658-1.345,1.918-3.143,1.718-5.081c-0.077-0.745-0.588-1.218-1.364-1.297c-0.475-0.048-0.958-0.078-1.433-0.045
	c-1.471,0.103-2.584-0.479-3.281-1.755c-2.123-3.891-4.247-7.783-6.304-11.708c-0.942-1.798-0.322-2.794,1.711-2.985
	c0.277-0.026,0.577-0.069,0.836,0.003c2.762,0.774,5.539,0.412,8.334,0.244c3.223-0.193,6.459-0.183,9.69-0.221
	c3.316-0.04,6.632-0.034,9.949-0.044c0.439-0.001,0.881,0,1.318,0.034c1.25,0.096,1.513,0.442,1.44,1.674
	c-0.037,0.644,0.045,1.294,0.072,1.941c0.529-0.335,1.115-0.606,1.579-1.016c4.945-4.363,9.872-8.747,14.804-13.126
	c1.195-1.062,2.357-2.165,3.605-3.16c0.344-0.274,0.95-0.205,1.424-0.335c0.319-0.087,0.662-0.189,0.919-0.383
	c1.563-1.182,3.102-2.394,4.653-3.589c0.411-0.317,0.821-0.641,1.264-0.911c0.92-0.563,1.883-0.966,2.893-0.209
	c0.911,0.682,1.289,2.086,0.816,3.265c-0.232,0.578-0.597,1.13-1.005,1.606c-1.74,2.03-3.52,4.027-5.535,6.321
	c1.868,0.25,3.481,0.552,5.108,0.667c2.765,0.195,5.373-0.474,7.92-1.552c2.049-0.867,4.135-1.729,6.288-2.243
	c1.339-0.32,2.858-0.14,4.252,0.087c1.887,0.308,2.619-0.025,3.26-1.841c0.464-1.314,0.99-2.608,1.547-3.885
	c0.203-0.466,0.529-0.902,0.88-1.276c0.952-1.019,2.132-0.828,2.466,0.522c0.34,1.375,0.57,2.847,0.459,4.246
	c-0.207,2.583-0.257,5.096,0.744,7.544c0.73,1.788,1.253,1.997,2.824,0.944c0.794-0.532,1.495-1.201,2.295-1.721
	c1.802-1.171,3.6-2.355,5.472-3.404c1.459-0.817,3.024-1.444,4.55-2.139c0.321-0.147,0.682-0.324,1.016-0.307
	c0.689,0.035,1.55-0.396,1.949,0.638c0.616,1.593,0.551,3.033-0.342,3.614c-3.279,2.13-6.592,4.208-9.882,6.323
	c-0.247,0.158-0.511,0.409-0.6,0.672c-0.56,1.664-1.109,3.332-1.59,5.02c-0.464,1.628-0.297,3.244,0.313,4.819
	c6.259,16.153,12.507,32.31,18.794,48.452c0.459,1.178,1.167,2.266,1.815,3.362c0.743,1.258,0.704,2.18-0.276,3.219
	c-1.27,1.345-2.805,2.23-4.635,2.571c-1.465,0.272-2.077,0.79-2.323,2.301c-0.667,4.101-1.282,8.209-1.89,12.319
	c-0.277,1.873-0.8,3.453-2.908,4.108c-0.522,0.162-0.935,1.133-1.135,1.81c-1.302,4.401-2.55,8.819-3.777,13.242
	c-1.004,3.616-1.949,7.248-2.932,10.87c-0.751,2.768-0.639,5.502,0.021,8.289c1.922,8.105,0.423,15.603-4.197,22.512
	c-2.114,3.162-5.15,5.178-8.397,6.96c-1.557,0.854-3.207,0.803-4.779,0.303c-6.539-2.077-13.178-1.646-19.848-1.02
	c-7.043,0.661-14.092,1.245-21.139,1.857c-5.772,0.501-11.551,0.939-17.317,1.505c-6.099,0.599-12.125,0.086-18.144-0.875
	c-10.451-1.668-20.906-3.313-31.362-4.949c-2.761-0.432-5.077-1.652-6.893-3.769c-6.704-7.814-12.986-15.938-17.583-25.208
	c-1.625-3.279-2.954-6.72-4.22-10.159c-0.681-1.85-1.652-2.792-3.696-2.897c-2.615-0.134-4.597-1.557-6.226-3.604
	c-1.311-1.647-2.738-3.228-4.285-4.652c-0.975-0.897-2.203-1.593-3.426-2.134c-3.639-1.609-6.257-4.032-7.264-8.036
	c-0.219-0.87-0.877-1.711-1.528-2.375c-2.524-2.576-3.045-6.323-1.132-9.331c3.688-5.799,7.375-11.598,11.123-17.358
	c2.12-3.259,3.19-6.821,3.688-10.647c0.444-3.413,2.271-6.024,5.329-7.672c2.708-1.46,4.91-3.483,6.47-6.095
	c3.728-6.24,7.334-12.551,11.022-18.815c0.528-0.897,0.423-1.261-0.628-1.486c-2.375-0.51-4.706-1.312-7.102-1.618
	c-1.699-0.217-3.576-0.133-5.197,0.377c-2.659,0.835-5.243,0.888-7.916,0.394c-3.593-0.664-7.145-0.126-10.729,0.235
	c-2.923,0.294-5.896,0.105-8.847,0.106c-1.309,0-1.943-1.099-2.81-1.813C17.561,44.44,17.561,43.96,17.561,43.48z M171.281,103.836
	c0.026-0.085,0.054-0.17,0.08-0.255c-1.763-2.702-3.551-5.388-5.283-8.11c-3.783-5.944-5.007-12.377-3.754-19.324
	c1.366-7.576,4.573-14.28,9.301-20.306c4.338-5.529,9.661-9.975,15.401-13.939c2.992-2.065,4.04-4.768,3.375-8.279
	c-0.107-0.564-0.305-0.736-0.799-0.766c-1.155-0.07-2.324-0.058-3.461-0.246c-2.436-0.403-4.789-0.283-7.194,0.363
	c-1.369,0.368-2.941,0.472-4.324,0.2c-3.306-0.65-6.599-1.455-9.811-2.467c-2.157-0.68-3.818-0.508-5.513,1.089
	c-1.506,1.42-3.296,2.542-4.251,4.475c-1.163,2.354-2.399,4.678-3.446,7.083c-2.841,6.523-4.634,13.335-4.477,20.476
	c0.091,4.121,0.586,8.268,1.306,12.331c0.965,5.455,3.009,10.576,7.123,14.456c4.674,4.409,9.604,8.548,14.447,12.775
	C170.317,103.667,170.85,103.693,171.281,103.836z M182.949,86.123c0.168-1.058-0.556-0.649-0.951-0.522
	c-2.482,0.801-4.619,2.146-6.277,4.186c-2.567,3.157-2.942,6.854-2.674,10.731c0.094,1.361,0.748,2.126,2.005,2.474
	c0.802,0.222,1.616,0.407,2.4,0.677c0.656,0.227,1.01,0.579,0.777,1.444c-0.646,2.413-0.919,2.583-3.243,1.542
	c-0.036-0.016-0.074-0.031-0.108-0.05c-4.505-2.482-9.463-3.014-14.448-3.071c-3.453-0.039-6.933,0.27-10.364,0.708
	c-4.464,0.57-8.771,1.875-12.977,3.476c-1.443,0.549-1.864,1.442-1.521,2.92c1.327,5.729,2.655,11.457,3.996,17.183
	c0.934,3.981,1.88,7.959,2.84,11.934c0.252,1.04,0.669,1.945,1.905,2.193c1.155,0.232,2.015-0.188,2.741-1.019
	c0.314-0.36,0.612-0.735,0.893-1.122c1.724-2.384,2.415-5.166,3.025-7.971c0.179-0.818-0.14-1.429-1.039-1.569
	c-0.51-0.079-1.027-0.131-1.542-0.142c-2.139-0.045-2.514-0.426-2.422-2.538c0.014-0.315,0.091-0.628,0.134-0.943
	c0.195-1.417,0.499-2.83,0.558-4.252c0.102-2.446,0.553-3.195,2.824-3.962c9.558-3.226,19.121-6.438,28.675-9.676
	c1.088-0.369,2.138-0.854,3.193-1.311c0.149-0.064,0.349-0.299,0.324-0.412c-0.03-0.147-0.246-0.318-0.412-0.36
	c-0.304-0.077-0.631-0.063-0.947-0.095c-0.578-0.06-0.827-0.307-0.71-0.952c0.709-3.909,1.395-7.823,2.067-11.739
	C182.114,91.302,182.524,88.711,182.949,86.123z M201.986,44.57c-0.141,0.027-0.281,0.055-0.422,0.082
	c-0.166,0.305-0.358,0.599-0.494,0.917c-1.4,3.283-2.082,6.756-2.51,10.266c-0.767,6.299-0.095,12.486,1.908,18.504
	c1.493,4.483,3.319,8.787,6.802,12.191c2.764,2.702,5.997,4.585,9.579,5.941c1.699,0.643,1.786,0.832,1.458,2.501
	c-0.034,0.172,0.101,0.542,0.153,0.542c0.864-0.009,1.801,0.11,2.552-0.204c0.254-0.106,0.046-1.333,0.034-2.048
	c-0.003-0.11-0.095-0.217-0.138-0.328c-5.388-13.975-10.766-27.954-16.174-41.921C203.894,48.837,202.906,46.716,201.986,44.57z
	 M66.286,121.993c1.751-0.097,3.502-0.242,5.255-0.271c0.798-0.014,0.777-0.378,0.725-0.966c-0.33-3.689-0.622-7.382-0.952-11.072
	c-0.301-3.372-0.64-6.741-0.95-10.112c-0.095-1.037-0.62-1.5-1.663-1.373c-1.616,0.197-3.262,0.254-4.845,0.598
	c-6.813,1.48-10.334,6.05-10.037,13.006c0.114,2.662,0.819,5.168,3.092,6.838C59.684,120.678,62.703,122.148,66.286,121.993z
	 M99.88,129.039c0,0.808,0.016,1.287-0.003,1.765c-0.089,2.313,0.241,4.75-0.393,6.903c-0.753,2.558-0.205,4.483,1.264,6.417
	c0.313,0.413,0.597,0.85,0.907,1.265c2.97,3.973,6.51,7.232,11.263,8.961c1.732,0.63,2.293,0.289,2.407-1.509
	c0.162-2.549,0.303-5.1,0.395-7.652c0.256-7.142,0.487-14.285,0.709-21.428c0.011-0.352-0.159-0.709-0.244-1.063
	c-0.371,0.163-0.821,0.24-1.101,0.501c-2.685,2.511-4.641,5.571-6.474,8.718c-0.459,0.788-0.173,1.607,0.712,2.05
	c0.421,0.211,0.893,0.328,1.348,0.464c1.065,0.317,2.139,0.606,3.199,0.939c0.228,0.071,0.413,0.277,0.617,0.422
	c-0.265,0.106-0.533,0.308-0.796,0.302c-0.553-0.014-1.102-0.154-1.655-0.211c-3.025-0.308-5.878-1.015-8.16-3.232
	C102.656,131.464,101.353,130.364,99.88,129.039z M43.724,122.724c0,0.68-0.015,1.36,0.011,2.039
	c0.006,0.165,0.152,0.324,0.233,0.485c0.173-0.117,0.466-0.208,0.499-0.355c0.186-0.846,0.375-1.7,0.44-2.56
	c0.127-1.665,0.739-2.302,2.396-2.285c0.515,0.005,1.028,0.109,1.543,0.15c2.424,0.191,4.851,0.355,7.272,0.575
	c0.965,0.088,0.875-0.326,0.581-0.959c-0.517-1.115-1.577-1.261-2.59-1.435c-2.235-0.383-4.274-1.222-6.115-2.534
	c-4.269-3.041-6.838-7.327-8.55-12.132c-1.17-3.285-1.987-6.695-2.995-10.039c-0.111-0.369-0.444-0.67-0.675-1.003
	c-0.276,0.244-0.625,0.441-0.816,0.739c-3.256,5.064-6.503,10.136-9.729,15.219c-1.208,1.903-0.889,2.835,1.03,3.955
	c4.535,2.648,9.485,4.271,14.416,5.943C43.644,119.535,43.724,119.585,43.724,122.724z M200.832,86.826
	c-1.102,0.035-1.475,0.622-1.077,1.768c1.095,3.153,2.241,6.289,3.438,9.404c0.434,1.13,1.748,1.841,2.623,1.565
	c3.445-1.083,6.893-2.162,10.317-3.307c0.503-0.168,0.891-0.681,1.332-1.035c-0.398-0.445-0.712-1.07-1.21-1.309
	c-4.771-2.287-9.573-4.511-14.373-6.741C201.492,86.991,201.06,86.899,200.832,86.826z M136.359,137.252
	c-0.091-0.562-0.197-1.35-0.347-2.13c-0.842-4.41-1.681-8.822-2.548-13.228c-0.689-3.502-1.435-6.994-2.114-10.498
	c-0.114-0.587-0.271-0.719-0.856-0.545c-1.26,0.375-1.789,1.016-1.653,2.511c0.242,2.656,0.564,5.306,0.884,7.955
	c0.438,3.636,0.88,7.271,1.371,10.9c0.25,1.849,0.534,3.7,0.953,5.517c0.279,1.215,1.934,2.2,3.05,2.037
	C135.915,139.651,136.358,138.847,136.359,137.252z M140.667,140.926c1.03,0.283,1.015-0.18,0.767-1.13
	c-1.436-5.486-2.797-10.992-4.189-16.49c-1.022-4.038-2.042-8.078-3.102-12.106c-0.098-0.373-0.469-0.675-0.713-1.01
	c-0.143,0.398-0.388,0.791-0.408,1.195c-0.05,0.996-0.126,2.018,0.037,2.991c1.306,7.835,2.663,15.662,4.009,23.49
	C137.469,140.203,138.183,140.822,140.667,140.926z M97.544,122.837c-0.105-0.426-0.151-0.661-0.222-0.887
	c-1.157-3.716-2.233-7.46-3.51-11.134c-0.779-2.242-2.514-3.658-4.833-4.242c-1.346-0.339-1.91,0.304-1.401,1.665
	c1.784,4.765,3.593,9.52,5.461,14.252c0.604,1.529,2.398,2.048,3.801,1.205C97.167,123.499,97.356,123.075,97.544,122.837z
	 M53.708,65.008c0.202-0.042,0.296-0.034,0.35-0.077c3.876-3.082,7.755-6.161,11.61-9.27c0.222-0.179,0.395-0.643,0.333-0.915
	c-0.513-2.245-1.102-4.472-1.633-6.713c-0.141-0.592-0.368-0.522-0.708-0.202c-0.174,0.164-0.345,0.335-0.491,0.524
	c-3.63,4.682-6.648,9.734-9.086,15.13C53.878,63.937,53.838,64.462,53.708,65.008z M132.519,150.458
	c-0.205-2.305-0.419-5.362-0.768-8.404c-0.242-2.106-0.909-2.578-3.1-2.574c-1.495,0.003-1.456,0.032-1.38,1.562
	c0.085,1.708,0.068,3.423,0.025,5.133c-0.068,2.708-0.209,5.414-0.272,8.121c-0.007,0.287,0.263,0.791,0.482,0.84
	C130.315,155.758,132.53,154,132.519,150.458z M125.842,115.583c0.031,0.008,0.063,0.016,0.094,0.024
	c0.291,5.338,0.583,10.677,0.872,16.016c0.078,1.435,0.117,2.872,0.224,4.304c0.059,0.784,0.06,1.716,1,1.99
	c0.792,0.232,1.648,0.268,2.48,0.312c0.154,0.009,0.489-0.375,0.468-0.545c-0.28-2.25-0.607-4.494-0.926-6.739
	c-0.62-4.371-1.243-8.741-1.861-13.113c-0.179-1.261-0.308-2.53-0.543-3.779c-0.066-0.35-0.431-0.643-0.658-0.962
	c-0.251,0.256-0.608,0.47-0.73,0.777C126.046,114.409,125.974,115.007,125.842,115.583z M195.452,102.521
	c1.907,0.004,2.837-1.083,2.359-2.887c-1.063-4.022-2.169-8.033-3.29-12.04c-0.146-0.52-0.376-1.132-0.771-1.435
	c-0.444-0.339-1.252-0.652-1.656-0.46c-0.376,0.179-0.573,1.032-0.592,1.596c-0.026,0.782,0.184,1.573,0.302,2.358
	c0.561,3.732,1.105,7.466,1.699,11.193C193.689,102.021,194.345,102.518,195.452,102.521z M85.433,124.806
	c0.653-0.537,1.152-0.99,1.693-1.385c1.25-0.913,1.427-1.292,0.994-2.72c-1.682-5.543-3.368-11.085-5.101-16.613
	c-0.192-0.613-0.663-1.157-1.078-1.674c-0.188-0.234-0.558-0.324-0.845-0.479c-0.139,0.328-0.436,0.68-0.39,0.979
	c0.234,1.527,0.497,3.056,0.86,4.557c1,4.127,2.094,8.232,3.067,12.366C85.012,121.444,85.166,123.104,85.433,124.806z
	 M138.169,148.137c-0.183-1.211-0.439-2.417-0.532-3.635c-0.17-2.217-1.517-3.284-3.496-3.754c-0.255-0.061-0.714,0.128-0.867,0.349
	c-0.773,1.105-0.792,2.318-0.537,3.631c0.438,2.253,0.719,4.536,1.107,6.8c0.042,0.25,0.375,0.662,0.542,0.647
	C136.813,151.963,138.042,150.584,138.169,148.137z M200.524,100.602c1.544-0.009,1.803-0.278,1.676-1.692
	c-0.031-0.352-0.114-0.708-0.229-1.042c-0.99-2.888-2.015-5.765-2.982-8.661c-0.423-1.265-1.151-2.273-2.266-2.966
	c-0.289-0.18-0.841-0.237-1.101-0.076c-0.223,0.14-0.354,0.716-0.264,1.023c1.204,4.108,2.471,8.197,3.678,12.304
	C199.292,100.357,199.679,100.837,200.524,100.602z M188.449,159.169c-0.253,0.166-0.829,0.396-1.194,0.813
	c-1,1.136-1.922,2.341-2.855,3.534c-1.424,1.822-2.847,3.646-4.237,5.492c-0.483,0.643-0.495,1.319,0.144,1.929
	c0.599,0.573,1.119,0.333,1.668-0.083c3.457-2.618,5.757-6.139,7.719-9.914C190.045,160.261,189.404,159.15,188.449,159.169z
	 M91.807,122.234c-0.383-1.047-0.713-1.939-1.036-2.833c-1.524-4.216-3.041-8.435-4.582-12.645c-0.135-0.37-0.074-1.015-0.896-0.736
	c-0.71,0.242-0.533,0.598-0.383,1.083c1.57,5.078,3.13,10.158,4.683,15.241c0.218,0.712,0.727,1.163,1.39,0.987
	C91.347,123.235,91.562,122.583,91.807,122.234z M141.082,152.103c-0.309-0.385-0.529-0.723-0.813-0.997
	c-0.315-0.306-0.688-0.552-1.037-0.825c-0.156,0.415-0.321,0.827-0.465,1.246c-0.036,0.107-0.006,0.237-0.008,0.357
	c-0.041,2.361-0.862,3.761-3.419,3.718c-0.548-0.009-1.292-0.02-1.604,0.302c-0.474,0.487-0.648,1.265-0.95,1.919
	c0.479-0.011,0.989,0.082,1.432-0.051c4.413-1.321,7.761-4.266,11.009-7.34c0.258-0.244,0.378-0.7,0.427-1.076
	c0.041-0.307-0.119-0.64-0.19-0.962c-0.311,0.129-0.688,0.186-0.92,0.399C143.377,149.865,142.249,150.979,141.082,152.103z
	 M194.545,109.104c0.453-0.141,0.717-0.218,0.977-0.305c1.238-0.416,2.48-0.821,3.713-1.254c2.241-0.79,4.487-1.57,6.704-2.423
	c0.337-0.13,0.607-0.608,0.741-0.984c0.04-0.112-0.458-0.496-0.765-0.635c-0.787-0.357-1.521-0.19-2.229,0.303
	c-0.486,0.337-1.028,0.606-1.57,0.851c-2.146,0.968-4.356,1.696-6.748,1.734c-0.717,0.011-2.222,1.253-2.017,1.728
	C193.543,108.56,194.17,108.814,194.545,109.104z M86.256,126.375c-0.459,0.772-0.935,1.599-1.438,2.41
	c-0.387,0.623-0.17,0.779,0.492,0.867c1.967,0.259,3.921,0.621,5.889,0.881c1.18,0.155,2.376,0.258,3.563,0.247
	c0.352-0.004,0.944-0.443,0.983-0.74c0.045-0.343-0.344-1.018-0.645-1.083c-1.563-0.335-3.155-0.531-4.742-0.747
	c-0.165-0.021-0.354,0.215-0.536,0.22c-0.462,0.012-1.041,0.128-1.365-0.098C87.686,127.794,87.032,127.084,86.256,126.375z
	 M190.85,118.565c-0.09-1.051-0.13-2.05-0.268-3.035c-0.312-2.231-0.321-4.554-2.106-6.322c-0.554-0.549-1.167-0.76-1.667-0.314
	c-0.533,0.474-0.363,1.131,0.223,1.646c0.948,0.833,1.302,1.934,1.449,3.176c0.229,1.928,0.57,3.843,0.906,5.757
	c0.051,0.287,0.331,0.533,0.506,0.798c0.304-0.268,0.685-0.49,0.888-0.82C190.927,119.21,190.837,118.827,190.85,118.565z
	 M136.659,166.595c3.735-0.015,13.768-6.965,14.797-10.181C146.514,159.814,141.72,163.113,136.659,166.595z M192.641,101.51
	c-0.342-2.108-0.665-4.219-1.049-6.319c-0.042-0.229-0.407-0.489-0.666-0.55c-0.14-0.033-0.516,0.31-0.539,0.511
	c-0.2,1.693-0.353,3.393-0.501,5.092c-0.097,1.106-0.18,2.214-0.239,3.323c-0.041,0.753,0.412,1.044,1.06,0.808
	C191.894,103.943,192.553,102.837,192.641,101.51z M177.11,121.436c-0.534-2.836-1.012-5.484-1.541-8.123
	c-0.142-0.706-1.588-1.605-2.322-1.53c-0.126,0.013-0.339,0.144-0.342,0.227c-0.023,0.66-0.457,1.252,0.157,1.998
	c0.673,0.817,1.12,1.887,1.434,2.917c0.459,1.508,0.675,3.088,1.08,4.614c0.092,0.344,0.538,0.594,0.82,0.888
	C176.646,122.08,176.896,121.734,177.11,121.436z M139.839,142.155c-0.579,0.206-1.459,0.108-1.303,1.228
	c0.186,1.336,0.232,2.699,0.53,4.008c0.081,0.357,0.922,0.867,1.283,0.778c1.521-0.376,2.554-2.24,2.223-3.711
	C142.268,143.102,141.152,142.143,139.839,142.155z M197.678,143.912c0.147,0.045,0.296,0.091,0.444,0.136
	c0.37-0.439,0.899-0.821,1.085-1.328c1.161-3.166,2.255-6.356,3.333-9.552c0.083-0.246-0.126-0.59-0.199-0.889
	c-0.268,0.176-0.682,0.292-0.782,0.536c-1.258,3.047-2.496,6.103-3.673,9.182C197.664,142.577,197.739,143.271,197.678,143.912z
	 M132.468,41.019c-0.825,2.087-1.628,4.114-2.492,6.299C134.358,45.997,135.153,43.909,132.468,41.019z M125.823,46.667
	c1.154-0.44,1.683-1.181,1.883-2.146c0.183-0.886,0.251-1.795,0.396-2.69c0.077-0.476,0.271-1.118-0.505-0.942
	c-0.594,0.135-1.747-0.862-1.768,0.691C125.806,43.208,125.823,44.837,125.823,46.667z M96.493,160.184
	c-0.145,0.161-0.436,0.341-0.437,0.523c-0.002,0.213,0.199,0.523,0.398,0.628c2.42,1.276,4.85,2.536,7.3,3.754
	c0.241,0.12,0.632-0.061,0.953-0.102c-0.167-0.267-0.269-0.653-0.51-0.782c-2.343-1.255-4.709-2.468-7.069-3.692
	C96.953,160.422,96.776,160.33,96.493,160.184z M111.406,40.946c0.625,1.511,1.234,3.005,1.872,4.488
	c0.076,0.178,0.381,0.437,0.456,0.401c0.212-0.103,0.494-0.327,0.51-0.524c0.064-0.746,0.092-1.505,0.026-2.25
	C114.131,41.5,113.124,40.759,111.406,40.946z M75.17,132.851c1.955-1.451,2.64-5.973,0.396-6.719
	C75.435,128.354,75.306,130.55,75.17,132.851z M70.673,153.22c-0.099,0.036-0.198,0.072-0.297,0.108
	c0,0.274-0.027,0.552,0.004,0.823c0.188,1.63,0.731,3.09,2.136,4.07c0.208,0.145,0.574,0.097,0.86,0.068
	c0.047-0.005,0.153-0.425,0.073-0.558C72.542,156.218,71.604,154.721,70.673,153.22z M84.142,121.81
	c-0.449-1.281-0.859-2.482-1.304-3.67c-0.045-0.122-0.32-0.248-0.457-0.22c-0.132,0.027-0.326,0.257-0.318,0.388
	c0.068,1.231,0.098,2.474,0.318,3.681c0.064,0.35,0.708,0.594,1.085,0.886C83.69,122.521,83.914,122.168,84.142,121.81z
	 M159.137,122.197c0.139,1.147,0.183,2.022,0.381,2.861c0.066,0.283,0.521,0.474,0.8,0.706c0.165-0.333,0.488-0.677,0.466-0.997
	c-0.059-0.819-0.235-1.636-0.444-2.434c-0.063-0.24-0.402-0.587-0.589-0.571C159.492,121.783,159.259,122.101,159.137,122.197z
	 M166.787,162.504c0.114-0.027,0.164-0.024,0.187-0.048c1.053-1.128,2.11-2.253,3.135-3.407c0.06-0.066-0.106-0.433-0.254-0.55
	c-0.121-0.096-0.464-0.115-0.551-0.021c-0.972,1.041-1.92,2.105-2.853,3.183c-0.097,0.111-0.115,0.377-0.051,0.517
	C166.47,162.329,166.678,162.418,166.787,162.504z M63.117,130.039c0.071,0.133,0.205,0.507,0.456,0.767
	c0.07,0.073,0.694-0.16,0.713-0.301c0.144-1.056,0.229-2.123,0.251-3.189c0.004-0.17-0.382-0.429-0.626-0.489
	c-0.123-0.031-0.453,0.273-0.484,0.46C63.292,128.104,63.233,128.936,63.117,130.039z M51.878,126.754
	c0-0.638,0.016-1.277-0.012-1.915c-0.007-0.153-0.163-0.3-0.25-0.45c-0.142,0.143-0.403,0.282-0.407,0.428
	c-0.034,1.236-0.035,2.473-0.002,3.709c0.004,0.155,0.261,0.306,0.4,0.458c0.091-0.186,0.249-0.366,0.261-0.557
	C51.903,127.873,51.88,127.313,51.878,126.754z"/>
<path fill-rule="evenodd" clip-rule="evenodd" d="M123.641,13.24c1.133,0.687,1.542,1.726,1.546,3.013
	c0.018,5.595,0.062,11.19,0.091,16.785c0.006,1.104-0.804,1.55-1.667,1.727c-0.929,0.19-1.909,0.195-2.865,0.175
	c-1.421-0.029-1.92-0.492-2.148-1.9c-0.216-1.338-0.37-2.686-0.584-4.024c-0.062-0.382-0.142-0.777-0.768-0.546
	c-3.36,1.24-6.771,0.899-10.164,0.187c-3.965-0.833-7.96-1.171-12.01-1.266c-2.94-0.068-5.895-0.438-8.796-0.939
	c-3.152-0.546-6.284-0.391-9.435-0.276c-2.808,0.102-5.542-0.095-8.237-1.128c-3.134-1.203-6.482-1.217-9.811-1.277
	c-1.452-0.026-2.917-0.341-4.333-0.699c-0.497-0.126-0.862-0.771-1.288-1.18c0.461-0.391,0.879-1.042,1.391-1.128
	c2.587-0.437,5.199-0.734,7.804-1.063c0.59-0.074,1.223,0.033,1.78-0.132c2.787-0.828,5.608-0.573,8.447-0.476
	c1.774,0.061,3.611-0.008,5.329-0.407c2.563-0.596,5.107-0.952,7.71-0.604c2.505,0.336,4.951,0.061,7.358-0.569
	c4.485-1.174,8.96-1.448,13.498-0.273c0.982,0.254,2.063,0.242,3.09,0.185c2.711-0.15,5.417-0.403,8.126-0.593
	c1.276-0.09,2.137-0.606,2.625-1.883c0.249-0.651,0.913-1.144,1.39-1.708C122.36,13.24,123,13.24,123.641,13.24z M117.911,23.558
	c-0.046,0.551-0.136,0.956-0.089,1.343c0.024,0.199,0.29,0.369,0.447,0.551c0.19-0.179,0.512-0.335,0.546-0.54
	c0.135-0.824,0.222-1.663,0.235-2.497c0.004-0.253-0.286-0.511-0.441-0.767c-0.232,0.248-0.586,0.461-0.668,0.751
	C117.825,22.807,117.911,23.271,117.911,23.558z"/>
<path fill-rule="evenodd" clip-rule="evenodd" d="M114.819,195.718c0.062-0.085,0.123-0.171,0.179-0.262
	C115,194,116,193,116.541,193.005c0.095-0.024,0.194-0.049,0.29-0.075c0.191-0.054,0.368-0.115,0.467-0.208
	c-0.051-0.089-0.057-0.186-0.012-0.286C117,192,116,192,115.762,192.084c-0.066,0.009-0.132,0.018-0.197,0.027
	c-0.13,0.02-0.256,0.043-0.377,0.069c-0.09,0.008-0.179,0.018-0.268,0.028c-0.444,0.056-0.878,0.143-1.291,0.285
	c-2.215,0.762-4.32,1.833-6.507,2.684c-0.863,0.335-1.916,0.777-2.722,0.564c-4.418-1.169-8.911-1.8-13.442-2.251
	c-1.279-0.128-1.692-0.795-1.144-1.947c0.392-0.823,0.222-1.322-0.627-1.514c-2.089-0.469-4.175-0.994-6.292-1.288
	c-1.321-0.184-2.522,0.347-3.647,1.203c-0.957,0.729-2.136,1.389-3.298,1.579c-2.55,0.418-5.147,0.59-7.732,0.736
	c-5.66,0.321-11.047,1.585-15.992,4.438c-0.437,0.252-1.023,0.776-1.007,1.15c0.021,0.478,0.484,1.095,0.931,1.37
	c2.776,1.711,5.907,2.547,8.998,3.454c0.933,0.274,2.074-0.531,1.997-1.356c-0.108-1.172,0.813-1.64,1.462-2.35
	c-0.029,1.029-0.123,2.045-0.539,2.905c-0.421,0.871-0.585,1.383,0.358,2.04c1.385,0.965,2.567,2.224,3.966,3.163
	c0.64,0.43,1.583,0.461,2.402,0.547c0.492,0.051,0.902-0.176,0.435-0.8c-0.512-0.686-0.988-1.398-1.593-2.26
	c1.424,0.178,2.633,0.441,3.844,0.456c2.506,0.031,5.015-0.055,7.521-0.129c0.604-0.019,0.903,0.172,1.184,0.733
	c0.423,0.846,0.942,1.676,1.566,2.385c1.016,1.154,1.313,1.075,2.704,0.474c1.224-0.531,2.512-1.016,3.82-1.225
	c1.512-0.243,1.985-0.539,1.388-1.916c-0.528-1.22,0.186-1.44,0.927-1.61c0.838-0.193,1.784-0.37,2.587-0.17
	c1.6,0.397,3.134,1.059,4.696,1.608c0.16,0.056,0.357,0.175,0.483,0.126c1.058-0.412,2.1-0.862,3.151-1.289
	c1.224-0.497,1.398-0.928,0.723-2.044c1.429-0.128,2.811-0.312,4.08,0.485c2.235,1.404,4.793,1.651,7.306,2.045
	c0.299,0.047,0.641-0.182,0.962-0.282c-0.158-0.287-0.283-0.6-0.479-0.858c-0.864-1.136-1.865-2.188-2.588-3.405
	c-0.569-0.958-0.645-2.062,0.313-3.016C114.192,196.563,114.51,196.145,114.819,195.718z M60.548,199.08
	c-0.293-0.148-0.729-0.25-0.88-0.446c-0.073-0.003-0.141-0.024-0.201-0.062h0c-0.278-0.124-0.517-0.227-0.742-0.438c0,0,0,0,0,0
	c-0.025-0.021-0.042-0.047-0.061-0.072c-0.006-0.004-0.013-0.009-0.02-0.014c-0.008,0.003-0.015,0.006-0.023,0.011
	c-0.054,0.03-0.464-0.354-0.432-0.428c0.137-0.32,0.376-0.597,0.707-1.074c0.738,0.605,1.369,1.06,1.896,1.612
	C60.904,198.288,60.639,198.768,60.548,199.08z"/>
<path fill-rule="evenodd" clip-rule="evenodd" d="M178.274,201.919c1.063,1.05,1.031,1.522-0.191,1.964
	c-1.642,0.591-3.307,1.507-5.108,0.346c-0.347-0.224-0.837-0.57-1.227,0.099c-0.043,0.073-0.65-0.095-0.931-0.261
	c-1.393-0.826-2.806-0.734-4.268-0.22c-0.717,0.253-0.935,0.672-0.667,1.369c0.057,0.148,0.115,0.3,0.145,0.456
	c0.259,1.397,0.175,1.355-1.219,1.575c-1.316,0.207-2.63,0.603-3.862,1.112c-0.798,0.33-1.28,0.23-1.74-0.413
	c-0.052-0.073-0.104-0.146-0.156-0.22c-0.052-0.072-0.104-0.146-0.152-0.22C158,207,159,205,157.207,205.141
	c-0.101-0.012-0.2-0.022-0.298-0.032c-1.079-0.107-2.027-0.103-3.326-0.037c-0.112,0.009-0.226,0.017-0.338,0.024
	c-2.817,0.201-5.636,0.234-8.424-0.489c-0.229-0.059-0.481-0.077-0.715-0.049c-0.175,0.021-0.338,0.146-0.506,0.227
	c0.107,0.188,0.178,0.418,0.329,0.558c0.501,0.463,1.058,0.866,1.536,1.349c0.157,0.158,0.142,0.487,0.205,0.739
	c-0.227,0.034-0.508,0.173-0.671,0.086c-1.291-0.684-2.6-1.349-3.82-2.146c-0.915-0.597-1.416-1.77-2.798-1.727
	c-0.605,0.02-0.721-0.591-0.377-1.078c0.364-0.519,0.882-0.938,1.203-1.477c0.351-0.591,0.568-1.264,0.803-1.916
	c0.032-0.089-0.175-0.371-0.277-0.375c-0.164-0.005-0.396,0.105-0.489,0.242c-0.642,0.947-1.158,2.001-1.916,2.839
	c-0.407,0.45-1.315,0.89-1.819,0.738c-2.468-0.739-4.916-1.585-7.281-2.604c-0.696-0.3-1.197-1.238-1.567-1.991
	c-0.104-0.212,0.482-0.955,0.901-1.203c3.578-2.112,7.417-3.569,11.557-4.036c3.688-0.416,7.398-0.624,11.094-0.977
	c1.74-0.165,3.392-0.732,4.692-1.92c1.053-0.962,2.302-1.236,3.548-1.089c2.122,0.25,4.216,0.755,6.314,1.188
	c0.597,0.123,0.784,0.479,0.364,1.037c-0.209,0.278-0.561,0.79-0.477,0.894c0.471,0.576,0.979,1.35,1.615,1.515
	c1.338,0.349,2.774,0.292,4.148,0.527c2.751,0.47,5.504,0.947,8.222,1.572c1.612,0.371,3.054,0.271,4.488-0.552
	c2.296-1.316,4.697-2.386,7.336-2.807c0.354-0.057,0.737,0.078,1.107,0.124c-0.157,0.293-0.278,0.613-0.479,0.873
	c-1.098,1.425-2.245,2.812-3.296,4.269c-0.2,0.277-0.22,0.943-0.024,1.208c1.138,1.534,2.327,3.035,3.578,4.479
	c0.516,0.596,0.403,0.889-0.23,1.126c-0.361,0.136-0.775,0.297-1.134,0.242c-2.475-0.38-5.02-0.561-7.202-1.971
	C181.421,201.641,179.962,201.89,178.274,201.919z M134.473,199.251c0.297-0.19,0.477-0.261,0.472-0.31
	c-0.046-0.418-0.042-0.872-0.22-1.233c-0.172-0.35-0.502-0.674-0.844-0.858c-0.133-0.071-0.488,0.271-0.742,0.425
	C133.579,197.927,134.019,198.579,134.473,199.251z"/>
<path fill-rule="evenodd" clip-rule="evenodd" d="M141.139,228.033c1.069,1.531,1.07,1.531-0.73,2.169
	c-0.64,0.227-1.324,0.37-1.91,0.692c-1.771,0.973-3.316-0.033-4.763-0.679c-1.533-0.685-2.894-0.654-4.384-0.139
	c-0.61,0.211-0.844,0.506-0.66,1.151c0.107,0.379,0.042,0.806,0.147,1.185c0.166,0.599-0.125,0.757-0.627,0.896
	c-1.712,0.477-3.399,1.053-5.127,1.461c-0.53,0.125-1.225-0.042-1.722-0.306c-0.416-0.222-0.802-0.733-0.943-1.196
	c-0.63-2.061-2.237-1.986-3.914-2.001c-3.174-0.027-6.347-0.153-9.463-0.237c0.352,0.527,0.863,1.313,1.396,2.082
	c0.367,0.529,0.185,0.881-0.38,0.919c-0.542,0.036-1.229,0.068-1.625-0.215c-1.906-1.36-3.742-2.819-5.574-4.278
	c-0.116-0.092-0.08-0.529,0.031-0.723c0.315-0.55,0.72-1.046,1.063-1.58c0.453-0.705,0.867-1.427,0.351-2.384
	c-0.734,1.076-1.44,2.049-2.077,3.065c-0.533,0.852-1.298,1.107-2.165,0.818c-2.642-0.883-5.264-1.829-7.882-2.781
	c-0.32-0.116-0.592-0.399-0.849-0.645c-0.665-0.636-0.665-1.121,0.205-1.67c4.139-2.614,8.671-4.016,13.511-4.458
	c3.26-0.299,6.536-0.424,9.789-0.775c1.018-0.11,2.164-0.488,2.937-1.126c2.223-1.831,4.66-2.354,7.396-1.742
	c1.243,0.278,2.461,0.665,3.697,0.977c0.585,0.147,0.713,0.411,0.601,1.032c-0.369,2.038,0.007,2.354,2.093,2.663
	c3.741,0.555,7.477,1.17,11.188,1.895c1.874,0.366,3.555,0.138,5.182-0.798c2.16-1.243,4.405-2.256,6.93-2.481
	c0.277-0.025,0.555-0.053,0.832-0.054c0.104-0.001,0.207,0.07,0.493,0.177c-1.105,1.445-2.132,2.85-3.225,4.198
	c-0.098,0.121-0.186,0.233-0.264,0.338c-0.077,0.104-0.145,0.201-0.2,0.292C150,225,151,226,151.365,227.1
	c0.067,0.081,0.135,0.163,0.203,0.244c0.612,0.731,1.248,1.443,1.861,2.175c0.191,0.229,0.336,0.496,0.502,0.745
	c-0.289,0.093-0.578,0.267-0.867,0.265c-2.759-0.013-5.393-0.536-7.774-2.015C143.992,227.708,142.616,227.748,141.139,228.033z
	 M96.352,222.68c-0.246,0.583-0.396,0.786-0.407,0.997c-0.027,0.532,1.014,1.541,1.478,1.411c0.193-0.055,0.482-0.479,0.444-0.534
	C97.466,223.991,97.007,223.469,96.352,222.68z"/>
<path fill-rule="evenodd" clip-rule="evenodd" fill="none" d="M171.281,103.836c-0.432-0.143-0.964-0.169-1.279-0.444
	c-4.844-4.227-9.773-8.367-14.447-12.775c-4.114-3.88-6.158-9.001-7.123-14.456c-0.72-4.063-1.215-8.21-1.306-12.331
	c-0.157-7.14,1.636-13.952,4.477-20.476c1.047-2.405,2.283-4.729,3.446-7.083c0.955-1.932,2.745-3.054,4.251-4.475
	c1.694-1.597,3.355-1.769,5.513-1.089c3.212,1.013,6.505,1.817,9.811,2.467c1.383,0.271,2.955,0.167,4.324-0.2
	c2.405-0.646,4.759-0.767,7.194-0.363c1.137,0.188,2.306,0.176,3.461,0.246c0.494,0.03,0.691,0.202,0.799,0.766
	c0.665,3.511-0.383,6.213-3.375,8.279c-5.74,3.964-11.063,8.41-15.401,13.939c-4.728,6.026-7.935,12.73-9.301,20.306
	c-1.253,6.947-0.029,13.38,3.754,19.324c1.732,2.722,3.521,5.408,5.283,8.11C171.335,103.666,171.308,103.75,171.281,103.836z"/>
<path fill-rule="evenodd" clip-rule="evenodd" fill="none" d="M182.949,86.123c-0.425,2.588-0.835,5.179-1.278,7.764
	c-0.673,3.916-1.358,7.83-2.067,11.739c-0.117,0.646,0.132,0.892,0.71,0.952c0.316,0.033,0.644,0.018,0.947,0.095
	c0.166,0.042,0.382,0.213,0.412,0.36c0.024,0.113-0.175,0.348-0.324,0.412c-1.056,0.457-2.105,0.942-3.193,1.311
	c-9.554,3.237-19.117,6.45-28.675,9.676c-2.271,0.767-2.723,1.516-2.824,3.962c-0.059,1.423-0.362,2.835-0.558,4.252
	c-0.043,0.315-0.12,0.627-0.134,0.943c-0.092,2.112,0.283,2.493,2.422,2.538c0.515,0.011,1.032,0.063,1.542,0.142
	c0.899,0.141,1.218,0.751,1.039,1.569c-0.61,2.805-1.302,5.587-3.025,7.971c-0.28,0.387-0.578,0.762-0.893,1.122
	c-0.727,0.831-1.586,1.251-2.741,1.019c-1.236-0.248-1.653-1.153-1.905-2.193c-0.96-3.975-1.906-7.953-2.84-11.934
	c-1.341-5.726-2.669-11.454-3.996-17.183c-0.343-1.479,0.078-2.371,1.521-2.92c4.205-1.601,8.513-2.906,12.977-3.476
	c3.432-0.438,6.911-0.747,10.364-0.708c4.985,0.057,9.943,0.588,14.448,3.071c0.034,0.019,0.072,0.034,0.108,0.05
	c2.324,1.041,2.597,0.871,3.243-1.542c0.232-0.865-0.121-1.217-0.777-1.444c-0.784-0.271-1.599-0.455-2.4-0.677
	c-1.257-0.348-1.911-1.113-2.005-2.474c-0.269-3.878,0.106-7.575,2.674-10.731c1.658-2.04,3.795-3.385,6.277-4.186
	C182.394,85.474,183.117,85.065,182.949,86.123z"/>
<path fill-rule="evenodd" clip-rule="evenodd" fill="none" d="M201.986,44.57c0.92,2.146,1.907,4.267,2.749,6.442
	c5.408,13.967,10.786,27.946,16.174,41.921c0.043,0.111,0.135,0.218,0.138,0.328c0.012,0.715,0.22,1.942-0.034,2.048
	c-0.751,0.313-1.688,0.194-2.552,0.204c-0.053,0-0.188-0.37-0.153-0.542c0.328-1.669,0.241-1.858-1.458-2.501
	c-3.582-1.356-6.815-3.239-9.579-5.941c-3.482-3.404-5.309-7.708-6.802-12.191c-2.003-6.018-2.675-12.205-1.908-18.504
	c0.428-3.51,1.109-6.983,2.51-10.266c0.136-0.318,0.328-0.612,0.494-0.917C201.705,44.625,201.846,44.598,201.986,44.57z"/>
<path fill-rule="evenodd" clip-rule="evenodd" fill="none" d="M66.286,121.993c-3.583,0.155-6.602-1.314-9.375-3.351
	c-2.273-1.67-2.979-4.176-3.092-6.838c-0.297-6.957,3.224-11.526,10.037-13.006c1.583-0.344,3.229-0.401,4.845-0.598
	c1.043-0.127,1.568,0.336,1.663,1.373c0.31,3.371,0.648,6.74,0.95,10.112c0.33,3.689,0.622,7.382,0.952,11.072
	c0.053,0.588,0.074,0.953-0.725,0.966C69.789,121.75,68.038,121.896,66.286,121.993z"/>
<path fill-rule="evenodd" clip-rule="evenodd" fill="none" d="M99.88,129.039c1.473,1.325,2.776,2.425,3.996,3.61
	c2.282,2.218,5.134,2.925,8.16,3.232c0.553,0.057,1.102,0.197,1.655,0.211c0.263,0.006,0.531-0.195,0.796-0.302
	c-0.204-0.145-0.389-0.351-0.617-0.422c-1.06-0.333-2.134-0.622-3.199-0.939c-0.456-0.136-0.927-0.253-1.348-0.464
	c-0.885-0.442-1.171-1.262-0.712-2.05c1.833-3.146,3.79-6.207,6.474-8.718c0.279-0.261,0.729-0.338,1.101-0.501
	c0.085,0.354,0.255,0.712,0.244,1.063c-0.222,7.143-0.453,14.286-0.709,21.428c-0.092,2.553-0.233,5.104-0.395,7.652
	c-0.114,1.798-0.675,2.139-2.407,1.509c-4.752-1.729-8.293-4.988-11.263-8.961c-0.311-0.415-0.594-0.852-0.907-1.265
	c-1.468-1.934-2.017-3.859-1.264-6.417c0.634-2.153,0.304-4.591,0.393-6.903C99.896,130.326,99.88,129.847,99.88,129.039z"/>
<path fill-rule="evenodd" clip-rule="evenodd" fill="none" d="M43.724,122.724c0-3.139-0.08-3.189-3.049-4.196
	c-4.93-1.672-9.88-3.295-14.416-5.943c-1.918-1.12-2.237-2.052-1.03-3.955c3.226-5.083,6.473-10.155,9.729-15.219
	c0.191-0.298,0.541-0.496,0.816-0.739c0.23,0.333,0.563,0.634,0.675,1.003c1.008,3.344,1.825,6.754,2.995,10.039
	c1.712,4.805,4.282,9.091,8.55,12.132c1.841,1.312,3.88,2.151,6.115,2.534c1.013,0.173,2.073,0.319,2.59,1.435
	c0.293,0.633,0.384,1.047-0.581,0.959c-2.421-0.219-4.848-0.383-7.272-0.575c-0.515-0.041-1.028-0.146-1.543-0.15
	c-1.657-0.017-2.269,0.62-2.396,2.285c-0.065,0.86-0.254,1.714-0.44,2.56c-0.033,0.148-0.326,0.239-0.499,0.355
	c-0.082-0.161-0.227-0.32-0.233-0.485C43.708,124.084,43.724,123.404,43.724,122.724z"/>
<path fill-rule="evenodd" clip-rule="evenodd" fill="none" d="M200.832,86.826c0.228,0.074,0.66,0.165,1.05,0.346
	c4.8,2.23,9.602,4.455,14.373,6.741c0.498,0.238,0.812,0.863,1.21,1.309c-0.441,0.354-0.829,0.867-1.332,1.035
	c-3.425,1.145-6.872,2.223-10.317,3.307c-0.875,0.275-2.189-0.435-2.623-1.565c-1.196-3.116-2.343-6.251-3.438-9.404
	C199.357,87.447,199.73,86.86,200.832,86.826z"/>
<path fill-rule="evenodd" clip-rule="evenodd" fill="none" d="M136.359,137.252c-0.001,1.595-0.444,2.399-1.261,2.52
	c-1.116,0.163-2.771-0.822-3.05-2.037c-0.419-1.816-0.703-3.668-0.953-5.517c-0.491-3.629-0.933-7.265-1.371-10.9
	c-0.319-2.649-0.642-5.299-0.884-7.955c-0.136-1.496,0.394-2.137,1.653-2.511c0.585-0.173,0.742-0.042,0.856,0.545
	c0.68,3.504,1.425,6.996,2.114,10.498c0.867,4.406,1.706,8.817,2.548,13.228C136.162,135.902,136.269,136.69,136.359,137.252z"/>
<path fill-rule="evenodd" clip-rule="evenodd" fill="none" d="M140.667,140.926c-2.484-0.104-3.198-0.723-3.6-3.061
	c-1.346-7.828-2.703-15.655-4.009-23.49c-0.163-0.973-0.087-1.995-0.037-2.991c0.021-0.404,0.266-0.797,0.408-1.195
	c0.244,0.335,0.615,0.637,0.713,1.01c1.06,4.029,2.079,8.068,3.102,12.106c1.393,5.498,2.754,11.004,4.189,16.49
	C141.682,140.746,141.697,141.209,140.667,140.926z"/>
<path fill-rule="evenodd" clip-rule="evenodd" fill="none" d="M97.544,122.837c-0.188,0.238-0.378,0.662-0.704,0.858
	c-1.403,0.843-3.198,0.324-3.801-1.205c-1.868-4.732-3.677-9.487-5.461-14.252c-0.509-1.36,0.055-2.003,1.401-1.665
	c2.319,0.584,4.054,2,4.833,4.242c1.277,3.674,2.353,7.418,3.51,11.134C97.393,122.176,97.439,122.411,97.544,122.837z"/>
<path fill-rule="evenodd" clip-rule="evenodd" fill="none" d="M53.708,65.008c0.129-0.546,0.17-1.071,0.374-1.522
	c2.438-5.396,5.456-10.449,9.086-15.13c0.146-0.188,0.317-0.36,0.491-0.524c0.34-0.32,0.567-0.391,0.708,0.202
	c0.531,2.241,1.12,4.468,1.633,6.713c0.062,0.272-0.111,0.736-0.333,0.915c-3.854,3.109-7.733,6.188-11.61,9.27
	C54.005,64.975,53.911,64.966,53.708,65.008z"/>
<path fill-rule="evenodd" clip-rule="evenodd" fill="none" d="M132.519,150.458c0.012,3.542-2.203,5.3-5.011,4.677
	c-0.22-0.049-0.489-0.553-0.482-0.84c0.063-2.707,0.204-5.413,0.272-8.121c0.043-1.71,0.06-3.425-0.025-5.133
	c-0.076-1.529-0.115-1.559,1.38-1.562c2.19-0.004,2.857,0.468,3.1,2.574C132.1,145.096,132.313,148.153,132.519,150.458z"/>
<path fill-rule="evenodd" clip-rule="evenodd" fill="none" d="M125.842,115.583c0.132-0.575,0.205-1.174,0.42-1.716
	c0.122-0.308,0.479-0.521,0.73-0.777c0.227,0.319,0.592,0.612,0.658,0.962c0.235,1.25,0.364,2.519,0.543,3.779
	c0.618,4.372,1.241,8.742,1.861,13.113c0.318,2.245,0.646,4.489,0.926,6.739c0.021,0.17-0.313,0.554-0.468,0.545
	c-0.832-0.044-1.688-0.079-2.48-0.312c-0.94-0.274-0.941-1.206-1-1.99c-0.107-1.432-0.146-2.869-0.224-4.304
	c-0.289-5.338-0.581-10.677-0.872-16.016C125.905,115.598,125.873,115.59,125.842,115.583z"/>
<path fill-rule="evenodd" clip-rule="evenodd" fill="none" d="M195.452,102.521c-1.107-0.002-1.763-0.5-1.949-1.675
	c-0.594-3.727-1.139-7.461-1.699-11.193c-0.118-0.786-0.328-1.576-0.302-2.358c0.019-0.564,0.216-1.417,0.592-1.596
	c0.404-0.192,1.212,0.122,1.656,0.46c0.396,0.303,0.625,0.916,0.771,1.435c1.121,4.006,2.227,8.018,3.29,12.04
	C198.289,101.438,197.359,102.525,195.452,102.521z"/>
<path fill-rule="evenodd" clip-rule="evenodd" fill="none" d="M85.433,124.806c-0.267-1.702-0.421-3.362-0.799-4.969
	c-0.973-4.134-2.067-8.238-3.067-12.366c-0.363-1.501-0.626-3.03-0.86-4.557c-0.046-0.299,0.251-0.651,0.39-0.979
	c0.287,0.155,0.656,0.245,0.845,0.479c0.415,0.517,0.885,1.061,1.078,1.674c1.733,5.527,3.419,11.069,5.101,16.613
	c0.433,1.428,0.255,1.807-0.994,2.72C86.585,123.816,86.085,124.269,85.433,124.806z"/>
<path fill-rule="evenodd" clip-rule="evenodd" fill="none" d="M138.169,148.137c-0.127,2.447-1.355,3.826-3.783,4.038
	c-0.167,0.015-0.5-0.397-0.542-0.647c-0.389-2.264-0.67-4.547-1.107-6.8c-0.255-1.313-0.236-2.525,0.537-3.631
	c0.153-0.221,0.612-0.409,0.867-0.349c1.979,0.47,3.326,1.537,3.496,3.754C137.729,145.72,137.986,146.926,138.169,148.137z"/>
<path fill-rule="evenodd" clip-rule="evenodd" fill="none" d="M200.524,100.602c-0.846,0.235-1.232-0.245-1.487-1.111
	c-1.207-4.107-2.474-8.196-3.678-12.304c-0.09-0.307,0.041-0.883,0.264-1.023c0.26-0.162,0.812-0.104,1.101,0.076
	c1.114,0.693,1.843,1.702,2.266,2.966c0.968,2.896,1.992,5.773,2.982,8.661c0.114,0.335,0.197,0.69,0.229,1.042
	C202.327,100.324,202.068,100.593,200.524,100.602z"/>
<path fill-rule="evenodd" clip-rule="evenodd" fill="none" d="M188.449,159.169c0.955-0.019,1.596,1.092,1.243,1.771
	c-1.962,3.775-4.262,7.296-7.719,9.914c-0.549,0.416-1.069,0.656-1.668,0.083c-0.639-0.609-0.627-1.286-0.144-1.929
	c1.391-1.847,2.813-3.67,4.237-5.492c0.934-1.193,1.855-2.398,2.855-3.534C187.62,159.565,188.196,159.335,188.449,159.169z"/>
<path fill-rule="evenodd" clip-rule="evenodd" fill="none" d="M91.807,122.234c-0.245,0.349-0.46,1.001-0.823,1.097
	c-0.663,0.176-1.172-0.274-1.39-0.987c-1.553-5.083-3.113-10.164-4.683-15.241c-0.15-0.485-0.328-0.841,0.383-1.083
	c0.822-0.279,0.76,0.366,0.896,0.736c1.541,4.21,3.057,8.429,4.582,12.645C91.094,120.295,91.424,121.187,91.807,122.234z"/>
<path fill-rule="evenodd" clip-rule="evenodd" fill="none" d="M141.082,152.103c1.167-1.124,2.295-2.237,3.462-3.31
	c0.232-0.214,0.609-0.271,0.92-0.399c0.071,0.322,0.231,0.655,0.19,0.962c-0.049,0.376-0.169,0.832-0.427,1.076
	c-3.248,3.074-6.596,6.019-11.009,7.34c-0.442,0.133-0.953,0.04-1.432,0.051c0.302-0.654,0.477-1.432,0.95-1.919
	c0.312-0.321,1.056-0.311,1.604-0.302c2.557,0.043,3.378-1.356,3.419-3.718c0.002-0.12-0.028-0.25,0.008-0.357
	c0.144-0.419,0.309-0.831,0.465-1.246c0.349,0.273,0.722,0.52,1.037,0.825C140.553,151.38,140.773,151.718,141.082,152.103z"/>
<path fill-rule="evenodd" clip-rule="evenodd" fill="none" d="M194.545,109.104c-0.375-0.29-1.002-0.544-1.194-0.987
	c-0.205-0.475,1.3-1.717,2.017-1.728c2.392-0.038,4.602-0.766,6.748-1.734c0.542-0.245,1.084-0.513,1.57-0.851
	c0.709-0.493,1.442-0.66,2.229-0.303c0.307,0.139,0.805,0.523,0.765,0.635c-0.134,0.376-0.404,0.854-0.741,0.984
	c-2.217,0.854-4.463,1.634-6.704,2.423c-1.232,0.434-2.475,0.839-3.713,1.254C195.262,108.887,194.998,108.963,194.545,109.104z"/>
<path fill-rule="evenodd" clip-rule="evenodd" fill="none" d="M86.256,126.375c0.776,0.709,1.43,1.419,2.203,1.957
	c0.324,0.226,0.903,0.109,1.365,0.098c0.181-0.005,0.371-0.241,0.536-0.22c1.586,0.216,3.179,0.412,4.742,0.747
	c0.301,0.065,0.69,0.74,0.645,1.083c-0.039,0.297-0.631,0.736-0.983,0.74c-1.188,0.011-2.383-0.092-3.563-0.247
	c-1.968-0.26-3.922-0.622-5.889-0.881c-0.662-0.088-0.879-0.244-0.492-0.867C85.321,127.975,85.797,127.147,86.256,126.375z"/>
<path fill-rule="evenodd" clip-rule="evenodd" fill="none" d="M190.85,118.565c-0.013,0.262,0.077,0.646-0.069,0.884
	c-0.203,0.331-0.584,0.552-0.888,0.82c-0.175-0.265-0.455-0.511-0.506-0.798c-0.336-1.914-0.677-3.829-0.906-5.757
	c-0.147-1.242-0.501-2.343-1.449-3.176c-0.586-0.515-0.756-1.171-0.223-1.646c0.5-0.445,1.113-0.235,1.667,0.314
	c1.785,1.769,1.795,4.091,2.106,6.322C190.72,116.515,190.76,117.514,190.85,118.565z"/>
<path fill-rule="evenodd" clip-rule="evenodd" fill="none" d="M136.659,166.595c5.061-3.481,9.854-6.78,14.797-10.181
	C150.427,159.63,140.395,166.58,136.659,166.595z"/>
<path fill-rule="evenodd" clip-rule="evenodd" fill="none" d="M192.641,101.51c-0.088,1.327-0.747,2.433-1.935,2.865
	c-0.647,0.236-1.101-0.055-1.06-0.808c0.06-1.108,0.143-2.216,0.239-3.323c0.148-1.699,0.301-3.398,0.501-5.092
	c0.023-0.202,0.399-0.544,0.539-0.511c0.259,0.061,0.624,0.321,0.666,0.55C191.976,97.291,192.299,99.402,192.641,101.51z"/>
<path fill-rule="evenodd" clip-rule="evenodd" fill="none" d="M177.11,121.436c-0.215,0.298-0.465,0.645-0.714,0.991
	c-0.282-0.293-0.729-0.543-0.82-0.888c-0.405-1.526-0.621-3.106-1.08-4.614c-0.313-1.03-0.761-2.1-1.434-2.917
	c-0.614-0.746-0.181-1.338-0.157-1.998c0.003-0.083,0.216-0.213,0.342-0.227c0.734-0.076,2.181,0.824,2.322,1.53
	C176.099,115.951,176.576,118.599,177.11,121.436z"/>
<path fill-rule="evenodd" clip-rule="evenodd" fill="none" d="M139.839,142.155c1.313-0.013,2.429,0.946,2.733,2.303
	c0.331,1.471-0.702,3.335-2.223,3.711c-0.361,0.089-1.202-0.421-1.283-0.778c-0.298-1.309-0.345-2.672-0.53-4.008
	C138.38,142.264,139.26,142.361,139.839,142.155z"/>
<path fill-rule="evenodd" clip-rule="evenodd" fill="none" d="M197.678,143.912c0.062-0.641-0.014-1.335,0.208-1.915
	c1.177-3.079,2.415-6.135,3.673-9.182c0.101-0.244,0.515-0.36,0.782-0.536c0.073,0.299,0.282,0.643,0.199,0.889
	c-1.078,3.195-2.172,6.386-3.333,9.552c-0.186,0.507-0.715,0.889-1.085,1.328C197.974,144.003,197.825,143.957,197.678,143.912z"/>
<path fill-rule="evenodd" clip-rule="evenodd" fill="none" d="M132.468,41.019c2.686,2.89,1.891,4.978-2.492,6.299
	C130.84,45.133,131.643,43.106,132.468,41.019z"/>
<path fill-rule="evenodd" clip-rule="evenodd" fill="none" d="M125.823,46.667c0-1.83-0.017-3.458,0.005-5.087
	c0.021-1.553,1.174-0.556,1.768-0.691c0.776-0.176,0.583,0.466,0.505,0.942c-0.145,0.895-0.213,1.804-0.396,2.69
	C127.506,45.486,126.977,46.227,125.823,46.667z"/>
<path fill-rule="evenodd" clip-rule="evenodd" fill="none" d="M96.493,160.184c0.283,0.146,0.459,0.238,0.635,0.329
	c2.36,1.225,4.726,2.438,7.069,3.692c0.241,0.129,0.343,0.516,0.51,0.782c-0.321,0.041-0.712,0.222-0.953,0.102
	c-2.45-1.218-4.88-2.478-7.3-3.754c-0.199-0.104-0.4-0.415-0.398-0.628C96.058,160.524,96.349,160.345,96.493,160.184z"/>
<path fill-rule="evenodd" clip-rule="evenodd" fill="none" d="M111.406,40.946c1.718-0.187,2.725,0.554,2.864,2.115
	c0.066,0.745,0.038,1.504-0.026,2.25c-0.017,0.197-0.298,0.421-0.51,0.524c-0.074,0.036-0.379-0.223-0.456-0.401
	C112.64,43.952,112.031,42.457,111.406,40.946z"/>
<path fill-rule="evenodd" clip-rule="evenodd" fill="none" d="M75.17,132.851c0.136-2.301,0.265-4.496,0.396-6.719
	C77.81,126.877,77.125,131.399,75.17,132.851z"/>
<path fill-rule="evenodd" clip-rule="evenodd" fill="none" d="M70.673,153.22c0.93,1.501,1.869,2.998,2.777,4.513
	c0.08,0.133-0.026,0.553-0.073,0.558c-0.286,0.028-0.652,0.076-0.86-0.068c-1.405-0.98-1.948-2.44-2.136-4.07
	c-0.031-0.271-0.004-0.549-0.004-0.823C70.475,153.292,70.574,153.256,70.673,153.22z"/>
<path fill-rule="evenodd" clip-rule="evenodd" fill="none" d="M84.142,121.81c-0.228,0.359-0.452,0.712-0.676,1.065
	c-0.377-0.292-1.021-0.537-1.085-0.886c-0.22-1.207-0.25-2.45-0.318-3.681c-0.007-0.131,0.186-0.36,0.318-0.388
	c0.137-0.028,0.412,0.098,0.457,0.22C83.283,119.327,83.693,120.528,84.142,121.81z"/>
<path fill-rule="evenodd" clip-rule="evenodd" fill="none" d="M159.137,122.197c0.122-0.096,0.355-0.414,0.613-0.435
	c0.187-0.016,0.525,0.332,0.589,0.571c0.209,0.797,0.386,1.615,0.444,2.434c0.022,0.32-0.301,0.664-0.466,0.997
	c-0.278-0.232-0.733-0.423-0.8-0.706C159.319,124.219,159.275,123.344,159.137,122.197z"/>
<path fill-rule="evenodd" clip-rule="evenodd" fill="none" d="M166.787,162.504c-0.109-0.086-0.317-0.175-0.387-0.327
	c-0.064-0.14-0.046-0.405,0.051-0.517c0.933-1.077,1.881-2.142,2.853-3.183c0.087-0.094,0.43-0.074,0.551,0.021
	c0.147,0.117,0.313,0.483,0.254,0.55c-1.024,1.154-2.082,2.279-3.135,3.407C166.951,162.479,166.901,162.477,166.787,162.504z"/>
<path fill-rule="evenodd" clip-rule="evenodd" fill="none" d="M63.117,130.039c0.116-1.104,0.175-1.935,0.31-2.753
	c0.031-0.187,0.361-0.491,0.484-0.46c0.245,0.06,0.63,0.319,0.626,0.489c-0.022,1.066-0.107,2.134-0.251,3.189
	c-0.019,0.141-0.643,0.374-0.713,0.301C63.322,130.546,63.188,130.172,63.117,130.039z"/>
<path fill-rule="evenodd" clip-rule="evenodd" fill="none" d="M51.879,126.754c0.001,0.559,0.024,1.118-0.011,1.674
	c-0.012,0.19-0.17,0.371-0.261,0.557c-0.14-0.152-0.396-0.303-0.4-0.458c-0.033-1.236-0.032-2.474,0.002-3.709
	c0.004-0.146,0.265-0.286,0.407-0.428c0.087,0.15,0.244,0.297,0.25,0.45C51.894,125.477,51.878,126.116,51.879,126.754z"/>
<path fill-rule="evenodd" clip-rule="evenodd" fill="none" d="M117.911,23.558c0-0.287-0.086-0.751,0.029-1.158
	c0.083-0.29,0.436-0.503,0.668-0.751c0.155,0.256,0.445,0.514,0.441,0.767c-0.013,0.834-0.1,1.673-0.235,2.497
	c-0.034,0.204-0.356,0.361-0.546,0.54c-0.157-0.183-0.423-0.352-0.447-0.551C117.775,24.514,117.865,24.109,117.911,23.558z"/>
<path fill-rule="evenodd" clip-rule="evenodd" fill="none" d="M58.895,196.558c0.738,0.605,1.369,1.06,1.896,1.612
	c0.113,0.118-0.152,0.598-0.244,0.91c-0.327-0.166-0.856-0.264-0.94-0.512c-0.196-0.576-0.355-0.866-0.987-0.509
	c-0.054,0.03-0.464-0.354-0.432-0.428C58.326,197.312,58.565,197.035,58.895,196.558z"/>
<path fill-rule="evenodd" clip-rule="evenodd" fill="none" d="M134.473,199.251c-0.454-0.672-0.894-1.324-1.334-1.977
	c0.254-0.153,0.609-0.496,0.742-0.425c0.342,0.185,0.672,0.509,0.844,0.858c0.178,0.361,0.174,0.815,0.22,1.233
	C134.949,198.99,134.77,199.061,134.473,199.251z"/>
<path fill-rule="evenodd" clip-rule="evenodd" fill="none" d="M96.352,222.68c0.656,0.789,1.114,1.312,1.515,1.874
	c0.039,0.055-0.251,0.479-0.444,0.534c-0.464,0.13-1.505-0.879-1.478-1.411C95.956,223.466,96.106,223.263,96.352,222.68z"/>
</svg>
