<?xml version="1.0" encoding="utf-8"?>
<!-- Generator: Adobe Illustrator 16.0.0, SVG Export Plug-In . SVG Version: 6.00 Build 0)  -->
<!DOCTYPE svg PUBLIC "-//W3C//DTD SVG 1.1//EN" "http://www.w3.org/Graphics/SVG/1.1/DTD/svg11.dtd">
<svg version="1.1" id="Layer_1" xmlns="http://www.w3.org/2000/svg" xmlns:xlink="http://www.w3.org/1999/xlink" x="0px" y="0px"
	 width="256px" height="256px" viewBox="0 0 256 256" enable-background="new 0 0 256 256" xml:space="preserve">
<g>
	<path d="M79.524,67.111c0.097,1.208-0.238,1.695-1.007,1.459c0.069,2.391-0.583,3.338-1.958,2.842
		c-0.082,1.668-0.345,3.083-1.876,2.723c-0.236,2.011-0.581,3.624-1.686,2.447c0.05,1.196-0.153,2.076-1.259,1.827
		c-0.132,0.192-0.265,0.384-0.396,0.576c0.651,1.499,0.566,2.932-1.448,2.101c-0.079,0.115-0.159,0.23-0.238,0.345
		c0.143,0.221,0.259,0.438,0.353,0.654c1.781,0.777,2.455,1.796,1.541,3.215c1.161-1.332,2.354,1.493,1.568,2.829
		c1.924-1.577,2.118,1.659,1.625,3.066c1.717-1.228,2.661,0.449,1.616,2.011c0.897-1.377,3.727,1.921,1.974,3.167
		c1.938-1.446,3.27,1.666,2.366,3.093c0.124,0.239,0.243,0.535,0.354,0.894c0.062,0.062,0.122,0.124,0.185,0.189
		c0.194-2.334,0.985-2.795,1.831-2.389l9.857-14.276c-1.251-1.255-1.646-4.243-0.545-5.588l-9.171-13.624
		c-0.358,0.107-0.714,0.134-1.039,0.066c-0.245,0.242-0.599,0.267-1.062,0.073C81.302,67.02,80.774,67.787,79.524,67.111z"/>
	<path d="M83.398,143.211l10.499-14.423c-1.69-0.59-2.935-3.523-1.969-5.258l-0.554-0.846l-9.233-14.523
		c-0.658,0.318-1.36,0.376-1.896,0.08c-0.327,0.407-0.813,0.495-1.459,0.262c-0.082,1.668-0.346,3.083-1.876,2.722
		c0.374,0.637-0.128,2.221-1.687,2.447c0.05,1.196-0.152,2.076-1.259,1.827c0.441,1.624-0.657,1.708-1.448,2.101
		c0.443,2.482-0.381,2.429-1.387,2.013c0.234,1.828,0.036,2.953-0.59,3.383c0.168,0.7,0.095,1.279-0.366,1.465
		c0.016,0.399-0.112,0.782-0.33,1.069c0.88-0.682,3.274,2.097,2.489,3.773c1.004-1.175,2.51,1.494,1.724,2.828
		c0.832-1.732,2.118,1.191,1.625,2.6c1.405-1.229,2.349,1.854,1.616,3.26c0.802-1.512,2.646,0.465,2.225,1.902
		c0.79-0.428,3.033,2.363,1.865,3.41c0.115,0.107,0.239,0.227,0.368,0.352C82.156,142.826,82.775,142.807,83.398,143.211z"/>
	<path d="M97.857,165.201l-0.054-34.443c-0.667,0.615-1.526,0.938-2.24,0.816l-0.771,1.068c0.048,1.865-0.455,2.563-1.511,2.094
		c0.145,2.215-0.4,2.967-1.636,2.266c0.072,1.209-0.274,1.688-1.037,1.436c0.016,2.391-0.657,3.326-2.021,2.799
		c-0.118,1.666-0.412,3.074-1.935,2.68c-0.217,1.555-0.496,2.859-1.111,2.816c0.089,0.727-0.154,1.244-0.941,1.168
		c-0.063,0.076-0.136,0.137-0.222,0.182c0.001,0.027,0.005,0.053,0.006,0.076c1.286,0.443,2.304,0.996,1.482,2.289
		c1.392-1.43,2.285,1.18,1.408,2.338c1.271-1.879,2.785,1.457,1.736,2.674c2.487,0.201,2.601,1.145,1.484,2.367
		c1.553-1.143,2.895,1.191,1.832,2.646c1.001-0.824,2.494,1.25,1.42,2.328c1.819-1.471,2.509,2.324,2.229,4.275
		c0,0,0.077-0.014,0.195,0.471C96.304,164.955,97.034,164.658,97.857,165.201z"/>
	<path d="M85.082,59.046c-0.072,0.104-0.144,0.209-0.216,0.313c0.489,0.735,0.702,1.447,0.709,2.1
		c1.071-0.112,1.314,1.207,0.27,2.717c1.385-1.146,2.966,0.479,2.15,3.7c1.316-1.23,2.757-0.724,1.811,2.293
		c1.013-1.588,3.202,0.123,1.582,2.491c1.53-1.603,2.608,1.422,1.731,2.972c1.312-1.06,2.145,0.376,1.945,1.652
		c0.17,0.021,0.318,0.115,0.424,0.257c0.249-0.08,0.49-0.05,0.692,0.078c0.364-0.887,0.941-0.998,1.54-0.688l-0.054-34.566
		c-0.385,0.114-0.769,0.14-1.112,0.049c-0.361,0.741-0.512,1.914-1.511,2.174c-0.006,1.161-0.774,1.814-1.65,2.395
		c-0.045,1.126-0.522,1.82-1.434,2.08c-0.333,1.451-0.738,2.685-1.651,2.396c-0.155,2.218-0.889,3.282-2.199,3.191
		c-0.517,0.75-1.034,1.5-1.55,2.25C87.252,58.44,87.188,59.947,85.082,59.046z"/>
	<path d="M55.176,56.89c-0.102,0.18-0.202,0.362-0.302,0.543c0.05,0.091,0.101,0.183,0.143,0.274
		c1.847-0.174,2.218,0.754,1.099,2.794c1.047-0.661,3.911,1.564,2.387,3.46c2.242-0.604,3.076,1.772,1.567,3.064
		c3.554-0.315,3.59,2.05,2.146,3.391c2.103-0.597,3.41,2.697,2.399,4.07c1.846,0.265,2.502,1.901,2.544,3.798
		c0.086,0.226,0.169,0.486,0.248,0.781c0.023,0.006,0.048,0.012,0.07,0.019c0.169-2.528,1-3.006,1.881-2.558l10.439-15.083
		c-0.768-0.798-1.203-2.249-1.153-3.553L68.1,42.229c-0.854,0.389-1.77,0.339-2.293-0.354c-0.283,0.495-0.909,0.737-1.398,0.934
		c0.235,1.331,0.199,2.417-1.748,2.439c0.253,1.709-0.176,2.492-1.444,2.246c-0.004,1.877-0.795,2.465-1.886,2.169
		c0.354,2.251-0.053,3.391-1.872,3.252c-0.047,0.647-0.176,1.266-0.875,1.695c-0.049,0.071-0.094,0.144-0.143,0.216
		C57.009,56.217,56.909,57.498,55.176,56.89z"/>
	<path d="M43.224,39.9c1.366,0.43,1.918,2.671,1.813,3.827l0.157,0.258c2.037-0.081,2.45,0.597,1.241,2.034l0.076,0.125
		c2.471,0.167,3.84,0.813,1.462,2.396l0.042,0.069c2.878,0.21,3.536,1.285,1.967,3.225l0.037,0.061
		c1.501,0.25,2.423,0.849,2.127,1.958c0.123,0.295,0.24,0.653,0.347,1.082c0.007,0.002,0.013,0.005,0.02,0.008
		c0.18-3.26,1.415-3.273,2.505-2.251l9.232-13.486c-0.56-0.514-0.963-1.333-1.147-2.216h6.961c-0.146,0.155-0.294,0.31-0.447,0.461
		c0.364,0.676,0.499,1.326,0.465,1.921c0.479,0.977,0.947,1.908,1.476,2.654c0.607-2.055,2.53,1.731,2.148,4.015
		c0.628-2.176,3.585,0.526,1.937,2.651c1.031-1.417,2.086,0.799,2.007,1.857c1.177-0.894,2.133,2.003,1.193,2.944
		c1.359-1.244,3.014,0.26,3.139,1.955c0.145,0.197,0.284,0.464,0.415,0.802c0.125,0.014,0.257,0.069,0.392,0.158
		c0.261-1.934,1.009-2.294,1.803-1.898l10.288-14.867c-0.913-0.347-1.586-1.438-1.837-2.654h71.337
		c1.025,1.487,0.889,2.885,0.265,3.898c0.077,0.188,0.151,0.383,0.217,0.588c0.304-0.599,2.158-0.073,1.318,2.458
		c1.443-1.989,1.876,0.427,1.524,2.723c0.453-3.125,2.557-1.42,2.065,1.376c0.59-1.337,2.221,0.243,1.955,2.221
		c0.863-1.236,2.038,1.101,1.368,3.797c1.213-3.463,2.13-0.707,1.599,2.146c0.078-0.05,0.159-0.088,0.239-0.112
		c0.884-1.685,1.646-1.968,1.544,0.926l0.51-0.695c0.147-0.366,0.33-0.602,0.536-0.732l11.88-16.238
		c-0.646-0.498-1.109-1.388-1.309-2.357h8.115c-0.1,0.082-0.23,0.133-0.418,0.131l-0.261,0.27c0.333,0.473,0.479,1.02,0.073,2.021
		c1.499-1.806,1.531,0.479,1.098,2.664l0.014,0.022c0.67-2.207,2.227-0.23,1.831,1.979c0.753-0.732,2.514,1.882,2.204,4.12
		c0.483-0.84,1.981,0.395,1.477,1.662c1.238-0.909,2.908,2.128,2.555,4.145c0.036,0.039,0.072,0.083,0.107,0.13
		c0.354-0.444,0.771-0.543,1.188-0.371c0.236-0.481,0.548-0.685,0.892-0.688l9.153-14.158l-0.663-0.814
		c-0.563-0.432-1.048-1.038-1.255-1.543l-0.347-0.426l0.247-0.123c0.022-0.158,0.113-0.273,0.275-0.335l-3.289-0.001v-0.108H44.709
		v0.051l-3.36,0l0,0h0.102C41.779,36.401,43.413,38.673,43.224,39.9z M70.278,37.021c-0.034-0.01-0.068-0.021-0.104-0.033h0.094
		C70.272,36.999,70.273,37.01,70.278,37.021z"/>
	<path d="M94.172,86.209c-0.33,1.426-0.737,2.625-1.638,2.341c-0.156,2.218-0.888,3.282-2.199,3.19
		c0.087,1.354-0.547,2.274-1.903,2.762c0.264,1.313,0.238,2.482-1.817,2.636c-0.028,1.457-0.634,2.335-1.817,2.636
		c0.005,0.101,0.008,0.197,0.009,0.29c0.959,1.732,1.117,3.759-1.44,2.549c0.002,0.143,0,0.278-0.007,0.404
		c0.425,0.637,0.641,1.258,0.695,1.837c0.963,0.414,1.561,0.977,0.874,2.057c2.016,0.287,2.285,1.336,1.408,2.494
		c1.896-0.942,2.784,1.302,1.735,2.518c1.613-1.283,2.499,0.876,1.651,2.151c1.201-1.325,2.999,1.801,1.573,3.144
		c1.106-1.029,2.345,0.312,1.848,1.425c0.72-0.264,1.543,1.607,1.826,3.289c0.392,0.264,0.771,0.927,1.073,2.164
		c0.13-2.556,0.899-3.151,1.746-2.82l-0.054-35.099C96.609,87.358,94.794,87.647,94.172,86.209z"/>
	<path d="M52.803,98.032c0.087,0.085,0.173,0.192,0.258,0.323c0.27,0.074,0.553,0.171,0.829,0.293
		c0.241-1.087,0.682-1.501,1.188-1.489l9.479-13.696c-0.981-1.007-1.424-3.079-1.017-4.561l-10.5-16.515
		c-0.318,0.1-0.635,0.133-0.932,0.095c0.082,1.934-0.875,2.031-1.735,1.849c0.688,2.072,0.316,2.638-1.245,2.225
		c-0.077,0.053-0.173,0.086-0.283,0.106c0.772,1.965-0.017,3.036-1.958,2.664c-0.038,0.01-0.074,0.022-0.114,0.031
		c0.623,2.774-0.083,2.902-1.347,2.525c-0.015,0.013-0.029,0.029-0.046,0.041c0.42,1.978-0.068,2.97-1.783,2.814
		c0.265,1.632-0.34,2.504-1.813,2.616c-0.031,0.044-0.062,0.089-0.092,0.133c1.114,1.278,1.513,2.332,1.205,3.533
		c0.747,0.971,1.343,1.905,1.265,2.417c1.479,0.465,1.537,2.746,1.308,3.78c2.265-0.138,3.181,0.888,1.81,2.452
		c1.825,0.412,3.633,0.959,1.546,2.466c3.016,0.188,3.703,1.283,2.059,3.282C52.701,95.702,53.701,96.484,52.803,98.032z"/>
	<path d="M97.921,206.859l-0.049-32.107c-0.934,0.91-2.277,1.23-3.06,0.529c-0.242,1.553-1.048,2.133-2.25,2.113
		c-0.443,1.658-0.926,2.596-1.883,2.791c-0.267,1.488-1.06,2.596-2.143,2.895c-0.262,1.482-0.927,2.26-2.004,2.553
		c-0.134,0.98-0.539,1.516-1.212,1.607c-0.231,0.305-0.453,0.617-0.679,0.926c0.809,1.514,0.987,3.203-0.719,2.752
		c1.076,0.797,2.301,1.697,2.336,3.143c1.286,0.443,2.304,0.994,1.482,2.289c1.391-1.432,2.284,1.18,1.408,2.338
		c1.271-1.881,2.784,1.457,1.735,2.674c2.488,0.203,2.602,1.143,1.484,2.367c1.553-1.143,2.895,1.189,1.832,2.646
		c0.965-0.795,2.378,1.1,1.522,2.203c0.004,0.01,0.008,0.023,0.013,0.035c0.158-0.117,0.309-0.199,0.45-0.25
		C96.49,206.777,97.187,206.496,97.921,206.859z"/>
	<path d="M174.072,193.988c-0.236,0.328-0.47,0.652-0.69,0.961c0.638,3.9,0.171,4.57-1.368,1.967c1.234,3.26,0.43,4.115-1.531,2.77
		c0.03,3.713-0.621,3.969-1.764,1.928c0.431,3.475-0.743,4.648-1.772,2.645c0.04,3.029-0.262,3.498-1.626,2.357l-0.041,0.063
		c0.517,1.432-0.01,2.543-0.978,2.373c0.75,1.336,1.027,2.859-0.052,2.945c0.16,0.545,0.217,1.32,0.098,2.307
		c0.597-1.025,2.484,1.016,1.937,2.248l0.033,0.035c1.247-1.316,2.405,0.592,2.007,2.104l0.117,0.125
		c1.19-0.818,1.996,0.625,1.782,1.869l0.213,0.223c0.95-0.691,2.301-0.447,2.146,1.332c5.902-3.283,11.452-7.293,16.493-12.027
		l-11.62-15.686C176.248,195.541,174.524,195.627,174.072,193.988z"/>
	<path d="M202.826,188.025l-10.333-14.793c-0.76,0.561-1.678,0.762-2.355,0.434c-0.081,1.268-0.742,1.443-1.981,0.521
		c0.451,4.291-0.447,3.574-1.718,2.182c-0.035,3.359-0.313,3.049-1.508,2.348c0.195,2.641-0.21,3.68-1.762,2.578
		c0.544,3.658-0.077,3.391-1.858,1.578c0.59,2.303-0.073,4.197-1.229,2.754c-0.226,0.336-0.482,0.709-0.759,1.104
		c0.944,1.607,1.235,3.572-0.719,2.961c0.273,0.898,0.353,1.744,0.075,2.268c0,0.043-0.005,0.082-0.006,0.123
		c1.83-1.338,2.661,0.23,1.424,2.211c1.054-1.264,2.379,0.217,2.32,3.596c0.891-1.086,2.251-0.588,1.917,2.207
		c0.622-1.072,2.509,1.211,1.694,2.414c1.374-1.67,2.539,1.305,1.868,2.889c1.499-1.332,2.487,0.893,1.823,2.258
		c0.825-1.215,2.094-1.986,1.916,0.041c4.708-4.826,8.912-10.33,12.474-16.51c-0.016-0.014-0.028-0.033-0.044-0.053
		C202.85,190.387,202.539,189.158,202.826,188.025z"/>
	<path d="M162.141,207.049l10.468-15.469c-0.817-1.16-1.118-3.117-0.635-4.455l-9.031-12.191c-1.136,0.773-2.575,0.764-3.052-0.592
		l-0.033,33.625c0.267,0.285,0.521,0.771,0.743,1.523l-0.022-0.131l0.235-0.348C161.029,207.521,161.544,207,162.141,207.049z"/>
	<path d="M219.263,40.836c-0.051,0.212-0.119,0.391-0.204,0.532v0.013c-0.034,0.047-0.066,0.087-0.101,0.131
		c-0.006,0.006-0.011,0.016-0.017,0.022c-0.364,0.479-0.729,0.8-1.064,0.941c-0.214,1.275-0.735,1.993-1.565,1.76
		c-0.069,1.958-0.62,2.692-1.654,2.203c-0.57,0.632-0.489,2.267-1.68,2.619c0.031,1.16-0.716,1.839-1.572,2.448
		c-0.007,1.126-0.463,1.835-1.364,2.125c-0.149,0.762-0.32,1.463-0.58,1.925c0.712,1.547,0.674,3.087-1.415,2.214
		c0.029,0.267,0.047,0.543,0.056,0.827c0.171,0.347,0.278,0.686,0.337,1.014c0.723-1.036,1.396,0.128,1.565,3.61
		c0.754-1.908,2.214-0.627,0.945,2.502c1.045-1.946,1.93,0.528,1.502,3.021c1.836-0.888,1.774,1.328,1.453,2.887l0.017,0.029
		c0.785-2.231,2.067,0.72,1.202,2.065l0.006,0.01c1.752-1.799,2.248,0.236,1.324,2.028c0.954-0.561,1.44-0.746,1.661-0.594
		l1.22-34.354C219.312,40.825,219.287,40.83,219.263,40.836z"/>
	<path d="M214.571,134.273c0.116,1.596-0.57,2.766-1.621,2.633c-0.03,1.127-0.499,2.691-1.515,2.529
		c-0.314,1.457-0.379,2.586-1.296,2.311c-0.058,0.998-0.236,1.762-0.532,2.297c0.362,1.018,0.327,1.918-0.497,1.98
		c0.294,0.668,0.405,1.252,0.203,1.611c2.027,0.178,3.134,2.305,2.321,3.508c1.841-1.043,2.85,1.15,1.867,2.422
		c0.828-0.736,1.5-0.467,1.823,0.146l0.739-20.799C215.993,133.475,215.707,134.068,214.571,134.273z"/>
	<path d="M78.018,187.162L68.96,173.1c-1.071,1.363-3.037,1.811-3.743,0.385c-0.093,0.139-0.187,0.277-0.28,0.416
		c0.47,2.539-0.591,2.795-1.889,2.713c0.315,1.539-0.615,2.037-1.723,2.385c0.126,1.541-0.454,2.344-1.74,2.41
		c0.165,1.496-0.665,1.953-1.635,2.266c-0.038,2.287-0.504,3.572-1.916,2.652c0.648,1.783,0.313,2.246-1.002,1.389
		c-0.112,2.023-0.394,1.646-1.401,2.418c3.839,6.832,8.429,12.846,13.59,18.053l10.947-14.979
		C76.719,191.846,76.361,188.193,78.018,187.162z"/>
	<path d="M63.805,165.098l-8.956-13.904c-1.291,1.441-3.6,1.67-3.841-0.682l0.102-0.961c-0.142-0.01-0.277-0.041-0.409-0.088
		c0.76,3.625-0.054,4.066-1.618,2.139c0.013,2.287-0.426,3.582-1.857,2.693c0.687,1.77-0.286,2.998-1.621,2.168
		c-0.068,2.025-1.521,3.404-2.513,4.201c1.705,8.984,4.406,17.129,7.919,24.438c0.598,0.094,1.124,0.24,1.587,0.42l10.909-14.986
		C62.487,168.926,62.381,166.027,63.805,165.098z"/>
	<path d="M50.259,59.645c-1.273-0.545-1.998-2.712-1.787-4.439l-9.354-14.713c0,0,0,0,0,0l1.099,34.055l0,0l-0.007-0.222
		L50.259,59.645z"/>
	<path d="M68.204,119.686l10.078-14.595c-0.969-1.019-1.402-3.084-0.99-4.556l-8.913-14.019c-0.655,0.313-1.352,0.368-1.884,0.072
		c-0.265,1.239-1.003,1.741-2.086,1.769c-0.371,1.678-0.813,2.634-1.761,2.869c-0.203,1.5-0.948,2.64-2.016,2.984
		c-0.198,1.493-0.829,2.3-1.892,2.637c-0.092,0.986-0.473,1.539-1.142,1.658c-0.125,0.182-0.245,0.368-0.369,0.551
		c0.767,1.31,1.095,2.849,0.13,3.038c-0.009,0.499-0.284,1.203-0.775,2.098c1.046-0.66,3.755,2.033,2.231,3.929
		c2.242-0.604,2.452,1.459,1.723,2.907c2.149-1.407,2.965,2.206,2.614,4.017c1.167-2.159,2.787,1.604,2.243,3.445
		c0.563-0.726,1.402-0.007,1.995,1.149C67.64,119.528,67.918,119.557,68.204,119.686z"/>
	<path d="M68.291,163.963l10.13-13.914c-1.368-1.393-1.699-4.863-0.145-5.93l-9.768-15.379c-1.05,1.315-2.938,1.762-3.679,0.456
		c-0.147,1.346-0.69,2.057-1.755,1.996c-0.197,1.908-0.503,2.824-1.567,2.746c0.952,1.893-0.962,3.023-1.684,1.656
		c0.24,2.402-0.366,3.74-1.829,2.754c-0.18,2.422-0.593,3.342-2.454,3.814c-0.064,0.1-0.131,0.195-0.196,0.293
		c1.497,1.389,2.732,4.736,0.613,4.338c0.284,0.641,0.426,1.393,0.323,2.137l0.124,0.195c0.691-0.639,2.257-0.135,1.741,1.906
		c0.004-0.244,3.338,2.447,2.231,3.928c2.241-0.604,2.451,1.459,1.723,2.908c2.148-1.408,2.965,2.205,2.614,4.016
		c1.167-2.158,2.787,1.604,2.244,3.445c0.026-0.033,0.053-0.064,0.081-0.092C67.306,164.227,67.771,163.889,68.291,163.963z"/>
	<path d="M83.171,186.359l10.131-13.861c-1.486-1.262-2.232-4.592-0.674-5.74l-0.317-0.539l-8.914-14.035
		c-0.87,1.041-2.264,1.502-3.14,0.924c0.352,2.73-1.348,2.188-1.953,2.373c-0.151,1.76-0.966,2.426-2.235,2.43
		c-0.408,1.668-0.871,2.615-1.824,2.83c-0.235,1.494-1.004,2.617-2.081,2.939c-0.208,1.348-0.764,2.119-1.661,2.488
		c0.785,1.52,0.915,3.172-0.869,2.635c0.016,0.193,0.021,0.383,0.012,0.566c2.291,0.537,2.387,2.166,1.755,2.998
		c0.879-0.682,3.274,2.098,2.489,3.775c1.005-1.178,2.511,1.492,1.724,2.83c0.832-1.734,2.118,1.188,1.625,2.596
		c1.298-1.135,2.202,1.41,1.754,2.912l0.049,0.076c0.868-0.959,2.431,0.838,2.039,2.174c0.099-0.053,0.223-0.057,0.359-0.016
		C81.866,185.867,82.522,185.896,83.171,186.359z"/>
	<path d="M63.4,120.696l-8.571-13.497c-0.986,0.558-2.124,0.534-2.662-0.408c-0.123,0.183-0.242,0.368-0.367,0.55
		c0.349,1.532-0.57,2.05-1.67,2.424c0.16,1.537-0.402,2.353-1.686,2.447c0.196,1.491-0.623,1.968-1.585,2.3
		c0.013,2.288-0.425,3.583-1.857,2.695c1.228,1.336-0.287,2.671-0.971,1.409c-0.03,0.883-0.278,1.473-0.631,1.925
		c1.268,2.009,1.331,4.117,0.188,6.328c1.083,1.265,2.241,2.71,2.135,3.408c1.479,0.465,1.537,2.746,1.307,3.779
		c1.324-1.393,1.613-1.201,1.811,2.453c0.366-1.256,2.175-0.707,1.546,2.465c1.558-0.906,1.828-0.123,2.059,3.281
		c0.054,0.01,0.104,0.02,0.155,0.027l10.825-15.674C62.086,125.159,61.797,121.7,63.4,120.696z"/>
	<path d="M50.465,103.824c-0.791-1.173-1.072-3.102-0.585-4.417l-9.335-14.7l-0.008-0.236c0,0,0,0,0,0l1.043,32.34c0,0,0,0,0,0
		l-0.005-0.142L50.465,103.824z"/>
	<path d="M205.232,151.473c-0.268,0.811-0.833,0.941-1.525-0.268c0.221,2.207-0.394,3.881-1.34,2.754
		c0.714,2.191-1.165,5.111-1.913,2.494c0.099,2.389-0.085,3.729-0.997,1.844c-0.061,1.67-0.618,4.336-1.842,2.746
		c-0.21,2.014-0.535,3.631-1.655,2.469c0.143,1.426-0.003,2.443-1.344,1.518c-0.039,0.059-0.084,0.125-0.126,0.186
		c0.957,1.576,1.301,3.549-0.505,3.09c0.086,0.633,0.056,1.244-0.132,1.74c0.01,0.066,0.02,0.133,0.026,0.199
		c1.206-0.635,4.048,3.225,3.993,6.412c0.893-1.086,2.095-0.588,1.761,2.205c0.622-1.07,2.977,1.836,2.164,3.039
		c1.841-1.043,2.85,1.15,1.867,2.422c1.186-1.055,2.051-0.049,2.034,1.07c0.131-0.012,0.265-0.02,0.399-0.014
		c0.263-0.283,0.461-0.316,0.537,0.066c0.146,0.031,0.293,0.07,0.442,0.125c3.597-7.455,6.313-15.777,7.938-24.965l-7.356-10.293
		C206.999,151.1,206.04,151.553,205.232,151.473z"/>
	<polygon points="216.602,117.767 216.624,117.125 216.59,117.75 	"/>
	<path d="M93.315,213.971c-1.135-0.953-1.656-3.283-1.158-4.857l-8.992-13.959c-1.079,1.404-3.107,1.861-3.794,0.355
		c-0.076,0.102-0.148,0.205-0.225,0.307c0.282,1.545-0.658,2.023-1.773,2.35c0.094,1.541-0.504,2.334-1.791,2.371
		c0.132,1.5-0.706,1.939-1.682,2.23c-0.086,2.285-0.58,3.561-1.972,2.611c0.61,1.797,0.266,2.252-1.031,1.367
		c-0.156,2.021-0.701,2.594-1.725,3.346c5.415,5.109,11.404,9.371,17.777,12.795l-0.07-0.113L93.315,213.971z"/>
	<path d="M162.08,216.934c-0.73,0.498-1.586,0.674-2.231,0.375l-0.009,9.287c-4.628,1.863-20.329,6.789-30.925,6.789
		c-0.079,0-0.159,0-0.237,0c-10.657-0.076-19.382-2.631-30.726-7.021l-0.016-10.211c-0.799,0.816-1.926,1.189-2.738,0.836
		c-0.403,0.234-0.913,0.352-1.366,0.486c-0.086,2.287-0.821,3.4-2.212,2.451c0.287,1.797-0.272,2.252-1.032,1.367
		c-0.146,1.896-0.448,2.146-1.331,2.791c2.529,1.26,5.116,2.381,7.744,3.383l-0.02,0.051c11.723,4.559,20.667,7.211,31.686,7.289
		c0.081,0.002,0.161,0.002,0.242,0.002c11.661,0,29.393-5.852,32.44-7.314l-0.023-0.047c2.806-1.063,5.565-2.256,8.254-3.613
		L162.08,216.934z"/>
	<path d="M49.062,147.406c-0.496-1.52-0.386-3.424,0.603-4.26l-7.616-11.824l0.811,25.117l-0.001-0.047L49.062,147.406z"/>
	<polygon points="217.743,85.638 217.76,85.153 217.742,85.641 	"/>
	<polygon points="217.794,84.171 217.76,85.153 217.795,84.17 	"/>
	<path d="M216.235,87.299c-0.687,2.74-0.469,3.463-2.005,1.862c0.283,2.64-0.246,3.318-1.248,3.205
		c0.069,1.358-0.988,2.853-2.122,2.45c0.003,2.183-0.362,2.888-1.572,1.908c-0.079,2.127-0.031,3.408-1.177,3.473
		c0.762,1.33,1.067,2.873,0.03,2.999c1.212,1.313,2.215,2.954,1.908,4.424c0.656-0.338,1.934-0.42,1.158,2.096
		c2.646-0.409,2.776,2.519,2.411,3.707c0.819-1.633,1.787-0.202,1.822,1.674c0.736-0.806,1.186,1.996,1.183,2.026l1.118-31.481
		C217.528,87.635,217.025,88.188,216.235,87.299z"/>
	<path d="M159.898,165.68c0.376-0.109,0.77,0.07,1.124,0.699c0.191-0.357,0.445-0.262,0.748,0.129
		c0.276-1.229,0.814-1.582,1.41-1.432l10.442-16.465c-0.358-0.893-0.5-1.973-0.354-2.902l-10.276-14.713
		c-1.014,0.842-2.382,1.027-3.061,0.1L159.898,165.68z"/>
	<path d="M202.151,142.605l-9.042-12.65c-0.671,0.482-1.456,0.688-2.094,0.498c-0.19,0.594-0.622,0.475-1.539,0.527
		c0.118,3.709-1.195,4.332-2.1,1.951c0.752,3.137,0.116,3.43-1.484,2.832c0.14,2.219-0.885,3.178-1.913,1.893
		c0.372,1.275-1.048,4.988-1.677,2.498c0.235,1.85-1.095,2.945-1.858,2.939c-0.102,0.199-0.203,0.402-0.304,0.609
		c1.32,1.537,2.205,4.342,0.239,3.957c0.731,1.609,1.278,3.563,1.294,5.344c0.484-2.957,2.782-1.975,1.954,1.061
		c0.97-2.117,2.173,1.324,1.726,2.906c0.958-1.43,2.286,1.803,1.855,3.309c1.806-1.943,2.838-0.008,1.878,2.389
		c0.974-2.037,3.021,0.75,1.388,2.098c0,0.002,0.001,0.002,0.001,0.002c0.145-0.115,0.293-0.193,0.44-0.24l11.389-16.832
		C201.379,146.273,201.183,143.801,202.151,142.605z"/>
	<path d="M206.214,63.351c-0.34,0.113-0.679,0.153-0.995,0.111c-0.105,1.146-0.644,1.612-1.505,1.283
		c0.634,1.518,0.199,2.012-1.418,1.938c0.029,1.286-0.639,1.761-1.528,1.948c-0.3,0.499-0.398,3.608-1.811,2.903
		c0.138,1.204-0.94,2.243-1.716,2.034c0.147,2.387,0.392,2.489-0.998,2.038c-0.027,1.67,0.404,2.551-1.137,2.241
		c-0.062,0.735-0.199,1.575-0.402,2.292c0.232,0.778,0.198,1.449-0.285,1.666c0.451,1.32,0.749,2.802,0.734,4.209
		c1.114-1.373,2.172-0.7,1.725,1.76c1.294-1.55,2.081,1.208,1.431,2.524c1.633-1.076,2,0.87,1.203,2.415
		c1.017-2.029,3.031,0.836,1.324,2.143c2.032-1.631,3.722,0.491,2.392,2.534c0.902-1.042,1.537-0.364,1.647,1.868
		c0.161-0.464,0.372-0.747,0.614-0.89l9.925-15.65l0.164-1.553c-0.375-0.599-0.521-1.149-0.517-1.65
		c-0.145-0.491-0.207-0.961-0.166-1.473L206.214,63.351z"/>
	<path d="M177.16,184.854l10.339-15.277c-0.564-1.172-0.721-2.777-0.295-3.916l-8.944-12.805c-0.837,0.42-1.756,0.42-2.313-0.195
		c-0.063,0.104-0.124,0.209-0.186,0.305c0.688,2.529-0.947,2.619-1.699,1.395c0.932,3.262-0.817,4.191-2.039,1.814
		c0.971,2.389-0.865,3.93-1.628,2.814c0.089,2.285-0.501,3.791-1.648,2.324c0.743,1.746-0.214,3.418-1.574,2.633
		c0.648,1.672-0.563,2.227-1.801,2.641c0.029,0.27,0.015,0.539-0.022,0.809c0.741,1.521,0.797,3.102-1.077,2.453
		c-0.115,0.16-0.235,0.314-0.359,0.465c0.36,0.625,0.523,1.229,0.535,1.789c0.116,0.248,0.232,0.492,0.35,0.729
		c0.42-1.164,2.749,2.355,2.669,4.217c0.491-2.059,3.407-0.248,2.527,1.793c0.89-1.176,1.938,1.648,1.705,2.82
		c1.123-1.254,2.063,1.188,1.146,2.195c1.805-1.945,3.462-0.008,2.502,2.389c0.178-0.371,0.447-0.451,0.759-0.332
		C176.356,185.154,176.734,184.854,177.16,184.854z"/>
	<path d="M206.62,107.512c-0.851,0.995-2.183,1.441-3.052,0.929c0.176,2.153-0.592,2.214-1.633,1.818
		c0.265,2.203,0.088,3.203-1.184,2.566c0.137,1.205-0.183,1.702-0.958,1.492c0.146,2.387-0.475,2.922-1.865,2.471
		c-0.027,1.67-0.678,3.525-2.219,3.215c-0.035,0.416-0.259,1.083-0.59,1.876c1.007,1.634,1.355,3.719-0.674,3.068
		c0.202,0.312,0.402,0.624,0.597,0.929c1.261-1.636,2.395,2.399,1.932,3.325c1.265-1.574,1.633,1.023,1.008,2.35
		c1.805-1.941,2.37,0.305,1.41,2.703c0.977-2.047,2.881,0.613,1.213,1.955c1.99-1.646,3.409,1.041,2.145,3.104l0.003,0.004
		c1.053-1.242,2.516-1.15,2.459,2.209c0.199,0.057,0.451,0.209,0.731,0.428c0.214-0.541,0.505-0.805,0.831-0.863l8.797-13
		l0.007-0.056c-1.632-3.795-0.957-6.509-0.154-7.813L206.62,107.512z"/>
	<path d="M187.795,122.519l-9.405-13.159c-1.143,0.427-2.34,0.054-2.509-1.604l0.1-0.959c-0.093-0.006-0.184-0.021-0.271-0.043
		c-0.149,0.247-0.3,0.492-0.446,0.738c0.744,1.625,0.593,2.711-1.553,2.604c1.1,2.185-0.35,2.672-1.908,3.093
		c0.399,1.52-0.503,2.069-1.591,2.478c0.211,1.531-0.325,2.365-1.605,2.5c0.245,1.484-0.558,1.987-1.509,2.351
		c0.087,2.279-0.308,3.585-1.755,2.761c-0.002,0.002-0.006,0.004-0.008,0.007c0.412,0.97,0.496,1.545,0.252,1.728
		c0.132,0.875-0.19,1.477-1.311,1.17c0.257,0.778,0.411,1.573,0.37,2.145c0.938-2.173,2.497-0.357,1.532,2.304
		c1.009-1.6,2.74-1.094,1.32,1.922c1.425-1.658,2.229-0.424,1.729,1.57c1.609-2.273,1.419-0.633,1.545,2.803
		c0.529-3.072,3.093,0.781,2.301,2.688c1.62-2.002,2.146,0.305,1.369,2.18c1.374-1.996,2.047-0.055,2.194,2.066l11.364-17.917
		C187.581,124.868,187.476,123.536,187.795,122.519z"/>
	<path d="M159.942,121.917c0.465,0.04,0.938,0.567,1.315,1.862l0.173-0.269c0.2-1.727,0.765-2.286,1.419-2.192l10.987-16.996
		c-0.136-0.521-0.203-1.071-0.19-1.6l-11.743-16.429c-0.678,0.31-1.397,0.342-1.927-0.005L159.942,121.917z"/>
	<path d="M192.175,86.653c-0.757,0.607-1.699,0.851-2.405,0.549c-0.323,0.489-0.586,0.896-0.726,1.146
		c0.153,1.673-1.642,4.27-2.617,3.061c-0.04,0.033-0.08,0.063-0.12,0.091c-0.09,1.635-0.556,2.773-1.764,2.844
		c-0.315,1.69-0.943,3.093-1.883,3.358c-0.151,1.473-1.347,1.686-2.39,2.05c1.583,1.524,2.825,5.176,0.028,4.129
		c0.096,0.373,0.106,0.728,0.004,1.032c0.031,0.074,0.062,0.147,0.087,0.221c2.116-1.355,1.818,0.284,1.937,3.532
		c0.529-3.072,2.781,1.094,1.99,2.998c1.617-2,2.144,0.306,1.367,2.181c2.101-1.485,1.877,0.927,1.759,3.318l0.034,0.052
		c0.845-3.308,3.292-0.849,3.404,3.887c0.032,0.039,0.063,0.081,0.097,0.126c0.009-0.006,0.018-0.018,0.027-0.023l10.321-16.275
		c-0.983-1.444-1.188-4.063-0.121-5.238L192.175,86.653z"/>
	<path d="M160.023,38.443l-0.037,38.44c0.307,0.219,0.604,0.688,0.862,1.487l0.293-0.401c0.23-1.421,0.747-1.901,1.341-1.832
		l10.613-14.504c-0.462-0.95-0.655-2.186-0.486-3.232l-11.103-16.03c-0.523-0.194-0.924-0.678-1.049-1.515l-0.237-0.342l0.081-1.954
		C160.209,38.529,160.115,38.489,160.023,38.443z"/>
	<path d="M178.903,60.095c0.074,0.288,0.143,0.596,0.204,0.919c0.153,0.318,0.252,0.629,0.311,0.932
		c0.717-1.449,2.324,0.171,1.322,3.188c0.919-2.009,2.379-0.407,2.112,2.108c1.33-1.285,2.046,1.913,2.106,3.627
		c0.588-3.062,2.605,1.458,1.777,3.347c1.656-1.97,2.451,0.034,1.639,1.894c2.114-1.436,2.295,0.069,2.164,2.375l0.168-0.257
		c0.064-0.139,0.137-0.249,0.216-0.336l0.005-0.007c0.138-0.38,0.311-0.635,0.508-0.786l11.095-17.162
		c-0.822-1.044-1.18-2.875-0.842-4.245l-8.118-13.737c-0.87,0.592-1.917,0.726-2.574,0.145l-0.564,0.741
		c-0.066,1.173-0.481,2.432-1.771,2.325l-0.059,0.077c-0.069,1.108-0.832,1.729-1.7,2.275c-0.073,1.125-0.567,1.806-1.484,2.044
		c-0.37,1.441-0.805,2.665-1.711,2.354c-0.211,2.213-0.97,3.258-2.277,3.134c-0.487,0.672-0.977,1.344-1.465,2.016
		C181.117,58.836,181.536,61.275,178.903,60.095z"/>
	<path d="M172.536,67.294c0.067,1.21-0.28,1.688-1.042,1.434c0.01,2.392-0.666,3.323-2.028,2.792
		c-0.123,1.665-0.422,3.073-1.944,2.675c-0.285,2.004-0.67,3.608-1.745,2.404c0.018,1.077-0.165,1.889-1.001,1.841
		c0.746,1.504,0.828,3.086-0.957,2.526c0.313,0.521,0.521,1.018,0.482,1.41c1.114,0.285,1.206,1.748,1.109,2.911l0.052,0.075
		c0.533-1.864,1.6-0.439,1.597,2.309l0.062,0.089c0.427-1.786,2.08-0.385,1.792,1.625c0.818-1.09,2.01,0.925,1.669,3.385l0.063,0.09
		c1.004-2.675,1.606-0.734,1.223,1.769l0.165,0.241c0.887-1.739,1.589-1.619,1.398,2.022l0.107,0.156
		c0.561-1.857,0.856-1.665,1.349,1.95l0.082,0.119c0.547-1.569,1.832-1.461,1.523,0.651c0.069,0.028,0.14,0.069,0.209,0.122
		l10.592-16.385c-0.787-1.245-1.026-3.257-0.44-4.538l-9.275-13.392c-0.941,0.465-1.981,0.398-2.493-0.48
		c-0.234,0.123-0.535,0.104-0.905-0.062C174.316,67.248,173.77,68.001,172.536,67.294z"/>
	<path d="M215.522,154.369c0.016,0.133,0.018,0.27,0.007,0.406C215.582,154.51,215.568,154.354,215.522,154.369z"/>
	<ellipse cx="191.408" cy="125.464" rx="0.541" ry="1.027"/>
	<ellipse cx="190.327" cy="82.344" rx="0.54" ry="1.027"/>
	<ellipse cx="177.466" cy="104.499" rx="0.541" ry="1.027"/>
	<ellipse cx="161.148" cy="126.654" rx="0.541" ry="1.027"/>
	<ellipse cx="177.034" cy="148.053" rx="0.54" ry="1.025"/>
	<ellipse cx="205.287" cy="146.389" rx="0.54" ry="1.025"/>
	<ellipse cx="190.759" cy="168.695" rx="0.541" ry="1.025"/>
	<ellipse cx="175.566" cy="190.093" rx="0.54" ry="1.026"/>
	<ellipse cx="204.269" cy="103.634" rx="0.541" ry="1.026"/>
	<ellipse cx="160.811" cy="81.552" rx="0.541" ry="1.027"/>
	<ellipse cx="205.335" cy="58.533" rx="0.541" ry="1.027"/>
	<ellipse cx="176.373" cy="60.911" rx="0.541" ry="1.027"/>
	<ellipse cx="161.364" cy="170.315" rx="0.541" ry="1.026"/>
	<ellipse cx="160.5" cy="212.247" rx="0.541" ry="1.026"/>
	<ellipse cx="81.151" cy="103.668" rx="0.54" ry="1.027"/>
	<ellipse cx="67.426" cy="82.053" rx="0.541" ry="1.027"/>
	<ellipse cx="53.7" cy="102.804" rx="0.54" ry="1.026"/>
	<ellipse cx="66.345" cy="125.175" rx="0.54" ry="1.027"/>
	<ellipse cx="52.836" cy="147.438" rx="0.54" ry="1.027"/>
	<ellipse cx="81.259" cy="148.519" rx="0.541" ry="1.026"/>
	<ellipse cx="66.777" cy="169.484" rx="0.541" ry="1.027"/>
	<ellipse cx="95.957" cy="170.781" rx="0.541" ry="1.027"/>
	<ellipse cx="80.935" cy="191.531" rx="0.54" ry="1.027"/>
	<ellipse cx="95.957" cy="212.173" rx="0.541" ry="1.026"/>
	<ellipse cx="95.957" cy="126.795" rx="0.54" ry="1.026"/>
	<ellipse cx="95.727" cy="82.451" rx="0.54" ry="1.027"/>
	<ellipse cx="82.65" cy="60.079" rx="0.541" ry="1.027"/>
	<ellipse cx="52.499" cy="57.81" rx="0.54" ry="1.027"/>
</g>
</svg>
