<?xml version="1.0" encoding="utf-8"?>
<!-- Generator: Adobe Illustrator 16.0.0, SVG Export Plug-In . SVG Version: 6.00 Build 0)  -->
<!DOCTYPE svg PUBLIC "-//W3C//DTD SVG 1.1//EN" "http://www.w3.org/Graphics/SVG/1.1/DTD/svg11.dtd">
<svg version="1.1" id="Layer_1" xmlns="http://www.w3.org/2000/svg" xmlns:xlink="http://www.w3.org/1999/xlink" x="0px" y="0px"
	 width="256px" height="256px" viewBox="0 0 256 256" enable-background="new 0 0 256 256" xml:space="preserve">
<g>
	<path d="M228.973,63.322l0.619-0.107l-0.547-0.31c-3.592-2.036-8.029-3.067-13.195-3.067c-7.117,0-15.313,2.019-23.754,5.847
		c6.105-7.439,17.469-12.876,33.801-16.165l0.494-0.099l-0.406-0.302c-3.566-2.65-7.594-3.938-12.314-3.938
		c-6.406,0-14.025,2.386-23.938,7.5c3.246-4.994,11.406-12.828,31.672-22.838l0.639-0.315l-0.705-0.109
		c-2.307-0.359-4.625-0.541-6.883-0.541c-12.498,0-24.07,5.334-35.359,16.304c0.99-5.229,5.523-11.176,14.188-18.637l0.518-0.446
		l-0.682,0.05c-8.375,0.627-24.438,12.655-31.242,25.799c-3.414,6.599-3.793,13.981-1.156,22.57
		c-0.004,5.629-9.648,22.362-13.801,23.928c-1.057,0.398-1.951,0.96-2.896,1.555c-0.963,0.607-1.957,1.232-3.176,1.702
		c-1.176,0.452-2.516,1.128-3.813,1.781c-1.906,0.962-3.883,1.957-5.227,2.176c-9.616,1.563-17.632,6.722-20.636,13.108
		c1.226-6.033,6.91-10.55,16.926-13.443l0.183-0.053l-0.758-6.471c1.226,1.058,3.611,2.753,6.285,2.753
		c1.635,0,3.096-0.641,4.336-1.903l0.332-0.339l-0.471-0.043c-2.086-0.192-3.721-1.154-4.73-2.784
		c-1.471-2.375-1.551-5.942-0.234-9.617c1.404,2.278,4.105,4.499,6.508,4.499c0.477,0,0.93-0.088,1.346-0.264l0.246-0.105
		l-0.146-0.226c-1.844-2.833-2.564-8.526-2.51-11.806l6.92,5.317l-0.102-0.569c-1.217-6.956,0.459-11.253,2.082-15.409
		c0.35-0.896,0.711-1.825,1.035-2.759c2.605-7.52-13.072-14.326-17.941-16.233l-1.238-0.488c-4.322-1.705-8.396-3.312-11.542-3.204
		l-0.374,0.013l0.188,0.325c4.699,8.119,6.251,14.709,4.748,20.147c-3.525,2.206-7.761,4.395-12.244,6.713
		c-12.401,6.41-26.457,13.677-27.031,22.94c-0.341,5.494,1.758,9.83,5.66,11.853c-2.588-0.271-3.974-1.488-5.37-3.416l-0.252-0.349
		l-0.142,0.406c-1.509,4.312-3.271,9.917-3.496,15.027c-0.694,15.815,11.79,27.161,23.545,36.552
		c4.402,3.518,10.36,6.353,16.121,9.096c11.138,5.301,21.66,10.306,21.765,19.766c0.035,3.306-1.02,5.217-2.238,7.429
		c-0.75,1.356-1.598,2.894-2.299,4.945c-0.375,1.105-0.719,2.226-1.053,3.308c-1.92,6.252-3.578,11.651-10.526,12.449
		c-2.104,0.241-3.92,0.359-5.548,0.359c-1.225,0-2.353-0.069-3.347-0.207c-0.383-0.053-0.789-0.08-1.207-0.08
		c-1.634,0-3.306,0.396-5.075,0.814c-1.88,0.445-3.824,0.906-5.859,0.915h-0.111c-2.911,0-4.907-0.431-6.099-0.689
		c-0.569-0.122-0.98-0.212-1.282-0.212c-2.764,0-4.043,1.319-4.369,1.723l-0.272,0.337l0.432,0.028
		c2.83,0.193,3.388,2.024,3.571,3.974c0.055,0.585-0.29,1.086-0.656,1.618c-0.383,0.558-0.781,1.134-0.666,1.816
		c0.136,0.823,1.599,2.144,2.371,2.144l0.056-0.002c1.395-0.105,2.49-1.365,3.55-2.583c1.05-1.207,2.137-2.454,3.457-2.5
		c3.35-0.118,4.869,0.576,6.197,1.182c0.792,0.36,1.539,0.701,2.562,0.839l0.053,0.008l0.051-0.02
		c0.885-0.303,1.879-0.982,2.931-1.701c0.546-0.373,1.111-0.759,1.701-1.122c0.218-0.133,0.512-0.193,0.952-0.193
		c0.211,0,0.431,0.012,0.652,0.025c0.233,0.013,0.47,0.028,0.698,0.028c0.463,0,0.814-0.059,1.104-0.187
		c0.426-0.184,0.677-0.516,0.921-0.836c0.21-0.276,0.409-0.538,0.703-0.666c0.183-0.081,0.567-0.104,0.973-0.127
		c0.596-0.036,1.338-0.08,1.994-0.319c0.886-0.325,1.586-0.985,2.099-1.468c0.123-0.116,0.231-0.22,0.332-0.304l1.667-0.003
		c-1.421,1.639-3.178,2.96-5.356,4.033c-4.883,0.689-7.344,2.898-9.258,5.201c-0.461-0.003-0.914-0.004-1.354-0.004
		c-5.565,0-8.974,0.268-9.926,1.639c-0.303,0.437-0.34,0.969-0.111,1.585l0.081,0.217l0.215-0.087
		c2.049-0.824,3.442-0.824,4.168,0.012c0.615,0.711,0.784,2.053,0.513,3.952c-0.063,0.193-0.033,0.382,0.086,0.546
		c0.294,0.404,1.08,0.549,1.717,0.549c0.731,0,1.416-0.169,1.88-0.467c0.964-0.617,1.949-1.728,2.902-2.803
		c0.991-1.118,2.017-2.275,2.988-2.829c0.299-0.193,0.913-0.188,1.707-0.176c1.371,0.017,3.182,0.032,5.079-0.908
		c2.167-1.073,4.444-2.908,6.276-4.381c1.439-1.16,2.686-2.162,3.17-2.234c4.582,0.058,7.24-0.266,9.555-0.545
		c1.719-0.208,3.18-0.388,5.029-0.345c0.631,0.15,1.273,0.337,1.895,0.518c1.227,0.357,2.385,0.693,3.523,0.797
		c0.766,0.067,1.014-0.311,1.238-0.642c0.25-0.37,0.482-0.685,1.455-0.586l0.744,0.074l-0.578-0.475
		c-0.299-0.244-0.559-0.812-0.418-1.471c0.129-0.6,0.691-1.699,3.027-2.333l0.406-0.111l-0.318-0.276
		c-1.078-0.94-2.412-1.459-3.746-1.459c-1.357,0-2.621,0.539-3.664,1.558c-2.148-0.02-2.992-0.703-3.674-1.255
		c-0.424-0.34-0.818-0.662-1.414-0.741c-0.766-0.107-1.428,0.352-2.133,0.838c-0.773,0.533-1.65,1.139-2.846,1.139
		c-1.105-0.041-1.98-0.392-2.527-1.012c-0.502-0.566-0.713-1.337-0.629-2.298c0.066-1.829,4.467-11.985,8.004-20.144
		c2.779-6.414,4.355-10.07,4.398-10.696c0.037-0.704-0.324-1.447-0.711-2.233c-0.402-0.825-0.854-1.747-0.916-2.771
		c1.629,0.854,3.008,1.27,4.203,1.27c1.824,0,3.299-0.95,4.52-2.908l0.209-0.333l-0.393-0.011
		c-2.959-0.087-10.289-1.515-14.543-12.84l0.467-2.264c2.441,9.43,9.006,14.404,19.037,14.404c2.928,0,6.164-0.431,9.611-1.279
		l0.379-0.095l-0.27-0.28c-7.941-8.271-16.092-15.714-24.229-22.13l0.363-0.845c7.572,4.338,18.477,15.098,28.164,25.074
		c2.514,2.59,4.943,5.191,7.291,7.708c8.443,9.047,15.738,16.86,20.514,16.86c1.236,0,2.293-0.519,3.135-1.542
		c1.004-1.219,1.408-2.591,1.203-4.078c-0.797-5.795-10.525-12.572-19.938-19.125c-6.279-4.374-12.221-8.511-14.846-11.945
		l0.428-0.034c1.291,0.914,2.684,1.919,4.143,2.971c4.35,3.139,9.283,6.696,13.723,9.444c0.719,0.446,1.842,1.336,3.258,2.461
		c4.316,3.422,10.838,8.595,15.328,8.595c1.561,0,2.768-0.63,3.605-1.9c0.918-1.98,1.021-3.885,0.307-5.664
		c-2.164-5.387-11.379-8.973-20.293-12.442c-4.389-1.708-8.539-3.326-11.748-5.104l0.414-0.735
		c11.148,4.972,22.385,9.554,29.227,9.554c4.313,0,6.783-1.771,7.561-5.412c0.396-1.872,0.104-3.479-0.875-4.783
		c-3.008-4.005-11.992-4.66-20.682-5.293c-3.953-0.288-7.691-0.562-10.83-1.13l0.197-0.689c2.682-0.053,5.92,0.157,9.373,0.382
		c3.354,0.219,6.82,0.443,10.049,0.443c6.357,0,10.203-0.915,12.109-2.879c0.953-0.984,1.412-2.246,1.363-3.752
		c-0.098-3.146-3.324-4.741-9.586-4.741c-6.498,0-14.953,1.674-20.549,2.782c-2.652,0.525-4.758,0.942-5.574,0.96l-0.018-0.514
		c4.617-1.23,9.287-2.421,15.453-3.451c0.885-0.147,2-0.28,3.293-0.432c6.121-0.717,15.377-1.801,15.037-6.802
		c-0.139-2.19-2.953-3.827-5.371-3.827c-0.188,0-0.369,0.01-0.545,0.03c-4.799,0.549-11.787,2.665-17.402,4.364
		c-1.84,0.557-3.576,1.082-4.996,1.479c-1.717,0.479-3.461,1.048-5.146,1.598c-4.52,1.472-9.189,2.996-13.918,2.996
		c-2.672,0-5.143-0.477-7.553-1.452l-0.367-0.148l0.059,0.39c0.229,1.544,0.143,2.583-0.26,3.09
		c-0.174,0.221-0.414,0.348-0.73,0.391c-4.613-3.574-9.732-7.179-15.916-9.389l-0.529-0.19l0.254,0.504
		c0.406,0.805,1.041,1.751,1.654,2.668c1.102,1.643,2.348,3.498,1.984,4.201c-0.65,0.34-1.486,0.505-2.557,0.505
		c-1.711,0-3.803-0.425-6.02-0.875c-0.758-0.154-1.531-0.311-2.313-0.458l-0.596-0.109l0.377,0.473
		c0.889,1.108,1.912,2.556,2.164,3.109c-3.713-0.134-10.271-1.257-13.727-2.361l-0.602-0.192l0.344,0.529
		c1.045,1.61,2.546,3.019,3.873,4.262c1.047,0.982,1.969,1.846,2.516,2.647c-1.08,0.109-2.068,0.164-3.016,0.164
		c-6.947,0-11.71-2.861-18.786-11.315l1.838-0.979c4.779,7.491,10.338,11.179,16.549,10.98l0.654-0.022l-0.531-0.386
		c-2.87-2.087-5.458-4.851-7.699-8.216c4.867,1.293,9.793,2.27,14.654,2.907l0.789,0.104l-0.617-0.502
		c-0.361-0.295-0.736-0.548-1.096-0.79c-1.246-0.84-2.246-1.514-1.986-3.424c4.91,1.958,10.402,2.837,13.27,3.188l0.32,0.039
		l-0.074-0.314c-0.492-2.079-1.953-3.925-3.367-5.71c-0.611-0.771-1.24-1.563-1.781-2.367c0.066-0.001,0.133-0.001,0.199-0.001
		c5.49,0,11.646,2.756,18.301,8.19l0.34,0.277l0.027-0.438c0.217-3.519-1.846-6.745-6.133-9.599
		c6.129,0.466,11.764,3.083,17.195,7.984l0.25,0.227l0.111-0.321c1.379-3.955-0.898-6.703-3.1-9.363
		c-0.988-1.194-2.01-2.427-2.668-3.748c6.277,0.273,12.328,2.913,17.99,7.851l0.365,0.32l0.006-0.486
		c0.08-6.204-2.881-10.992-9.584-15.444c8.41,0.089,15.754,3.63,22.439,10.815l0.309,0.333l0.08-0.449
		c1.045-6.17-4.129-12.489-15.814-19.3c11.455,1.609,22.615,5.457,35.016,12.06l0.477,0.253l-0.154-0.516
		c-3.107-10.391-13.805-16.521-24.008-21.125c2.465-0.715,5.482-1.092,8.771-1.092c7.426,0,17.291,2.057,22.719,7.826l0.406,0.433
		l-0.016-0.592c-0.33-11.444-10.035-17.006-29.666-17.006c-0.361,0-0.727,0.001-1.096,0.005c6.303-3.111,12.848-4.688,19.465-4.688
		c3.727,0,7.57,0.497,11.428,1.476l0.391,0.098l-0.119-0.383c-1.67-5.378-9.064-8.463-20.289-8.463
		c-3.275,0-6.773,0.272-10.408,0.809C200.248,70.536,210.936,66.451,228.973,63.322z M137.393,59.38l-0.096,0.104
		c-1.943,2.155-3.27,2.994-4.73,2.994c-0.873,0-1.826-0.292-3.197-0.977c-1.753-0.875-1.894-2.659-2.044-4.549
		c-0.032-0.402-0.064-0.802-0.115-1.202c-0.21-1.207-1.092-2.007-2.022-2.855c-0.844-0.769-1.716-1.561-2.076-2.699
		c3.441,3.034,7.546,4.587,11.193,5.964c3.531,1.336,6.615,2.502,8.209,4.683L137.393,59.38z"/>
	<path d="M131.584,56.367l-0.078-0.01c-0.086,0-0.164,0.035-0.223,0.097c-0.166,0.179-0.148,0.553-0.102,1.255
		c0.014,0.229,0.037,0.568,0.027,0.784c-0.152-0.203-0.371-0.587-0.518-0.842c-0.426-0.746-0.641-1.104-0.918-1.104l-0.1,0.017
		c-0.708,0.259-1.181,0.729-1.334,1.327c-0.305,1.2,0.833,2.528,2.538,2.961c0.361,0.093,0.729,0.139,1.088,0.139
		c1.293,0,2.32-0.614,2.555-1.529c0.148-0.591-0.117-1.259-0.75-1.88C133.193,57.016,132.398,56.574,131.584,56.367z"/>
	<path d="M60.364,117.389c-5.35,9.038-7.104,17.197-5.519,25.647l0.119,0.633l0.301-0.569c4.393-8.292,9.435-13.667,15.831-16.862
		c-4.291,10.056-5.019,17.376-2.164,21.761l0.199,0.309l0.183-0.317c2.509-4.339,5.776-9.539,9.023-11.735
		c-0.412,9.602,0.52,14.901,2.846,16.197l0.266,0.148l0.063-0.3c0.673-3.21,1.984-5.669,3.897-7.315
		c0.662,5.423,2.909,10.168,5.781,12.167l0.331,0.229l0.021-0.403c0.082-1.5,0.481-2.706,0.867-3.871
		c0.434-1.313,0.845-2.552,0.724-4.028l-0.007-0.09l-0.066-0.061c-15.288-13.801-18.622-28.609-10.491-46.601l0.046-0.102
		l-0.052-0.097c-1.249-2.326-1.279-5.443-0.09-9.265l0.011-0.068c-0.024-8.018-1.599-11.362-2.748-13.806
		c-0.521-1.105-0.935-1.981-1.078-3.021c1.16-3.992,1.818-7.726,2.011-11.416c0.329-6.28-3.504-14.275-10.253-21.388
		C61.473,33.738,49.935,28.11,39.552,28.11h-0.641l0.5,0.401c13.679,10.961,20.363,19.108,20.391,24.867
		C54.311,45.694,45.493,41.219,35.5,41.073l-0.731-0.011l0.599,0.42c14.126,9.901,21.254,17.956,21.201,23.949
		c-5.126-3.628-10.221-5.393-15.563-5.393c-2.008,0-4.071,0.26-6.13,0.773l-0.611,0.152l0.569,0.27
		c9.297,4.406,21.728,11.124,23.457,18.975c-5.157-3.69-9.708-5.486-13.896-5.486c-3.601,0-6.941,1.401-9.927,4.164l-0.35,0.325
		l0.473,0.063c10.24,1.387,21.314,6.45,21.941,16.5c-2.29-0.794-4.443-1.18-6.569-1.18c-4.558,0-8.808,1.723-14.211,5.761
		l-0.573,0.427l0.714-0.021c1.781-0.055,3.322-0.082,4.71-0.082c7.932,0,16.148,0.749,17.135,6.251
		c-10.849,3.232-16.952,11.172-18.657,24.268l-0.095,0.734l0.488-0.558c3.685-4.207,13.088-13.988,20.836-13.988
		C60.327,117.389,60.345,117.389,60.364,117.389z"/>
	<path d="M191.395,189.739c-5.486-5.729-12.314-12.859-16.76-18.061l-0.102-0.118l-0.146,0.054
		c-1.924,0.699-3.893,1.013-5.795,1.314l-0.246,0.038l0.066,0.243c6.223,22.786,16.018,36.481,26.205,36.635h0.008h0.008
		c2.367-0.126,4.094-1.249,4.99-3.248c1.396-3.107,0.447-7.373-0.311-8.319C198.859,197.535,195.729,194.265,191.395,189.739z"/>
	<path d="M86.516,51.645l0.167-0.006c10.743-0.392,21.943,2.84,34.36,9.917l0.344,0.196l-0.008-0.396
		c-0.096-5.489-2.733-10.443-5.911-15.89l-0.03-0.05l-0.049-0.03c-6.04-3.634-11.558-4.396-15.125-4.396
		c-5.739,0-10.7,1.951-12.945,5.094c-1.198,1.674-1.494,3.543-0.857,5.403L86.516,51.645z"/>
	<path d="M93.364,58.937l0.022,0.031c4.653,6.771,13.327,9.174,19.341,9.174c3.32,0,6.079-0.697,7.767-1.96l0.263-0.197l-0.28-0.174
		c-1.994-1.248-4.266-2.173-6.684-2.91c1.784,0.46,3.467,1.01,5.013,1.714l0.696,0.315l-0.413-0.642
		c-4.125-6.425-11.07-7.36-19.112-8.444c-6.21-0.836-13.249-1.785-19.956-5.556l-0.289,0.333
		C83.163,55.111,88.015,57.456,93.364,58.937z"/>
	<path d="M92.124,217.358c-0.598,0-1.245,0.242-1.869,0.699l-0.048,0.045c-1.736,2.318-1.285,4.881-0.568,7.751l0.204,0.814
		l0.231-0.808c0.566-1.986,1.483-2.933,2.291-3.768c0.556-0.575,1.036-1.071,1.286-1.789c0.315-0.906,0.271-1.712-0.125-2.27
		C93.214,217.599,92.717,217.358,92.124,217.358z"/>
	<path d="M105.09,228.533c-0.629,0-1.318,0.327-1.991,0.944l-0.044,0.053c-1.027,1.775-0.54,2.556,0.346,3.974
		c0.293,0.47,0.625,1.002,0.977,1.681l0.334,0.648l0.088-0.725c0.306-2.499,1.021-3.444,1.45-4.009
		c0.247-0.327,0.442-0.584,0.408-0.946C106.567,229.17,105.953,228.533,105.09,228.533z"/>
	<path d="M161.277,215.764l-0.055-0.035c-1.215-0.507-2.318-0.366-2.859,0.338c-0.332,0.429-0.424,1.01-0.26,1.639
		c0.094,0.361,0.396,0.511,0.742,0.683c0.627,0.309,1.678,0.823,2.82,3.082l0.33,0.651l0.094-0.725
		c0.092-0.694,0.203-1.262,0.303-1.763C162.721,217.957,162.889,217.117,161.277,215.764z"/>
	<path d="M100.592,209.446c0.436,0.303,0.931,0.452,1.511,0.452c0.568,0,1.155-0.142,1.723-0.28
		c0.751-0.181,1.558-0.354,2.216-0.228c0.784,0.149,1.511,0.684,2.281,1.248c0.717,0.526,1.459,1.073,2.291,1.317l0.064,0.011
		c0.584,0,1.309-0.069,2.009-0.135c0.69-0.065,1.404-0.131,1.969-0.131c0.533,0,1.104,0.219,1.71,0.448
		c0.616,0.235,1.253,0.479,1.87,0.479h0.007l7.621-0.507l0.052-0.439c-0.447-0.14-0.935-0.262-1.406-0.379
		c-1.116-0.28-2.267-0.568-3.038-1.113c-0.748-0.529-1.178-1.077-1.558-1.559c-0.455-0.578-0.884-1.125-1.726-1.476
		c-1.097-0.456-2.641-0.62-4.272-0.794c-1.386-0.146-2.819-0.298-4.1-0.638c-1.435-0.38-2.295-1.105-3.127-1.812
		c-0.995-0.84-1.935-1.633-3.69-1.745c-0.951-0.061-2.531,0.159-3.155,0.561l-0.315,0.202l0.326,0.184
		c0.775,0.436,1.06,1.972,1.063,2.27c0.005,0.476-0.174,1.969-1.026,2.576l-0.091,0.064l-0.003,0.11
		C99.783,208.605,100.071,209.084,100.592,209.446z"/>
	<path d="M93.685,210l0.14,0.59l0.28-0.537c0.959-1.839,2.199-1.984,3.399-2.123c0.753-0.088,1.466-0.172,1.984-0.704
		c0.594-0.609,0.763-1.516,0.429-2.307c-0.313-0.738-0.982-1.18-1.793-1.18c-0.511,0-1.06,0.171-1.661,0.528
		C94.375,205.993,93.054,207.325,93.685,210z"/>
	<path d="M93.02,175.242c0.559,2.974,2.204,4.448,3.661,5.753c0.668,0.598,1.3,1.163,1.771,1.824
		c0.195,0.273,0.383,0.705,0.583,1.16c0.514,1.174,1.153,2.634,2.457,2.744l0.041,0.003l0.04-0.011
		c0.357-0.102,0.692-0.242,1.017-0.377c0.598-0.254,1.164-0.492,1.856-0.492c0.658,0,1.363,0.225,2.155,0.683l0.228,0.132
		l0.094-0.246c1.205-3.121-2.239-5.871-5.278-8.298c-1.93-1.54-3.751-2.996-3.817-4.165c-0.018-0.332,0.107-0.633,0.384-0.923
		c0.123-0.044,0.291-0.065,0.502-0.065c2.873,0,12.1,3.983,19.514,7.184c5.068,2.189,9.071,3.919,10.317,4.098
		c0.747,0.106,1.305,0.155,1.809,0.155c2.238,0,3.4-1.047,3.637-3.29c1.451-0.061,2.82-0.132,3.957-0.59l0.232-0.094l-0.119-0.221
		c-2.967-5.567-9.828-8.951-15.88-11.937c-1.984-0.979-3.859-1.903-5.557-2.874l-0.529-0.303l0.207,0.574
		c0.448,1.251,1.591,2.391,2.695,3.494c1.423,1.42,2.773,2.767,2.728,4.272c-3.687,0.194-10.168-1.726-21.106-5.394
		c-3.035-1.017-4.104-2.178-5.137-3.301c-0.546-0.595-1.063-1.157-1.838-1.654c-1.236-0.792-1.953-0.803-2.712-0.813
		c-1.311-0.018-2.942-0.041-8.392-4.166c-1.481-1.12-4.134-2.038-6.474-2.848c-1.285-0.444-2.499-0.863-3.419-1.275
		c-1.574-0.711-2.917-1.906-4.217-3.06c-2.039-1.813-4.148-3.688-7.169-3.688c-0.37,0-0.751,0.027-1.134,0.082l-0.613,0.089
		l0.527,0.325c0.86,0.531,1.152,1.376,1.247,1.992c0.192,1.252-0.258,2.768-1.123,3.769l-0.102,0.118l0.075,0.138
		c1.17,2.135,3.095,2.138,4.956,2.138c1.111,0.002,2.161,0.002,3.022,0.448c0.318,0.165,0.89,0.652,1.615,1.27
		c1.467,1.246,3.683,3.132,6.287,4.476c3.804,1.965,8.805,2.231,12.315,2.244l0.09,1.169c-0.948-0.02-1.709,0.057-2.607,0.146
		c-1.211,0.123-2.742,0.278-5.418,0.251c-3.309-0.032-4.728-0.571-5.763-0.967c-0.747-0.282-1.31-0.495-2.207-0.399l-0.343,0.039
		c-1.502,0.169-5.3,0.599-9.385,0.471c-2.31-0.073-4.336-0.668-5.965-1.146c-1.262-0.371-2.35-0.689-3.26-0.689
		c-0.743,0-1.324,0.216-1.777,0.664c-0.686,0.677-0.9,1.244-0.621,1.637l0.071,0.1l0.121-0.005c1.033-0.043,1.75,0.29,2.148,0.974
		c0.678,1.164,0.301,3.106-0.399,4.345l-0.13,0.229l0.248,0.093c0.914,0.339,1.811,0.504,2.738,0.504
		c1.385,0,2.635-0.361,3.958-0.745c1.398-0.405,2.845-0.824,4.553-0.833h0.08c2.485,0,4.808,0.493,6.858,0.931
		c1.443,0.308,2.689,0.572,3.68,0.589h0.091c1.32,0,2.583-0.462,3.803-0.909c1.124-0.411,2.186-0.801,3.202-0.801l0.107,0.002
		c1.295,0.032,2.201-0.157,3.167-0.366c0.659-0.142,1.339-0.288,2.222-0.387l-0.026,0.746c-0.555,0.266-1.275,0.465-2.034,0.676
		c-0.893,0.247-1.817,0.503-2.585,0.898c-0.677,0.349-1.211,0.794-1.729,1.223c-0.603,0.503-1.172,0.976-1.888,1.223
		c-1.073,0.37-2.043,0.457-2.982,0.539c-1.185,0.104-2.304,0.202-3.528,0.839c-1.308,0.68-2.194,1.97-3.053,3.216
		c-0.71,1.031-1.38,2.006-2.261,2.648c-0.937,0.685-2.388,0.864-3.79,1.037c-1.906,0.235-3.875,0.478-4.499,2.051l-0.088,0.222
		l0.227,0.074c3.192,1.053,3.454,1.139,2.966,4.288l-0.029,0.185l0.173,0.063c0.942,0.347,1.732,0.514,2.417,0.514
		c0.918,0,1.658-0.295,2.262-0.899c0.542-0.541,0.547-1.153,0.551-1.746c0.005-0.77,0.01-1.434,1.111-2.051
		c0.63-0.352,1.266-0.381,1.917-0.381l0.382,0.001c0.479,0,0.985-0.016,1.456-0.198c0.326-0.128,0.517-0.435,0.72-0.76
		c0.285-0.457,0.58-0.929,1.29-0.99l0.22-0.018c1.573-0.134,3.355-0.282,4.829-1.492c0.91-0.746,1.713-1.773,2.565-2.861
		c0.92-1.175,1.869-2.389,2.975-3.239c1.719,0.389,3.475,0.602,4.956,0.602C91.283,175.624,92.259,175.495,93.02,175.242z"/>
	<path d="M55.093,156.22l0.292,0.532l0.126-0.593c0.434-2.029,1.591-2.5,2.708-2.956c0.703-0.286,1.367-0.557,1.723-1.203
		c0.505-0.879,0.563-1.868,0.148-2.584c-0.306-0.529-0.829-0.834-1.436-0.834c-0.536,0-1.386,0.235-2.417,1.371
		C54.688,152.174,53.771,153.811,55.093,156.22z"/>
	<path d="M50.961,166.428c-0.473,0-1.642,0.235-2.312,2.436c-0.453,2.67-0.583,4.542,1.642,6.155l0.49,0.354l-0.139-0.588
		c-0.476-2.021,0.37-2.938,1.188-3.828c0.513-0.561,0.998-1.087,1.043-1.825c0.067-0.827-0.167-1.597-0.643-2.113
		C51.88,166.639,51.429,166.428,50.961,166.428z"/>
	<path d="M59.066,185.639c-1.123,0-2.034,1.047-2.44,2.832c-0.286,2.949-0.282,5.002,2.269,6.587l0.515,0.32l-0.18-0.578
		c-0.684-2.186,0.212-3.311,1.001-4.305c0.516-0.648,1.003-1.261,0.994-2.065c0.009-0.866-0.284-1.666-0.802-2.19
		C60.039,185.853,59.558,185.639,59.066,185.639z"/>
	<path d="M101.006,191.924c0.985,0,2.07-0.331,3.474-0.761c1.417-0.668,2.121-1.698,1.885-2.76c-0.251-1.12-1.5-1.878-2.787-1.645
		c-0.817,0.157-1.266,0.775-1.742,1.429c-0.66,0.907-1.344,1.848-3.146,1.848c-0.193,0-0.398-0.012-0.61-0.034l-0.602-0.062
		l0.414,0.44C98.911,191.461,99.842,191.924,101.006,191.924C101.006,191.924,101.006,191.924,101.006,191.924z"/>
	<path d="M119.438,44.198l-0.024,0.199l0.194,0.047c10.947,2.666,19.55,6.777,27.898,13.331l0.166,0.128l0.141-0.152
		c4.063-4.389,9.574-7.899,16.355-12.033l0.313-0.191l-0.313-0.192c-3.01-1.846-5.383-2.781-7.057-2.781
		c-1.76,0-2.801,0.987-3.1,2.937c-1.162-0.851-2.344-1.299-3.439-1.299c-1.236,0-2.27,0.602-2.76,1.608
		c-0.619,1.273-0.301,2.957,0.854,4.551l-2.123,0.698c-1.947-1.846-4.102-3.186-6.402-3.986l-0.096-1.974
		c0.939,0.555,1.834,0.836,2.668,0.836c2.027,0,3.121-1.644,3.121-3.191c0-1.676-1.254-3.37-4.031-3.347
		c1.373-3.012,1.891-6.303,1.674-10.608l-0.02-0.353l-0.311,0.166c-3.783,2.006-6.189,4.669-7.35,8.133
		c-0.779-0.642-1.617-0.98-2.438-0.98c-1.838,0-3.064,1.597-3.154,3.078c-0.078,1.354,0.766,2.902,3.301,3.404l-2.109,1.231
		c-1.986-0.994-3.971-1.588-6.063-1.815l-0.328-1.932c1.833-0.166,2.638-1.459,2.618-2.717c-0.024-1.667-1.461-3.439-4.072-3.439
		c-0.17,0-0.345,0.007-0.521,0.022c0.983-1.636,1.23-3.073,0.732-4.276c-0.729-1.764-2.976-3.008-6.867-3.802l-0.383-0.079
		l0.126,0.371C118.578,31.551,120.259,37.768,119.438,44.198z"/>
</g>
</svg>
