<?xml version="1.0" encoding="utf-8"?>
<!-- Generator: Adobe Illustrator 16.0.0, SVG Export Plug-In . SVG Version: 6.00 Build 0)  -->
<!DOCTYPE svg PUBLIC "-//W3C//DTD SVG 1.1//EN" "http://www.w3.org/Graphics/SVG/1.1/DTD/svg11.dtd">
<svg version="1.1" id="Layer_1" xmlns="http://www.w3.org/2000/svg" xmlns:xlink="http://www.w3.org/1999/xlink" x="0px" y="0px"
	 width="256px" height="256px" viewBox="0 0 256 256" enable-background="new 0 0 256 256" xml:space="preserve">
<g>
	<path id="path9091" stroke="#000000" stroke-width="0.5" d="M86.157,208.374c0,0,41.333,25.146,81.057,5.179
		c3.108,3.886,6.012,6.362,11.809,8.313c-20.724,17.368-66.669,18.336-96.949-3.781C82.722,211.076,86.157,208.374,86.157,208.374z"
		/>
	<path id="path9093" stroke="#000000" stroke-width="0.5" d="M55.131,208.013c-1.503-0.069-7.157-0.424-2.72-6.76
		c0.358-1.83,1.217-4.532,1.861-5.179c0.644-0.647,4.401,0.646,8.588-2.737c0.537,0.682-1.432,3.168-1.861,3.601
		c-0.429,0.431,1.718-0.433,24.334,10.937c-0.036,2.227-1.109,6.326-4.008,10.064c-8.588-6.543-8.588-8.484-23.045-14.381
		C56.205,202.548,55.345,205.034,55.131,208.013z"/>
	<path id="path9095" stroke="#000000" stroke-width="0.5" d="M92.348,108.889c-3.722-2.158-25.91-20.718-25.91-20.718l-0.142-29.636
		c0,0-2.004-3.165-2.433-4.172c-0.43-1.007-1.289-5.898-0.573-6.905s11.881-7.626,12.31-8.345c0.43-0.719-0.286-4.316,0.144-4.604
		c0.43-0.287,5.01,3.453,6.156,4.46c1.146,1.007,1.002,8.919,0.429,9.208c-0.573,0.288-4.294,7.193-5.869,8.632
		c-1.574,1.439,3.578,23.449,4.007,24.744c0.43,1.294,23.19,12.948,23.762,16.401C104.803,101.405,94.353,108.742,92.348,108.889z"
		/>
	<path id="path9097" stroke="#000000" stroke-width="0.5" d="M87.124,37.674c0.779-0.95,5.583,2.05,7.837,2.05
		s91.573,0.108,93.085,0.108c1.493,0,7.609,3.021,8.039,3.345c0.43,0.324-6.974,3.561-8.049,3.561
		c-1.073,0-92.225,1.942-93.187,2.266c-0.966,0.324-6.764,2.374-7.408,2.158c-0.644-0.215-5.368-7.337-0.322-13.487H87.124z"/>
	<path id="path9099" stroke="#000000" stroke-width="0.5" d="M62.324,41.127c-2.792-2.375-6.334-2.59-7.623,0.431
		c-1.288,3.021,0,8.524,7.3,7.553"/>
	<path id="path9103" stroke="#000000" stroke-width="0.5" d="M146.747,134.207c-5.146,0.293-20.476,7.916-23.62,11.084
		c-3.152,3.159-7.3-2.09-6.733-3.453c-2-0.216-4.005,1.295-3.718,2.296c0.287,1.011,2.433,3.746,3.288,4.031
		c-1.571,1.295-4.792,5.758-4.864,7.053c-0.071,1.294,1.432,2.591,2.147,2.591c2.717-4.102,6.084-6.691,7.44-7.339
		c-1.502,1.079-4.724,3.453-4.724,5.033c0,1.579,1.435,2.306,1.435,3.6s-4.222,13.811-22.043,17.833
		c-6.943,1.157-10.235-5.896-11.881-7.769c-1.646-1.864-1.789-0.932-2.577-0.863c-0.787,0.077-6.441-3.09-10.163,3.021
		c1.574-0.215,4.151-0.646,5.296,1.296c0.573,0.794-1.146,0.94-1.002,1.873c0.143,0.933,5.583,5.974,8.302,6.188
		c-2.218-0.076-7.157,0.285-10.306-4.178c-0.931-1.078-1.359,1.373-4.294,1.589c-2.935,0.216-9.877,5.534-6.871,9.494
		c1.359-2.235,2.362-3.668,5.869-4.029c1.288-0.069-0.645,2.521,0.429,3.452c1.074,0.933,10.951,1.657,16.175,0.432
		c-4.652,1.226-10.306,2.305-10.736,3.601c-0.429,1.294,1.002,0.862,0.573,1.863c-0.43,1.011-8.231,6.405-0.144,13.527
		c-0.071-5.543-1.074-6.621,2.147-7.916c1.933-0.432,1.145,2.667,3.006,1.156c1.862-1.511,6.513-7.554,12.024-7.769
		c2.721,0,1.359,2.228,2.291,3.021c0.931,0.784,2.003,0.432,2.146,1.148c0.144,0.716-1.574,3.452-3.005,4.315
		c1.789,0.578,5.224,0.069,7.157-3.452c0.644-1.728,2.291-0.433,2.577-1.728c0.286-1.294-1.503-0.933-1.002-2.589
		c0.5-1.657,5.01-3.885,5.726-5.326c0.716-1.433,1.074-2.374,1.145-4.17c0.287,2.227,0.287,5.033,1.432,5.611
		s2.577-0.578,3.006-1.441c-0.072-0.863-2.433-3.807,1.145-5.896c-0.286,1.078-1.145,4.315,1.289,5.463
		c2.358,0.078,2.075-0.646,2.573-1.294c-0.782-1.728-1.572-4.602,1.58-6.181c-0.644,1.294-2.723,3.737,0.43,5.317
		c2.069,0.433,2.576-0.285,3.005-1.295c-1.15-1.433-0.36-5.179,1.426-6.043c-0.43,1.227-0.859,5.474,1.58,5.611
		c3.29-0.432,2.216-0.501,3.29-1.726c-0.43-1.511-0.713-2.158,0.146-3.591c0.858-1.441,4.86-5.258,7.583-5.611
		c-2.792-2.668-0.859-2.59-0.713-5.042c0.138-2.443-2.01-2.157-1.435-4.885c0.575-2.737,4.578-5.042,23.044-12.811
		C161.2,136.943,151.9,133.922,146.747,134.207z"/>
	<path id="path9105" stroke="#000000" stroke-width="0.5" d="M157.053,146.292c-2.508-3.669-5.875-7.623-10.169-7.984
		c2.079-1.728,1.795-2.158,2.938-3.091C150.964,134.285,157.98,142.986,157.053,146.292z"/>
	<path id="path9107" stroke="#000000" stroke-width="0.5" d="M185.988,94.851l3.598-3.427c0,0,9.834,10.236,10.156,12.286
		c2.147-0.863,6.549-1.294,6.979,0.647c0.429,1.942,0.429,3.885-0.323,4.748c-1.396-0.324-2.254-3.992-5.367-0.107
		c-0.107,1.079-0.322,2.158,0.107,2.913c0.429,0.755,5.152-2.266,5.583,1.402c0.429,3.669-0.646,3.777-1.719,4.532
		c-0.967-1.187-3.113-2.158-3.972-0.216c-0.859,1.942,0.429,1.942,1.288,2.698c0.858,0.755,2.576,1.402,2.255,2.481
		c-0.322,1.079-2.147,2.698-2.793,3.884c-0.643,1.188-1.609-4.316-4.401-2.05c-2.79,2.266-7.192,9.279-22.223,8.416
		c2.685,3.021,4.832,1.188,5.583,2.158s1.396,5.072-5.367,2.805c0.751,4.316,4.401,2.159,5.797,3.13
		c0.536,1.726-1.288,5.359-6.55,1.726c-0.106,0.973,3.043,5.864,6.55,3.022c1.288,2.122,1.002,7.373-6.656,2.481
		c4.009,2.374,8.087,5.467,10.413,7.229c2.325,1.763,1.825-1.259,7.623,0.755c4.294,3.13,2.791,8.345,11.165,10.574
		c-0.93,2.662-5.439,4.461-9.771,0.432c1.54,2.23,2.541,5.395,8.911,5.504c3.007,3.272-1.785,7.724-9.801,0.315
		c0.572,1.007,7.439,6.482,9.693,6.806c1.252,1.834-0.607,8.093-9.232-0.756c1.896,2.374,5.69,9.136,8.804,7.77
		c0.68,3.166-0.681,7.697-8.696-0.324c3.364,3.705,3.865,2.698,4.724,5.072c0.859,2.374-1.717,5.682,2.685,9.819
		c0.822,0.971-2.04,2.05-2.362,3.128c-0.322,1.08-0.108,6.762-2.791,6.906c-0.967-3.166-0.537-4.173-1.396-5.071
		c-1.503,0.181-2.434-1.689-3.221-2.266c-0.788-0.575-6.729,6.905-3.757,11.223c-1.612,1.834-1.826,1.401-3.545,0.971
		c-1.717-0.433,0.646,6.868,2.686,7.768c-1.325,0.252-7.338,0.396-8.59-8.955c-0.25-1.439-0.967-0.108-0.858-1.728
		c0.107-1.617,3.473-6.401,4.401-7.444c-3.076,1.906-9.161,6.582-9.983,7.444c-0.823,0.864-2.685-0.971-3.651-1.725
		c-0.967-0.757-4.401,5.97-2.576,7.768c-2.254-1.798-4.831-8.345,1.074-13.38c1.109-1.582-0.646-1.511,1.395-2.697
		c2.041-1.187,8.23-1.474,9.556-2.374c-1.182-0.252-7.693,0.253-8.481-0.107c-0.788-0.359-1.61-1.835-1.502-2.589
		c0.106-0.757-4.725,2.158-4.51,3.668c-0.859-0.576-3.149-7.122,5.69-8.957c1.109-1.114-0.216-1.725,1.609-1.834
		c1.826-0.107,10.63,4.855,12.561,1.08c1.933-3.776,3.83-20.934-6.871-24.603c-7.264-2.589-8.552-2.805-9.446-1.834
		c-0.896,0.971-1.755,7.806,0.535,8.524c0.072,1.079-6.584,1.654-5.582-4.424c-1.503,1.834-4.509,1.474-6.012-2.05
		c1.862,0,4.151,0.143,5.69-2.806c1.539-2.949-1.503-9.28-2.792-13.813c-1.288-4.531-1.824-7.337-2.791-9.386
		c-0.967-2.051-5.692-8.516-23.941-14.028c-11.856-3.581-12.705-4.443-13.581-5.307c-0.533-1.122-0.623-1.633-0.765-4.3
		c-0.206-3.174,1.069-4.472,0.547-5.21c-0.865,2.692-2.128,1.974-2.305,4.89c0,1.511,0.644,4.28,0.429,4.963
		c-0.5,0.684-1.574,1.331-2.684,1.079c-1.396-0.431-2.254-2.05-2.254-3.885c0-1.834,2.29-5.574,1.825-7.121
		c-0.823,3.058-3.865,5.61-3.65,7.229c0.215,1.618,0.823,3.668,0.752,4.208c-0.215,0.684-1.933,1.331-3.113,1.079
		c-5.977-3.921,0.895-6.798-0.752-10.898c-0.93,4.963-5.797,6.258-3.328,10.358c-0.608,1.15-1.252,1.942-2.792,1.618
		c-6.553-1.908,1.177-6.802-0.756-10.143c-0.787,4.784-6.227,6.87-3.757,10.358c-0.859,0.972-2.755,2.266-4.402,1.079
		c-2.361-1.763,2.577-6.726,1.503-8.74c-2.004,3.597-5.869,5.683-3.865,9.604c-1.074,0.972-3.436,2.698-4.509,0.539
		c-1.074-2.157,1.503-4.891,0.214-6.797c-1.861,1.475-1.288,5.503-3.113,5.611c-1.825,0.107-4.832,0.252-7.086,1.942
		s-0.107,3.562-0.859,4.101c-0.752,0.539-1.503,0-2.362,0.324c-0.859,0.322-0.537,3.309-4.938,2.589
		c0.966-1.511,1.681-2.087,2.04-3.129c-1.359-1.115-1.933-2.554-2.362-3.776c-10.807,2.877-8.016,4.963-9.233,5.502
		c-1.217,0.54-2.254-0.863-3.65-1.186c-1.396-0.324-2.863,4.172-2.684,6.365c-1.467-0.396-6.62-5.359-1.074-10.25
		c1.396-1.439-1.074-1.079,0.43-2.375c1.502-1.294,8.052-2.661,9.125-3.129c-1.718-0.251-10.199,0.972-12.239-0.215
		s-1.396-2.805-1.933-3.237c-0.537-0.432-3.436,1.763-4.831,3.345c-1.396-1.942-0.465-7.769,5.261-8.74
		c2.218-0.396-0.072-1.978,2.684-1.942c2.755,0.036,1.825,3.417,12.239,3.992c-4.545-2.158-9.555-3.776-9.34-6.042
		s0.859-1.151,1.289-1.942c-0.5-0.936-5.225-1.655-6.871-1.295c0.715-1.87,5.868-5.682,10.521-3.021
		c0.931,0.647,1.074-1.079,2.04-0.863c0.966,0.216,5.046,11.438,14.171,10.251c31.527-8.745,27.304-16.496,33.102-17.692
		c13.677-11.703,21.767-1.537,28.174-3.919c6.116-2.482,26.651,34.343,44.792,33.151c18.143-1.187,24.679-18.57,8.36-32.166
		L185.988,94.851z"/>
	<path id="path9113" stroke="#000000" stroke-width="0.5" d="M101.439,61.196c-12.383,0-11.739,13.235,0,13.235
		c6.37,0,9.145-3.662,24.104,2.523c0.572-0.863,0.645-1.079,1.074-2.158c-4.439-5.611-20.025-5.473-25.035-5.473
		C96.572,69.324,99.792,63.427,101.439,61.196z"/>
	<path id="path9109" stroke="#000000" stroke-width="0.5" d="M113.176,36.666l26.408,13.667c0,0,0.858,4.819-0.283,6.043
		c-1.143,1.223-6.013-3.597-6.013-3.597s7.154,7.193,9.808,3.309c1.289,1.511,1.504,2.59,1.074,3.166s-5.161,3.668-10.453-0.863
		c1.718,1.582,7.876,7.337,11.526,5.323c0.283,1.942,0,3.741-1.503,4.028c-1.502,0.289-7.515-1.582-9.095-3.021
		c1.794,1.511,6.587,6.187,10.598,5.396c0.43,2.949,0.068,4.315-1.22,4.315c-1.287,0-6.587-1.654-9.087-3.381
		c1.933,1.871,7.653,6.475,10.736,5.54c0.498,2.302,0.353,4.028-0.937,4.388c-1.288,0.359-8.373-4.101-10.16-3.957
		c1.435,1.727,6.588,7.337,10.591,7.121c0.292,3.238-1.289,8.993-9.801,0.36c5.721,4.963,4.938,11.941,9.662,10.359
		c-0.077,2.013-2.938,11.368-10.882-1.655c2.646,4.892,0.361,9.139,4.725,12.083c-10.453,2.158-7.593-8.701-10.092-9.637
		c1.005,3.456-3.582,7.124,1.287,10.862c-4.147,0.362-11.233,1.942-7.231-12.373c-2.362,5.83-5.153,7.625-1.718,12.735
		c-11.736-1.01-1.142-11.153-5.153-14.03c1.289,5.179-7.155,6.546-3.505,12.589c-9.519-3.522-2.433-6.759-1.646-12.086
		c-3.794,5.974-9.09,2.374-16.176,8.487c-0.93-11.724,12.311-7.336,14.101-12.587c-1.933,1.727-9.233,5.684-8.803-3.309
		c8.875,2.086,6.442-4.675,7.873-6.833c1.431-2.158,3.292-1.439,4.653-4.676c0.358,0.072,0.572,0.648,0.858,1.511
		c0.286,0.863,0.144,7.05,6.295,7.05c6.158,0,6.442-7.913,6.442-10.79c0-2.877-0.644-10.719-6.579-10.719
		c-5.944,0-5.229,6.114-6.804,6.978c-1.431-0.647-0.644-2.733-2.218-4.028s-1.861,0.216-2.576-0.503
		c-0.716-0.719-1.646-3.74-1.002-4.675c0.645-0.935,4.295-2.519,4.295-2.519s-3.722,1.942-4.509,1.727
		c-0.788-0.216-3.507-3.237-3.507-3.237s5.225-9.783,5.225-10.43c0-0.647-0.645-1.151-0.573-1.871
		C107.879,42.205,111.745,36.595,113.176,36.666z"/>
	<path id="path9111" fill="#FFFFFF" stroke="#000000" stroke-width="0.5" d="M111.924,43.932c3.65,0.648,4.29,4.208,6.549,4.424
		c-1.933,0.324-3.113,0.54-4.939,1.079c-0.859-0.863-0.362-4.733,0.497-4.733"/>
	<path id="path9115" stroke="#000000" stroke-width="0.5" d="M113.153,36.691l27.067,13.87c0.22,0.073,11.535-13.074,15.328-15.142
		c-1.095-1.18-4.961-2.805-7.147-1.328c-2.188-1.55-6.854-0.738-7.292,0.886c1.531,1.55,3.499,3.986,0.29,4.724
		c-2.551,0.443-0.071-1.845-2.04-3.543c-1.97-1.698-4.23,1.993-5.105-0.295c-0.875-2.288,3.282-3.173,4.376-2.066
		c1.24-0.369,1.093-4.061-0.729-5.167c0.292-1.034,1.167-8.931-6.271-3.986c-0.51-0.517-4.477-0.517-5.497,3.395
		c2.261,0.665,4.368,3.779,1.319,4.518c-2.482,0.602-1.154-1.997-2.968-3.042c-2.088-1.203-2.162,2.14-3.985-0.148
		s1.943-3.1,2.964-2.214c1.24-0.813,1.532-4.798-2.042-5.758c0.073-1.477,0.803-5.462-4.375-6.643
		C117.553,21.248,111.477,35.51,113.153,36.691L113.153,36.691z"/>
	<path id="path9117" stroke="#000000" stroke-width="0.5" d="M126.417,45.73c3.582-2.158,14.67-6.546,7.086,5.395"/>
	<path id="path9119" stroke="#000000" stroke-width="0.5" d="M128.994,47.385c1.932-1.295,3.864-0.36,2.937,1.798"/>
	<path id="path9121" stroke="#000000" stroke-width="0.5" d="M61.572,51.341V39.113c0,0,0-1.727,1.575-1.727
		c1.574,0,1.789,1.798,1.789,1.798v9.567C64.937,48.751,63.004,51.341,61.572,51.341z"/>
	<path id="path9123" stroke="#000000" stroke-width="0.5" d="M64.937,39.184c0,0,0.644-1.942,2.076-1.942
		c1.432,0,1.718,0.864,1.718,1.727v8.92c0,0-1.861,2.877-3.579,3.597C65.151,49.183,64.937,39.184,64.937,39.184z"/>
	<path id="path9125" stroke="#000000" stroke-width="0.5" d="M68.873,38.645c0,0,0-2.158,1.717-2.158
		c1.718,0,2.147,2.158,2.147,2.158v8.524c0,0-0.751,3.237-3.812,3.831C68.927,47.385,68.873,38.645,68.873,38.645z"/>
	<path id="path9127" stroke="#000000" stroke-width="0.5" d="M72.523,38.213c0,0,0.859-1.834,1.933-1.834s1.825,0.863,1.825,1.834
		v9.064c0,0-1.073,2.482-3.757,2.806V38.213z"/>
	<path id="path9129" stroke="#000000" stroke-width="0.5" d="M78.643,45.875c-2.792,2.158-7.837,6.797-8.696,8.308"/>
	<path id="path9131" stroke="#000000" stroke-width="0.5" d="M80.575,27.478h5.368c1.02,0,0.269,2.266-0.215,2.482v10.79
		c0,0,1.503,0.863,1.503,3.453c0,2.59-1.396,3.021-1.503,3.776c-0.107,0.755,0,6.097,0,8.201c0.376,0.755,0.98,1.474,0.551,3.092
		h-5.597c-0.376-0.971,0.107-2.66,0.43-3.092c0-2.104,0.107-6.744,0.107-8.308c-0.806-1.079-1.181-2.266-1.181-3.777
		c0-1.51,0.751-3.089,1.181-3.52V30.135C80.521,29.812,79.985,27.478,80.575,27.478z"/>
	<path id="path9133" stroke="#000000" stroke-width="0.5" d="M64.471,57.474c-0.956,0.64-0.644,4.047-0.054,4.37
		c0.59,0.324,12.454,0.486,12.883,0c0.43-0.486,0.537-3.884-0.054-4.315C76.655,57.097,65.115,57.042,64.471,57.474z"/>
	<path id="path9135" stroke="#000000" stroke-width="0.5" d="M80.2,75.925c0.657,0.24,2.147,4.1,2.361,4.479
		c0.215,0.377,3.758,2.86,3.865,3.292c0.107,0.431-2.631,3.831-3.006,3.939c-0.375,0.107-3.649-0.702-4.133-0.432
		c-0.483,0.27-4.885,8.738-5.261,9.008s-7.623-3.292-8.159-3.777c-0.537-0.485-0.322-6.528-0.483-6.797
		c-0.162-0.27-0.645-1.565-0.537-2.158c0.107-0.593,10.897-0.917,11.273-1.187c0.375-0.27-0.107-2.482,0.269-2.968
		S79.608,75.71,80.2,75.925L80.2,75.925z"/>
	<path id="path9137" stroke="#000000" stroke-width="0.5" d="M87.661,200.492c-3.643-0.231-3.113-6.474,0-6.474
		s4.724,2.271,3.113,6.371s-6.441,11.325-2.792,14.347c-2.147,0.655-5.689,1.519-7.944,10.902c3.542,0,2.577,6.906-1.61,5.826
		c-4.187-1.078-1.825-5.395-1.503-6.474s6.227-12.085,3.113-14.46C81.004,210.101,84.547,209.781,87.661,200.492z"/>
	<path id="path9101" stroke="#000000" stroke-width="0.5" d="M167.17,103.942c0.366-6.542,4.502-8.483,15.002-13.93
		c14.873-7.715,24.386-21.962,9.506-31.598c0.858,1.726,1.716,4.315-3.723,4.604c0-2.015,1.36-5.324-3.722-6.043
		c1.574,1.871,4.651,7.553-3.148,6.043c0.715-2.734,0.071-3.958-2.577-4.892c0.931,1.511,2.433,5.755-3.436,5.467
		c-0.572-1.583,1.288-1.366-1.718-3.453c-7.515,6.33-8.847,19.145,10.906,28.64c-1.289,0.863-5.085,2.764-5.085,2.764
		s-15.269-5.796-16.128-19.895c-0.859-14.099,12.597-21.005,20.612-21.292c8.017-0.288,20.899,7.769,20.899,19.854
		c0,14.819-17.894,19.495-22.043,30.212c-0.431,1.367,0.5,3.021,0.858,3.453c-0.788,0.36-1.227,0.839-1.718,1.439
		c-0.744,0.85,1.574,10.071-4.295,10.935c0.643-4.963,2.435-6.402-0.859-11.509c-0.286,2.374,2.79,10.143-3.436,11.222
		c1.074-4.388,0.215-7.337-1.716-9.783c-0.646,3.381,2.289,10.862-2.864,8.92C170.061,107.473,167.018,106.667,167.17,103.942
		L167.17,103.942z"/>
</g>
</svg>
