<?xml version="1.0" encoding="utf-8"?>
<!-- Generator: Adobe Illustrator 14.0.0, SVG Export Plug-In . SVG Version: 6.00 Build 43363)  -->
<!DOCTYPE svg PUBLIC "-//W3C//DTD SVG 1.1//EN" "http://www.w3.org/Graphics/SVG/1.1/DTD/svg11.dtd">
<svg version="1.1" id="Layer_1" xmlns="http://www.w3.org/2000/svg" xmlns:xlink="http://www.w3.org/1999/xlink" x="0px" y="0px"
	 width="256px" height="256px" viewBox="0 0 256 256" enable-background="new 0 0 256 256" xml:space="preserve">
<g>
	<path d="M97.274,107.83c-0.055-0.088-0.109-0.179-0.169-0.259C97.164,107.653,97.221,107.74,97.274,107.83z"/>
	<path d="M104.197,106.135c0.062,0.057,0.12,0.118,0.179,0.18C104.317,106.253,104.258,106.191,104.197,106.135z"/>
	<path d="M103.811,105.806c0.073,0.054,0.146,0.11,0.215,0.171C103.956,105.916,103.884,105.861,103.811,105.806z"/>
	<path d="M163.801,105.686c-0.029-0.036-0.055-0.075-0.084-0.109c-0.031-0.037-0.063-0.07-0.096-0.105
		c-0.019-0.02-0.033-0.036-0.052-0.054C163.648,105.501,163.725,105.591,163.801,105.686z"/>
	<path d="M202.825,133.67c-0.308-0.354-0.641-0.677-1.003-0.965c-7.068-5.621-21.062,10.042-25.611,13.958
		c-4.939,4.252-11.335,8.704-13.904,14.933c-4.071,9.867,11.158,7.803,13.652,14.738c1.032,2.869-2.351,4.791-4.314,6.387
		c-4.561,3.704-12.81,11.832-19.386,10.536c-8.072-1.592-6.015-19.8-6.33-25.606c-0.525-9.668-0.969-19.34-1.475-29.01
		c-0.019-0.354-0.326-6.453-0.325-6.453c4.955-0.223,9.938-0.586,14.865-1.106c0.178,0.577,0.403,1.056,0.692,1.425
		c5.09-2.055,5.032-8.891,4.96-13.422c-0.059-3.617,0.04-7.17-0.753-10.735c-0.29-1.306-0.739-3.46-2.252-3.928
		c-2.257-0.697-3.531,3.178-3.611,4.847c-4.971-0.313-10.028-0.556-15.084-0.728l-0.135-2.699
		c7.281-1.315,12.576-6.031,15.185-13.52h-33.917h-2.252h-16.275c2.607,7.489,7.739,12.203,15.019,13.519l-0.121,2.433
		c-5.097,0.058-10.016,0.205-14.638,0.441c0.903,2.292,1.377,5.66,1.377,10.148c0,4.457-0.051,7.712-0.485,9.994
		c17.099,1.845,34.385,1.864,51.864-0.028c0.05,0.444,0.107,0.864,0.183,1.25c-16.972,1.925-34.315,2.024-52.345,0
		c0.004-0.013,0.007-0.025,0.01-0.035c-0.093,0.301-0.192,0.582-0.309,0.84c-0.676,1.521-2.148,1.29-3.923,1.493
		c1.378-0.712,3.081-0.91,3.707-2.794c0.542-4.463,0.226-9.146-0.145-13.607c-0.235-2.836-0.079-6.271-1.441-8.861
		c-2.028-3.856-6.217-1.903-6.223,2.108c-0.052,0.003-0.104,0.006-0.154,0.011c-0.171-0.498-0.373-0.934-0.602-1.313
		c1.214,2.182,0.979,6.713,0.979,11.82c0,7.945-1.639,11.385-2.878,11.636c1.556-4.54,1.714-9.743,1.881-14.494
		c0.095-2.693,0.685-5.741-0.239-8.355c-1.305-3.697-5.8-2.243-6.098,1.401c-6.624,0.801-11.904,1.895-15.188,3.307v11.76
		c3.236,1.603,8.643,3.091,15.526,4.311c0.294,1.471,1.229,2.437,3.614,2.695c2.098,0.229,3.193-0.354,3.743-1.57
		c0.166,0.021,0.335,0.043,0.504,0.064c0.453,2.006,1.407,3.107,3.386,2.882c1.622-0.187,2.677-0.853,3.363-2.126
		c4.215,0.408,8.685,0.727,13.332,0.934c-0.395,7.895-0.908,15.792-1.163,23.693c-0.196,6.07-0.811,12.101-1.084,18.162
		c-0.195,4.321,0.785,9.161-0.85,13.284c-5.507,13.895-23.405-3.354-27.833-9.323c8.576,11.561,18.422,20.572,29.875,16.309
		l0.125,1.125c-8.839,6.35-18.855-1.974-28.563-14.121c-7.925-9.916-16.23-21.922-19.479-29.666l0.75-0.502
		c2.728,7.121,8.694,14.551,14.421,22.84c0.799,1.153,1.607,2.297,2.429,3.418c-0.239-1.793,15.188-7.817,15.378-13.842
		c0.021-1.826-2.036-3.648-3.135-4.86c-2.39-2.634-5.117-4.882-7.835-7.163c-6.38-5.356-13.214-10.217-20.408-14.408
		c-1.495-0.871-2.907-1.974-4.472-2.716c-3.53-1.67-7.227-0.997-8.627,2.699c-1.505,3.97-2.718,8.214-3.965,12.275
		c-2.859,9.305-4.283,20.441-3.509,30.168c0.281,3.536,0.978,8.252,3.66,10.909c0.104,0.104,0.21,0.209,0.321,0.305
		c4.95,1.698,12.653-0.607,19.732-6.666c21.606,34.988,42.712,37.573,56.812,52.295c14.1-14.722,37.17-17.933,58.774-52.922
		c8.705,4.934,14.158,8.491,19.108,6.793c5.216-4.329,1.806-20.22,1.082-25.668c-0.777-5.862-1.85-11.719-3.343-17.44
		C206.418,143.186,205.771,137.05,202.825,133.67z M140.473,108.23c-0.043-5.213-0.584-10.426-1.627-15.639h1.127l1.752,15.639
		H140.473z M91.204,127.892c-3.977-0.698-7.985-1.491-12.036-2.397l-0.751-1.376c4.271,0.972,8.553,1.828,12.847,2.571
		C91.229,127.11,91.207,127.511,91.204,127.892z M141.975,134.377c4.461,25.855-3.963,55.967,9.758,63.559
		c-15.528-1.438-5.987-37.768-11.01-62.558L141.975,134.377z M189.475,182.791c-4.74,8.508-11.137,15.084-17.32,21.048
		c-5.627,5.427-12.657,9.761-18.061,13.446c-8.713,5.943-14.268,10.156-21.629,16.556l-0.75-27.024
		c0.945,8.775,1.779,17.926,3.752,23.271c6.736-5.729,16.846-12.945,21.42-16.143c7.994-5.588,17.949-12.434,25.928-22.699
		c6.521-8.391,11.857-19.339,14.105-35.934l1.354-2.543C197.092,164.459,194.072,174.545,189.475,182.791z"/>
	<path d="M164.207,106.277c-0.068-0.117-0.142-0.232-0.215-0.339c-0.002-0.005-0.007-0.008-0.011-0.013
		c-0.018-0.026-0.039-0.05-0.059-0.076C164.021,105.983,164.117,106.124,164.207,106.277z"/>
	<path d="M166.246,119.114c0,4.664-0.308,8.679-1.291,11.251c0.129-0.018,0.26-0.035,0.389-0.053
		c-0.111,1.819,0.396,2.686,2.805,2.459c-0.305,0.002-0.573-0.025-0.805-0.088c3.896-2.195,5.354-5.546,5.574-9
		c0.791-12.281-1.728-13.493-3.17-14.829c0.199-0.3,3.006-0.257,3.756,3.898c0.34,1.89,0.498,4.129,0.498,6.611
		c0,6.697-0.896,11.347-3.646,12.87c1.351-0.604,2.201-1.66,2.736-3.133c5.539-0.993,10.891-2.226,15.922-3.73l-0.125-13.011
		c-4.922-0.732-10.299-1.373-15.957-1.917c-0.16-0.489-0.338-0.942-0.537-1.35c0.076,0.028,0.146,0.052,0.224,0.083
		c0.168-0.029-0.189-0.509-0.793-1.055c-0.861-1.219-2.002-1.823-3.453-1.64l0,0c-1.938,0.241-2.806,1.117-3.107,2.485
		c-0.055-0.201-0.11-0.395-0.17-0.585C165.949,111.149,166.246,115.064,166.246,119.114z M186.139,125.37
		c-4.219,0.968-8.451,1.828-12.703,2.577c0.092-0.386,0.166-0.793,0.23-1.222c4.395-0.747,8.801-1.614,13.223-2.606
		C186.889,124.535,186.139,124.953,186.139,125.37z"/>
	<path d="M164.244,106.339c0.094,0.164,0.184,0.336,0.271,0.517C164.428,106.675,164.338,106.502,164.244,106.339z"/>
	<path d="M104.7,106.696c-0.052-0.065-0.102-0.131-0.151-0.192C104.599,106.564,104.649,106.63,104.7,106.696z"/>
	<path d="M164.539,106.902c0.084,0.182,0.164,0.375,0.244,0.572C164.703,107.276,164.623,107.084,164.539,106.902z"/>
	<path d="M165.039,108.199c-0.064-0.203-0.133-0.4-0.205-0.589C164.906,107.799,164.975,107.996,165.039,108.199z"/>
	<path d="M162.227,133.301c0.029-0.007,0.06-0.013,0.086-0.02C162.285,133.288,162.256,133.294,162.227,133.301z"/>
	<path d="M162.75,133.127c0.021-0.01,0.043-0.021,0.061-0.029C162.793,133.105,162.771,133.117,162.75,133.127z"/>
	<path d="M161.191,133.361c0.029,0.006,0.062,0.008,0.093,0.01C161.252,133.369,161.221,133.367,161.191,133.361z"/>
	<path d="M105.127,107.312c-0.032-0.053-0.067-0.104-0.102-0.156C105.06,107.208,105.095,107.259,105.127,107.312z"/>
	<path d="M160.023,132.857c-0.012-0.01-0.021-0.021-0.032-0.029C160.002,132.838,160.012,132.85,160.023,132.857z"/>
	<path d="M160.74,133.266c0.016,0.006,0.03,0.012,0.047,0.017C160.771,133.275,160.756,133.271,160.74,133.266z"/>
	<path d="M163.656,132.499c-0.009,0.009-0.017,0.017-0.025,0.024C163.641,132.516,163.648,132.508,163.656,132.499z"/>
	<path d="M160.355,133.096c0.015,0.006,0.025,0.012,0.037,0.02C160.381,133.107,160.369,133.102,160.355,133.096z"/>
	<path d="M105.645,108.317c-0.021-0.05-0.043-0.102-0.065-0.151C105.602,108.215,105.623,108.267,105.645,108.317z"/>
	<path d="M105.402,107.806c-0.03-0.059-0.061-0.116-0.092-0.173C105.341,107.69,105.371,107.747,105.402,107.806z"/>
</g>
<path d="M211.93,28.101c-9.258-4.671-18.254-3.777-21.953,0.207c-4.223,4.548,1.599,7.572,2.605,11.992l-2.748,1.327
	c-2.117-0.69-2.943-3.58-4.187-6.194c0,0,0,0,0,0.001c-0.01-0.022-0.021-0.044-0.03-0.066c-0.082-0.167-0.162-0.332-0.246-0.495
	c-0.029-0.054-0.058-0.108-0.084-0.161c-0.097-0.181-0.195-0.36-0.295-0.535c-0.025-0.041-0.05-0.081-0.074-0.121
	c-0.097-0.161-0.193-0.318-0.297-0.473c-0.021-0.028-0.037-0.056-0.056-0.084c-0.116-0.168-0.237-0.331-0.364-0.489
	c-0.027-0.038-0.06-0.077-0.091-0.114c-0.131-0.157-0.264-0.31-0.405-0.453c-0.019-0.02-0.039-0.037-0.06-0.056
	c-0.133-0.13-0.271-0.255-0.418-0.374c-0.029-0.024-0.059-0.05-0.088-0.073c-0.158-0.123-0.324-0.237-0.496-0.343
	c-0.037-0.022-0.076-0.043-0.11-0.063c-0.185-0.106-0.373-0.203-0.572-0.286c-0.406-0.34-0.83-0.609-1.269-0.814
	c-6.567-3.073-16.092,8.36-9.412,14.245l-3.383,3.08l3.672,3.671c-0.082,0.349-0.151,0.688-0.215,1.023
	c-0.016,0.085-0.026,0.167-0.043,0.252c-0.043,0.244-0.084,0.485-0.119,0.721c-0.014,0.107-0.024,0.209-0.039,0.315
	c-0.026,0.209-0.051,0.417-0.071,0.622c-0.011,0.108-0.021,0.216-0.027,0.323c-0.016,0.195-0.027,0.387-0.037,0.576
	c-0.006,0.104-0.01,0.209-0.012,0.311c-0.006,0.19-0.008,0.376-0.008,0.561c0,0.093,0,0.187,0.002,0.279
	c0.004,0.199,0.014,0.393,0.026,0.584c0.004,0.07,0.004,0.143,0.011,0.213c0.039,0.52,0.106,1.015,0.198,1.482
	c0.013,0.058,0.025,0.112,0.037,0.17c0.037,0.171,0.076,0.341,0.119,0.504c0.021,0.075,0.041,0.147,0.063,0.22
	c0.041,0.142,0.084,0.283,0.129,0.418c0.024,0.077,0.051,0.151,0.078,0.227c0.047,0.128,0.096,0.253,0.145,0.376
	c0.031,0.073,0.063,0.146,0.092,0.217c0.056,0.121,0.111,0.238,0.17,0.354c0.031,0.065,0.063,0.131,0.097,0.195
	c0.063,0.122,0.133,0.238,0.201,0.353c0.03,0.053,0.061,0.107,0.094,0.158c0.09,0.146,0.184,0.287,0.283,0.423
	c0.012,0.016,0.022,0.034,0.032,0.049c0.111,0.151,0.228,0.297,0.345,0.436c0.034,0.04,0.071,0.077,0.104,0.116
	c0.086,0.095,0.174,0.19,0.262,0.281c0.013,0.013,0.023,0.028,0.039,0.041c-0.004-0.002-0.004-0.004-0.004-0.005
	c1.605,1.603,3.76,2.234,5.791,2.007c6.385-0.713,7.23-5.415,8.258-10.965c1.123-0.35,2.916-0.841,3.492,0.037
	c0.65,0.995-0.014,3.467-0.438,4.697c-1.758,5.094-11.031,13.218-25.383,12.354c-0.472-0.029-0.935-0.063-1.394-0.099
	c-0.125-0.011-0.248-0.021-0.369-0.033c-0.34-0.028-0.674-0.059-1.004-0.092c-0.133-0.013-0.268-0.027-0.399-0.041
	c-0.353-0.038-0.695-0.078-1.037-0.121c-0.091-0.011-0.183-0.021-0.271-0.033c-0.432-0.056-0.854-0.115-1.271-0.179
	c-0.072-0.011-0.144-0.023-0.216-0.035c-0.34-0.054-0.674-0.109-1.006-0.169c-0.119-0.022-0.239-0.044-0.358-0.066
	c-0.291-0.054-0.58-0.11-0.861-0.169c-0.111-0.022-0.223-0.044-0.332-0.067c-0.358-0.078-0.713-0.157-1.061-0.24
	c-0.021-0.006-0.045-0.01-0.066-0.015c-0.371-0.09-0.729-0.185-1.088-0.282c-0.096-0.025-0.189-0.053-0.283-0.081
	c-0.26-0.073-0.516-0.148-0.768-0.226c-0.107-0.032-0.213-0.066-0.32-0.1c-0.252-0.082-0.5-0.164-0.744-0.25
	c-0.084-0.028-0.168-0.056-0.25-0.086c-0.32-0.114-0.635-0.232-0.938-0.354c-0.047-0.018-0.093-0.038-0.138-0.057
	c-0.256-0.104-0.508-0.21-0.754-0.321c-0.094-0.041-0.182-0.082-0.272-0.123c-0.203-0.094-0.4-0.189-0.599-0.286
	c-0.088-0.044-0.174-0.087-0.26-0.131c-0.225-0.115-0.445-0.233-0.662-0.354c-0.043-0.024-0.088-0.048-0.131-0.072
	c-0.252-0.146-0.498-0.294-0.736-0.446c-0.065-0.043-0.129-0.087-0.194-0.13c-0.17-0.113-0.338-0.227-0.502-0.344
	c-0.076-0.053-0.152-0.109-0.228-0.164c-0.151-0.115-0.303-0.232-0.451-0.351c-0.062-0.051-0.127-0.102-0.188-0.152
	c-0.201-0.167-0.396-0.338-0.578-0.511c-0.025-0.024-0.049-0.049-0.074-0.073c-0.158-0.152-0.311-0.306-0.457-0.463
	c-0.057-0.062-0.11-0.125-0.168-0.187c-0.11-0.126-0.221-0.253-0.324-0.383c-0.055-0.066-0.108-0.132-0.159-0.199
	c-0.109-0.143-0.216-0.289-0.314-0.435c-0.035-0.051-0.072-0.1-0.104-0.151c-0.13-0.194-0.248-0.392-0.359-0.592
	c-0.033-0.06-0.063-0.121-0.096-0.18c-0.078-0.146-0.152-0.295-0.222-0.445c-0.037-0.076-0.069-0.155-0.104-0.233
	c-0.062-0.142-0.115-0.286-0.17-0.431c-0.027-0.074-0.056-0.15-0.08-0.226c-0.066-0.199-0.127-0.4-0.178-0.603
	c-0.007-0.019-0.013-0.038-0.019-0.056c0,0.001,0,0.001,0,0.002c-0.432-1.738-0.344-3.664,0.313-5.757
	c0.646-2.112,5.215-1.277,3.744,0.69c-0.089,0.232-0.166,0.461-0.238,0.686c-0.012,0.041-0.023,0.079-0.037,0.12
	c-0.055,0.181-0.107,0.361-0.154,0.537c-0.016,0.065-0.028,0.127-0.045,0.19c-0.037,0.15-0.072,0.301-0.102,0.448
	c-0.017,0.073-0.025,0.143-0.039,0.215c-0.023,0.134-0.047,0.271-0.064,0.403c-0.012,0.076-0.02,0.149-0.026,0.223
	c-0.015,0.125-0.027,0.25-0.037,0.373c-0.006,0.077-0.008,0.151-0.013,0.226c-0.006,0.118-0.012,0.235-0.012,0.351
	c-0.002,0.075,0,0.149,0.002,0.224c0.002,0.112,0.004,0.222,0.012,0.331c0.005,0.074,0.011,0.147,0.019,0.219
	c0.008,0.106,0.02,0.211,0.033,0.315c0.01,0.072,0.02,0.143,0.03,0.213c0.017,0.101,0.033,0.201,0.056,0.3
	c0.014,0.069,0.028,0.137,0.045,0.204c0.021,0.098,0.049,0.193,0.074,0.289c0.02,0.064,0.039,0.131,0.059,0.195
	c0.029,0.093,0.062,0.185,0.096,0.275c0.021,0.061,0.043,0.124,0.066,0.186c0.037,0.09,0.076,0.178,0.117,0.266
	c0.024,0.057,0.051,0.115,0.076,0.17c0.045,0.089,0.092,0.175,0.139,0.26c0.027,0.052,0.055,0.105,0.084,0.157
	c0.053,0.088,0.106,0.173,0.164,0.259c0.029,0.044,0.055,0.09,0.086,0.133c0.063,0.095,0.135,0.188,0.203,0.279
	c0.022,0.03,0.045,0.062,0.067,0.092c4.433,5.565,17.388,2.995,13.398-10.535l4.164-3.539l0,0l0.748-0.635l-2.59-2.015l-2.076-1.614
	c0.998-1.722,1.539-3.459,1.723-5.123v0.001c0.021-0.178,0.033-0.353,0.045-0.528c0.002-0.037,0.004-0.074,0.004-0.111
	c0.011-0.135,0.015-0.27,0.019-0.403c0-0.051,0-0.103,0-0.153c0.002-0.121,0.002-0.239-0.002-0.358
	c-0.002-0.054-0.002-0.109-0.004-0.163c-0.004-0.118-0.013-0.234-0.021-0.352c-0.004-0.051-0.006-0.101-0.01-0.152
	c-0.012-0.125-0.023-0.25-0.037-0.375c-0.006-0.04-0.008-0.078-0.012-0.116c-0.043-0.329-0.099-0.653-0.166-0.969
	c-0.006-0.032-0.015-0.065-0.021-0.097c-0.026-0.123-0.057-0.245-0.088-0.365c-0.014-0.048-0.024-0.094-0.039-0.141
	c-0.028-0.106-0.059-0.211-0.092-0.316c-0.014-0.049-0.029-0.099-0.045-0.147c-0.033-0.103-0.066-0.202-0.104-0.302
	c-0.017-0.048-0.033-0.095-0.05-0.142c-0.039-0.105-0.08-0.21-0.123-0.313c-0.016-0.037-0.028-0.077-0.045-0.114
	c-0.059-0.138-0.119-0.274-0.182-0.408c-0.002-0.002-0.002-0.003-0.004-0.006c-0.064-0.138-0.133-0.274-0.203-0.409
	c-0.016-0.028-0.031-0.056-0.047-0.084c-0.055-0.101-0.111-0.202-0.168-0.3c-0.023-0.042-0.049-0.081-0.074-0.123
	c-0.051-0.084-0.104-0.168-0.156-0.251c-0.026-0.043-0.055-0.084-0.084-0.128c-0.053-0.079-0.104-0.157-0.162-0.234
	c-0.026-0.041-0.057-0.082-0.086-0.121c-0.059-0.08-0.119-0.158-0.18-0.234c-0.027-0.035-0.053-0.068-0.08-0.102
	c-0.078-0.095-0.156-0.188-0.236-0.279c-0.012-0.014-0.022-0.028-0.036-0.041c-0.091-0.104-0.187-0.206-0.281-0.304
	c-0.025-0.025-0.051-0.048-0.074-0.072c-0.072-0.072-0.145-0.143-0.219-0.21c-0.035-0.033-0.072-0.064-0.107-0.096
	c-0.063-0.058-0.129-0.115-0.197-0.171c-0.036-0.032-0.077-0.064-0.116-0.095c-0.064-0.052-0.132-0.103-0.197-0.153
	c-0.041-0.03-0.08-0.06-0.121-0.089c-0.068-0.05-0.139-0.097-0.209-0.144c-0.039-0.025-0.076-0.052-0.117-0.077
	c-0.08-0.054-0.164-0.103-0.25-0.152c-0.026-0.015-0.053-0.033-0.078-0.048c-0.11-0.062-0.225-0.121-0.336-0.177
	c-0.031-0.015-0.063-0.029-0.098-0.044c-0.08-0.038-0.162-0.076-0.246-0.111c-0.045-0.018-0.088-0.034-0.131-0.051
	c-0.074-0.029-0.146-0.057-0.221-0.082c-0.048-0.017-0.097-0.032-0.144-0.048c-0.07-0.022-0.143-0.044-0.213-0.064
	c-0.049-0.013-0.098-0.026-0.148-0.039c-0.073-0.019-0.146-0.035-0.221-0.05c-0.047-0.01-0.094-0.021-0.141-0.029
	c-0.084-0.015-0.168-0.027-0.25-0.039c-0.039-0.005-0.078-0.012-0.113-0.016c-0.123-0.014-0.242-0.023-0.361-0.028
	c-0.037-0.002-0.073-0.001-0.11-0.002c-0.086-0.001-0.172-0.002-0.258,0c-0.052,0.001-0.101,0.004-0.148,0.007
	c-0.074,0.003-0.146,0.008-0.223,0.016c-0.052,0.004-0.105,0.011-0.158,0.018c-0.072,0.008-0.144,0.019-0.215,0.032
	c-0.056,0.009-0.107,0.019-0.16,0.029c-0.074,0.015-0.146,0.032-0.219,0.049c-0.052,0.013-0.104,0.025-0.156,0.04
	c-0.078,0.021-0.158,0.046-0.236,0.073c-0.045,0.014-0.09,0.027-0.135,0.043c-0.119,0.042-0.24,0.089-0.359,0.141
	c-0.039,0.016-0.076,0.036-0.114,0.054c-0.084,0.038-0.168,0.077-0.252,0.12c-0.054,0.027-0.103,0.056-0.152,0.083
	c-0.07,0.04-0.144,0.079-0.213,0.122c-0.056,0.033-0.107,0.067-0.16,0.101c-0.068,0.044-0.137,0.089-0.205,0.136
	c-0.053,0.037-0.105,0.075-0.16,0.115c-0.067,0.051-0.135,0.104-0.203,0.157c-0.051,0.041-0.104,0.082-0.155,0.125
	c-0.072,0.06-0.142,0.124-0.214,0.188c-0.045,0.042-0.094,0.082-0.139,0.125c-0.111,0.105-0.225,0.216-0.336,0.333
	c-0.035,0.037-0.068,0.078-0.105,0.116c-0.077,0.085-0.157,0.172-0.233,0.263c-0.047,0.055-0.094,0.114-0.142,0.171
	c-0.063,0.079-0.129,0.159-0.192,0.243c-0.049,0.064-0.101,0.13-0.146,0.196c-0.061,0.082-0.121,0.166-0.18,0.251
	c-0.051,0.071-0.1,0.142-0.147,0.215c-0.06,0.089-0.117,0.181-0.177,0.273c-0.047,0.074-0.094,0.149-0.141,0.225
	c-0.062,0.102-0.121,0.207-0.18,0.313c-0.043,0.074-0.086,0.146-0.127,0.223c-0.087,0.155-0.168,0.315-0.25,0.479
	c-0.041,0.08-0.08,0.161-0.119,0.244c-0.07,0.142-0.14,0.286-0.205,0.435c-0.039,0.088-0.08,0.18-0.117,0.271
	c-0.055,0.123-0.107,0.247-0.16,0.374c-0.041,0.1-0.08,0.203-0.121,0.307c-0.049,0.124-0.096,0.251-0.145,0.378
	c-0.039,0.108-0.078,0.219-0.119,0.33c-0.045,0.131-0.09,0.265-0.137,0.4c-0.037,0.113-0.074,0.226-0.111,0.342
	c-0.047,0.145-0.09,0.293-0.135,0.442c-0.033,0.113-0.068,0.224-0.103,0.339c-0.055,0.195-0.106,0.395-0.162,0.597
	c-0.018,0.069-0.039,0.136-0.055,0.207c-0.008,0.015-0.018,0.028-0.027,0.042c-0.092,0.164-0.186,0.32-0.284,0.469
	c-0.035,0.055-0.07,0.108-0.107,0.161c-0.078,0.114-0.156,0.224-0.234,0.328c-0.032,0.045-0.065,0.092-0.102,0.136
	c-0.107,0.137-0.215,0.267-0.324,0.388c-0.029,0.032-0.059,0.061-0.088,0.092c-0.086,0.091-0.172,0.18-0.258,0.262
	c-0.041,0.038-0.08,0.075-0.119,0.109c-0.088,0.079-0.176,0.152-0.262,0.222c-0.029,0.023-0.058,0.047-0.084,0.069
	c-0.111,0.085-0.224,0.16-0.334,0.231c-0.035,0.022-0.07,0.041-0.104,0.061c-0.082,0.049-0.164,0.093-0.244,0.134
	c-0.037,0.019-0.073,0.037-0.108,0.053c-0.103,0.048-0.205,0.089-0.306,0.125c-0.014,0.004-0.024,0.008-0.039,0.013
	c-0.102,0.033-0.2,0.057-0.299,0.077c-0.033,0.007-0.063,0.012-0.098,0.018c-0.076,0.011-0.15,0.021-0.225,0.023
	c-0.027,0.002-0.056,0.004-0.085,0.004c-0.096,0.002-0.188-0.003-0.278-0.017c-0.019-0.002-0.035-0.007-0.053-0.01
	c-0.072-0.013-0.146-0.032-0.214-0.055c-0.022-0.008-0.051-0.016-0.073-0.026c-0.068-0.027-0.136-0.058-0.197-0.095
	c-0.012-0.007-0.025-0.013-0.039-0.021c-0.072-0.047-0.143-0.101-0.205-0.163c-0.016-0.014-0.029-0.029-0.043-0.044
	c-0.051-0.051-0.096-0.106-0.139-0.167c-0.015-0.02-0.027-0.038-0.041-0.058c-0.052-0.08-0.099-0.164-0.138-0.256v0.001
	c-0.312-0.746-0.225-1.929,0.521-3.49c6.312-3.259,7.504-8.651,5.635-11.841c-1.533-2.896-5.488-4.06-10.445-0.487
	c-0.012,0.007-0.021,0.014-0.032,0.021c-0.539-2.301-3.099-4.15-6.668-5.843l0,0c0,0,0,0,0-0.001
	c-3.572,1.694-4.491,3.918-5.031,6.219c-10.443-8.153-16.816,2.132-9.36,9.742c0.037,0.039,0.078,0.077,0.116,0.115
	c0.095,0.094,0.189,0.189,0.289,0.284c0.836,0.79,1.827,1.547,2.985,2.245c1.86,3.899-0.378,5.587-2.724,3.875
	c-0.074-0.055-0.149-0.116-0.226-0.177c-0.019-0.015-0.037-0.029-0.056-0.044c-0.562-0.477-1.123-1.152-1.625-2.042
	c-0.906-4.536-2.426-7.479-4.177-9.17c-6.248-6.043-15.44,3.873-10.251,14.146l-4.215,4.535h0.001l5.138,3.721
	c-0.009,0.038-0.017,0.075-0.025,0.115c-0.052,0.2-0.101,0.397-0.145,0.592c-0.021,0.093-0.038,0.184-0.057,0.275
	c-0.03,0.145-0.059,0.289-0.084,0.43c-0.018,0.095-0.034,0.19-0.05,0.284c-0.022,0.141-0.043,0.28-0.062,0.417
	c-0.012,0.086-0.024,0.173-0.035,0.257c-0.023,0.191-0.043,0.381-0.058,0.567c-0.006,0.066-0.011,0.131-0.014,0.196
	c-0.013,0.165-0.021,0.328-0.026,0.487c-0.003,0.081-0.003,0.161-0.004,0.242c-0.002,0.124-0.002,0.247,0,0.369
	c0.001,0.083,0.002,0.164,0.004,0.246c0.005,0.123,0.012,0.244,0.021,0.363c0.005,0.072,0.008,0.146,0.014,0.216
	c0.017,0.181,0.035,0.36,0.058,0.535c0.006,0.045,0.015,0.088,0.021,0.132c0.02,0.136,0.042,0.271,0.065,0.402
	c0.013,0.068,0.028,0.134,0.042,0.202c0.023,0.107,0.047,0.213,0.072,0.317c0.019,0.067,0.034,0.135,0.052,0.201
	c0.028,0.107,0.061,0.211,0.093,0.315c0.017,0.056,0.033,0.114,0.052,0.171c0.051,0.152,0.104,0.303,0.162,0.45
	c0.015,0.036,0.031,0.072,0.047,0.107c0.045,0.114,0.092,0.226,0.144,0.335c0.025,0.054,0.051,0.107,0.077,0.16
	c0.044,0.091,0.089,0.179,0.136,0.267c0.027,0.052,0.058,0.104,0.085,0.157c0.052,0.092,0.105,0.18,0.159,0.269
	c0.026,0.042,0.051,0.085,0.077,0.126c0.08,0.125,0.164,0.247,0.25,0.365c0.021,0.028,0.041,0.054,0.062,0.082
	c0.068,0.091,0.139,0.182,0.211,0.271c0.032,0.041,0.065,0.08,0.101,0.119c0.063,0.075,0.128,0.146,0.192,0.218
	c0.035,0.038,0.07,0.077,0.106,0.114c0.073,0.076,0.146,0.149,0.223,0.22c0.028,0.027,0.057,0.056,0.087,0.084
	c0.104,0.096,0.21,0.189,0.318,0.28c0.023,0.019,0.048,0.037,0.071,0.056c0.088,0.071,0.176,0.14,0.266,0.206
	c0.037,0.028,0.077,0.055,0.115,0.083c0.079,0.055,0.159,0.11,0.241,0.164c0.039,0.026,0.079,0.051,0.118,0.077
	c0.092,0.057,0.185,0.113,0.278,0.166c0.027,0.017,0.056,0.033,0.083,0.048c0.122,0.068,0.246,0.133,0.372,0.195
	c0.024,0.012,0.05,0.022,0.074,0.034c0.102,0.049,0.204,0.095,0.309,0.139c0.038,0.017,0.078,0.033,0.117,0.049
	c0.047,0.019,0.093,0.039,0.139,0.056c-0.002-0.001-0.005-0.004-0.007-0.006c5.421,2.089,12.734-1.809,9.06-10.957
	c-1.47-1.966,3.326-2.802,3.972-0.69c0.115,0.334,0.217,0.665,0.308,0.988l0,0l0,0c0.018,0.066,0.029,0.131,0.048,0.197
	c0.064,0.25,0.127,0.5,0.178,0.744c0.026,0.122,0.041,0.24,0.062,0.361c0.032,0.186,0.067,0.372,0.092,0.553
	c0.018,0.13,0.023,0.256,0.037,0.384c0.018,0.168,0.037,0.337,0.045,0.501c0.007,0.13,0.006,0.257,0.009,0.386
	c0.002,0.158,0.008,0.317,0.004,0.473c-0.003,0.127-0.016,0.252-0.024,0.379c-0.011,0.149-0.018,0.302-0.033,0.449
	c-0.015,0.125-0.036,0.247-0.057,0.372c-0.021,0.143-0.042,0.288-0.07,0.429c-0.024,0.122-0.057,0.241-0.086,0.361
	c-0.034,0.138-0.066,0.276-0.107,0.412c-0.034,0.118-0.076,0.233-0.117,0.35c-0.045,0.132-0.09,0.265-0.141,0.395
	c-0.045,0.114-0.099,0.224-0.147,0.337c-0.057,0.126-0.113,0.254-0.177,0.378c-0.056,0.109-0.117,0.218-0.178,0.324
	c-0.068,0.122-0.138,0.244-0.211,0.363c-0.065,0.104-0.137,0.208-0.206,0.312c-0.08,0.116-0.16,0.233-0.247,0.348
	c-0.074,0.1-0.154,0.199-0.234,0.297c-0.09,0.112-0.181,0.225-0.276,0.333c-0.084,0.096-0.175,0.191-0.265,0.286
	c-0.101,0.106-0.204,0.214-0.311,0.318c-0.094,0.092-0.191,0.183-0.29,0.272c-0.113,0.102-0.227,0.204-0.344,0.304
	c-0.104,0.087-0.21,0.173-0.315,0.259c-0.123,0.097-0.249,0.194-0.376,0.289c-0.111,0.083-0.228,0.164-0.342,0.245
	c-0.133,0.093-0.271,0.185-0.409,0.275c-0.121,0.078-0.243,0.155-0.366,0.232c-0.144,0.088-0.292,0.175-0.44,0.261
	c-0.129,0.073-0.259,0.146-0.39,0.219c-0.153,0.083-0.312,0.166-0.472,0.247c-0.136,0.068-0.273,0.138-0.413,0.205
	c-0.165,0.08-0.335,0.157-0.504,0.233c-0.145,0.065-0.288,0.129-0.435,0.191c-0.177,0.076-0.355,0.149-0.537,0.221
	c-0.15,0.059-0.301,0.119-0.453,0.177c-0.188,0.071-0.377,0.139-0.57,0.207c-0.156,0.055-0.311,0.11-0.472,0.164
	c-0.197,0.066-0.4,0.13-0.604,0.193c-0.161,0.051-0.323,0.102-0.488,0.151c-0.209,0.062-0.423,0.121-0.638,0.18
	c-0.167,0.047-0.333,0.093-0.503,0.137c-0.22,0.057-0.447,0.111-0.672,0.167c-0.171,0.042-0.342,0.085-0.518,0.124
	c-0.233,0.053-0.474,0.104-0.712,0.153c-0.174,0.037-0.346,0.074-0.523,0.109c-0.248,0.05-0.502,0.095-0.755,0.142
	c-0.177,0.031-0.351,0.065-0.527,0.095c-0.265,0.045-0.537,0.087-0.807,0.129c-0.173,0.027-0.345,0.056-0.52,0.081
	c-0.288,0.042-0.582,0.08-0.875,0.119c-0.166,0.021-0.329,0.044-0.496,0.065c-0.321,0.04-0.65,0.074-0.979,0.109
	c-0.145,0.016-0.287,0.034-0.435,0.049c-0.395,0.039-0.796,0.074-1.2,0.108c-0.085,0.007-0.167,0.015-0.252,0.022
	c-0.496,0.04-0.998,0.074-1.507,0.105c-14.354,0.865-23.397-6.807-25.156-11.9c-0.8-2.316-0.094-5.355,2.304-4.608
	c2.528,5.675,2.169,9.899,8.555,10.612c4.729,0.53,9.882-4.025,8.65-14.028l2.591-1.863v0.001l0.626-0.451l0,0l-4.29-5.118
	c1.314-3.148,1.508-5.729,0.983-7.741c0.002,0.003,0.007,0.008,0.009,0.011c-0.009-0.038-0.024-0.07-0.035-0.108
	c-0.062-0.229-0.134-0.451-0.215-0.666c-0.013-0.033-0.023-0.068-0.036-0.102c-0.098-0.242-0.207-0.472-0.325-0.694
	c-0.031-0.058-0.063-0.113-0.097-0.169c-0.098-0.172-0.203-0.339-0.316-0.5c-0.032-0.049-0.066-0.1-0.103-0.149
	c-0.145-0.196-0.297-0.383-0.46-0.559c-0.027-0.029-0.056-0.056-0.084-0.084c-0.143-0.147-0.289-0.288-0.442-0.421
	c-0.05-0.042-0.099-0.085-0.149-0.127c-0.168-0.137-0.341-0.267-0.521-0.387c-0.018-0.013-0.036-0.028-0.056-0.039
	c-0.198-0.131-0.406-0.25-0.617-0.36c-0.055-0.029-0.11-0.055-0.165-0.082c-0.173-0.085-0.348-0.163-0.528-0.234
	c-0.051-0.021-0.101-0.043-0.152-0.062c-0.226-0.085-0.452-0.159-0.687-0.223c-0.042-0.012-0.085-0.02-0.126-0.03
	c-0.197-0.051-0.396-0.094-0.598-0.13c-0.064-0.012-0.128-0.023-0.193-0.032c-0.231-0.036-0.467-0.066-0.704-0.084
	c-0.009,0-0.019-0.001-0.028-0.002c-0.247-0.018-0.496-0.021-0.746-0.018c-0.064,0.001-0.129,0.004-0.193,0.006
	c-0.203,0.007-0.406,0.022-0.609,0.043c-0.053,0.005-0.106,0.008-0.159,0.015c-0.249,0.03-0.496,0.07-0.744,0.121
	c-0.05,0.009-0.099,0.022-0.147,0.033c-0.203,0.044-0.404,0.097-0.605,0.156c-0.065,0.02-0.13,0.038-0.195,0.058
	c-0.244,0.077-0.485,0.163-0.725,0.26c-4.408,1.819-5.896,9.218-9.459,10.381l-0.483-2.686c2.801-2.158,3.953-4.465,3.862-6.587
	h0.001c-0.001-0.005-0.001-0.009-0.002-0.014c-0.009-0.186-0.029-0.371-0.058-0.554c-0.007-0.047-0.014-0.096-0.022-0.144
	c-0.033-0.185-0.071-0.369-0.122-0.549c-0.006-0.02-0.013-0.038-0.02-0.058c-0.05-0.166-0.107-0.33-0.172-0.492
	c-0.017-0.045-0.035-0.089-0.053-0.133c-0.074-0.174-0.156-0.348-0.247-0.517c-0.015-0.027-0.031-0.052-0.045-0.079
	c-0.084-0.151-0.175-0.298-0.272-0.445c-0.024-0.039-0.051-0.079-0.078-0.118c-0.113-0.163-0.232-0.323-0.361-0.48
	c-0.024-0.029-0.049-0.058-0.074-0.087c-0.116-0.136-0.236-0.271-0.364-0.403c-0.03-0.032-0.062-0.066-0.095-0.099
	c-0.148-0.149-0.304-0.295-0.468-0.437c-0.033-0.029-0.068-0.057-0.103-0.086c-0.146-0.124-0.299-0.245-0.455-0.362
	c-0.034-0.025-0.066-0.052-0.103-0.078c-0.182-0.132-0.372-0.261-0.567-0.386c-0.043-0.027-0.086-0.053-0.13-0.08
	c-0.178-0.11-0.36-0.217-0.549-0.32c-0.031-0.018-0.062-0.035-0.094-0.052c-0.213-0.115-0.435-0.223-0.659-0.329
	c-0.05-0.023-0.101-0.045-0.151-0.069c-0.213-0.095-0.431-0.188-0.652-0.275c-0.024-0.008-0.046-0.019-0.069-0.027
	c-0.243-0.094-0.491-0.18-0.746-0.263c-0.056-0.018-0.113-0.036-0.169-0.054c-0.253-0.079-0.511-0.155-0.775-0.223
	c-0.006-0.001-0.011-0.002-0.015-0.003c-0.269-0.07-0.544-0.131-0.824-0.188c-0.062-0.012-0.122-0.024-0.184-0.036
	c-0.282-0.055-0.568-0.104-0.859-0.146c-0.004-0.001-0.008-0.001-0.012-0.002c-0.287-0.041-0.579-0.073-0.875-0.102
	c-0.062-0.006-0.127-0.012-0.192-0.018c-0.301-0.025-0.604-0.046-0.912-0.057c-0.024-0.001-0.05-0.001-0.073-0.002
	c-0.289-0.009-0.582-0.011-0.876-0.009c-0.065,0-0.13,0.001-0.195,0.002c-0.315,0.006-0.634,0.018-0.957,0.038
	c-0.041,0.004-0.082,0.007-0.123,0.011c-0.292,0.02-0.588,0.047-0.886,0.081c-0.064,0.007-0.128,0.013-0.193,0.021
	c-0.327,0.04-0.656,0.087-0.989,0.142c-0.056,0.01-0.109,0.02-0.164,0.03c-0.299,0.051-0.6,0.11-0.901,0.175
	c-0.062,0.013-0.121,0.024-0.182,0.039c-0.338,0.075-0.678,0.16-1.02,0.252c-0.062,0.018-0.128,0.037-0.193,0.055
	c-0.308,0.085-0.614,0.179-0.925,0.28c-0.052,0.016-0.104,0.033-0.157,0.05c-0.346,0.114-0.691,0.238-1.039,0.371
	c-0.072,0.028-0.144,0.056-0.216,0.083c-0.318,0.125-0.639,0.257-0.959,0.397c-0.041,0.019-0.082,0.035-0.122,0.052
	c-0.35,0.155-0.698,0.323-1.05,0.498c-0.076,0.038-0.152,0.077-0.229,0.116c-0.334,0.17-0.67,0.349-1.005,0.538
	c-0.022,0.012-0.044,0.024-0.067,0.037c-0.352,0.199-0.702,0.412-1.055,0.632c-0.079,0.05-0.159,0.1-0.238,0.151
	c-0.354,0.227-0.708,0.46-1.059,0.707l0,0l0,0c0.009,0.007,0.019,0.015,0.028,0.023c0.276,0.197,0.544,0.408,0.806,0.626
	c0.091,0.077,0.177,0.16,0.267,0.239c1.865,1.653,3.308,3.815,4.5,6.185c0.036,0.073,0.072,0.146,0.108,0.219
	c0.106,0.22,0.214,0.439,0.318,0.661c0.041,0.088,0.081,0.175,0.122,0.264c0.111,0.242,0.223,0.486,0.33,0.73
	c0.021,0.05,0.044,0.099,0.066,0.15c0.128,0.294,0.253,0.591,0.376,0.889c0.03,0.078,0.062,0.154,0.094,0.232
	c0.094,0.229,0.186,0.457,0.276,0.687c0.034,0.089,0.068,0.177,0.104,0.267c0.101,0.255,0.198,0.511,0.295,0.768
	c0.019,0.043,0.034,0.087,0.051,0.13c0.114,0.302,0.227,0.605,0.337,0.906c0.028,0.081,0.059,0.161,0.089,0.243
	c0.084,0.231,0.168,0.462,0.25,0.692c0.031,0.089,0.065,0.18,0.097,0.269c0.092,0.253,0.183,0.505,0.271,0.756
	c0.112,0.313,0.224,0.624,0.334,0.93c0.027,0.078,0.056,0.154,0.083,0.23c0.079,0.219,0.158,0.438,0.237,0.653
	c0.033,0.087,0.064,0.173,0.095,0.259c0.096,0.259,0.189,0.514,0.286,0.768c0.011,0.025,0.02,0.052,0.029,0.078
	c0.103,0.274,0.208,0.543,0.313,0.809c0.026,0.069,0.053,0.135,0.079,0.203c0.081,0.204,0.163,0.403,0.244,0.602
	c0.032,0.073,0.062,0.145,0.092,0.218c0.101,0.237,0.201,0.471,0.305,0.7c0.007,0.018,0.015,0.035,0.022,0.053
	c0.109,0.244,0.222,0.481,0.333,0.713c0.029,0.059,0.059,0.117,0.087,0.175c0.088,0.177,0.177,0.349,0.266,0.516
	c0.033,0.061,0.064,0.124,0.099,0.184c0.114,0.207,0.229,0.409,0.346,0.603c0.006,0.008,0.01,0.015,0.014,0.023
	c0.123,0.201,0.249,0.393,0.376,0.578c0.032,0.049,0.066,0.095,0.101,0.143c0.1,0.138,0.199,0.271,0.301,0.401
	c0.037,0.046,0.074,0.094,0.111,0.139c0.135,0.164,0.271,0.321,0.414,0.466l0,0c0.142,0.146,0.289,0.28,0.438,0.406
	c0.04,0.034,0.081,0.066,0.121,0.099c0.115,0.092,0.233,0.179,0.354,0.259c0.043,0.029,0.086,0.06,0.13,0.087
	c0.16,0.1,0.323,0.193,0.491,0.271c-0.013,0.368-0.022,0.728-0.026,1.08c-0.053,5.296,0.954,9,3.022,11.113l4.306,18.086
	c-4.346,2.188-3.387,4.377-1.67,6.565h127.357l0,0c1.182-1.506,1.346-3.121-0.084-4.694c-0.035-0.042-0.082-0.083-0.121-0.125
	c-0.103-0.103-0.201-0.208-0.316-0.311c-0.055-0.05-0.121-0.101-0.182-0.151c-0.109-0.094-0.219-0.188-0.34-0.281
	c-0.07-0.055-0.152-0.108-0.229-0.162c-0.125-0.089-0.246-0.179-0.381-0.267c-0.012-0.008-0.021-0.015-0.033-0.023h-0.006
	c-0.404-0.262-0.854-0.521-1.363-0.778l3.273-17.36c2.84-1.253,4.512-5.505,4.436-10.42c0.078-1.261,0.009-2.541-0.399-3.862
	c8.022-4.46,6.521-16.697,11.905-22.819c0.15-0.172,0.308-0.337,0.47-0.5c0.063-0.063,0.127-0.13,0.192-0.193
	c0.232-0.218,0.474-0.43,0.728-0.628C213.166,28.749,212.547,28.413,211.93,28.101z M69.682,50.019
	c5.992-3.554,12.83,0.523,19.12-0.906c0.379,3.118-13.912-1.604-17.434,1.562L69.682,50.019z M175.127,45.925
	c4.932,4.253,14.504-1.877,18.143,1.875C186.346,45.424,178.922,52.555,175.127,45.925z M130.742,63.095
	c-2.636,12.916-25.99,24.214-48.732,14.976c30.194,6.807,45.458-4.541,48.006-17.243c2.26-11.283-6.885-14.696-22.646-11.512
	c6.416-1.887,12.454-3.095,17.661-1.358c2.792-2.792,4.452-5.962,3.623-9.963l1.133-1.357c1.584,4.453,0.45,8.301-3.397,11.546
	C132.563,52.139,131.699,58.412,130.742,63.095z M139.973,73.199L139.973,73.199l-0.877,0.124c-9.508-7.464-9.508-19.683-1.5-25.021
	c-2.941-1.312-4.275-3.773-4.881-6.756l1.627,0.251c3.238,6.99,3.746,4.83,8.109,5.728c4.946,1.018,9.325,2.573,15.411,2.154
	c-4.956,3.063-12.536-1.698-17.562-0.523C133.631,50.715,128.935,63.125,139.973,73.199z M195.646,71.446
	c-20.539,12.47-38.305,12.262-54.174,3.378c17.609,7.798,35.605,7.924,54.549-5.63L195.646,71.446z"/>
</svg>
