<?xml version="1.0" encoding="utf-8"?>
<!-- Generator: Adobe Illustrator 16.0.0, SVG Export Plug-In . SVG Version: 6.00 Build 0)  -->
<!DOCTYPE svg PUBLIC "-//W3C//DTD SVG 1.1//EN" "http://www.w3.org/Graphics/SVG/1.1/DTD/svg11.dtd">
<svg version="1.1" id="Layer_1" xmlns="http://www.w3.org/2000/svg" xmlns:xlink="http://www.w3.org/1999/xlink" x="0px" y="0px"
	 width="256px" height="256px" viewBox="0 0 256 256" enable-background="new 0 0 256 256" xml:space="preserve">
<g>
	<polygon points="93.182,87.289 93.182,110.769 100.712,116.646 100.712,80.719 	"/>
	<path d="M66.389,126.455c-6.469,5.447-13.575,9.529-22.066,11.033c14.042,13.74,22.551,2.773,31.784,0.199
		c-5.314,8.496-5.493,15.01-5.16,22.168c7.927-1.936,13.253-6.309,17.708-12.248c0.989,7.094,1.836,13.217,5.661,19.021
		c4.253-2.838,9.928-12.57,11.334-16.092c1.107,6.117,3.181,13.006,5.974,16.506c4.205-3.707,6.023-7.91,7.782-12.078v-23.229
		c-3.596,0.021-7.196,0.051-10.808,0.098c-4.373,0.043-8.402,0.016-8.809-0.219c-0.878-0.508-17.902-17.08-18.822-18.824
		c-0.962-1.821-1.037-30.79,0-32.585c1.081-1.873,6.353-7.762,7.79-8.592c1.143-0.66,8.859-2.063,12.353-2.673
		c1.008-0.292,1.777-0.775,1.711-1.926V20.081C87.29,25.235,88.657,38.436,86.827,51.163c-0.383,1.1-2.42,1.663-3.781,0.276
		c-2.741-8.367-5.476-11.384-4.922-28.917c-13.063,9.11-9.635,21.738-6.387,32.687c0.386,1.873-0.03,1.26-1.491,1.102
		c-7.625-7.618-15.97-12.185-19.861-25.799c-9.806,22.139,3.897,25.275,8.114,36.945c0.15,1.436-0.956,1.616-2.128,1.729
		c-6.85-3.155-13.176-4.414-19.537-10.746c-1.125,21.183,13.209,21.138,20.851,29.155c0.05,0.639,0.181,1.277-0.813,1.916
		C50,89.35,42.927,89.79,35.418,88.509c6.267,16.316,18.606,15.52,26.312,19.123c0.247,1.242-0.17,1.984-1.002,2.417
		c-7.457,0.023-14.259,1.034-22.68-0.389c9.608,16.906,21.093,12.308,28.641,14.979L66.389,126.455z M113.223,153.461l1.017-0.186
		c0.061,3.082-0.476,6.104-1.866,8.889C112.819,158.25,113.201,156.586,113.223,153.461z M98.106,150.227l1.591,0.305
		c-0.579,3.229-1.995,5.699-4.003,8.354C97.146,154.459,97.67,154.461,98.106,150.227z M100.625,27.898
		c-0.885,8.665-0.635,13.662-0.304,21.642h-1.619C98.631,41.96,97.431,35.224,100.625,27.898z M83.608,143.199l1.379,0.85
		c-2.118,3.369-4.075,6.721-7.876,8.32C80.461,148.934,81.724,146.865,83.608,143.199z M76.333,29.814
		c1.024,8.728,0.653,12.961,3.966,20.555l-1.554,0.453C76.017,43.898,74.544,37.344,76.333,29.814z M54.444,73.542
		C49.556,71.1,44.61,69.728,41.7,64.798c5.93,4.022,7.832,4.831,13.469,7.296L54.444,73.542z M41.533,92.372
		c6.623,0.598,9.657,0.282,15.858,0.087l0.038,1.619C52.691,93.794,47.022,94.62,41.533,92.372z M46.048,113.564
		c7.247,0.473,9.662,0.579,14.522-0.191l0.131,1.614C55.836,115.305,50.48,116.027,46.048,113.564z M64.723,57.677
		C59.734,53,55.107,49.375,53.098,42.068c3.946,6.275,6.629,9.415,12.831,14.527L64.723,57.677z M67.86,132.311
		c-4.726,2.688-9.066,6.07-14.73,5.813c6.754-3.143,8.119-3.385,13.917-7.213L67.86,132.311z"/>
	<polygon points="101.998,117.65 109.158,117.65 120.174,117.65 143.658,117.65 157.34,117.65 160.09,117.65 160.09,79.598 
		157.34,79.598 143.658,79.598 120.187,79.598 109.158,79.598 101.998,79.598 	"/>
	<path d="M203.12,110.049c-0.832-0.434-1.248-1.176-1.002-2.417c7.705-3.603,20.045-2.807,26.312-19.123
		c-7.51,1.281-14.581,0.841-21.453,1.001c-0.995-0.639-0.863-1.277-0.813-1.916c7.642-8.018,21.978-7.972,20.852-29.155
		c-6.361,6.332-12.687,7.591-19.536,10.746c-1.174-0.113-2.268-0.293-2.116-1.729c4.216-11.669,17.907-14.806,8.102-36.945
		c-3.892,13.614-12.236,18.181-19.862,25.799c-1.461,0.158-1.876,0.771-1.49-1.102c3.249-10.948,6.676-23.577-6.387-32.687
		c0.554,17.533-2.182,20.55-4.922,28.917c-1.361,1.386-3.397,0.823-3.782-0.276c-1.83-12.727-0.462-25.928-15.992-31.083v46.204
		c0.018,2.055,0.766,2.524,2.403,2.778c3.728,0.66,10.588,1.933,11.66,2.552c1.438,0.83,6.708,6.719,7.79,8.592
		c1.037,1.796,0.961,30.764,0,32.585c-0.92,1.744-17.944,18.316-18.823,18.824c-0.338,0.193-3.186,0.248-6.651,0.234
		c-4.352-0.043-8.686-0.078-13.013-0.104v23.105c1.774,4.205,3.587,8.451,7.83,12.191c2.792-3.5,4.866-10.389,5.973-16.506
		c1.406,3.521,7.082,13.254,11.335,16.092c3.824-5.805,4.671-11.928,5.66-19.021c4.455,5.939,9.795,10.313,17.721,12.248
		c0.334-7.158,0.142-13.672-5.172-22.168c9.232,2.574,17.741,13.541,31.784-0.199c-8.492-1.504-15.598-5.586-22.065-11.033
		l-0.302-1.816c7.549-2.671,19.033,1.927,28.642-14.979C217.38,111.083,210.576,110.073,203.12,110.049z M206.589,92.459
		c6.2,0.195,9.235,0.511,15.857-0.087c-5.488,2.248-11.158,1.422-15.896,1.706L206.589,92.459z M222.279,64.798
		c-2.909,4.929-7.855,6.301-12.743,8.744l-0.725-1.448C214.448,69.629,216.35,68.821,222.279,64.798z M165.278,49.54h-1.619
		c0.33-7.979,0.58-12.977-0.305-21.642C166.549,35.224,165.349,41.96,165.278,49.54z M149.74,153.275l1.018,0.186
		c0.022,3.125,0.403,4.789,0.849,8.703C150.215,159.379,149.68,156.357,149.74,153.275z M164.282,150.531l1.591-0.305
		c0.436,4.234,0.962,4.232,2.413,8.658C166.278,156.23,164.861,153.76,164.282,150.531z M178.994,144.049l1.378-0.85
		c1.885,3.666,3.147,5.734,6.497,9.17C183.068,150.77,181.111,147.418,178.994,144.049z M185.235,50.823l-1.555-0.453
		c3.313-7.594,2.942-11.828,3.967-20.555C189.436,37.344,187.964,43.898,185.235,50.823z M210.85,138.123
		c-5.663,0.258-10.005-3.125-14.729-5.813l0.813-1.4C202.731,134.738,204.097,134.98,210.85,138.123z M198.051,56.596
		c6.201-5.112,8.886-8.252,12.832-14.527c-2.01,7.306-6.637,10.932-11.626,15.608L198.051,56.596z M203.278,114.987l0.132-1.614
		c4.859,0.77,7.275,0.664,14.521,0.191C213.5,116.027,208.144,115.305,203.278,114.987z"/>
	<polygon points="170.509,108.34 170.509,86.682 161.376,80.472 161.376,116.5 	"/>
	<path d="M175.806,179.992c-0.045,6.375,0.362,9.621,3.031,15.691c-5.955,4.984-15.777,11.854-25.223,9.92
		c-8.21-1.68-9.956-10.602-9.956-19.35v-29.9h-0.02V130.91h0.02v-11.973h-23.484l-0.004,12.792c-0.003,0-0.006,0-0.008,0v21.453
		c0,0,0-0.002,0-0.002l-0.01,33.074c0,6.887-2.85,16.863-13.576,18.836c-9.319,1.713-18.693-4.533-24.136-9.18h-0.046
		c-6.654-4.389-13.561-8.457-17.809-16.732c5.492,6.244,11.804,11.098,18.708,14.939c2.154-4.084,3.321-9.865,3.046-16.154
		c-13.31-10.602-22.654-6.76-42.506-24.482c1.653,26.002,3.159,33.639,11.936,52.725c5.461,1.238,10.432,1.537,16.754-0.289
		c-0.133,0.037-0.267,0.076-0.399,0.113c-2.613-3.668-4.833-7.496-6.688-12.475c2.775,4.545,4.631,9.064,8.453,12.299l-0.009,0.02
		c21.96,20.32,36.339,14.258,56.891,35.047c-0.063-0.068-0.125-0.133-0.188-0.201l0.389-36.943l1.689,35.064
		c18.328-19.482,33.842-16.021,52.648-34.252c-0.166,0.162-0.334,0.318-0.5,0.477v-0.025c8.013-7.4,13.404-16.572,19.123-25.246
		c-4.623,10.998-9.504,17.193-16.143,25.76c-0.823-0.309-1.549-0.6-2.122-0.824c3.178,1.252,10.951,4.611,18.165,1.877
		c2.441-2.559,16.81-30.738,14.077-52.523C200.638,169.195,178.56,172.926,175.806,179.992z"/>
	<rect x="120.189" y="71.79" width="23.469" height="6.521"/>
</g>
</svg>
