<?xml version="1.0" encoding="utf-8"?>
<!-- Generator: Adobe Illustrator 16.0.0, SVG Export Plug-In . SVG Version: 6.00 Build 0)  -->
<!DOCTYPE svg PUBLIC "-//W3C//DTD SVG 1.1//EN" "http://www.w3.org/Graphics/SVG/1.1/DTD/svg11.dtd">
<svg version="1.1" id="Layer_1" xmlns="http://www.w3.org/2000/svg" xmlns:xlink="http://www.w3.org/1999/xlink" x="0px" y="0px"
	 width="256px" height="256px" viewBox="0 0 256 256" enable-background="new 0 0 256 256" xml:space="preserve">
<g>
	<path d="M209.031,16.279c-0.076-0.012-1.88-0.279-4.56-0.279c-5.119,0-12.19,0.945-17.243,5.368
		c-0.656-0.118-1.787-0.271-3.239-0.271c-4.727,0-13.583,1.645-20.098,12.59c-2.382,1.196-16.131,8.666-19.441,23.149l-0.206-0.43
		l-0.373,4.005c-1.913,1.287-8.762,6.367-13.083,15.752l-0.04-0.05l-0.454,1.145c-1.04-0.333-2.745-0.718-5.068-0.718
		c-4.189,0-8.777,1.206-13.64,3.584c-1.057-0.249-3.91-0.83-7.484-0.83c-4.555,0-10.936,0.981-15.738,5.595
		c-3.05,0.165-19.604,1.606-27.662,13.489c-6.656,0.334-18.843,11.666-20.803,18.138c-0.779,2.573,0.316,3.765,1.039,4.247
		c1.087,0.725,2.355,1.063,3.991,1.063c2.083,0,4.664-0.564,7.931-1.278c5.727-1.252,13.57-2.966,25.112-3.229
		c0.629-0.014,1.253-0.021,1.872-0.021c10.415,0,20.042,1.953,27.106,5.499c6.167,3.095,9.849,7.222,9.849,11.039
		c0,7.669-2.13,9.286-6.799,12.828c-0.325,0.247-0.662,0.502-1.007,0.766c-8.68,5.14-20.081,10.46-28.125,14.021
		c-2.63,1.165-4.749,2.073-6.062,2.629l-2.424,1.026l2.398,1.086c1.531,0.693,2.948,1.51,4.197,2.229
		c0.917,0.529,1.922,1.102,2.996,1.646l-0.074,0.094L83.772,171c0.001,0,0.002,0,0.004,0l0.598,0.212l0.016-0.032
		c2.918,1.142,6.007,1.674,9.662,1.674c1.402,0,2.697-0.09,3.943-0.253l0.011,0.249l0.578,0.15c0.001,0,0.001,0,0.002,0l2.247-0.586
		l-0.095-0.215c3.305-0.842,5.615-2.328,7.856-3.716l0.573-0.384c3.613-2.225,7.171-4.076,13.949-4.076
		c4.011,0,7.358,0.642,10.529,2.036c1.613,0.709,3.062,1.542,4.462,2.351c0.829,0.48,1.682,0.965,2.573,1.433l-0.088,0.054
		l2.005,0.88c0.005,0.003,0.009,0.004,0.014,0.007l0.542,0.237l0.017-0.01c3.069,1.259,6.217,1.832,10.112,1.832
		c1.549,0,2.961-0.099,4.31-0.287l0.011,0.01l0.523-0.084c0.004,0,0.008-0.001,0.011-0.002l2.465-0.398l-0.121-0.102l0.033-0.008
		l0.244-0.435c1.29-2.289,3.932-7.118,7.207-13.854l0.091-0.187c0.017-0.034,0.033-0.069,0.051-0.104l2.744-5.655l-0.124,0.096
		c1.805-3.91,3.534-7.834,5.169-11.834h0.004l0.516-1.238c0.002-0.008,0.006-0.002,0.009-0.012l0.001,0.007
		c0.372-0.915,0.747-1.84,1.12-2.78l0.194-0.487c2.321-5.874,4.426-11.73,6.255-17.412c5.889-18.292,6.613-29.669,7.313-40.674
		c0.474-7.452,0.965-15.158,3.106-24.916c2.489-11.343,6.753-17.408,10.19-22.282C207.627,25.92,210,22.535,210,17.419v-0.993
		L209.031,16.279z M165.838,34.926c5.937-10.019,13.909-11.522,18.153-11.522c0.805,0,1.494,0.053,2.031,0.117
		c-1.448,4.146-5.86,17.618-7.907,33.248c-0.725,5.53-1.048,10.077-1.048,14.745c0,2.143,0.064,4.064,0.132,6.098
		c0.068,2.027,0.137,4.123,0.137,6.455c0,4.329-0.248,8.71-0.783,13.788c-1.805,17.154-8.866,33.505-10.483,37.073
		c-0.061-0.02-0.12-0.04-0.179-0.062c-0.609-0.221-1.094-0.5-1.604-0.793c-0.555-0.319-1.146-0.66-1.906-0.927
		c1.433-3.922,6.626-19.249,6.627-35.294c0-0.662-0.009-1.323-0.026-1.987c-0.295-10.893-1.011-16.629-1.704-22.176
		c-0.53-4.234-1.076-8.613-1.415-15.271c-0.229-4.504-0.346-8.864-0.346-12.959C165.517,39.531,165.765,35.883,165.838,34.926z
		 M146.251,143.807c-0.632-0.401-1.305-0.828-2.124-1.163c0.542-0.373,0.981-0.792,1.4-1.189c0.956-0.911,1.712-1.631,3.707-1.792
		c0.233-0.02,0.456-0.027,0.667-0.027c0,0,0,0,0.001,0c1.613,0,2.577,0.522,3.694,1.128c0.799,0.433,1.662,0.901,2.79,1.201
		c-0.845,0.459-1.45,1.009-1.989,1.498c-0.978,0.888-1.749,1.589-3.787,1.696c-0.146,0.007-0.286,0.011-0.422,0.011c0,0,0,0-0.001,0
		C148.398,145.169,147.403,144.537,146.251,143.807z M148.281,147.27c-1.346,0.548-2.19,1.381-2.966,2.145
		c-1.059,1.045-1.895,1.668-4.044,1.777c-0.133,0.006-0.264-0.191-0.392-0.191c-0.003,0-0.008,0-0.013,0
		c-1.885,0-2.976-0.529-4.238-1.377c-0.99-0.662-2.071-1.287-3.569-1.68c1.28-0.454,2.172-1.125,2.995-1.791
		c0.542-0.439,1.06-0.833,1.67-1.159c0.097-0.053,0.197-0.09,0.3-0.137c0.677-0.31,1.438-0.476,2.34-0.521
		c0.154-0.008,0.305-0.008,0.448-0.009c0.001,0,0.001,0.001,0.001,0.001c1.958,0.001,2.998,0.661,4.2,1.424
		C145.916,146.325,146.905,146.953,148.281,147.27z M143.936,139.784c-0.955,0.91-1.709,1.627-3.706,1.736
		c-0.133,0.007-0.263,0.009-0.387,0.01c-1.705-0.001-2.552-0.656-3.626-1.485c-0.557-0.432-1.187-0.919-1.965-1.314
		c1.436-1.024,3.775-2.424,6.177-2.71c0.296-0.035,0.577-0.053,0.836-0.053c1.205,0,1.877,0.379,2.728,0.86
		c0.683,0.386,1.477,0.834,2.599,1.09C145.371,138.417,144.602,139.15,143.936,139.784z M134.806,141.868
		c0.519,0.4,1.064,0.824,1.722,1.175c-0.747,0.414-1.344,0.799-1.925,1.268c-1.232,1-2.206,1.689-4.444,1.689
		c-0.044,0-0.087,0-0.134,0c-0.03,0-0.063,0.098-0.096,0.097c-2.821-0.067-4.182-0.894-5.621-1.821
		c-0.725-0.469-1.465-0.92-2.367-1.271c0.545-0.251,1.079-0.519,1.627-0.804c1.908-0.997,3.88-2.02,6.853-2.02
		c1.074,0,1.943,0.185,2.736,0.577C133.762,141.058,134.269,141.453,134.806,141.868z M130.401,150.032l0.055-0.032
		c0.003,0,0.008,0,0.011,0c0.004,0,0.009,0,0.013,0c0.005,0,0.009,0,0.014,0s0.009,0,0.014,0s0.009,0,0.015,0
		c0.005,0,0.01,0,0.015,0c0.004,0,0.01,0,0.014,0c0.037,0,0.073,0,0.108,0c0.002,0,0.009,0,0.014,0c2.161,0,3.324,0.811,4.672,1.713
		c0.829,0.555,1.725,1.171,2.873,1.561c-1.338,0.345-2.278,0.904-3.144,1.413c-1.256,0.738-2.341,1.379-4.653,1.379
		c-1.209,0-2.258-0.2-3.303-0.635c-0.073-0.03-0.146-0.061-0.219-0.093c-0.52-0.231-1.001-0.495-1.507-0.772
		c-0.691-0.38-1.394-0.767-2.197-1.067c0.91-0.422,1.662-0.97,2.366-1.483c0.633-0.461,1.229-0.913,1.918-1.259
		C128.37,150.309,129.288,150.069,130.401,150.032z M136.243,156.682c1.247-0.733,2.326-1.494,4.611-1.551
		c0.105-0.004,0.21-0.131,0.311-0.131c0.001,0,0.001,0,0.002,0c2.01,0,2.98,0.621,4.008,1.143c0.738,0.373,1.544,0.847,2.68,1.056
		c-1.416,0.561-2.438,1.381-3.378,2.106c-1.399,1.079-2.505,1.946-4.704,1.946c-2.11,0-2.935-0.768-3.979-1.75
		c-0.568-0.535-1.209-1.134-2.092-1.602C134.73,157.566,135.513,157.11,136.243,156.682z M145.885,161.162
		c1.33-1.025,2.587-1.995,4.935-2.274c0.402-0.048,0.786-0.071,1.138-0.071c1.73,0,2.563,0.569,3.529,1.229
		c0.493,0.338,1.021,0.698,1.663,0.976c-0.865,0.467-1.669,1.082-2.459,1.687c-1.632,1.249-3.319,2.542-5.654,2.722
		c-0.121,0.009-0.241,0.016-0.358,0.021c-0.131,0.006-0.259,0.008-0.382,0.008c-1.819,0-2.589-0.585-3.565-1.325
		c-0.497-0.378-1.052-0.799-1.763-1.142C144.122,162.521,145.012,161.836,145.885,161.162z M150.55,155.038
		c-0.041,0.005-0.081,0.008-0.122,0.012c-0.336,0.031-0.655,0.047-0.95,0.047c-0.001,0-0.001,0-0.001,0
		c-1.517,0-2.284-0.39-3.257-0.885c-0.682-0.346-1.415-0.719-2.418-0.97c1.444-0.52,2.326-1.389,3.134-2.186
		c0.995-0.982,1.854-1.83,3.892-2.044c0.272-0.028,0.54-0.043,0.796-0.043c0,0,0,0,0.001,0c1.658,0,2.704,0.578,3.915,1.246
		c0.874,0.483,1.832,1.013,3.039,1.279c-1.095,0.428-1.975,0.987-2.837,1.534C154.316,153.935,152.97,154.79,150.55,155.038z
		 M156.654,148.198c-0.899-0.497-1.882-1.041-3.146-1.328c1.07-0.455,1.781-1.102,2.44-1.701c1.004-0.911,1.871-1.699,4.172-1.867
		c0.252-0.019,0.496-0.027,0.733-0.027c0.001,0,0.001,0,0.001,0c2.025,0,3.479,0.638,5.019,1.314
		c0.514,0.226,1.031,0.453,1.572,0.656c-0.744,0.479-1.33,1.061-1.901,1.628c-1.177,1.166-2.193,2.173-4.614,2.45
		c-0.008,0.001-0.016,0.001-0.023,0.002c-0.239,0.026-0.474,0.039-0.699,0.039C158.767,149.364,157.788,148.824,156.654,148.198z
		 M159.447,139.96c-0.178,0.01-0.349,0.013-0.515,0.013c-1.954,0-3.012-0.572-4.235-1.237c-0.783-0.425-1.634-0.886-2.728-1.161
		c0.897-0.327,1.556-0.753,2.169-1.15c1.09-0.708,2.033-1.318,4.409-1.437c0.234-0.012,0.456-0.018,0.666-0.018
		c2.011,0.001,2.854,0.486,3.922,1.102c0.502,0.289,1.056,0.608,1.752,0.881c-0.571,0.385-1.016,0.818-1.438,1.229
		C162.491,139.11,161.734,139.847,159.447,139.96z M163.421,36.587c-0.099,1.824-0.21,4.805-0.21,8.872
		c0,4.134,0.117,8.534,0.348,13.076c0.344,6.743,0.896,11.164,1.431,15.44c0.686,5.492,1.396,11.171,1.688,21.953
		c0.017,0.642,0.025,1.283,0.025,1.923c-0.001,16.233-5.457,31.741-6.612,34.843c-0.275-0.02-0.566-0.03-0.876-0.03
		c-0.001,0-0.001,0-0.001,0c-0.246,0-0.505,0.006-0.794,0.021c-2.685,0.134-4.051,0.859-5.171,1.569
		c1.582-4.041,4.487-13.275,4.487-26.565c0.001-15.403-3.885-31.302-11.548-47.257C147.592,47.151,158.963,39.213,163.421,36.587z
		 M144.691,62.658c7.126,15.229,10.738,30.37,10.737,45.031c0,17.276-5.174,27.698-5.227,27.801l0.251,0.128
		c-0.4,0.091-0.859,0.154-1.404,0.185c-0.084,0.005-0.166,0.008-0.247,0.011c-0.075,0.002-0.149,0.004-0.222,0.004
		c-1.65,0.003-2.496-0.458-3.453-0.997c-0.064-0.037-0.13-0.074-0.196-0.111c0.966-2.155,3.091-7.846,3.091-16.183
		c-0.001-9.185-2.727-23.596-15.623-40.3C136.104,69.448,142.392,64.317,144.691,62.658z M125.226,78.846
		c3.364,0,5.157,0.91,5.168,0.916l0.472,0.253c9.719,12.721,14.85,26.015,14.85,38.512c0.001,7.956-2.08,13.417-2.921,15.3
		c-0.45-0.103-0.953-0.166-1.53-0.166h-0.001c-0.282,0-0.58,0.017-0.887,0.047c-0.073,0.007-0.146,0.015-0.222,0.023
		c-0.654,0.078-1.3,0.221-1.925,0.408c0.301-2.301,0.448-4.49,0.448-6.649c0.004-14.893-7.255-28.244-24.98-45.813
		C117.829,79.797,121.7,78.846,125.226,78.846z M104.101,81.6c3.418,0,6.175,0.584,7.032,0.788
		c17.926,17.553,25.241,30.634,25.239,45.101c-0.001,2.457-0.201,4.96-0.613,7.643c-2.068,1.03-3.663,2.31-4.245,2.806
		c-0.083-0.009-0.167-0.018-0.253-0.024c0.383-2.172,0.576-4.33,0.576-6.427c0.001-9.786-4.228-18.94-12.567-27.208
		c-6.624-6.567-15.852-12.695-28.181-18.708C95.191,82.325,100.329,81.6,104.101,81.6z M88.888,87.174l0.211-0.005
		c27.583,13.263,40.433,27.349,40.431,44.315c0,2.105-0.209,4.281-0.622,6.473c-1.119,0.116-2.107,0.357-3.004,0.664
		c0.462-8.087-2.425-15.716-8.386-22.247C107.294,105.173,88.625,98,69.952,98c-0.001,0-0.002,0-0.004,0
		c-2.102,0-4.179,0.033-6.211,0.226C72.223,87.833,88.712,87.18,88.888,87.174z M77.919,115.012
		c-11.766,0.268-19.734,2.01-25.554,3.282c-3.131,0.685-5.604,1.226-7.438,1.226c-1.159,0-2.021-0.215-2.711-0.676
		c-0.422-0.281-0.293-1.058-0.111-1.66c1.678-5.54,13.443-16.507,18.892-16.507c0.082,0,0.162,0.003,0.241,0.008l0.684,0.049
		l0.086-0.133l0.01,0.074c2.547-0.329,5.217-0.496,7.938-0.496c18.052,0.001,36.272,6.944,46.08,17.689
		c5.738,6.287,7.965,13.397,7.965,21.177c0,0.007,0,0.011,0,0.018c0,0.001,0,0.003,0,0.006c0,0.008-0.22,0.015-0.221,0.022
		c-0.01,0.124-0.13,0.249-0.142,0.373l0.226,0.036c-0.019,0.01-0.064,0.019-0.083,0.027c-0.013,0.007-0.039,0.013-0.052,0.019
		l-0.199-0.014l0.181,0.019c-0.417,0.205-0.819,0.413-1.208,0.618c-1.108,0.578-2.156,1.125-3.267,1.382
		c-0.442,0.102-0.82,0.153-1.121,0.153h-0.001c-0.138,0-0.237-0.011-0.305-0.023c0.844-1.914,1.297-4.363,1.297-7.845
		C119.104,124.536,103.288,114.467,77.919,115.012z M115.917,144.828c0.123-0.018,0.355,0.172,0.731,0.172c0.021,0,0.042,0,0.063,0
		c0.798,0,1.826-0.123,3.085,0.055l0.07-0.097c1.29,0.186,2.172,0.699,3.192,1.357c1.169,0.754,2.454,1.555,4.474,1.962
		c-0.37,0.128-0.733,0.269-1.089,0.447c-0.858,0.431-1.562,0.937-2.242,1.433c-1.299,0.948-2.421,1.763-4.384,1.764
		c0,0,0-0.001-0.001-0.001c-0.087,0-0.175-0.003-0.266-0.007c-3.336-0.117-6.353-2.43-7.683-3.665
		C113.453,147.041,114.814,146.076,115.917,144.828z M109.976,149.528c1.03,1.007,3.412,3.089,6.426,4.108
		c-0.011,0.004-0.022,0.031-0.033,0.035c-0.213,0.097-0.412,0.328-0.6,0.328c-0.002,0-0.003,0-0.003,0
		c-0.54,0-0.981,0.621-1.383,0.926c-0.907,0.691-1.563,1.181-3.051,1.181c-0.179,0-0.368-0.014-0.568-0.029
		c-2.707-0.203-5.384-1.974-6.879-3.14C105.999,151.808,108.051,150.663,109.976,149.528z M101.665,154.103
		c1.018,0.875,3.219,2.589,5.854,3.566c-1.134,0.475-1.991,1.18-2.786,1.835c-1.198,0.984-2.143,1.763-3.921,1.763
		c-2.798-0.013-5.311-2.236-6.5-3.484C96.755,156.6,99.236,155.364,101.665,154.103z M92.138,158.824
		c0.784,0.901,2.697,2.88,5.227,3.978c-0.011,0.004-0.021,0.01-0.032,0.014c-0.13,0.055-0.253,0.114-0.377,0.174
		c-0.063,0.029-0.13,0.057-0.192,0.089c-0.141,0.071-0.274,0.146-0.406,0.223c-0.039,0.022-0.081,0.044-0.119,0.065
		c-0.34,0.201-0.658,0.411-0.966,0.614c-0.104,0.069-0.207,0.137-0.31,0.204c-1.09,0.712-2.13,1.288-4.001,1.24
		c-0.234-0.006-0.468-0.024-0.701-0.05c-0.06-0.006-0.119-0.137-0.177-0.145c-0.23-0.029-0.459-0.23-0.686-0.23
		c-0.002,0-0.003,0-0.005,0c-0.231,0-0.46,0.023-0.688-0.037c-0.057-0.016-0.116,0.031-0.173,0.015
		c-0.221-0.061-0.44-0.096-0.656-0.168c-0.004-0.001-0.008,0.013-0.012,0.013c-0.22-0.075-0.438-0.147-0.653-0.23
		c-0.055-0.022-0.11-0.039-0.166-0.062c-0.206-0.083-0.411-0.166-0.61-0.256c-0.004-0.002-0.009-0.002-0.014-0.005
		c-0.206-0.092-0.404-0.188-0.6-0.283c-0.051-0.025-0.101-0.049-0.15-0.075c-0.188-0.095-0.374-0.189-0.551-0.286
		c-0.003-0.002-0.006-0.004-0.01-0.006c-0.184-0.1-0.36-0.199-0.531-0.3c-0.043-0.024-0.085-0.049-0.126-0.074
		c-0.293-0.173-0.563-0.342-0.813-0.504C86.257,161.569,89.147,160.244,92.138,158.824z M86.214,167.373
		c-0.236,0.104-0.463,0.213-0.685,0.326c-0.037,0.019-0.072,0.036-0.108,0.056c-0.218,0.114-0.427,0.23-0.629,0.35
		c-0.032,0.019-0.063,0.037-0.095,0.056c-0.203,0.121-0.396,0.243-0.581,0.365c-0.007,0.005-0.015,0.009-0.022,0.015
		c-1.422-0.646-2.715-1.393-3.97-2.116c-0.664-0.383-1.375-0.792-2.13-1.2c0.924-0.398,1.993-0.864,3.175-1.385
		c0.078,0.058,0.162,0.119,0.251,0.183c0.033,0.023,0.066,0.047,0.1,0.072c0.109,0.077,0.222,0.157,0.345,0.242
		c0.024,0.016,0.048,0.032,0.071,0.049c0.123,0.084,0.255,0.171,0.391,0.26c0.038,0.025,0.074,0.05,0.114,0.075
		c0.148,0.096,0.305,0.194,0.467,0.294c0.041,0.024,0.082,0.049,0.123,0.075c0.172,0.104,0.35,0.21,0.536,0.316
		c0.022,0.013,0.045,0.024,0.067,0.038c0.178,0.1,0.361,0.2,0.548,0.3c0.038,0.021,0.074,0.04,0.112,0.061
		c0.2,0.104,0.405,0.207,0.615,0.31c0.046,0.021,0.092,0.044,0.138,0.065c0.217,0.104,0.437,0.205,0.664,0.302
		c0.03,0.013,0.061,0.026,0.09,0.038c0.219,0.093,0.44,0.183,0.667,0.269c0.032,0.012,0.063,0.025,0.097,0.038
		c0.177,0.066,0.356,0.13,0.539,0.191c-0.013,0.005-0.025,0.011-0.04,0.016c-0.255,0.091-0.501,0.188-0.742,0.293
		C86.288,167.342,86.25,167.357,86.214,167.373z M94.052,170.537c-2.699,0-4.985-0.296-7.147-0.939
		c0.038-0.018,0.078-0.035,0.117-0.053c0.077-0.035,0.154-0.07,0.232-0.104c0.052-0.022,0.105-0.045,0.159-0.065
		c0.078-0.033,0.157-0.064,0.238-0.095c0.056-0.022,0.112-0.042,0.169-0.063c0.081-0.029,0.163-0.058,0.245-0.085
		c0.059-0.02,0.117-0.037,0.176-0.056c0.084-0.025,0.168-0.05,0.254-0.074c0.06-0.017,0.121-0.032,0.181-0.048
		c0.087-0.021,0.175-0.042,0.265-0.062c0.06-0.014,0.121-0.026,0.182-0.039c0.092-0.018,0.185-0.032,0.278-0.048
		c0.06-0.01,0.12-0.02,0.18-0.027c0.102-0.014,0.206-0.023,0.31-0.033c0.052-0.005,0.104-0.012,0.156-0.016
		c0.157-0.011,0.315-0.017,0.474-0.017c0.267,0,0.535,0.016,0.795,0.047c0.192,0.024,0.381,0.056,0.568,0.093
		c0.061,0.013,0.12,0.027,0.181,0.042c0.125,0.028,0.251,0.058,0.374,0.091c0.069,0.02,0.137,0.041,0.204,0.062
		c0.113,0.034,0.225,0.068,0.335,0.107c0.069,0.023,0.138,0.049,0.206,0.074c0.108,0.041,0.215,0.083,0.32,0.128
		c0.065,0.026,0.13,0.054,0.194,0.082c0.109,0.049,0.216,0.099,0.322,0.15c0.058,0.028,0.115,0.055,0.171,0.083
		c0.124,0.063,0.246,0.129,0.365,0.195c0.035,0.019,0.071,0.037,0.105,0.057c0.152,0.087,0.301,0.176,0.446,0.268
		c0.042,0.027,0.083,0.055,0.125,0.082c0.101,0.065,0.201,0.131,0.297,0.196c0.014,0.011,0.028,0.02,0.042,0.03
		C95.079,170.525,94.573,170.537,94.052,170.537z M98.792,170.146c-0.014-0.015-0.033-0.029-0.048-0.044
		c-0.093-0.086-0.19-0.173-0.291-0.264c-0.031-0.026-0.059-0.053-0.091-0.08c-0.135-0.118-0.276-0.237-0.426-0.359
		c-0.019-0.016-0.04-0.031-0.059-0.048c-0.128-0.104-0.261-0.207-0.398-0.312c-0.049-0.037-0.098-0.074-0.148-0.11
		c-0.117-0.086-0.236-0.173-0.36-0.26c-0.055-0.039-0.11-0.077-0.167-0.115c-0.139-0.096-0.283-0.189-0.43-0.281
		c-0.04-0.025-0.078-0.052-0.119-0.077c-0.188-0.115-0.379-0.229-0.577-0.339c-0.048-0.026-0.098-0.052-0.146-0.078
		c-0.152-0.082-0.307-0.163-0.465-0.239c-0.071-0.036-0.144-0.068-0.216-0.104c-0.145-0.067-0.293-0.132-0.444-0.196
		c-0.048-0.02-0.094-0.043-0.143-0.063c0.006-0.003,0.012-0.005,0.019-0.008c0.211-0.084,0.412-0.174,0.605-0.27
		c0.009-0.005,0.02-0.01,0.028-0.015c0.199-0.099,0.389-0.202,0.572-0.31c0.001-0.001,0.002-0.001,0.004-0.002
		c0.374-0.218,0.721-0.447,1.055-0.669c0.356-0.236,0.692-0.454,1.034-0.644c0.85-0.475,1.742-0.767,3.126-0.651
		c0.243,0.021,0.485,0.058,0.726,0.101c0.06,0.011,0.12,0.065,0.18,0.078c0.236,0.048,0.471,0.213,0.704,0.213c0,0,0.001,0,0.002,0
		c0.235,0,0.467,0.103,0.696,0.186c0.057,0.021,0.114,0.021,0.171,0.043c0.222,0.084,0.441,0.163,0.656,0.259
		c0.002,0.002,0.006-0.002,0.01,0c0.219,0.1,0.434,0.203,0.643,0.311c0.054,0.028,0.107,0.054,0.16,0.082
		c0.2,0.106,0.395,0.216,0.584,0.326c0.006,0.003,0.012,0.007,0.02,0.011c0.195,0.114,0.383,0.232,0.566,0.351
		c0.05,0.032,0.098,0.063,0.146,0.096c0.169,0.11,0.333,0.221,0.489,0.332c0.008,0.005,0.016,0.01,0.024,0.016
		C104.298,168.347,102.074,169.553,98.792,170.146z M108.605,165.71c-0.003-0.002-0.006-0.004-0.009-0.007
		c-0.138-0.105-0.282-0.215-0.433-0.325c-0.042-0.031-0.087-0.063-0.131-0.094c-0.111-0.081-0.225-0.161-0.342-0.243
		c-0.06-0.042-0.122-0.083-0.184-0.126c-0.107-0.072-0.216-0.146-0.329-0.218c-0.069-0.046-0.137-0.09-0.208-0.135
		c-0.117-0.073-0.236-0.147-0.357-0.221c-0.068-0.04-0.134-0.081-0.204-0.122c-0.157-0.092-0.319-0.184-0.483-0.273
		c-0.036-0.019-0.069-0.039-0.104-0.058c-0.2-0.108-0.405-0.213-0.614-0.314c-0.06-0.029-0.122-0.057-0.182-0.085
		c-0.153-0.072-0.307-0.144-0.464-0.211c-0.076-0.033-0.154-0.063-0.232-0.096c-0.147-0.062-0.296-0.119-0.447-0.176
		c-0.046-0.017-0.09-0.036-0.136-0.054c0.971-0.45,1.738-1.08,2.452-1.669c1.22-1.004,2.274-1.87,4.26-1.871
		c0.001,0,0.001,0,0.001,0l0.289,0.006c0.121,0.005,0.238,0.013,0.353,0.023c0.663,0.061,1.234,0.22,1.739,0.482
		c0.637,0.331,1.141,0.806,1.676,1.311c0.447,0.421,0.918,0.863,1.486,1.249C113.067,163.213,110.814,164.381,108.605,165.71z
		 M122.615,160.621c-0.01,0.005-0.018,0.009-0.026,0.013c-0.8,0.406-1.622,0.474-2.596,0.499c-0.027,0.001-0.055-0.133-0.082-0.133
		c-0.035,0-0.071,0-0.106,0c-1.887,0-2.689-0.621-3.707-1.578c-0.588-0.555-1.254-1.114-2.156-1.591
		c0.74-0.321,1.307-0.721,1.837-1.124c0.42-0.319,0.821-0.607,1.301-0.855c0.077-0.04,0.156-0.07,0.237-0.107
		c0.62-0.28,1.336-0.437,2.209-0.489l0.054-0.002c0.069-0.003,0.14-0.005,0.208-0.007c0.06-0.002,0.12-0.003,0.179-0.004
		c1.821-0.011,2.987,0.616,4.313,1.345c0.604,0.332,1.23,0.676,1.951,0.976c0.218,0.09,0.436,0.174,0.653,0.248
		c-0.948,0.439-1.714,1.024-2.432,1.57C123.847,159.845,123.271,160.283,122.615,160.621z M134.037,163.712
		c-2.76-1.142-5.641-1.775-8.906-1.956c0.248-0.18,0.485-0.36,0.722-0.54c1.269-0.968,2.363-1.802,4.341-1.803
		c0.035,0.008,0.082,0,0.122,0.001c0.025,0.001,0.05,0.001,0.075,0.002c1.994,0.052,2.801,0.812,3.822,1.772
		c0.563,0.528,1.192,1.122,2.058,1.585C135.416,163.036,134.664,163.374,134.037,163.712z M145.45,167.313
		c-0.224,0.079-0.438,0.16-0.644,0.244c-0.047,0.019-0.092,0.037-0.138,0.056c-0.173,0.073-0.341,0.146-0.5,0.218
		c-0.04,0.019-0.082,0.036-0.122,0.055c-0.179,0.085-0.348,0.167-0.507,0.247c-0.042,0.021-0.08,0.042-0.121,0.063
		c-0.133,0.069-0.259,0.137-0.376,0.201c-0.015,0.009-0.035,0.019-0.051,0.027c-1.313-0.615-2.54-1.326-3.732-2.015
		c-0.797-0.46-1.609-0.72-2.464-1.174c0.801-0.263,1.718-0.235,2.718-0.235c0.001,0,0.001,0,0.002,0c0.226,0,0.454,0.02,0.707,0.041
		l0.094-1.041c0.002,0,0.004,0,0.006,0l-0.034,0.838c0.542,0.053,1.014,0.056,1.446,0.234c0.108,0.045,0.212,0.038,0.313,0.089
		c0.468,0.238,0.868,0.516,1.288,0.835c0.614,0.465,1.273,0.952,2.18,1.306C145.492,167.31,145.473,167.305,145.45,167.313z
		 M153.281,170.537c-2.759,0-5.1-0.305-7.302-0.965c0.023-0.009,0.046-0.018,0.069-0.026c0.072-0.027,0.146-0.054,0.223-0.079
		c0.071-0.025,0.143-0.051,0.217-0.075c0.078-0.025,0.157-0.051,0.236-0.075c0.075-0.023,0.15-0.047,0.229-0.07
		c0.082-0.023,0.167-0.046,0.252-0.068c0.078-0.021,0.154-0.043,0.235-0.063c0.087-0.021,0.179-0.04,0.269-0.061
		c0.08-0.019,0.157-0.037,0.239-0.053c0.095-0.02,0.192-0.036,0.291-0.055c0.078-0.014,0.156-0.028,0.236-0.041
		c0.104-0.016,0.211-0.029,0.317-0.043c0.076-0.011,0.151-0.021,0.229-0.029c0.118-0.013,0.24-0.021,0.361-0.03
		c0.067-0.005,0.134-0.013,0.201-0.017c0.191-0.01,0.383-0.016,0.578-0.016c0.184,0,0.368,0.014,0.556,0.035
		c0.062,0.008,0.123,0.019,0.185,0.028c0.127,0.019,0.253,0.039,0.381,0.067c0.072,0.016,0.145,0.034,0.217,0.052
		c0.118,0.03,0.237,0.062,0.356,0.098c0.073,0.022,0.147,0.045,0.222,0.07c0.119,0.04,0.239,0.083,0.357,0.128
		c0.07,0.027,0.141,0.053,0.211,0.081c0.132,0.055,0.261,0.111,0.391,0.17c0.056,0.025,0.111,0.048,0.167,0.074
		c0.183,0.086,0.362,0.177,0.54,0.271c0.04,0.021,0.077,0.043,0.116,0.064c0.141,0.076,0.278,0.152,0.415,0.232
		c0.065,0.037,0.129,0.076,0.192,0.115c0.108,0.064,0.215,0.129,0.319,0.194c0.025,0.016,0.05,0.033,0.075,0.049
		C154.353,170.524,153.826,170.537,153.281,170.537z M158.994,169.967c-0.243,0.055-0.484,0.104-0.726,0.149
		c-0.021-0.019-0.049-0.038-0.07-0.056c-0.127-0.102-0.258-0.205-0.396-0.311c-0.05-0.039-0.1-0.077-0.15-0.116
		c-0.155-0.118-0.317-0.238-0.486-0.36c-0.023-0.018-0.045-0.034-0.07-0.051c-0.189-0.137-0.387-0.271-0.591-0.408
		c-0.055-0.037-0.11-0.072-0.166-0.108c-0.16-0.105-0.324-0.208-0.491-0.312c-0.061-0.037-0.121-0.074-0.183-0.111
		c-0.222-0.133-0.446-0.263-0.677-0.388c-0.022-0.012-0.044-0.022-0.066-0.034c-0.208-0.112-0.421-0.219-0.636-0.322
		c-0.071-0.033-0.142-0.066-0.213-0.099c-0.187-0.086-0.375-0.167-0.566-0.244c-0.061-0.024-0.121-0.052-0.183-0.075
		c-0.244-0.095-0.49-0.182-0.739-0.258c-0.015-0.005-0.03-0.012-0.045-0.017c1.361-0.631,2.498-1.501,3.552-2.309
		c1.405-1.075,2.618-2.004,3.944-2.004c2.154,0,2.891,0.386,2.896,0.39c-0.002-0.002,0.067-0.149,0.067-0.539
		c0-0.002,0-0.004,0-0.005l0.273,0.019C161.536,165.788,159.892,168.36,158.994,169.967z M163.798,160.896
		c-0.012-0.007-0.022-0.013-0.034-0.02c-0.106-0.06-0.223-0.114-0.347-0.166c0.209-0.085,0.411-0.175,0.608-0.268
		C163.949,160.596,163.873,160.747,163.798,160.896z M166.073,156.297c-0.855,0.784-3.237,2.714-6.124,2.895
		c-0.05,0.003-0.098,0.005-0.146,0.007c-0.052,0.002-0.102,0.002-0.15,0.003c-1.278,0.002-1.953-0.437-2.865-1.061
		c-0.776-0.53-1.691-1.155-3.08-1.454c1.327-0.477,2.336-1.117,3.27-1.71c1.301-0.825,2.423-1.539,4.281-1.813
		c0.479-0.069,0.961-0.104,1.435-0.104c2.072,0,3.631,0.677,4.405,1.103C166.759,154.876,166.417,155.588,166.073,156.297z
		 M168.084,152.071c-0.851-0.451-2.225-1.026-4.001-1.237c1.39-0.644,2.298-1.545,3.084-2.323c0.704-0.698,1.313-1.301,2.176-1.671
		l-0.453-1.062l0.499,1.136c0.006-0.002,0.011,0.086,0.018,0.086c0,0,0.001,0,0.002,0c0.005,0,0.01,0,0.017,0c0,0,0.001,0,0.002,0
		s0.003-0.1,0.005-0.101c0.004-0.001,0.007-0.051,0.011-0.053c0.55-0.227,0.938-0.348,1.203-0.383
		C169.811,148.349,168.955,150.204,168.084,152.071z M171.864,143.657l-0.007-0.054c-0.271,0.029-0.54,0.045-0.804,0.046
		c0,0,0,0-0.001,0c-1.585-0.001-2.82-0.544-4.251-1.172c-1.026-0.451-2.14-0.939-3.462-1.235c0.706-0.426,1.227-0.932,1.717-1.408
		c0.88-0.854,1.575-1.529,3.442-1.737c0.446-0.048,0.894-0.073,1.329-0.073c1.837,0,3.204,0.432,4.066,0.824
		C173.233,140.451,172.556,142.055,171.864,143.657z M202.731,28.876c-3.556,5.043-7.982,11.319-10.571,23.117
		c-2.18,9.931-2.676,17.727-3.155,25.265c-0.691,10.862-1.407,22.095-7.207,40.113c-1.763,5.476-3.783,11.117-6.009,16.778
		c-1.353,0.443-4.014,1.184-6.717,1.185h-0.001c-0.217,0-0.433-0.005-0.648-0.015c2.044-4.604,8.668-20.526,10.424-37.223
		c0.543-5.16,0.796-9.618,0.796-14.029c0-2.371-0.07-4.485-0.139-6.531c-0.067-2.015-0.13-3.918-0.13-6.022
		c0-4.564,0.317-9.019,1.027-14.446c2.252-17.188,7.4-31.723,8.156-33.792c4.521-4.101,11.136-4.969,15.921-4.969
		c1.341,0,2.455,0.073,3.202,0.14C207.38,22.286,205.396,25.099,202.731,28.876z"/>
	<path d="M182.896,165.104c-7.155,0-10.589,2.067-14.223,4.255c-3.572,2.151-7.27,4.367-14.38,4.562
		c-0.332,0.009-0.664,0.019-1.012,0.019c-7.792,0-11.824-2.33-15.725-4.583c-3.781-2.187-7.356-4.252-14.441-4.252
		c-7.084,0-10.417,2.064-13.943,4.25c-3.639,2.254-7.401,4.585-15.12,4.585c-7.7,0-11.729-2.321-15.625-4.566
		c-0.113-0.065-0.227-0.129-0.339-0.194c-3.686-2.122-7.278-4.074-14.172-4.074c-7.856,0-12.096,2.404-16.431,4.729
		C46.573,170.32,45,170.803,45,171.256v53.873c0,0.119-0.065,0.238,0.025,0.357c1.249-0.942,3.103-2.135,4.798-2.978
		c3.232-1.608,8.262-3.524,14.154-3.524c5.271,0,9.089,1.829,13.164,3.766c4.707,2.236,9.559,4.55,17.445,4.55
		c6.348,0,9.899-1.899,13.665-3.91c4.057-2.165,8.249-4.405,15.938-4.405c7.162,0,11.499,2.241,15.694,4.408
		c3.889,2.009,7.562,3.907,13.398,3.907c6.327,0,10.707-2.236,14.942-4.398c3.947-2.015,7.675-3.917,12.593-3.917
		c7.948,0,15.684,3.497,18.988,4.99c0.196,0.089,0.188,0.18,0.366,0.259c0.012-0.016-0.172-0.032-0.172-0.049v-54.146
		c0-0.015,0.15-0.028,0.121-0.043C195.422,167.591,190.77,165.104,182.896,165.104z"/>
</g>
</svg>
