<?xml version="1.0" encoding="utf-8"?>
<!-- Generator: Adobe Illustrator 16.0.0, SVG Export Plug-In . SVG Version: 6.00 Build 0)  -->
<!DOCTYPE svg PUBLIC "-//W3C//DTD SVG 1.1//EN" "http://www.w3.org/Graphics/SVG/1.1/DTD/svg11.dtd">
<svg version="1.1" id="Layer_1" xmlns="http://www.w3.org/2000/svg" xmlns:xlink="http://www.w3.org/1999/xlink" x="0px" y="0px"
	 width="256px" height="256px" viewBox="0 0 256 256" enable-background="new 0 0 256 256" xml:space="preserve">
<path id="path3490" fill="#FFFFFF" stroke="#231F20" stroke-width="0.0603" stroke-linejoin="bevel" stroke-miterlimit="22.926" d="
	M64.609,189.502c0,0,0-0.002-0.004-0.002v0.002c0,0.004,0,0.004,0,0.004C64.609,189.506,64.609,189.506,64.609,189.502z"/>
<path id="path3492" fill="#FFFFFF" stroke="#231F20" stroke-width="0.0603" stroke-linejoin="bevel" stroke-miterlimit="22.926" d="
	M64.609,189.502c0,0,0-0.002-0.004-0.002v0.002c0,0.004,0,0.004,0,0.004C64.609,189.506,64.609,189.506,64.609,189.502z"/>
<path d="M211.716,122.875c5.828-13.141,5.21-26.37,1.751-39.988c-2.9-8.281-5.796-15.255-9.949-21.626l-8.283-9.512
	c-5.287-3.968-9.705-7.066-15.953-9.677l6.857,33.858l4.551,0.661c5.692,3.115,7.154,7.055,4.976,12.069
	c-0.454,1.993-2.267,5.238-5.046,6.169l-0.574,6.519c-1.105,4.193-3.732,8.205-8.188,11.439l-34.002,19.617l-1.576-6.76
	l-15.424-6.661l-5.579,6.098c-2.184,3.075-4.082,6.06-6.562,9.233c-2.337,4.109-4.675,8.029-6.721,12.332l-42.43,25.287
	l-7.822,3.596c-5.179,2.193-9.612,4.088-13.947,7.609c-3.245,2.756-5.194,5.396-7.351,9.521c-0.684,1.34-0.848,2.643,0.405,4.078
	c0.574,0.443,1.154,0.837,1.729,0.892l4.106,0.339l11.586,0.965l10.438,2.469l-11.833,3.06c-1.522,0.114-3.049,0.011-4.57-0.454
	c-1.145-0.273-2.152-0.854-3.252-1.482c-1.572-0.69-3.634-1.172-5.205-0.969c-2.415,0.678-2.776,1.625-2.415,4.799
	c0.324,1.123,0.444,1.435,1.117,2.321c3.343,2.123,6.634,3.695,10.093,4.979c3.491,0.246,6.994,0.27,10.491,0.07l41.199-4.711
	c2.491,2.041,4.92,3.514,7.472,4.767c10.716,4.483,19.548,2.377,30.021-2.835c2.972-1.75,4.722-3.028,6.939-4.68
	c-6.572-0.771-12.201-1.391-18.772-2.879l-5.573-3.113c7.236-2.649,13.624-5.766,20.57-9.914c3.857-2.572,7.717-5.139,11.574-7.711
	l10.812-9.58l20.001-4.038c6.167-1.993,11.012-4.642,14.618-9.097l3.858-6.857l-17.291,1.044l6.574-6.283
	C203.686,139.832,207.605,131.83,211.716,122.875z M60.479,192.105c-1.358,0-2.463-1.107-2.463-2.465
	c0-1.361,1.105-2.461,2.463-2.461c1.363,0,2.469,1.1,2.469,2.461C62.948,190.998,61.842,192.105,60.479,192.105z"/>
<path id="path3496" fill="#742E09" d="M144.923,24.743h-1.663L40.2,189.428c-0.378,0.963-0.192,2.053,0.487,2.829
	c0.788-1.767,1.789-3.437,2.977-4.964L144.923,24.743"/>
<path id="path3498" stroke="#742E09" stroke-width="0.1396" stroke-miterlimit="22.926" d="M144.923,24.743h-1.663L40.2,189.428
	c-0.378,0.963-0.192,2.053,0.487,2.829c0.788-1.767,1.789-3.437,2.977-4.964L144.923,24.743z"/>
</svg>
