<?xml version="1.0" encoding="utf-8"?>
<!-- Generator: Adobe Illustrator 16.0.0, SVG Export Plug-In . SVG Version: 6.00 Build 0)  -->
<!DOCTYPE svg PUBLIC "-//W3C//DTD SVG 1.1//EN" "http://www.w3.org/Graphics/SVG/1.1/DTD/svg11.dtd">
<svg version="1.1" id="Layer_1" xmlns="http://www.w3.org/2000/svg" xmlns:xlink="http://www.w3.org/1999/xlink" x="0px" y="0px"
	 width="256px" height="256px" viewBox="0 0 256 256" enable-background="new 0 0 256 256" xml:space="preserve">
<path id="path3018" d="M110,130.045l-61.561,57.95l-2.149,3.64l-1.021,4.15l0.17,4.199l1.301,4.031l3.97,4.949l3.62,2.221l6.24,1.14
	l4.14-0.74l5.5-3.19l56.68-60.109l56.29,60.4l3.621,2.16l4.08,1.01l6.23-0.74l5.439-3.17l2.67-3.301l1.98-5.97l-0.621-6.31
	l-1.811-3.811l-61.338-57.9l19.049-20.239l5.1,1.31l5.27,0.22l5.221-0.85l4.869-1.93l4.361-2.89l28.34-28.55l1.76-4.55l-1.988-4.49
	l-2.092-1.31l-4.82,0.05l-2.1,1.37l-25.51,25.87l-2.711,0.97l-1.809-0.91l-0.91-2.79l0.91-1.76l25.67-25.76l1.359-2.1l0.391-3.7
	l-0.961-2.32l-2.879-2.33l-3.691-0.34l-3.279,1.7l-26.42,26.32l-1.98,0.34l-1.76-0.9l-0.91-2.73l0.91-1.82l25.561-25.7l1.359-2.11
	l0.51-2.44l-0.51-2.45l-0.619-1.13l-0.791-0.97l-2.029-1.37l-2.439-0.5l-2.5,0.5l-2.041,1.43l-25.9,26.04l-1.809,1.99l-1.65,2.11
	l-1.361,2.33l-2.139,3.75l-1.25,5.03l0.439,4.13l0.68,5.28l0.801,2.56l-20.75,19.62l-10.6-10.01l1.81-5.4l0.74-5.63l-0.34-5.68
	l-1.53-5.52l-1.3-3.75l-2.83-3.7l-10.99-10.69l-7.77-5.57l-8.391-4.67l-8.899-3.57l-6.74-2.16l-6.86-0.85l-6.74,1.65l-3.909,2.37
	l-3.29,3.3l-2.44,3.93l-1.359,4.43l-0.341,4.61l0.8,4.61l1.24,4.77l1.59,4.72l3.91,9.09l4.98,8.53l2.89,4.04l3.12,3.87l3.34,3.64
	l3.58,3.47l2.32,1.75l5.09,2.9l5.61,1.82l5.79,0.68l5.829-0.45l5.671-1.6l9.64,10.47"/>
</svg>
