<?xml version="1.0" encoding="utf-8"?>
<!-- Generator: Adobe Illustrator 14.0.0, SVG Export Plug-In . SVG Version: 6.00 Build 43363)  -->
<!DOCTYPE svg PUBLIC "-//W3C//DTD SVG 1.1//EN" "http://www.w3.org/Graphics/SVG/1.1/DTD/svg11.dtd">
<svg version="1.1" id="Ebene_1" xmlns="http://www.w3.org/2000/svg" xmlns:xlink="http://www.w3.org/1999/xlink" x="0px" y="0px"
	 width="520.72px" height="347px" viewBox="0 0 520.72 347" enable-background="new 0 0 520.72 347" xml:space="preserve">
<g>
	<g>
		<circle cx="64.243" cy="109.363" r="52.188"/>
		<path d="M64.243,109.364"/>
	</g>
	<g>
		<circle fill="#FFFFFF" cx="64.243" cy="109.363" r="33.21"/>
		<path fill="#FFFFFF" d="M64.243,109.364"/>
	</g>
	<g>
		<g>
			<path d="M232.14,276.621c-39.939,0-39.939,53.676,0,53.676H463c38.732,0,38.732-53.676,0-53.676H232.14z"/>
		</g>
		<g>
			<g>
				<rect x="279.76" y="43.165" width="20.608" height="48.884"/>
				<path d="M290.063,67.607"/>
			</g>
			<g>
				<rect x="248.609" y="33.997" width="83.388" height="10.544"/>
				<path d="M290.304,39.269"/>
			</g>
			<g>
				<path d="M339.185,26.808h133.107c17.732,0,17.732,25.401,0,25.401H339.185C321.932,52.209,321.932,26.808,339.185,26.808z"/>
			</g>
			<g>
				<path d="M108.375,26.808h131.608c17.732,0,17.732,25.401,0,25.401H108.375C89.631,52.209,89.365,26.808,108.375,26.808z"/>
			</g>
		</g>
		<g>
			<path d="M252.775,242.115c-17.096,0-25.644-12.461-28.493-23.004l-13.297-33.548L58.971,125.179C40.5,118,45,90.673,66,90.673
				h330.191C433,90.673,453.5,112.75,463,136.25l26.5,64.5c9.5,22-6.574,41.25-30.25,41.365H252.775z"/>
		</g>
	</g>
	<g>
		<g>
			<rect x="300.689" y="111.485" fill="#FFFFFF" width="35.615" height="57.029"/>
			<path fill="#FFFFFF" d="M318.496,140"/>
		</g>
		<g>
			<rect x="357.449" y="111.485" fill="#FFFFFF" width="35.142" height="57.029"/>
			<path fill="#FFFFFF" d="M375.02,140"/>
		</g>
		<g>
			<path fill="#FFFFFF" d="M414.237,113.75c11.013,2.656,22.013,12.5,29.263,28.75l11.25,26.25h-40.513V113.75z"/>
		</g>
	</g>
</g>
</svg>
