<?xml version="1.0" encoding="utf-8"?>
<!-- Generator: Adobe Illustrator 14.0.0, SVG Export Plug-In . SVG Version: 6.00 Build 43363)  -->
<!DOCTYPE svg PUBLIC "-//W3C//DTD SVG 1.1//EN" "http://www.w3.org/Graphics/SVG/1.1/DTD/svg11.dtd">
<svg version="1.1" id="Ebene_1" xmlns="http://www.w3.org/2000/svg" xmlns:xlink="http://www.w3.org/1999/xlink" x="0px" y="0px"
	 width="512px" height="512px" viewBox="0 0 512 512" enable-background="new 0 0 512 512" xml:space="preserve">
<g>
	<g>
		<path d="M256.944,92.349c18.052,1.681,34.288-14.171,36.267-35.408c1.979-21.237-11.052-39.816-29.104-41.497
			c-5.869-0.547-11.547,0.76-16.604,3.504c-7.746,4.201-13.328,11.511-15.341,20.09c-2.015,8.579-0.26,17.605,4.801,24.82
			L256.944,92.349z"/>
	</g>
	<g>
		<path d="M212.158,274.593l-0.368,23.848l-0.434,26.312l-0.395,21.521l-13.155,17.76l-9.092,12.336l-8.971,12.442l-4.488,6.222
			c-1.495,2.075-3.005,4.136-4.526,6.187c-1.519,2.055-3.055,4.09-4.603,6.116s-3.118,4.033-4.695,6.033
			c-1.59,1.989-3.178,3.979-4.797,5.94c-1.605,1.977-3.244,3.92-4.881,5.865c-1.663,1.922-3.501,3.688-5.565,5.247
			c-1.031,0.78-2.129,1.502-3.296,2.16c-1.176,0.65-2.399,1.257-3.817,1.688c-1.108,0.344-2.207,0.926-3.144,1.729
			c-3.648,3.136-4.063,8.637-0.928,12.286l3.654,4.251c0.79,0.919,1.609,1.812,2.438,2.698c0.831,0.884,1.675,1.757,2.532,2.618
			c1.711,1.729,3.462,3.424,5.244,5.094c1.778,1.671,3.596,3.312,5.433,4.936c1.838,1.624,3.68,3.243,5.561,4.832l2.915,2.463
			c0.709,0.601,1.612,0.979,2.611,1.028c1.514,0.075,3.019,0.18,4.538,0.228c1.519,0.055,3.03,0.134,4.555,0.158
			c1.521,0.042,3.045,0.073,4.574,0.08c1.528,0.015,3.063,0.001,4.604-0.036c2.262-0.061,4.447-1.271,5.642-3.385
			c1.812-3.205,0.682-7.272-2.523-9.083c-1.342-0.758-2.689-1.494-4.045-2.199c-1.353-0.714-2.712-1.405-4.073-2.083
			c-1.114-0.569-2.238-1.105-3.359-1.648c-0.985-1.738-1.985-3.466-2.994-5.184c-1.241-2.115-2.504-4.212-3.803-6.277
			c-1.008-1.606-2.04-3.192-3.089-4.766c0.691-0.873,1.414-1.718,2.176-2.525c1.771-1.825,3.538-3.653,5.34-5.45
			c1.789-1.811,3.607-3.592,5.425-5.374c1.83-1.772,3.667-3.538,5.526-5.284c1.859-1.745,3.729-3.48,5.617-5.199
			c1.887-1.721,3.784-3.432,5.696-5.129l5.733-5.096l11.47-10.188l11.351-10.297l22.646-20.64c2.272-2.069,3.916-4.873,4.52-8.128
			l0.651-3.525l0.251-1.354c-1.639-2.768-3.415-5.68-5.286-8.744C235.905,327.658,222.305,305.374,212.158,274.593"/>
	</g>
	<g>
		<path d="M351.812,480.192c-1.943-0.747-3.894-1.438-5.847-2.107c-0.977-0.345-1.954-0.66-2.933-0.985
			c-0.979-0.322-1.955-0.651-2.936-0.955l-2.938-0.928c-0.979-0.312-1.962-0.595-2.942-0.895c-1.961-0.597-3.924-1.178-5.891-1.736
			s-3.933-1.11-5.901-1.637c-1.971-0.521-3.942-1.024-5.919-1.491c-1.191-0.282-2.383-0.551-3.577-0.81
			c-0.204-1.349-0.336-2.701-0.404-4.059c-0.094-2.616-0.19-5.23-0.24-7.849c-0.066-2.617-0.094-5.238-0.118-7.858
			c-0.011-2.621-0.01-5.243,0.021-7.867c0.031-2.624,0.078-5.249,0.148-7.876c0.133-5.254,0.347-10.513,0.539-15.77l0.292-7.888
			l0.258-7.885c0.148-5.254,0.235-10.504,0.333-15.755l0.595-31.505c0-0.066-0.007-0.139-0.024-0.207l-1.816-6.916
			c-0.617-2.349-1.314-4.66-2.01-6.973c-0.715-2.305-1.432-4.606-2.189-6.891c-1.487-4.579-3.068-9.115-4.692-13.632
			c-3.259-9.028-6.728-17.958-10.36-26.811c-0.909-2.214-1.824-4.425-2.756-6.626c-0.92-2.208-1.874-4.4-2.812-6.602
			c-1.899-4.387-3.825-8.763-5.798-13.117c-0.982-2.178-1.97-4.354-2.977-6.521c-0.996-2.173-2.009-4.338-3.027-6.499
			c-1.815-3.869-3.667-7.722-5.538-11.565l-0.145-0.56l-2.748-10.66l15.847-98.5c1.059-6.576-0.79-13.288-5.066-18.395
			c-4.274-5.108-10.559-8.108-17.219-8.222l-19.711-0.34c-2.296-0.039-4.569,0.164-6.788,0.594l-26.199-4.624
			c-2.37-0.418-4.787-0.63-7.184-0.63c-16.61,0-31.518,9.898-37.976,25.216l-32.951,78.161c-3.605,8.552-2.761,18.317,2.258,26.122
			c5.02,7.805,13.554,12.626,22.83,12.894l11.898,0.344l0.155-14.953l-11.622-0.337c-4.342-0.125-8.336-2.381-10.685-6.035
			c-2.35-3.653-2.745-8.224-1.057-12.226l32.95-78.162c4.116-9.763,13.614-16.072,24.198-16.072c1.528,0,3.07,0.135,4.584,0.402
			l9.426,1.664c-0.945,1.191-1.803,2.442-2.569,3.741l2.41-3.237l-36.74,61.456l-2.34,3.915l-0.076,3.657l-1.715,82.33l-0.192,9.219
			l5.771,2.254l15.892,6.206l11.293-15.023l-4.714-6.151l1.535-73.699l41.359-53.819l-32.148,53.246
			c2.825,74.142,28.84,116.781,46.386,145.531c4.002,6.557,7.594,12.442,10.483,17.953c0.646,1.019,1.297,2.033,1.948,3.05
			c1.033,1.58,2.067,3.16,3.138,4.724l4.079,25.29c0.833,5.186,1.656,10.371,2.543,15.552l1.363,7.771l1.397,7.767
			c0.929,5.179,1.88,10.355,2.75,15.538c0.438,2.591,0.854,5.184,1.254,7.777c0.398,2.594,0.768,5.188,1.127,7.786
			c0.342,2.598,0.685,5.194,0.985,7.797c0.319,2.599,0.591,5.202,0.863,7.804c0.239,2.605,0.243,5.228-0.058,7.87
			c-0.151,1.322-0.388,2.649-0.719,3.983c-0.346,1.335-0.753,2.676-1.422,4.032c-0.438,0.896-0.74,1.91-0.846,2.959
			c-0.466,4.73,2.99,8.943,7.722,9.41l42.093-0.132c1.021-0.071,2.05-0.167,3.075-0.258c1.025-0.092,2.052-0.176,3.079-0.288
			c2.055-0.204,4.11-0.432,6.176-0.713c2.312-0.321,4.396-1.858,5.294-4.193C356.939,485.346,355.232,481.507,351.812,480.192"/>
	</g>
	<g>
		<path d="M391.656,137.646l0.274,52.03l-2.619,1.632l-6.313,3.933l-45.407-16.291l-45.003-50.504v42.044l26.488,29.726
			c1.497,1.669,3.46,3.05,5.719,3.86l54.352,19.501l3.338,1.198c3.399,1.211,7.077,0.371,9.622-1.931L393.544,495h6.192
			l1.889-357.354H391.656z"/>
	</g>
</g>
</svg>
