<?xml version="1.0" encoding="utf-8"?>
<!-- Generator: Adobe Illustrator 16.0.0, SVG Export Plug-In . SVG Version: 6.00 Build 0)  -->
<!DOCTYPE svg PUBLIC "-//W3C//DTD SVG 1.1//EN" "http://www.w3.org/Graphics/SVG/1.1/DTD/svg11.dtd">
<svg version="1.1" id="Layer_1" xmlns="http://www.w3.org/2000/svg" xmlns:xlink="http://www.w3.org/1999/xlink" x="0px" y="0px"
	 width="256px" height="256px" viewBox="0 0 256 256" enable-background="new 0 0 256 256" xml:space="preserve">
<g>
	<path id="path501" d="M25.288,94.678v79.363h16.42v-16.326h180.725v16.326h16.426l-0.018-101.218c0-4.526-3.664-8.201-8.192-8.208
		c-4.527-0.013-8.21,3.649-8.227,8.176v31.944c-3.015,16.824-16.887,29.579-33.917,31.155H41.708V94.678
		c-0.008-4.529-3.682-8.198-8.213-8.198C28.966,86.48,25.293,90.148,25.288,94.678"/>
	<path id="path503" d="M179.809,124.064c3.918,4.956,14.533,3.093,23.718-4.163c9.183-7.258,13.443-17.153,9.522-22.111
		c-3.913-4.963-14.533-3.097-23.718,4.152C180.158,109.201,175.885,119.103,179.809,124.064"/>
	<path id="path505" d="M112.235,127.821H58.27c-2.246,0.063-4.402-0.882-5.874-2.575c-1.471-1.69-2.109-3.948-1.742-6.164
		c0.674-4.375,3.549-8.087,7.616-9.829c34.985-11.957,72.942-11.957,107.922,0c4.065,1.742,6.949,5.454,7.615,9.829
		c0.41,2.216-0.213,4.502-1.699,6.205c-1.481,1.701-3.663,2.632-5.916,2.533H112.235"/>
</g>
</svg>
