<?xml version="1.0" encoding="utf-8"?>
<!-- Generator: Adobe Illustrator 14.0.0, SVG Export Plug-In . SVG Version: 6.00 Build 43363)  -->
<!DOCTYPE svg PUBLIC "-//W3C//DTD SVG 1.1//EN" "http://www.w3.org/Graphics/SVG/1.1/DTD/svg11.dtd">
<svg version="1.1"
	 id="svg2" xmlns:svg="http://www.w3.org/2000/svg" sodipodi:docname="sport_windsurfing.svg" xmlns:dc="http://purl.org/dc/elements/1.1/" inkscape:version="0.47 r22583" xmlns:sodipodi="http://sodipodi.sourceforge.net/DTD/sodipodi-0.dtd" xmlns:inkscape="http://www.inkscape.org/namespaces/inkscape" xmlns:cc="http://creativecommons.org/ns#" sodipodi:version="0.32" xmlns:rdf="http://www.w3.org/1999/02/22-rdf-syntax-ns#" inkscape:output_extension="org.inkscape.output.svg.inkscape"
	 xmlns="http://www.w3.org/2000/svg" xmlns:xlink="http://www.w3.org/1999/xlink" x="0px" y="0px" width="580px" height="580px"
	 viewBox="0 0 580 580" enable-background="new 0 0 580 580" xml:space="preserve">
<sodipodi:namedview  id="base" inkscape:window-maximized="1" showgrid="false" inkscape:current-layer="svg2" inkscape:window-y="-4" inkscape:window-x="1276" inkscape:cy="512.61322" inkscape:cx="294.77108" inkscape:zoom="0.65172414" pagecolor="#ffffff" bordercolor="#666666" borderopacity="1.0" objecttolerance="10.0" inkscape:window-height="941" gridtolerance="10.0" guidetolerance="10.0" inkscape:window-width="1280" inkscape:pageshadow="2" inkscape:pageopacity="0.0">
	</sodipodi:namedview>
<defs>
	
	
		<inkscape:perspective  id="perspective2441" inkscape:persp3d-origin="290 : 193.33333 : 1" inkscape:vp_z="580 : 290 : 1" inkscape:vp_y="6.1230318e-14 : 1000 : 0" inkscape:vp_x="0 : 290 : 1" sodipodi:type="inkscape:persp3d">
		</inkscape:perspective>
	
		<inkscape:perspective  id="perspective3452" inkscape:persp3d-origin="30 : 20 : 1" inkscape:vp_z="60 : 30 : 1" inkscape:vp_y="0 : 1000 : 0" inkscape:vp_x="0 : 30 : 1" sodipodi:type="inkscape:persp3d">
		</inkscape:perspective>
	
		<inkscape:perspective  id="perspective4471" inkscape:persp3d-origin="372.04724 : 350.78739 : 1" inkscape:vp_z="744.09448 : 526.18109 : 1" inkscape:vp_y="0 : 1000 : 0" inkscape:vp_x="0 : 526.18109 : 1" sodipodi:type="inkscape:persp3d">
		</inkscape:perspective>
	
		<inkscape:perspective  id="perspective4668" inkscape:persp3d-origin="6 : 4 : 1" inkscape:vp_z="12 : 6 : 1" inkscape:vp_y="0 : 1000 : 0" inkscape:vp_x="0 : 6 : 1" sodipodi:type="inkscape:persp3d">
		</inkscape:perspective>
	
		<inkscape:perspective  id="perspective3826" inkscape:persp3d-origin="0.5 : 0.33333333 : 1" inkscape:vp_z="1 : 0.5 : 1" inkscape:vp_y="0 : 1000 : 0" inkscape:vp_x="0 : 0.5 : 1" sodipodi:type="inkscape:persp3d">
		</inkscape:perspective>
	
		<inkscape:perspective  id="perspective3855" inkscape:persp3d-origin="0.5 : 0.33333333 : 1" inkscape:vp_z="1 : 0.5 : 1" inkscape:vp_y="0 : 1000 : 0" inkscape:vp_x="0 : 0.5 : 1" sodipodi:type="inkscape:persp3d">
		</inkscape:perspective>
	
		<inkscape:perspective  id="perspective3909" inkscape:persp3d-origin="0.5 : 0.33333333 : 1" inkscape:vp_z="1 : 0.5 : 1" inkscape:vp_y="0 : 1000 : 0" inkscape:vp_x="0 : 0.5 : 1" sodipodi:type="inkscape:persp3d">
		</inkscape:perspective>
	
		<inkscape:perspective  id="perspective11014" inkscape:persp3d-origin="0.5 : 0.33333333 : 1" inkscape:vp_z="1 : 0.5 : 1" inkscape:vp_y="0 : 1000 : 0" inkscape:vp_x="0 : 0.5 : 1" sodipodi:type="inkscape:persp3d">
		</inkscape:perspective>
	
		<inkscape:perspective  id="perspective11066" inkscape:persp3d-origin="0.5 : 0.33333333 : 1" inkscape:vp_z="1 : 0.5 : 1" inkscape:vp_y="0 : 1000 : 0" inkscape:vp_x="0 : 0.5 : 1" sodipodi:type="inkscape:persp3d">
		</inkscape:perspective>
</defs>
<g id="g1327">
	<path id="path1329" stroke="#EEEEEE" stroke-width="3.408" d="M66.275,1.768c-41.335,0-64.57,21.371-64.57,65.036
		v450.123c0,40.845,20.895,62.229,62.191,62.229h452.025c41.306,0,62.229-20.315,62.229-62.229V66.804
		c0-42.601-20.923-65.036-63.521-65.036C514.624,1.768,66.133,1.625,66.275,1.768z"/>
</g>
<g id="g3338" transform="matrix(1.3973279,-0.2437849,0.2437849,1.3973279,-185.07402,-56.183307)">
</g>
<g id="g11108" transform="matrix(1.6413845,0,0,1.6413845,-169.66007,733.43926)">
	
		<circle id="circle5993" sodipodi:rx="0.69400001" sodipodi:cx="22.254" sodipodi:ry="0.69400001" sodipodi:cy="304.478" fill="#FFFFFF" cx="394.612" cy="-393.417" r="27.631">
	</circle>
	<path id="path5995" fill="#FFFFFF" d="M316.098-130.007h71.386c0,0,5.415,0.557,5.415-5.096v-5.653h10.55
		c0,0,2.429,19.31-11.984,21.141h-75.367V-130.007z"/>
	<path id="path5997" fill="#FFFFFF" d="M138.011-185.189l50.524,50.484c0,0,3.384,4.141,7.406,0.199l4.021-4.021l7.445,7.485
		c0,0-11.984,15.408-23.45,6.529l-53.231-53.271L138.011-185.189z"/>
	<path id="path5999" fill="#FFFFFF" d="M332.899-202.787l0.08,50.046c0,9.396,7.604,17.04,17.08,17.04c8.6,0,17-9.953,17-17.04
		v-69.634c0-4.857-2.031-9.237-5.295-12.382l-40.85-40.73l54.187-54.187c10.192-12.701,4.817-27.949,4.817-27.949
		c-5.653-16.921-24.804-17.478-24.804-17.478l-139.707-0.04c-7.445,0-13.497,6.012-13.497,13.497
		c0,7.485,6.051,13.497,13.497,13.497l96.469,0.159l-40.65,40.451c-5.813,5.932-8.759,12.621-8.759,21.38
		c0,8.401,3.345,15.886,8.918,21.38L332.899-202.787z"/>
	<path id="path6001" fill="#FFFFFF" d="M262.748-257.212c-1.274-1.235-2.468-2.588-3.544-4.061l-80.584,80.742
		c-6.091,4.897-8.082,13.537-4.419,20.743c4.181,8.241,14.333,11.506,22.575,7.286c1.115-0.597,2.15-1.274,3.106-2.07l82.733-82.853
		L262.748-257.212z"/>
</g>
</svg>
