<?xml version="1.0" encoding="utf-8"?>
<!-- Generator: Adobe Illustrator 14.0.0, SVG Export Plug-In . SVG Version: 6.00 Build 43363)  -->
<!DOCTYPE svg PUBLIC "-//W3C//DTD SVG 1.1//EN" "http://www.w3.org/Graphics/SVG/1.1/DTD/svg11.dtd">
<svg version="1.1" id="Ebene_1" xmlns="http://www.w3.org/2000/svg" xmlns:xlink="http://www.w3.org/1999/xlink" x="0px" y="0px"
	 width="498.078px" height="299.02px" viewBox="0 0 498.078 299.02" enable-background="new 0 0 498.078 299.02"
	 xml:space="preserve">
<path fill="none" d="M-6.64-100.851"/>
<path fill="none" d="M-6.64,411.149"/>
<path d="M241.496,76.217c10.141,0.945,19.266-7.962,20.377-19.895c1.111-11.932-6.211-22.372-16.354-23.316
	c-3.298-0.308-6.489,0.427-9.331,1.969c-4.353,2.361-7.488,6.468-8.619,11.288c-1.131,4.821-0.146,9.892,2.698,13.945
	L241.496,76.217z"/>
<path fill="none" d="M-6.64-100.851"/>
<path fill="none" d="M-6.64,411.149"/>
<path d="M491.074,168.798l-173.652-12.362l-46.467-0.918l-7.178,6.507c12.57,1.393,53.645,6.396,53.645,12.355
	c0,7.039-25.637,7.006-57.26,7.006"/>
<path d="M260.162,181.386c-6.807,0-12.662,0-17.667-0.067l-11.576,10.494h156.207l103.949-23.015"/>
<path fill="none" d="M-6.64-100.851"/>
<path fill="none" d="M-6.64,411.149"/>
<path d="M261.523,114.02l8.535,4.797c1.424,0.801,3.109,1.168,4.854,0.944l7.342-0.945l20.373-18.467l-27.137,3.492l-13.967-7.849
	V114.02L261.523,114.02z"/>
<path fill="none" d="M-6.64-100.851"/>
<path fill="none" d="M-6.64,411.149"/>
<path d="M487.029,176.804l-99.145,21.953H223.258l-22.34,20.252c7.666,0.358,13.604,0.539,17.045,0.539h104.482
	c24.012,0,121.812-8.779,142.92-25.541"/>
<path fill="none" d="M-6.64-100.851"/>
<path fill="none" d="M-6.64,411.149"/>
<path d="M163.004,191.813h38.728l14.185-12.859l-12.933-23.834L9.525,164.57l58.819,15.205
	C99.242,187.763,131.09,191.813,163.004,191.813"/>
<path fill="none" d="M-6.64-100.851"/>
<path fill="none" d="M-6.64,411.149"/>
<path d="M179.011,212.408l15.06-13.65h-31.067c-32.499,0-64.932-4.124-96.397-12.259l-57.246-14.8l33.038,24.72
	c13.549,10.14,76.954,17.039,124.464,20.515C171.596,214.69,175.653,213.182,179.011,212.408"/>
<path d="M411.117,11.149c-11.033,0-41.088,19.684-46.883,24.938c-5.25,4.76-23.432,27.445-27.439,39.683l-102.753,93.148
	l-0.194-0.093l-17.419-35.673l17.643-29.037l-11.879,28.233l13.765,28.437l15.491-14.042l5.6-48.664
	c0.416-3.618-0.715-7.243-3.115-9.982c-2.398-2.739-5.846-4.336-9.486-4.399l-11.507-0.198c-5.152-0.089-10.105,1.99-13.65,5.73
	c-2.09,2.203-3.571,4.866-4.366,7.732l0.184,0.031l-14.562,32.094l-1.729,3.809l1.615,3.309l20.303,41.578l1.083,2.219
	l-41.44,37.566c-12.572,2.795-36.926,18.667-42.175,23.426c-6.562,5.948-34.569,41.027-28.621,47.59
	c0.694,0.766,1.82,1.108,3.277,1.108c11.031,0,41.087-19.684,46.883-24.938c5.25-4.762,23.431-27.447,27.439-39.687l48.465-43.934
	l0.358-0.037l0.06-0.342l107.533-97.483c12.572-2.793,36.928-18.666,42.178-23.426c6.562-5.948,34.57-41.028,28.621-47.589"/>
<polygon points="235.607,100.465 235.537,100.631 235.042,100.37 "/>
</svg>
