<?xml version="1.0" encoding="utf-8"?>
<!-- Generator: Adobe Illustrator 16.0.0, SVG Export Plug-In . SVG Version: 6.00 Build 0)  -->
<!DOCTYPE svg PUBLIC "-//W3C//DTD SVG 1.1//EN" "http://www.w3.org/Graphics/SVG/1.1/DTD/svg11.dtd">
<svg version="1.1" id="Layer_1" xmlns="http://www.w3.org/2000/svg" xmlns:xlink="http://www.w3.org/1999/xlink" x="0px" y="0px"
	 width="256px" height="256px" viewBox="0 0 256 256" enable-background="new 0 0 256 256" xml:space="preserve">
<g>
	<g>
		<path fill-rule="evenodd" clip-rule="evenodd" fill="none" d="M257.931,257.931c-85.669,0-171.3,0-256.893,0
			c0-85.669,0-171.3,0-256.894c85.668,0,171.299,0,256.893,0C257.931,86.706,257.931,172.337,257.931,257.931z M46.278,203.624
			c-0.217,4.633-0.458,8.783-0.597,12.938c-0.293,8.807-0.547,17.616-0.787,26.425c-0.072,2.633,1.39,4.198,3.591,5.508
			c3.809,2.268,7.981,2.203,12.11,2.196c18.481-0.028,36.961-0.275,55.441-0.247c12.319,0.019,24.64,0.462,36.959,0.543
			c12.826,0.084,25.654,0.027,38.479-0.107c5.156-0.054,10.338-0.207,15.451-0.806c5.982-0.7,8.304-3.194,8.198-9.179
			c-0.22-12.454-0.83-24.903-1.271-37.13c-1.408-1.252-2.514-2.234-3.64-3.235c-0.817-5.582-1.564-6.313-7.403-7.556
			c-1.452-0.309-3.257-0.43-4.212-1.351c-3.613-3.483-7.989-3.637-12.55-3.677c-5.599-0.049-11.195-0.324-16.952-0.508
			c0-18.512,0-36.298,0-54.227c8.319-3.449,17.68-3.158,25.841-7.507c-0.274-2.943-0.294-5.563,2.278-7.344
			c0.513-0.354,0.595-1.511,0.65-2.313c0.383-5.467,0.827-10.935,1.019-16.41c0.315-8.991,0.485-17.988,0.643-26.983
			c0.03-1.766-0.275-3.539-0.463-5.737c-9.766-2.048-19.227-4.031-29.594-6.205c5.334-3.819,5.474-8.579,5.667-13.515
			c0.133-3.418-1.128-5.902-3.645-7.722c-11.802-8.534-23.679-16.961-35.557-25.389c-0.931-0.661-2.067-1.032-2.815-1.395
			c3.292-5.141,3.388-7.051,1.174-9.128c-1.937-1.815-5.747-2.185-7.871-0.507c-0.979,0.774-2.22,2.108-2.159,3.117
			c0.12,1.997,1.062,3.945,1.731,6.13c-0.325,0.345-0.705,0.903-1.22,1.273c-11.828,8.511-23.624,17.065-35.54,25.45
			c-3.176,2.234-4.858,4.822-4.287,8.764c0.332,2.289,0.035,4.755,0.783,6.873c0.767,2.17,2.461,4.013,3.922,6.265
			c-9.717,2.02-19.117,3.972-28.821,5.988c-0.155,2.449-0.444,4.397-0.375,6.333c0.496,13.8,0.993,27.601,1.69,41.391
			c0.104,2.074,1.257,4.095,1.924,6.14c0.258-0.069,0.516-0.139,0.774-0.208c0.201,1.784,0.401,3.568,0.683,6.071
			c8.42,2.1,16.879,4.209,25.326,6.317c0,18.267,0,36.054,0,54.15c-1.955,0.251-3.74,0.626-5.535,0.682
			c-4.829,0.149-9.685-0.097-14.483,0.332c-2.708,0.241-5.356,1.41-7.969,2.336c-1.984,0.703-3.795,2-5.814,2.479
			c-5.61,1.329-6.458,2.068-7.329,7.601C48.557,201.584,47.456,202.569,46.278,203.624z"/>
		<path fill-rule="evenodd" clip-rule="evenodd" d="M46.278,203.624c1.178-1.055,2.279-2.04,3.445-3.083
			c0.871-5.532,1.719-6.271,7.329-7.601c2.02-0.479,3.83-1.775,5.814-2.479c2.613-0.926,5.261-2.095,7.969-2.336
			c4.799-0.429,9.655-0.183,14.483-0.332c1.795-0.056,3.58-0.431,5.535-0.682c0-18.097,0-35.884,0-54.15
			c-8.447-2.107-16.906-4.217-25.326-6.317c-0.281-2.503-0.482-4.288-0.683-6.071c-0.258,0.069-0.516,0.139-0.774,0.208
			c-0.667-2.045-1.82-4.066-1.924-6.14c-0.697-13.79-1.194-27.591-1.69-41.391c-0.069-1.936,0.22-3.884,0.375-6.333
			c9.704-2.016,19.104-3.968,28.821-5.988c-1.461-2.251-3.156-4.094-3.922-6.265c-0.748-2.118-0.451-4.584-0.783-6.873
			c-0.571-3.942,1.111-6.53,4.287-8.764c11.916-8.385,23.712-16.939,35.54-25.45c0.515-0.37,0.896-0.928,1.22-1.273
			c-0.669-2.186-1.611-4.133-1.731-6.13c-0.061-1.008,1.18-2.342,2.159-3.117c2.124-1.678,5.935-1.308,7.871,0.507
			c2.214,2.077,2.118,3.987-1.174,9.128c0.748,0.363,1.885,0.734,2.815,1.395c11.878,8.428,23.755,16.854,35.557,25.389
			c2.517,1.82,3.777,4.303,3.645,7.722c-0.193,4.936-0.333,9.696-5.667,13.515c10.367,2.174,19.828,4.157,29.594,6.205
			c0.188,2.199,0.493,3.971,0.463,5.737c-0.157,8.995-0.327,17.992-0.643,26.983c-0.191,5.475-0.636,10.943-1.019,16.41
			c-0.056,0.803-0.138,1.959-0.65,2.313c-2.572,1.781-2.553,4.4-2.278,7.344c-8.161,4.349-17.521,4.058-25.841,7.507
			c0,17.929,0,35.715,0,54.227c5.757,0.184,11.354,0.459,16.952,0.508c4.561,0.04,8.937,0.193,12.55,3.677
			c0.955,0.921,2.76,1.042,4.212,1.351c5.839,1.243,6.586,1.974,7.403,7.556c1.126,1.001,2.231,1.983,3.64,3.235
			c0.441,12.227,1.052,24.676,1.271,37.13c0.105,5.984-2.216,8.479-8.198,9.179c-5.113,0.599-10.295,0.752-15.451,0.806
			c-12.824,0.135-25.652,0.191-38.479,0.107c-12.319-0.081-24.64-0.524-36.959-0.543c-18.48-0.028-36.96,0.219-55.441,0.247
			c-4.129,0.007-8.301,0.071-12.11-2.196c-2.202-1.31-3.663-2.875-3.591-5.508c0.24-8.809,0.493-17.618,0.787-26.425
			C45.819,212.407,46.061,208.257,46.278,203.624z M63.955,69.963c0.4,12.686,0.777,24.617,1.168,36.999
			c7.946-2.16,15.497-4.091,22.97-6.284c5.18-1.521,6.456-3.065,6.443-8.537C94.521,85.827,94,79.513,93.615,73.204
			c-0.169-2.773-0.547-5.533-0.9-8.985C83.039,66.151,73.83,67.99,63.955,69.963z M167.882,64.328
			c-0.495,0.935-0.892,1.351-0.922,1.791c-0.564,8.297-1.15,16.594-1.566,24.899c-0.09,1.786,0.19,3.709,0.815,5.375
			c0.478,1.27,1.573,2.874,2.731,3.228c8.462,2.59,17.009,4.901,25.934,7.414c0.381-12.795,0.735-24.723,1.104-37.063
			C186.233,68.015,177.016,66.163,167.882,64.328z"/>
		<path fill-rule="evenodd" clip-rule="evenodd" fill="none" d="M63.955,69.963c9.875-1.973,19.084-3.812,28.76-5.745
			c0.353,3.452,0.73,6.212,0.9,8.985c0.386,6.309,0.907,12.624,0.921,18.937c0.013,5.472-1.263,7.017-6.443,8.537
			c-7.474,2.193-15.024,4.125-22.97,6.284C64.732,94.58,64.355,82.649,63.955,69.963z"/>
		<path fill-rule="evenodd" clip-rule="evenodd" fill="none" d="M167.882,64.328c9.134,1.835,18.352,3.687,28.096,5.645
			c-0.368,12.339-0.723,24.268-1.104,37.063c-8.925-2.513-17.472-4.824-25.934-7.414c-1.158-0.354-2.254-1.958-2.731-3.228
			c-0.625-1.666-0.905-3.589-0.815-5.375c0.416-8.306,1.002-16.603,1.566-24.899C166.99,65.678,167.387,65.262,167.882,64.328z"/>
	</g>
</g>
</svg>
