<?xml version="1.0" encoding="utf-8"?>
<!-- Generator: Adobe Illustrator 16.0.0, SVG Export Plug-In . SVG Version: 6.00 Build 0)  -->
<!DOCTYPE svg PUBLIC "-//W3C//DTD SVG 1.1//EN" "http://www.w3.org/Graphics/SVG/1.1/DTD/svg11.dtd">
<svg version="1.1" id="Layer_1" xmlns="http://www.w3.org/2000/svg" xmlns:xlink="http://www.w3.org/1999/xlink" x="0px" y="0px"
	 width="256px" height="256px" viewBox="0 0 256 256" enable-background="new 0 0 256 256" xml:space="preserve">
<path fill-rule="evenodd" clip-rule="evenodd" d="M215.467,97.076c-9.432-1.753-19.409-2.726-28.887-1.703
	c-40.991,4.434-80.042,16.242-116.133,36.093c-14.539,7.999-28.161,18.516-40.183,29.998c-11.299,10.791-6.57,23.463,8.807,26.938
	c7.383,1.67,15.19,1.455,22.475,2.065c50.932-3.119,97.348-18.901,140.196-45.333c8.572-5.288,16.609-12.02,23.445-19.422
	C237.16,112.737,232.893,100.319,215.467,97.076z M191.729,126.347c1.513,3.479,3.079,7.076,5.62,12.918
	c-5.838-1.987-9.763-3.323-14.304-4.869c-3.336,3.104-7.004,6.523-13.274,12.36c1.345-7.04,2.073-10.871,2.852-14.942
	c-3.145-2.315-5.909-4.349-10.12-7.449c5.178-2.058,9.147-3.636,13.583-5.399c1.788-4.71,3.677-9.686,6.362-16.757
	c2.708,5.53,4.377,8.946,6.438,13.153c3.937-1.021,7.633-1.979,14.025-3.636C198.337,117.706,195.219,121.783,191.729,126.347z"/>
</svg>
