<?xml version="1.0" encoding="utf-8"?>
<!-- Generator: Adobe Illustrator 16.0.0, SVG Export Plug-In . SVG Version: 6.00 Build 0)  -->
<!DOCTYPE svg PUBLIC "-//W3C//DTD SVG 1.1//EN" "http://www.w3.org/Graphics/SVG/1.1/DTD/svg11.dtd">
<svg version="1.1" id="Layer_1" xmlns="http://www.w3.org/2000/svg" xmlns:xlink="http://www.w3.org/1999/xlink" x="0px" y="0px"
	 width="256px" height="256px" viewBox="0 0 256 256" enable-background="new 0 0 256 256" xml:space="preserve">
<g>
	<g>
		<path fill-rule="evenodd" clip-rule="evenodd" fill="none" d="M257.937,257.937c-85.666,0-171.301,0-256.905,0
			c0-85.666,0-171.302,0-256.905c85.667,0,171.302,0,256.905,0C257.937,86.697,257.937,172.333,257.937,257.937z M240.006,93.438
			C229.778,52.732,189.318,9.45,131.985,9.917C74.933,10.381,35.204,53.958,25.523,94.129c18.141,0,36.16,0,54.303,0
			c-2.463,9.761-3.764,10.85-12.639,10.854c-13.328,0.007-26.659,0.142-39.982-0.107c-3.851-0.072-5.074,1.171-5.596,4.901
			c-3.824,27.334,0.805,53.105,13.98,77.305c25.725,47.249,80.364,69.611,130.446,53.489
			c51.868-16.697,85.706-71.294,78.548-126.772c-0.417-3.236-1-6.45-1.528-9.821c-1.885,0-3.205,0-4.526,0
			c-15.66,0.002-31.321,0.063-46.98-0.075c-1.75-0.016-4.1-0.664-5.104-1.892c-1.831-2.242-2.863-5.137-4.65-8.571
			C201.383,93.438,220.424,93.438,240.006,93.438z"/>
		<path fill-rule="evenodd" clip-rule="evenodd" d="M240.006,93.438c-19.582,0-38.623,0-58.211,0
			c1.787,3.434,2.819,6.329,4.65,8.571c1.004,1.228,3.354,1.876,5.104,1.892c15.659,0.139,31.32,0.077,46.98,0.075
			c1.321,0,2.642,0,4.526,0c0.528,3.372,1.111,6.585,1.528,9.821c7.158,55.478-26.68,110.075-78.548,126.772
			c-50.082,16.122-104.721-6.24-130.446-53.489c-13.175-24.199-17.805-49.971-13.98-77.305c0.522-3.73,1.745-4.973,5.596-4.901
			c13.324,0.249,26.654,0.114,39.982,0.107c8.875-0.004,10.175-1.093,12.639-10.854c-18.144,0-36.163,0-54.303,0
			c9.681-40.171,49.41-83.748,106.462-84.212C189.318,9.45,229.778,52.732,240.006,93.438z M70.618,137.623
			c41.288,0,81.675,0,122.991,0c-21.024-38.104-41.676-75.529-62.884-113.967C110.406,62.183,90.64,99.661,70.618,137.623z
			 M129.984,239.743c3.964,0,7.227,0,10.997,0c0-1.823,0-3.446,0-5.07c0.001-10.492-0.048-20.984,0.055-31.475
			c0.015-1.548,0.302-3.442,1.21-4.579c8.59-10.746,17.374-21.339,26.031-32.031c3.686-4.551,7.203-9.236,10.984-14.103
			c-7.799-1.471-13.352-0.43-18.017,6.427c-8.069,11.855-17.304,22.919-26.252,34.58c-1.521-1.649-2.717-2.783-3.725-4.063
			c-8.204-10.436-16.955-20.508-24.342-31.495c-4.697-6.986-10.326-6.097-17.827-5.481c1.939,2.481,3.244,4.266,4.664,5.953
			c11.521,13.693,23.113,27.328,34.523,41.113c1.115,1.348,1.602,3.577,1.625,5.407
			C130.056,216.387,129.984,227.853,129.984,239.743z"/>
		<path fill-rule="evenodd" clip-rule="evenodd" fill="none" d="M70.618,137.623c20.022-37.962,39.789-75.44,60.107-113.967
			c21.208,38.438,41.859,75.863,62.884,113.967C152.293,137.623,111.905,137.623,70.618,137.623z"/>
		<path fill-rule="evenodd" clip-rule="evenodd" fill="none" d="M129.984,239.743c0-11.891,0.071-23.356-0.072-34.817
			c-0.023-1.83-0.51-4.06-1.625-5.407c-11.41-13.785-23.002-27.42-34.523-41.113c-1.42-1.688-2.725-3.472-4.664-5.953
			c7.501-0.615,13.13-1.505,17.827,5.481c7.387,10.987,16.138,21.06,24.342,31.495c1.008,1.28,2.203,2.414,3.725,4.063
			c8.948-11.661,18.183-22.725,26.252-34.58c4.665-6.856,10.218-7.897,18.017-6.427c-3.781,4.866-7.299,9.552-10.984,14.103
			c-8.657,10.692-17.441,21.285-26.031,32.031c-0.908,1.137-1.195,3.031-1.21,4.579c-0.103,10.49-0.054,20.982-0.055,31.475
			c0,1.624,0,3.247,0,5.07C137.211,239.743,133.948,239.743,129.984,239.743z"/>
	</g>
</g>
</svg>
