<?xml version="1.0" encoding="utf-8"?>
<!-- Generator: Adobe Illustrator 16.0.0, SVG Export Plug-In . SVG Version: 6.00 Build 0)  -->
<!DOCTYPE svg PUBLIC "-//W3C//DTD SVG 1.1//EN" "http://www.w3.org/Graphics/SVG/1.1/DTD/svg11.dtd">
<svg version="1.1" id="Layer_1" xmlns="http://www.w3.org/2000/svg" xmlns:xlink="http://www.w3.org/1999/xlink" x="0px" y="0px"
	 width="256px" height="256px" viewBox="0 0 256 256" enable-background="new 0 0 256 256" xml:space="preserve">
<g>
	<g>
		<path fill-rule="evenodd" clip-rule="evenodd" fill="none" d="M1,257.968C1,172.312,1,86.656,1,1c85.656,0,171.312,0,256.968,0
			c0,85.656,0,171.312,0,256.968C172.312,257.968,86.656,257.968,1,257.968z M160.622,136.955c11.662,0,23.323-0.013,34.984,0.006
			c4.978,0.008,5,0.037,5.016,4.83c0.021,6.83,0.005,13.66,0.006,20.49c0.001,7.83,0.037,15.66-0.014,23.49
			c-0.015,2.302,0.599,4.075,3.193,4.104c6.828,0.076,13.658,0.064,20.486-0.015c2.378-0.027,3.657-1.345,3.562-3.835
			c-0.044-1.164,0.005-2.332,0.005-3.498c0.002-13.661-0.021-27.321,0.016-40.981c0.012-4.479,0.082-4.513,4.402-4.58
			c3.665-0.057,7.334,0.083,10.994-0.061c3.221-0.125,3.74-0.656,3.792-3.925c0.096-5.996,0.099-11.995,0.004-17.991
			c-0.066-4.159-0.744-4.733-5.149-4.817c-3.498-0.065-6.998-0.089-10.495-0.004c-2.509,0.062-3.634-0.938-3.578-3.52
			c0.096-4.495-0.044-8.997,0.036-13.493c0.093-5.196,3.881-8.785,9.203-8.893c2.164-0.043,4.33-0.101,6.492-0.198
			c2.431-0.11,3.547-1.387,3.527-3.853c-0.053-6.496,0.076-12.995-0.064-19.49c-0.066-3.081-0.868-3.888-3.987-3.812
			c-5.29,0.13-10.604,0.334-15.849,0.984c-11.511,1.428-21.866,10.399-24.794,21.557c-1.037,3.955-1.484,8.122-1.714,12.22
			c-0.288,5.149-0.126,10.326-0.053,15.488c0.03,2.129-0.848,3.072-2.947,2.986c-0.998-0.04-1.999,0.011-2.999,0.011
			c-22.489,0.001-44.979,0.001-67.47,0c-1.166-0.001-2.332-0.027-3.498-0.028c-1.796-0.002-2.818-0.804-2.816-2.688
			c0.004-4.83-0.25-9.679,0.081-14.487c0.353-5.144,4.481-8.61,9.583-8.693c2.498-0.041,5.002-0.063,7.489-0.254
			c1.883-0.146,3.1-1.208,3.106-3.226c0.022-6.83,0.052-13.659-0.016-20.489c-0.024-2.44-1.437-3.523-3.894-3.457
			c-2.996,0.081-5.996,0.01-8.995,0.014c-7.825,0.011-15.026,1.784-21.3,6.831c-8.148,6.555-13.677,14.311-13.278,25.345
			c0.205,5.657,0.063,11.327,0.012,16.991c-0.037,4.031-0.086,4.104-4.257,4.125c-9.329,0.049-18.658,0.03-27.987,0.011
			c-5.493-0.012-5.494-0.037-5.531-5.514c-0.007-0.999-0.001-1.999-0.001-2.999c0-12.995,0.035-25.988-0.019-38.982
			c-0.021-5.122-0.727-5.764-5.775-5.801c-4.665-0.034-9.33-0.011-13.994-0.007c-6.348,0.007-6.359,0.01-6.363,6.156
			c-0.008,14.16,0.021,28.32-0.02,42.481c-0.013,4.287-0.311,4.557-4.518,4.655c-3.663,0.084-7.329,0.037-10.994,0.062
			c-2.435,0.017-3.559,1.075-3.506,3.689c0.131,6.494,0.105,12.994,0.012,19.491c-0.037,2.572,1.035,3.618,3.552,3.575
			c3.83-0.065,7.664-0.053,11.494,0.013c3.861,0.066,3.932,0.112,3.959,3.888c0.053,7.33-0.018,14.66,0.044,21.989
			c0.014,1.638,0.07,3.378,0.612,4.889c4.07,11.358,12.028,18.813,23.824,21.03c6.119,1.15,12.616,0.366,18.939,0.254
			c0.757-0.014,2.126-1.291,2.14-2.003c0.135-7.16,0.046-14.324,0.019-21.486c-0.007-1.846-0.952-2.724-2.782-2.723
			c-2.499,0.001-4.997,0.001-7.496-0.035c-5.961-0.086-8.968-2.924-9.104-8.755c-0.101-4.329-0.077-8.663-0.006-12.993
			c0.063-3.882,0.153-3.985,3.91-4.047c4.829-0.078,9.662-0.024,14.493-0.022c5.165,0.003,10.329,0.045,15.493-0.001
			c2.056-0.018,3.132,0.75,3.006,2.925c-0.067,1.162,0.001,2.332,0.001,3.498c0.001,13.494-0.012,26.987,0.007,40.481
			c0.008,5.849,0.258,6.074,6.281,6.096c5.164,0.018,10.329,0.034,15.493-0.004c5.862-0.043,6.235-0.417,6.243-6.266
			c0.017-13.994-0.014-27.987,0.017-41.98c0.011-4.665,0.07-4.723,4.752-4.737C137.299,136.933,148.961,136.956,160.622,136.955z
			 M151.883,167.882c0,5.655-0.057,11.311,0.02,16.964c0.051,3.739,0.324,4.034,3.958,4.083c6.152,0.082,12.308,0.082,18.462,0.001
			c4.137-0.055,4.735-0.609,4.758-4.563c0.062-11.143,0.058-22.287,0-33.43c-0.018-3.5-0.324-3.863-3.626-3.917
			c-6.65-0.108-13.306-0.104-19.956-0.005c-3.335,0.051-3.55,0.333-3.597,3.902C151.828,156.571,151.882,162.227,151.883,167.882z
			 M164.878,82.171c8.134-0.022,14.128-5.108,14.226-12.066c0.095-6.806-7.131-13.333-14.672-13.253
			c-6.679,0.069-12.587,6.104-12.546,12.815C151.93,76.763,157.571,82.192,164.878,82.171z"/>
		<path fill-rule="evenodd" clip-rule="evenodd" d="M160.622,136.955c-11.661,0.001-23.323-0.022-34.984,0.012
			c-4.682,0.015-4.742,0.072-4.752,4.737c-0.031,13.993,0,27.986-0.017,41.98c-0.007,5.849-0.38,6.223-6.243,6.266
			c-5.164,0.038-10.329,0.021-15.493,0.004c-6.023-0.021-6.273-0.247-6.281-6.096c-0.019-13.494-0.006-26.987-0.007-40.481
			c0-1.166-0.068-2.336-0.001-3.498c0.126-2.175-0.95-2.942-3.006-2.925c-5.164,0.046-10.328,0.004-15.493,0.001
			c-4.831-0.002-9.664-0.056-14.493,0.022c-3.757,0.062-3.847,0.165-3.91,4.047c-0.071,4.33-0.095,8.664,0.006,12.993
			c0.135,5.831,3.143,8.669,9.104,8.755c2.499,0.036,4.998,0.036,7.496,0.035c1.83-0.001,2.775,0.877,2.782,2.723
			c0.028,7.162,0.116,14.326-0.019,21.486c-0.013,0.712-1.382,1.989-2.14,2.003c-6.323,0.112-12.82,0.896-18.939-0.254
			c-11.796-2.218-19.754-9.672-23.824-21.03c-0.542-1.511-0.598-3.251-0.612-4.889c-0.062-7.329,0.009-14.659-0.044-21.989
			c-0.027-3.775-0.098-3.821-3.959-3.888c-3.831-0.065-7.664-0.078-11.494-0.013c-2.517,0.043-3.589-1.003-3.552-3.575
			c0.094-6.497,0.12-12.997-0.012-19.491c-0.053-2.614,1.071-3.672,3.506-3.689c3.665-0.024,7.331,0.022,10.994-0.062
			c4.207-0.098,4.505-0.368,4.518-4.655c0.041-14.161,0.011-28.321,0.02-42.481c0.003-6.146,0.015-6.149,6.363-6.156
			c4.664-0.004,9.329-0.027,13.994,0.007c5.048,0.037,5.754,0.68,5.775,5.801c0.054,12.994,0.019,25.988,0.019,38.982
			c0,1-0.005,2,0.001,2.999c0.038,5.477,0.039,5.502,5.531,5.514c9.329,0.02,18.658,0.038,27.987-0.011
			c4.171-0.021,4.221-0.095,4.257-4.125c0.051-5.665,0.192-11.334-0.012-16.991c-0.399-11.035,5.129-18.791,13.278-25.345
			c6.274-5.046,13.476-6.82,21.3-6.831c2.999-0.004,5.999,0.067,8.995-0.014c2.457-0.066,3.869,1.017,3.894,3.457
			c0.067,6.83,0.038,13.659,0.016,20.489c-0.007,2.018-1.224,3.081-3.106,3.226c-2.487,0.191-4.991,0.213-7.489,0.254
			c-5.101,0.083-9.229,3.549-9.583,8.693c-0.33,4.808-0.076,9.657-0.081,14.487c-0.001,1.884,1.02,2.686,2.816,2.688
			c1.167,0.001,2.332,0.027,3.498,0.028c22.49,0.001,44.98,0.001,67.47,0c1,0,2.001-0.051,2.999-0.011
			c2.1,0.086,2.978-0.857,2.947-2.986c-0.073-5.162-0.235-10.339,0.053-15.488c0.229-4.098,0.677-8.265,1.714-12.22
			c2.928-11.158,13.283-20.129,24.794-21.557c5.245-0.65,10.559-0.854,15.849-0.984c3.119-0.076,3.921,0.731,3.987,3.812
			c0.141,6.495,0.012,12.994,0.064,19.49c0.02,2.466-1.097,3.743-3.527,3.853c-2.162,0.098-4.328,0.155-6.492,0.198
			c-5.322,0.107-9.11,3.697-9.203,8.893c-0.08,4.497,0.06,8.998-0.036,13.493c-0.056,2.581,1.069,3.581,3.578,3.52
			c3.497-0.085,6.997-0.062,10.495,0.004c4.405,0.084,5.083,0.659,5.149,4.817c0.095,5.997,0.092,11.996-0.004,17.991
			c-0.052,3.269-0.571,3.8-3.792,3.925c-3.66,0.144-7.329,0.004-10.994,0.061c-4.32,0.067-4.391,0.102-4.402,4.58
			c-0.037,13.66-0.014,27.32-0.016,40.981c0,1.166-0.049,2.334-0.005,3.498c0.096,2.49-1.184,3.808-3.562,3.835
			c-6.828,0.079-13.658,0.091-20.486,0.015c-2.595-0.029-3.208-1.803-3.193-4.104c0.051-7.83,0.015-15.66,0.014-23.49
			c-0.001-6.83,0.016-13.66-0.006-20.49c-0.016-4.793-0.038-4.822-5.016-4.83C183.945,136.942,172.284,136.955,160.622,136.955z"/>
		<path fill-rule="evenodd" clip-rule="evenodd" d="M151.883,167.882c-0.001-5.655-0.055-11.311,0.019-16.964
			c0.047-3.569,0.262-3.852,3.597-3.902c6.65-0.1,13.306-0.104,19.956,0.005c3.302,0.054,3.608,0.417,3.626,3.917
			c0.058,11.143,0.062,22.287,0,33.43c-0.022,3.953-0.621,4.508-4.758,4.563c-6.154,0.081-12.31,0.081-18.462-0.001
			c-3.634-0.049-3.907-0.344-3.958-4.083C151.826,179.192,151.883,173.537,151.883,167.882z"/>
		<path fill-rule="evenodd" clip-rule="evenodd" d="M164.878,82.171c-7.307,0.021-12.948-5.409-12.992-12.504
			c-0.041-6.711,5.867-12.746,12.546-12.815c7.541-0.079,14.767,6.448,14.672,13.253C179.006,77.063,173.012,82.149,164.878,82.171z
			"/>
	</g>
</g>
</svg>
