<?xml version="1.0" encoding="utf-8"?>
<!-- Generator: Adobe Illustrator 16.0.0, SVG Export Plug-In . SVG Version: 6.00 Build 0)  -->
<!DOCTYPE svg PUBLIC "-//W3C//DTD SVG 1.1 Tiny//EN" "http://www.w3.org/Graphics/SVG/1.1/DTD/svg11-tiny.dtd">
<svg version="1.1" baseProfile="tiny" id="Layer_1" xmlns="http://www.w3.org/2000/svg" xmlns:xlink="http://www.w3.org/1999/xlink"
	 x="0px" y="0px" width="256px" height="256px" viewBox="0 0 256 256" xml:space="preserve">
<path display="none" fill="none" stroke="#000000" stroke-width="2" stroke-miterlimit="10" d="M183.253,82.04
	c0.138,1.319-0.238,2.525-0.452,3.79c-0.401,0.746-0.589,1.466-1.163,2.423c-0.299,0.729-1.162,1.572-1.575,1.943
	c-0.741,0.514-1.766,0.71-2.996,1.303c-1.852,0.517-2.824,0.988-4.364,1.036c-3.076-0.085-5.803-1.284-7.76-3.173
	c-0.893-0.862-1.625-1.867-2.157-2.975c-0.636-1.323-0.987-2.794-0.987-4.344c0-3.575,1.869-6.726,4.754-8.774
	c0.488-0.374,0.991-0.707,1.532-1.018c0.271-0.11,0.539-0.215,0.813-0.315c0.275-0.128,0.58-0.251,0.885-0.334
	c2.451-0.671,5.476-0.199,7.737,0.888c0.958,0.46,1.804,1.105,2.557,1.853c0.951,0.945,2.054,1.865,2.408,3.221
	c0.188,0.721,0.42,1.465,0.54,2.256C183.103,80.554,183.249,81.287,183.253,82.04z"/>
<g>
	<path fill="none" d="M208.683,76.068c-0.373-0.501-0.729-1.014-1.137-1.483c-1.352-1.563-2.736-3.056-4.194-4.341
		c-1.456-1.28-2.854-2.497-4.235-3.524c-2.736-2.082-5.158-3.705-6.864-4.811c-0.417-0.268-0.779-0.504-1.108-0.716
		c-10.458,2.255-18.805,9.944-21.709,19.836c2.053-1.295,4.637-2.158,6.249-2.903c3.107-1.436,6.4-2.401,9.797-2.899
		C192.041,74.257,203.536,75.443,208.683,76.068z"/>
	<path fill="none" d="M25.126,160.935c22.209-31.783,54.309-45.243,91.83-47.501c7.628-0.463,15.388,1.157,24.047,1.898
		c-6.999-9.003-16.3-10.399-25.641-11.11c-28.661-2.18-55.014,5.568-79.659,19.598c-3.521,2.005-7.141,3.953-10.707,5.976v31.316
		C25.04,161.051,25.084,160.995,25.126,160.935z"/>
	<path fill="none" d="M213.363,86.803c-3.572,7.906-9.193,14.497-16.121,18.952c-0.678,0.524-1.38,1.028-2.111,1.494
		c-2.324,1.478-4.863,2.6-7.478,3.482c-2.059,0.694-3.856,1.479-5.716,1.828c4.508,2.763,9.836,4.387,15.561,4.387
		c3.848,0,7.525-0.745,10.896-2.059c0.873-1.438,1.807-3.174,2.656-5.235c0.611-1.579,1.243-3.288,1.72-5.146
		c0.264-0.922,0.468-1.885,0.633-2.874c0.236-0.973,0.324-1.998,0.48-3.019c0.203-2.064,0.293-4.201,0.185-6.357
		C214.039,90.416,213.696,88.572,213.363,86.803z"/>
	<path fill="none" d="M217.596,68.304c-0.095,3.204-0.505,6.319-1.179,9.327c0.269,0.056,1.525,0.308,1.525,0.308
		c3.665,1.043,5.463,2.616,7.086,5.015c0.095,0.137,0.776,1.095,1.38,2.021C225.502,78.449,222.3,72.631,217.596,68.304z"/>
	<path d="M118.082,92.831c-34.844-2.72-65.282,6.489-93.084,22.237v14.727c3.566-2.023,7.186-3.971,10.707-5.976
		c24.646-14.03,50.999-21.777,79.659-19.598c9.341,0.71,18.642,2.107,25.641,11.11c-8.659-0.741-16.419-2.361-24.047-1.898
		c-37.521,2.259-69.621,15.718-91.83,47.501c-0.042,0.061-0.087,0.116-0.129,0.177v19.225c10.315-7.884,19.515-18.635,27.651-32.044
		c-5.441,18.642,3.059,34.059,5.354,50.396c-6.48,1.315-11.198,2.276-16.428,3.343c1.151,2.658,3.097,4.052,4.969,4.852
		c2.527,1.083,3.718,1.625,6.942,2.458c4.064,1.159,8.529,2.355,11.219,2.592c4.392,0.393,5.82,0.984,11.111-0.091
		c-8.323-23.151-21.226-46.179-0.12-69.02c29.198-30.629,72.65-23.135,92.917,16.162c4.068-5.459,3.427-11.607,2.68-17.614
		C167.698,112.416,148.815,95.23,118.082,92.831z"/>
	<path d="M197.498,56.196c-18.475,0-33.5,14.592-33.5,32.529c0,17.934,15.025,32.525,33.5,32.525
		c18.474,0,33.505-14.591,33.505-32.525C231.003,70.788,215.972,56.196,197.498,56.196z M169.435,81.03
		c2.904-9.892,11.251-17.581,21.709-19.836c0.329,0.211,0.691,0.448,1.108,0.716c1.706,1.105,4.128,2.729,6.864,4.811
		c1.381,1.027,2.779,2.244,4.235,3.524c1.458,1.285,2.843,2.777,4.194,4.341c0.407,0.469,0.764,0.982,1.137,1.483
		c-5.146-0.625-16.642-1.812-23.202-0.84c-3.396,0.498-6.689,1.463-9.797,2.899C174.071,78.873,171.487,79.735,169.435,81.03z
		 M213.883,98.613c-0.156,1.021-0.244,2.046-0.48,3.019c-0.165,0.989-0.369,1.952-0.633,2.874c-0.477,1.857-1.108,3.567-1.72,5.146
		c-0.85,2.061-1.783,3.798-2.656,5.235c-3.37,1.314-7.048,2.059-10.896,2.059c-5.725,0-11.053-1.625-15.561-4.387
		c1.859-0.348,3.657-1.133,5.716-1.828c2.614-0.882,5.153-2.004,7.478-3.482c0.731-0.466,1.434-0.97,2.111-1.494
		c6.928-4.455,12.549-11.045,16.121-18.952c0.333,1.769,0.676,3.613,0.704,5.453C214.176,94.412,214.086,96.549,213.883,98.613z
		 M217.942,77.938c0,0-1.257-0.252-1.525-0.308c0.674-3.008,1.084-6.123,1.179-9.327c4.704,4.327,7.906,10.145,8.813,16.67
		c-0.604-0.926-1.285-1.884-1.38-2.021C223.405,80.554,221.607,78.982,217.942,77.938z"/>
</g>
<path fill-rule="evenodd" d="M231.003,197.27c-13.795,1.181-27.646,3.187-41.605,5.948c-38.789,7.671-83.172,22.03-106.287-33.87
	c-1.754,35.106,17.517,52.768,55.163,55.242c26.27,1.723,50.392-7.767,75.318-13.147c5.799-1.829,11.604-3.229,17.411-4.29V197.27z"
	/>
</svg>
