<?xml version="1.0" encoding="utf-8"?>
<!-- Generator: Adobe Illustrator 16.0.0, SVG Export Plug-In . SVG Version: 6.00 Build 0)  -->
<!DOCTYPE svg PUBLIC "-//W3C//DTD SVG 1.1//EN" "http://www.w3.org/Graphics/SVG/1.1/DTD/svg11.dtd">
<svg version="1.1" id="Layer_1" xmlns="http://www.w3.org/2000/svg" xmlns:xlink="http://www.w3.org/1999/xlink" x="0px" y="0px"
	 width="256px" height="256px" viewBox="0 0 256 256" enable-background="new 0 0 256 256" xml:space="preserve">
<path d="M26.88,181.601c-3.488-1.129-6.765-2.187-10.846-3.508c5.704-6.488,12.239-7.504,18.84-8.24
	c4.081-0.455,8.192-0.64,12.287-0.984c5.483-0.461,10.437-2.284,13.258-7.25c13.162-23.161,34.889-32.36,59.53-36.991
	c3.748-0.706,7.435-1.751,11.138-2.684c16.629-4.188,29.42-13.452,37.938-28.49c2.789-4.926,5.977-9.626,8.877-14.49
	c8.961-15.021,21.137-24.801,39.48-25.582c4.977-0.212,9.93-2.003,14.801-3.394c5.469-1.56,7.768,0.083,7.783,5.712
	c0.021,7.458-3.258,13.541-9.162,17.336c-13.928,8.95-19.713,21.839-22.064,37.731c-1.768,11.957-6.197,23.5-9.064,35.318
	c-2.482,10.22-1.688,19.921,6.357,27.875c-7.709,6.258-19.354,4.823-28.992-3.783c-5.313,1.177-8.18,5.306-10.65,9.589
	c-8.4,14.559-23.078,15.605-37.686,17.477c4.477-6.862,8.953-13.725,14.043-21.523c-8.225-1.261-15.109-2.751-22.068-3.281
	c-10.559-0.806-21.167-1.242-31.756-1.271c-8.537-0.021-15.85,3.941-22.533,8.931c-10.498,7.833-21.913,12.927-35.31,12.502
	c-0.424-0.013-0.889,0.083-1.269-0.055c-3.181-1.161-6.347-2.365-9.518-3.558c1.955-2.174,3.912-4.35,5.865-6.525
	C26.432,182.151,26.691,181.825,26.88,181.601z M226.7,73.033c4.707-2.917,8.24-6.617,8.801-11.845
	c-3.09-1.826-5.568-3.29-7.408-4.377c-4.307,0.301-8.084,0.731-11.869,0.802c-11.617,0.216-21.359,4.389-28.275,13.863
	c-4.332,5.933-8.621,12.029-11.9,18.567c-10.84,21.588-29.168,32.6-51.869,37.252c-15.535,3.185-30.412,7.547-43.774,16.479
	c-7.951,5.314-12.787,13.131-18.164,20.557c-3.316,4.576-7.562,6.979-13.208,7.313c-6.354,0.379-12.717,0.844-19.019,1.691
	c-2.961,0.398-5.789,1.787-8.676,2.727c0.109,0.553,0.221,1.105,0.331,1.658c3.519,0.402,7.037,0.805,10.556,1.207
	c0.215,0.428,0.43,0.855,0.646,1.283c-2.768,2.486-5.535,4.973-8.581,7.709c8.495,2.141,16.4,1.146,23.745-1.945
	c7.257-3.057,14.254-6.91,20.944-11.087c11.116-6.938,23.003-9.065,35.814-7.472c8.143,1.015,16.301,1.947,24.471,2.703
	c11.564,1.07,12.41,0.443,16.516-10.424c0.65-1.72,1.432-3.389,2.17-5.071c0.607-1.386,1.24-2.759,1.861-4.138
	c0.688,0.586,1.377,1.172,2.064,1.76c0.5,15.047-6.123,27.688-14.371,39.962c2.178-0.101,3.934-0.485,5.619-1.062
	c15.646-5.344,24.316-17.313,30.26-31.886c0.686-1.687,1.602-3.276,2.41-4.912c0.387,0.085,0.77,0.171,1.154,0.255
	c0.508,2.937,1.016,5.873,1.537,8.883c5.301-2.342,10.135-7.515,14.234-15.072c6.621-12.213,10.289-25.463,12.777-38.975
	c2.709-14.693,6.158-28.645,20.992-36.165c0.117-0.06,0.191-0.206,0.305-0.331L226.7,73.033z M193.239,155.606
	c-3.68,4.563-6.879,8.532-10.16,12.601c5.258,4.627,10.268,5.354,15.828,5.036C197.028,167.399,195.327,162.104,193.239,155.606z
	 M226.772,72.963c-0.094,0.105-0.168,0.251-0.285,0.312c-14.834,7.52-18.283,21.472-20.992,36.165
	c-2.488,13.512-6.156,26.762-12.777,38.975c-4.1,7.559-8.936,12.73-14.234,15.072c-0.521-3.01-1.029-5.946-1.537-8.883
	c-0.385-0.084-0.77-0.17-1.154-0.255c-0.809,1.636-1.727,3.228-2.41,4.912c-5.941,14.572-14.611,26.542-30.26,31.886
	c-1.688,0.575-3.441,0.961-5.619,1.062c8.248-12.272,14.871-24.915,14.371-39.962c-0.688-0.588-1.377-1.174-2.064-1.76
	c-0.621,1.379-1.254,2.752-1.861,4.138c-0.738,1.684-1.52,3.353-2.17,5.071c-4.105,10.867-4.951,11.494-16.516,10.425
	c-8.17-0.757-16.328-1.689-24.471-2.704c-12.811-1.596-24.698,0.531-35.814,7.472c-6.69,4.177-13.687,8.03-20.944,11.087
	c-7.345,3.092-15.25,4.086-23.745,1.945c3.046-2.736,5.813-5.223,8.581-7.709c-0.216-0.428-0.43-0.855-0.646-1.283
	c-3.519-0.402-7.037-0.805-10.556-1.207c-0.11-0.553-0.222-1.105-0.331-1.658c2.887-0.938,5.715-2.328,8.676-2.727
	c6.302-0.85,12.666-1.313,19.019-1.691c5.646-0.334,9.892-2.736,13.208-7.313c5.377-7.426,10.213-15.241,18.164-20.557
	c13.363-8.934,28.24-13.295,43.774-16.479c22.701-4.652,41.029-15.664,51.869-37.252c3.279-6.538,7.568-12.634,11.9-18.567
	c6.916-9.474,16.658-13.646,28.275-13.863c3.785-0.07,7.563-0.5,11.869-0.802c1.84,1.087,4.318,2.551,7.408,4.377
	c-0.561,5.228-4.094,8.928-8.793,11.836c0.967-3.483,2.053-6.931,2.777-10.455c0.148-0.724-1.049-1.726-1.625-2.6
	c-0.279-0.843-0.561-1.685-1.301-3.914c-3.738,5.44-6.785,9.877-9.836,14.315c0.406,0.278,0.814,0.556,1.225,0.834
	c1.445-2.28,2.891-4.559,4.336-6.837c-0.801,2.297-1.6,4.594-2.396,6.892c0.203,0.021,0.408,0.043,0.611,0.065
	c1.73-2.784,3.457-5.567,5.186-8.351c-0.902,2.909-1.805,5.817-2.707,8.727c0.365,0.11,0.73,0.221,1.096,0.332
	c0.459-1.292,0.914-2.584,1.428-4.036C225.978,69.859,226.374,71.411,226.772,72.963z M202.099,69.09
	c4.002,2.819,8.408,2.261,10.361-1.301c0.619-1.124,1.064-2.95,0.553-3.9c-0.416-0.779-2.404-1.107-3.635-0.986
	C205.741,63.26,202.952,64.908,202.099,69.09z M183.077,168.206c5.258,4.627,10.27,5.354,15.828,5.037
	c-1.877-5.844-3.58-11.139-5.668-17.639C189.56,160.17,186.36,164.139,183.077,168.206z"/>
</svg>
