<?xml version="1.0" encoding="utf-8"?>
<!-- Generator: Adobe Illustrator 16.0.0, SVG Export Plug-In . SVG Version: 6.00 Build 0)  -->
<!DOCTYPE svg PUBLIC "-//W3C//DTD SVG 1.1//EN" "http://www.w3.org/Graphics/SVG/1.1/DTD/svg11.dtd">
<svg version="1.1" id="Layer_1" xmlns="http://www.w3.org/2000/svg" xmlns:xlink="http://www.w3.org/1999/xlink" x="0px" y="0px"
	 width="256px" height="256px" viewBox="0 0 256 256" enable-background="new 0 0 256 256" xml:space="preserve">
<g>
	<g>
		<path fill-rule="evenodd" clip-rule="evenodd" fill="none" d="M257.937,257.937c-85.666,0-171.301,0-256.905,0
			c0-85.666,0-171.302,0-256.905c85.667,0,171.302,0,256.905,0C257.937,86.697,257.937,172.333,257.937,257.937z M130.493,168.863
			c0,27.86,0,54.348,0,80.897c2.417,0,4.69,0,6.981,0c0-26.656,0-53.106,0-80.32c13.53,8.13,26.596,15.98,40.326,24.231
			c-0.394-3.672-0.271-6.517-1.079-9.067c-1.021-3.228-0.274-4.183,3.022-4.964c8.76-2.075,17.391-4.694,26.428-7.195
			c-1.79-3.762-3.516-7.382-5.261-11.046c5.541,0,10.68,0.214,15.784-0.101c2.188-0.135,5.065-0.729,6.327-2.217
			c5.984-7.059,11.389-14.608,17.289-21.742c1.987-2.401,1.752-3.758-0.306-5.786c-4.492-4.43-8.999-8.888-13.036-13.722
			c-2.228-2.667-4.364-4.034-7.915-3.871c-6.01,0.276-12.044,0.076-19.236,0.076c8.691-11.52,16.501-21.872,24.69-32.727
			c-4.977-1.612-9.427-3.052-13.877-4.494c0.091-0.46,0.182-0.919,0.271-1.377c3.991-1.793,7.983-3.585,12.135-5.449
			c-3.058-10.223-6.004-20.326-9.212-30.344c-0.278-0.869-2.393-1.836-3.468-1.654c-7.976,1.345-15.918,2.908-23.833,4.579
			c-1.062,0.225-2.152,1.267-2.826,2.215c-4.864,6.846-9.608,13.777-14.423,20.658c-3.688,5.27-7.422,10.507-11.134,15.76
			c1.024-13.541,3.177-26.483,5.236-39.44c0.158-0.999,0.016-2.402-0.585-3.112c-9.807-11.591-19.708-23.101-29.479-34.5
			c-8.849,9.869-17.639,19.605-26.315,29.441c-0.985,1.118-2.083,2.945-1.847,4.201c1.506,7.983,3.416,15.889,5.105,23.839
			c1.275,6,2.421,12.028,3.625,18.042c-0.388,0.136-0.775,0.271-1.163,0.407c-11.739-15.268-23.478-30.535-35.261-45.861
			c-10.346,1.734-20.662,3.462-31.708,5.313c0.829,7.415,1.88,14.86,2.422,22.343c0.373,5.146,2.839,7.906,7.702,9.023
			c1.473,0.338,2.829,1.185,4.238,1.799c-0.042,0.367-0.083,0.734-0.125,1.101c-5.292,1.23-10.584,2.461-16.777,3.901
			c9.912,12.334,19.493,24.257,29.72,36.982c-2.394,0.587-3.838,1.213-5.297,1.249c-5.162,0.127-10.336,0.217-15.49-0.008
			c-3.214-0.14-5.625,0.658-7.827,3.149c-5.388,6.092-10.976,12.011-16.6,17.888c-1.999,2.089-2.225,3.854-0.191,6.003
			c4.685,4.948,9.715,9.648,13.813,15.053c4.786,6.311,10.376,7.444,17.552,5.324c3.452-1.021,7.193-1.063,11.222-1.604
			c-1.164,3.53-2.015,6.112-2.911,8.829c8.032,2.41,15.709,4.803,23.446,6.983c2.49,0.702,3.79,1.684,3.173,4.497
			c-1.008,4.604-1.831,9.247-2.871,14.593C104.241,187.305,116.964,178.366,130.493,168.863z"/>
		<path fill-rule="evenodd" clip-rule="evenodd" d="M130.493,168.863c-13.529,9.503-26.252,18.441-39.542,27.777
			c1.04-5.346,1.863-9.989,2.871-14.593c0.616-2.813-0.684-3.795-3.173-4.497c-7.737-2.181-15.415-4.573-23.446-6.983
			c0.896-2.717,1.747-5.299,2.911-8.829c-4.029,0.542-7.77,0.584-11.222,1.604c-7.176,2.12-12.767,0.986-17.552-5.324
			c-4.097-5.404-9.128-10.104-13.813-15.053c-2.034-2.148-1.807-3.914,0.191-6.003c5.624-5.877,11.212-11.796,16.6-17.888
			c2.202-2.491,4.613-3.289,7.827-3.149c5.154,0.225,10.328,0.135,15.49,0.008c1.458-0.036,2.903-0.662,5.297-1.249
			c-10.227-12.726-19.808-24.648-29.72-36.982c6.193-1.439,11.485-2.67,16.777-3.901c0.042-0.366,0.084-0.733,0.125-1.101
			c-1.41-0.614-2.766-1.461-4.238-1.799c-4.863-1.117-7.33-3.877-7.702-9.023c-0.542-7.482-1.593-14.928-2.422-22.343
			c11.045-1.851,21.361-3.579,31.708-5.313c11.784,15.326,23.522,30.594,35.261,45.861c0.388-0.136,0.775-0.271,1.163-0.407
			c-1.204-6.015-2.35-12.042-3.625-18.042c-1.69-7.95-3.6-15.855-5.105-23.839c-0.237-1.255,0.861-3.083,1.847-4.201
			c8.676-9.836,17.467-19.573,26.315-29.441c9.771,11.399,19.673,22.908,29.479,34.5c0.601,0.71,0.743,2.113,0.585,3.112
			c-2.06,12.958-4.212,25.899-5.236,39.44c3.712-5.252,7.446-10.49,11.134-15.76c4.814-6.881,9.559-13.812,14.423-20.658
			c0.674-0.949,1.765-1.991,2.826-2.215c7.915-1.671,15.857-3.234,23.833-4.579c1.075-0.182,3.189,0.785,3.468,1.654
			c3.208,10.018,6.154,20.121,9.212,30.344c-4.151,1.864-8.144,3.656-12.135,5.449c-0.09,0.458-0.181,0.917-0.271,1.377
			c4.45,1.441,8.9,2.881,13.877,4.494c-8.189,10.855-15.999,21.207-24.69,32.727c7.192,0,13.227,0.2,19.236-0.076
			c3.551-0.163,5.688,1.204,7.915,3.871c4.037,4.834,8.544,9.292,13.036,13.722c2.058,2.028,2.293,3.385,0.306,5.786
			c-5.9,7.134-11.305,14.684-17.289,21.742c-1.262,1.488-4.14,2.082-6.327,2.217c-5.104,0.314-10.243,0.101-15.784,0.101
			c1.745,3.664,3.471,7.284,5.261,11.046c-9.037,2.501-17.668,5.12-26.428,7.195c-3.297,0.781-4.044,1.736-3.022,4.964
			c0.808,2.551,0.686,5.396,1.079,9.067c-13.73-8.251-26.796-16.102-40.326-24.231c0,27.214,0,53.664,0,80.32
			c-2.291,0-4.564,0-6.981,0C130.493,223.211,130.493,196.724,130.493,168.863z"/>
	</g>
</g>
</svg>
