<?xml version="1.0" encoding="utf-8"?>
<!-- Generator: Adobe Illustrator 16.0.0, SVG Export Plug-In . SVG Version: 6.00 Build 0)  -->
<!DOCTYPE svg PUBLIC "-//W3C//DTD SVG 1.1//EN" "http://www.w3.org/Graphics/SVG/1.1/DTD/svg11.dtd">
<svg version="1.1" id="Layer_1" xmlns="http://www.w3.org/2000/svg" xmlns:xlink="http://www.w3.org/1999/xlink" x="0px" y="0px"
	 width="256px" height="256px" viewBox="0 0 256 256" enable-background="new 0 0 256 256" xml:space="preserve">
<g>
	<g>
		<path fill-rule="evenodd" clip-rule="evenodd" fill="none" d="M257.937,257.937c-85.666,0-171.301,0-256.905,0
			c0-85.666,0-171.302,0-256.905c85.667,0,171.302,0,256.905,0C257.937,86.697,257.937,172.333,257.937,257.937z M243.614,249.951
			c0.433-0.179,0.864-0.357,1.297-0.537c-0.321-1.431-0.264-3.114-1.022-4.254c-7.604-11.416-16.624-21.446-28.407-28.789
			c-3.17-1.976-6.003-4.492-9.61-7.232c1.71-1.155,2.641-2.053,3.753-2.491c6.51-2.564,13.059-5.031,19.602-7.513
			c3.915-1.483,4.854-3.772,2.266-6.873c-10.77-12.904-23.016-24.068-38.318-31.479c-6.73-3.26-14.486-5.218-16.965-13.769
			c-0.495-1.711-1.369-3.317-2.131-4.942c-4.814-10.259-10.025-20.351-14.383-30.8c-6.259-15.012-14.31-28.872-24.634-41.395
			c-10.121-12.274-21.618-23.097-34.795-32.07c-9.745-6.637-20.081-11.238-32.328-10.094c-1.835,0.172-3.944-1.128-5.728-2.108
			c-7.366-4.045-14.388-8.867-22.088-12.085c-3.679-1.538-8.737-1.291-12.158,2.989c-5.899,7.38-5.406,18.098,1.097,27.591
			c6.143,8.967,13.251,17.218,16.979,27.878c4.025,11.511,8.546,23.114,14.848,33.461c3.488,5.728,4.189,10.772,3.301,16.45
			c-2.972,18.996-1.432,37.531,6.078,55.187c2.57,6.043,6.793,11.752,11.448,16.432c4.21,4.232,10.979,1.513,12.133-4.492
			c0.89-4.63,0.528-9.507,0.631-14.276c0.036-1.632-0.208-3.271-0.324-4.906c0.416-0.142,0.832-0.283,1.248-0.425
			c5.271,18.075,20.36,28.135,32.423,40.646c0.999,1.036,2.97,1.134,4.491,1.668c-0.787-1.438-1.38-3.032-2.394-4.287
			c-4.361-5.397-9.719-10.197-13.106-16.133c-7.464-13.078-13.958-26.709-20.843-40.116c-1.213-2.363-2.403-4.737-3.938-7.763
			c-9.966,12.174-7.347,25.956-8.976,39.499c-1.143-0.584-1.767-1.539-2.134-2.584c-3.088-8.782-7.069-17.385-8.949-26.424
			c-2.423-11.652-1.431-23.587,1.346-35.246c1.314-5.519,1.51-10.956-2.736-15.281c-6.456-6.577-9.649-14.797-12.677-23.196
			c-3.9-10.818-7.141-21.907-14.446-31.218c-3.854-4.911-7.273-10.215-10.385-15.631c-0.961-1.674-0.793-4.507-0.069-6.396
			c0.3-0.783,3.763-1.22,5.2-0.551c6.358,2.958,12.859,5.858,18.599,9.81c3.771,2.597,7.197,4.582,11.75,3.854
			c7.569-1.208,14.146,1.484,20.658,4.842c14.566,7.512,26.644,18.195,36.44,31.002c8.089,10.574,15.245,22.043,21.448,33.836
			c8.834,16.792,16.188,34.358,24.745,51.306c1.544,3.058,5.523,5.521,8.929,6.877c8.757,3.491,17.89,5.97,25.38,12.182
			c4.859,4.028,10.09,7.609,16.345,12.28c-11.544-0.508-20.243,3.122-28.49,8.315c-2.398,1.51-2.871,2.831-1.819,5.641
			c4.293,11.465,12.939,18.93,23.206,24.243C225.671,235.896,235.716,241.247,243.614,249.951z M79.778,64.934
			c-0.006-4.677-2.793-7.428-6.092-10.201c-2.327-1.957-4.452-2.084-5.876,0.018c-0.798,1.177-0.294,3.787,0.459,5.347
			c1.492,3.09,3.483,5.956,5.436,8.797c0.766,1.113,1.985,1.914,2.999,2.857c0.83-1.139,1.838-2.193,2.433-3.443
			C79.611,67.308,79.583,66.068,79.778,64.934z"/>
		<path fill-rule="evenodd" clip-rule="evenodd" d="M243.614,249.951c-7.898-8.704-17.943-14.055-28.217-19.371
			c-10.267-5.313-18.913-12.778-23.206-24.243c-1.052-2.81-0.579-4.131,1.819-5.641c8.247-5.193,16.946-8.823,28.49-8.315
			c-6.255-4.671-11.485-8.252-16.345-12.28c-7.49-6.212-16.623-8.69-25.38-12.182c-3.405-1.356-7.385-3.819-8.929-6.877
			c-8.558-16.947-15.911-34.513-24.745-51.306c-6.203-11.792-13.359-23.262-21.448-33.836c-9.797-12.807-21.874-23.49-36.44-31.002
			c-6.512-3.358-13.089-6.05-20.658-4.842c-4.553,0.728-7.979-1.257-11.75-3.854c-5.739-3.952-12.24-6.852-18.599-9.81
			c-1.437-0.669-4.899-0.232-5.2,0.551c-0.724,1.89-0.892,4.722,0.069,6.396c3.112,5.416,6.53,10.72,10.385,15.631
			c7.305,9.311,10.546,20.4,14.446,31.218c3.028,8.399,6.222,16.619,12.677,23.196c4.246,4.326,4.05,9.763,2.736,15.281
			c-2.776,11.659-3.769,23.593-1.346,35.246c1.879,9.039,5.861,17.642,8.949,26.424c0.368,1.045,0.992,2,2.134,2.584
			c1.629-13.543-0.99-27.325,8.976-39.499c1.534,3.025,2.725,5.399,3.938,7.763c6.885,13.407,13.379,27.038,20.843,40.116
			c3.387,5.936,8.746,10.735,13.106,16.133c1.014,1.255,1.606,2.85,2.394,4.287c-1.521-0.534-3.492-0.632-4.491-1.668
			c-12.063-12.511-27.151-22.57-32.423-40.646c-0.416,0.142-0.832,0.283-1.248,0.425c0.116,1.636,0.36,3.274,0.324,4.906
			c-0.103,4.77,0.259,9.646-0.631,14.276c-1.154,6.005-7.923,8.725-12.133,4.492c-4.655-4.68-8.878-10.389-11.448-16.432
			c-7.51-17.656-9.05-36.191-6.078-55.187c0.888-5.678,0.188-10.723-3.301-16.45c-6.302-10.347-10.823-21.95-14.848-33.461
			c-3.728-10.66-10.835-18.911-16.979-27.878c-6.503-9.493-6.996-20.211-1.097-27.591c3.42-4.28,8.479-4.527,12.158-2.989
			c7.7,3.219,14.722,8.04,22.088,12.085c1.784,0.98,3.893,2.28,5.728,2.108c12.247-1.144,22.583,3.458,32.328,10.094
			c13.177,8.974,24.675,19.796,34.795,32.07c10.324,12.523,18.375,26.383,24.634,41.395c4.357,10.449,9.568,20.542,14.383,30.8
			c0.762,1.625,1.636,3.231,2.131,4.942c2.479,8.551,10.234,10.509,16.965,13.769c15.303,7.411,27.549,18.575,38.318,31.479
			c2.588,3.101,1.649,5.39-2.266,6.873c-6.543,2.481-13.092,4.948-19.602,7.513c-1.112,0.438-2.043,1.336-3.753,2.491
			c3.607,2.74,6.44,5.257,9.61,7.232c11.783,7.343,20.804,17.373,28.407,28.789c0.759,1.14,0.701,2.823,1.022,4.254
			C244.479,249.594,244.047,249.772,243.614,249.951z"/>
		<path fill-rule="evenodd" clip-rule="evenodd" d="M79.778,64.934c-0.195,1.134-0.167,2.374-0.642,3.375
			c-0.594,1.25-1.603,2.305-2.433,3.443c-1.013-0.943-2.233-1.744-2.999-2.857c-1.953-2.841-3.944-5.707-5.436-8.797
			c-0.753-1.56-1.257-4.17-0.459-5.347c1.424-2.102,3.549-1.975,5.876-0.018C76.985,57.506,79.772,60.257,79.778,64.934z"/>
	</g>
</g>
</svg>
