<?xml version="1.0" encoding="utf-8"?>
<!-- Generator: Adobe Illustrator 16.0.0, SVG Export Plug-In . SVG Version: 6.00 Build 0)  -->
<!DOCTYPE svg PUBLIC "-//W3C//DTD SVG 1.1//EN" "http://www.w3.org/Graphics/SVG/1.1/DTD/svg11.dtd">
<svg version="1.1" id="Layer_1" xmlns="http://www.w3.org/2000/svg" xmlns:xlink="http://www.w3.org/1999/xlink" x="0px" y="0px"
	 width="256px" height="256px" viewBox="0 0 256 256" enable-background="new 0 0 256 256" xml:space="preserve">
<g>
	<path fill-rule="evenodd" clip-rule="evenodd" d="M239.615,182.377c-3.194,11.249-12.176,8.162-19.655,9.7
		c-9.235,1.899-14.006-6.61-22.472-7.888c-1.014,9.952-2.111,19.513-4.732,28.789c-4.151,2.643-6.88-0.747-10.798-2.706
		c9.534-10.77,1.679-20.526-1.923-30.518c-0.907-2.51-4.236-2.6-6.163-1.7c-5.696,2.662-11.947,1.695-17.861,3.18
		c-3.855,5.815,0.078,10.732,1.737,15.749c4.368,13.217,3.767,14.355-9.709,16.198c-0.897,0.123-1.8,0.198-3.367,0.365
		c3.362-14.23,0.293-26.803-8.467-38.439c-8.447-11.22-16.118-23.017-15.968-38.039c0.022-2.173-1.054-4.526-2.139-6.514
		c-4.347-7.957-4.457-8.945-0.536-19.169c9.389,3.185,15.791,10.746,23.7,16.068c1.661,1.117,3.214,2.234,2.631,4.306
		c-2.947,10.487,5.412,11,11.644,12.99c3.054,0.978,6.485,0.891,9.756,1.052c15.207,0.752,27.434,5.088,35.874,19.859
		c6.189,10.833,17.947,16.16,31.367,14.603C234.95,179.982,237.128,179.744,239.615,182.377z"/>
	<path fill-rule="evenodd" clip-rule="evenodd" d="M25.262,124.696c1.041-41.457,36.47-83.003,78.471-92.423
		c6.784-1.521,13.54-3.853,20.728-2.932c2.512,0.321,4.552,0.979,4.703,3.945c0.151,3.025-0.431,5.641-4.104,6.081
		c-2.788,0.335-5.596,0.504-8.377,0.873c-42.155,5.574-74.651,37.88-80.539,80.055c-0.193,1.391-0.168,2.82-0.445,4.189
		c-0.782,3.877,0.039,9.351-6.541,8.375C23.642,132.042,25.329,127.474,25.262,124.696z"/>
	<path fill-rule="evenodd" clip-rule="evenodd" d="M45.696,123.867c2.595-36.985,37.816-71.774,74.844-74.196
		c3.481-0.228,7.897-1.677,8.715,4.034c0.909,6.339-3.678,6.336-7.943,6.896c-11.244,1.479-21.904,4.824-31.436,11.067
		C73.537,82.37,62.87,97.188,58.371,116.286c-0.642,2.724-0.939,5.525-1.579,8.247c-0.886,3.764,0.215,9.185-6.455,8.539
		C43.594,132.424,45.968,127.289,45.696,123.867z"/>
	<path fill-rule="evenodd" clip-rule="evenodd" d="M66.75,125.127c2.729-27.045,26.098-51.136,52.616-54.085
		c3.841-0.425,8.889-2.561,9.892,3.974c0.911,5.94-3.229,6.234-7.738,7.122c-24.688,4.84-39.499,19.586-43.349,44.723
		c-0.645,4.201-1.869,7.163-6.974,6.468C65.828,132.598,65.827,129.162,66.75,125.127z"/>
	<path fill-rule="evenodd" clip-rule="evenodd" d="M93.604,133.172c-4.239,0.071-5.966-1.62-5.893-5.929
		c0.268-16.049,20.341-36.059,36.174-35.76c2.36,0.044,4.885,0.014,5.252,3.174c0.317,2.718,0.952,5.719-2.414,7.199
		c-1.273,0.559-2.68,0.826-4.032,1.197c-12.34,3.377-20.14,11.306-23.694,23.54C98.125,129.595,98.174,133.473,93.604,133.172z"/>
</g>
</svg>
