<?xml version="1.0" encoding="utf-8"?>
<!-- Generator: Adobe Illustrator 16.0.0, SVG Export Plug-In . SVG Version: 6.00 Build 0)  -->
<!DOCTYPE svg PUBLIC "-//W3C//DTD SVG 1.1//EN" "http://www.w3.org/Graphics/SVG/1.1/DTD/svg11.dtd">
<svg version="1.1" id="Layer_1" xmlns="http://www.w3.org/2000/svg" xmlns:xlink="http://www.w3.org/1999/xlink" x="0px" y="0px"
	 width="256px" height="256px" viewBox="0 0 256 256" enable-background="new 0 0 256 256" xml:space="preserve">
<g>
	<g>
		<path fill-rule="evenodd" clip-rule="evenodd" fill="none" d="M1.016,125.666c0-41.828,0.04-83.656-0.083-125.484
			C0.923-2.801,1.534-3.403,4.515-3.399c83.323,0.103,166.647,0.103,249.969,0c2.982-0.004,3.586,0.6,3.582,3.582
			c-0.104,83.656-0.104,167.312,0,250.968c0.004,2.982-0.6,3.586-3.582,3.582c-83.322-0.103-166.646-0.103-249.969,0
			c-2.981,0.004-3.592-0.599-3.583-3.582C1.055,209.322,1.016,167.494,1.016,125.666z M130.645,11.557
			C64.483,11.555,11.068,64.452,11.015,130.025C10.962,195.2,64.319,248.744,129.352,248.774
			c66.982,0.032,120.586-52.606,120.631-118.457C250.027,64.701,196.625,11.558,130.645,11.557z"/>
		<path fill-rule="evenodd" clip-rule="evenodd" d="M130.645,11.557c65.98,0.001,119.383,53.145,119.338,118.761
			c-0.045,65.851-53.648,118.489-120.631,118.457c-65.033-0.03-118.39-53.574-118.336-118.749
			C11.068,64.452,64.483,11.555,130.645,11.557z M109.478,65.855c0.313,0.402,0.626,0.805,0.939,1.208
			c2.24,0.178,3.356,1.231,3.76,3.608c0.47,2.767,3.48,2.524,3.638,0.807c0.438-4.785,3.855-4.394,6.813-5.171
			c1.692-0.445,2.085-1.991,2.536-3.383c0.086-0.267-0.388-0.963-0.733-1.082c-2.131-0.734-2.156,1.436-3.13,2.327
			c-0.149,0.137-0.604-0.062-1.239-0.149c0.153-2.072,2.252-5.772-2.893-4.339c-1.146,0.32-0.992-0.33-0.59-1.354
			c0.65-1.657-0.481-2.022-1.873-1.501c-1.919,0.719-5.393-1.577-5.541-3.701c-0.063-0.905,0.404-2.197-1.042-2.34
			c-1.506-0.149-1.542,1.224-1.319,2.072c1.292,4.923-1.016,7.478-5.425,8.96c-0.873,0.294-2.45,0.534-1.958,2.513
			c1.874,1.055,5.812-2.548,6.284,2.332C108.296,66.393,108.887,66.124,109.478,65.855z M144,136.134
			c0,19.158,0.074,38.317-0.074,57.474c-0.025,3.181,0.684,4.249,4.039,4.134c7.822-0.269,15.66-0.204,23.486-0.022
			c2.775,0.065,3.67-0.65,3.609-3.535c-0.188-8.991,0.039-17.992-0.133-26.984c-0.053-2.779,0.656-3.701,3.539-3.608
			c6.658,0.216,13.33-0.065,19.988,0.133c2.789,0.083,3.678-0.671,3.604-3.543c-0.203-7.658-0.193-15.328-0.004-22.986
			c0.068-2.8-0.689-3.678-3.553-3.596c-7.158,0.206-14.328-0.026-21.488,0.121c-2.383,0.049-3.172-0.612-3.074-3.045
			c0.186-4.658,0.266-9.34-0.02-13.988c-0.199-3.257,0.781-4.142,4.066-4.102c15.158,0.185,30.32,0.01,45.479,0.146
			c2.803,0.025,3.637-0.706,3.59-3.556c-0.174-10.159-0.205-20.326,0.012-30.483c0.068-3.249-0.797-4.115-4.076-4.095
			c-24.988,0.145-49.977,0.14-74.965,0.003c-3.223-0.018-4.137,0.762-4.107,4.062C144.084,97.817,144,116.976,144,136.134z
			 M88.991,74.675c-14.827,0-29.655,0.075-44.481-0.066c-2.837-0.027-3.609,0.765-3.564,3.581
			c0.166,10.327,0.169,20.658-0.002,30.985c-0.047,2.849,0.781,3.623,3.589,3.557c7.992-0.186,16.001,0.167,23.984-0.166
			c3.794-0.158,4.611,0.929,4.585,4.625c-0.18,25.489-0.031,50.979-0.173,76.468c-0.019,3.277,0.841,4.179,4.095,4.076
			c7.823-0.244,15.668-0.313,23.484,0.021c3.79,0.163,4.614-0.921,4.587-4.622c-0.18-25.488-0.031-50.979-0.173-76.469
			c-0.019-3.272,0.834-4.181,4.093-4.078c7.823,0.245,15.661-0.049,23.487,0.146c2.848,0.071,3.605-0.776,3.561-3.585
			c-0.166-10.16-0.211-20.327,0.018-30.484c0.074-3.303-0.877-4.107-4.107-4.067C117.648,74.776,103.319,74.675,88.991,74.675z
			 M135.949,40.148c-4.234-0.075-6.018,2.167-6.137,6.192c-0.033,1.134-2.24,2.202-0.445,3.334c1.148,0.726,2.494-0.07,3.658-0.854
			c4.072-2.743,6.842-6.357,7.943-11.204c0.268-1.177,0.609-2.282-0.76-2.991c-1.039-0.539-2.064-1.084-3.193-0.11
			c-1.277,1.099-0.361,2.035,0.129,3.031C137.813,38.908,138.928,40.487,135.949,40.148z"/>
		<path fill-rule="evenodd" clip-rule="evenodd" fill="none" d="M144,136.134c0-19.158,0.084-38.316-0.082-57.473
			c-0.029-3.3,0.885-4.08,4.107-4.062c24.988,0.137,49.977,0.142,74.965-0.003c3.279-0.02,4.145,0.846,4.076,4.095
			c-0.217,10.158-0.186,20.324-0.012,30.483c0.047,2.85-0.787,3.582-3.59,3.556c-15.158-0.136-30.32,0.039-45.479-0.146
			c-3.285-0.04-4.266,0.845-4.066,4.102c0.285,4.648,0.205,9.33,0.02,13.988c-0.098,2.433,0.691,3.094,3.074,3.045
			c7.16-0.147,14.33,0.085,21.488-0.121c2.863-0.082,3.621,0.796,3.553,3.596c-0.189,7.658-0.199,15.328,0.004,22.986
			c0.074,2.872-0.814,3.626-3.604,3.543c-6.658-0.198-13.33,0.083-19.988-0.133c-2.883-0.093-3.592,0.829-3.539,3.608
			c0.172,8.992-0.055,17.993,0.133,26.984c0.061,2.885-0.834,3.601-3.609,3.535c-7.826-0.182-15.664-0.246-23.486,0.022
			c-3.355,0.115-4.064-0.953-4.039-4.134C144.074,174.451,144,155.292,144,136.134z"/>
		<path fill-rule="evenodd" clip-rule="evenodd" fill="none" d="M88.991,74.675c14.328,0,28.657,0.102,42.981-0.078
			c3.23-0.04,4.182,0.764,4.107,4.067c-0.229,10.158-0.184,20.324-0.018,30.484c0.045,2.809-0.713,3.657-3.561,3.585
			c-7.826-0.195-15.664,0.099-23.487-0.146c-3.259-0.103-4.111,0.806-4.093,4.078c0.142,25.489-0.007,50.98,0.173,76.469
			c0.026,3.701-0.797,4.785-4.587,4.622c-7.816-0.334-15.661-0.266-23.484-0.021c-3.254,0.103-4.114-0.799-4.095-4.076
			c0.143-25.488-0.006-50.979,0.173-76.468c0.026-3.696-0.791-4.783-4.585-4.625c-7.983,0.333-15.992-0.02-23.984,0.166
			c-2.808,0.065-3.636-0.708-3.589-3.557c0.171-10.327,0.168-20.659,0.002-30.985c-0.045-2.815,0.727-3.608,3.564-3.581
			C59.336,74.75,74.164,74.675,88.991,74.675z"/>
		<path fill-rule="evenodd" clip-rule="evenodd" fill="none" d="M109.478,65.855c-0.591,0.269-1.182,0.537-1.772,0.807
			c-0.472-4.88-4.41-1.277-6.284-2.332c-0.493-1.979,1.084-2.219,1.958-2.513c4.409-1.482,6.718-4.037,5.425-8.96
			c-0.223-0.848-0.188-2.221,1.319-2.072c1.445,0.144,0.979,1.435,1.042,2.34c0.148,2.124,3.621,4.419,5.541,3.701
			c1.392-0.521,2.523-0.156,1.873,1.501c-0.402,1.023-0.557,1.673,0.59,1.354c5.146-1.434,3.046,2.267,2.893,4.339
			c0.634,0.088,1.09,0.286,1.239,0.149c0.974-0.891,1-3.061,3.13-2.327c0.346,0.119,0.819,0.815,0.733,1.082
			c-0.451,1.392-0.844,2.938-2.536,3.383c-2.958,0.777-6.375,0.386-6.813,5.171c-0.157,1.717-3.168,1.96-3.638-0.807
			c-0.404-2.377-1.52-3.43-3.76-3.608c0.798-0.73,0.591-1.64,0.45-2.536c0.937-1.398,1.669-0.339,2.266,0.287
			c1.386,1.453,2.292,0.238,3.351-0.445c1.318-0.853,0.91-2.193,0.519-3.086c-0.755-1.727-2.239-0.468-3.424-0.417
			c-2.599,0.11-1.647,2.582-2.545,3.824C110.516,65.079,109.997,65.467,109.478,65.855z"/>
		<path fill-rule="evenodd" clip-rule="evenodd" fill="none" d="M135.949,40.148c2.979,0.339,1.863-1.24,1.195-2.601
			c-0.49-0.996-1.406-1.932-0.129-3.031c1.129-0.974,2.154-0.429,3.193,0.11c1.369,0.709,1.027,1.813,0.76,2.991
			c-1.102,4.846-3.871,8.461-7.943,11.204c-1.164,0.783-2.51,1.579-3.658,0.854c-1.794-1.133,0.412-2.201,0.445-3.334
			C129.932,42.314,131.715,40.073,135.949,40.148z"/>
		<path fill-rule="evenodd" clip-rule="evenodd" d="M111.032,64.688c0.899-1.241-0.053-3.712,2.546-3.823
			c1.186-0.051,2.669-1.31,3.424,0.417c0.391,0.894,0.799,2.234-0.519,3.086c-1.06,0.684-1.965,1.898-3.351,0.445
			c-0.597-0.626-1.329-1.685-2.266-0.287L111.032,64.688z"/>
		<path fill-rule="evenodd" clip-rule="evenodd" d="M110.866,64.527c0.141,0.896,0.349,1.806-0.45,2.536
			c-0.313-0.403-0.626-0.806-0.939-1.208c0.519-0.389,1.039-0.776,1.556-1.166C111.032,64.688,110.866,64.527,110.866,64.527z"/>
	</g>
</g>
</svg>
