<?xml version="1.0" encoding="utf-8"?>
<!-- Generator: Adobe Illustrator 14.0.0, SVG Export Plug-In . SVG Version: 6.00 Build 43363)  -->
<!DOCTYPE svg PUBLIC "-//W3C//DTD SVG 1.1//EN" "http://www.w3.org/Graphics/SVG/1.1/DTD/svg11.dtd">
<svg version="1.1" id="Layer_1" xmlns="http://www.w3.org/2000/svg" xmlns:xlink="http://www.w3.org/1999/xlink" x="0px" y="0px"
	 width="256px" height="256px" viewBox="0 0 256 256" enable-background="new 0 0 256 256" xml:space="preserve">
<path d="M123.666,170.931c-0.79-2.962-5.213-3.131-5.916,0.107c-0.923,3.96-1.693,8.851-1.696,13.086
	c0.006,4.337,0.69,8.243,2.812,11.198c2.107,2.953,5.668,4.672,10.583,4.672c0.036,0,0.073,0,0.111,0
	c1.187-0.002,2.813-0.174,4.447-0.499c1.637-0.335,3.224-0.772,4.419-1.522c0.525-0.334,1.042-0.707,1.426-1.315
	c0.385-0.612,0.5-1.319,0.497-2.019c-0.001-3.674-0.202-7.244-0.2-10.816c-0.002-4.133,0.2-8.356,0.2-12.625
	c-0.009-3.479-6.287-3.633-6.287,0.002c0,4.268,0.201,8.492,0.201,12.677c0,2.253,0.722,6.441-0.069,8.49
	c-1.071,2.777-6.384,2.289-8.423,1.049c-1.291-0.784-2.225-2.108-2.845-3.78c-0.618-1.662-0.889-3.635-0.888-5.509
	c0.002-4.048,2.218-8.911,1.716-12.748C123.734,171.223,123.704,171.073,123.666,170.931z M88.753,208.73
	c0.21-1.095,0.032-2.34,0.036-3.58c0.001-0.231,0.031-0.326,0.069-0.41c0.039-0.086,0.109-0.191,0.3-0.365
	c1.245-1.109,3.148-2.417,4.715-3.668c1.909-1.49,3.718-3.094,5.537-4.689c1.634,2.957,3.386,6.922,4.618,9.982
	c0.962,2.389,1.427,5.106,4.483,5.347c8.273,0.648-3.141-16.742-4.715-19.495c1.619-1.822,3.336-3.804,4.677-6.051
	c1.338-2.246,2.301-4.793,2.301-7.66c0.028-3.289-1.388-5.812-3.548-7.257c-2.148-1.459-4.863-1.97-7.644-1.975H86.098
	c-1.062-0.021-2.121,0.387-2.734,1.194c-0.609,0.797-0.758,1.713-0.761,2.603c0,5.862,0.202,11.701,0.201,17.506
	c0.001,6.108-0.201,12.246-0.201,18.409c0.001,0.445,0.047,0.868,0.216,1.3c0.65,1.837,2.634,2.062,4.177,1.199
	C88.108,210.499,88.573,209.67,88.753,208.73z M88.635,182.127c0.015-2.422,0.057-4.842,0.152-7.258
	c0.005-0.124,0.012-0.232,0.019-0.322c0.036-0.004,0.075-0.008,0.119-0.012c3.41-0.303,6.962-0.138,10.374,0.053
	c1.555,0.087,2.838,0.432,3.604,0.999c0.75,0.576,1.202,1.274,1.229,2.853c0,3.42-1.627,6.271-4.003,9.041
	c-3.265,3.778-7.313,7.451-11.419,10.381c-0.026-0.796-0.034-1.604-0.034-2.421C88.674,191.008,88.608,186.565,88.635,182.127z
	 M75.418,169.997c-0.092-0.152-0.193-0.292-0.304-0.418c-2-2.266-4.917-0.279-5.588,2.036c-1.017,3.505,0.134,8.615,0.133,12.259
	c0,2.345,1.047,8.182-0.797,9.852c-1.708,1.542-5.912,0.771-7.695-0.312c-1.291-0.784-2.227-2.107-2.846-3.78
	c-0.617-1.663-0.891-3.635-0.888-5.509c0.004-2.51,0.265-4.994,0.704-7.463c0.283-1.593,1.494-4.43,0.88-6.041
	c-1.266-3.321-4.976-1.804-5.973,0.622c-1.492,3.627-1.591,9.012-1.594,12.882c0.007,4.337,0.689,8.243,2.812,11.198
	c2.107,2.952,5.668,4.672,10.583,4.672c0.037,0,0.074,0,0.111,0c1.186-0.002,2.813-0.175,4.447-0.499
	c1.639-0.335,3.223-0.773,4.418-1.521c0.526-0.334,1.042-0.707,1.427-1.316c0.385-0.612,0.501-1.319,0.498-2.02
	c0-3.673-0.202-7.242-0.201-10.815C75.545,180.755,77.21,172.966,75.418,169.997z M45.758,169.87
	c-2.592-1.275-7.793-1.313-9.056-1.313c-0.083,0-0.176,0-0.271,0c-1.949,0.002-4.449,0-6.806,0.584
	c-1.18,0.295-2.334,0.743-3.356,1.461c-1.019,0.711-1.892,1.713-2.419,3.006c-0.879,2.082-0.947,4.479-0.956,6.393
	c0.001,4.216,0.202,8.441,0.202,12.575c0,3.026-0.021,6.054-0.098,9.078c-0.057,2.193-0.826,5.652,0.086,7.738
	c1.84,4.211,6.073,1.553,6.3-1.878c0.419-6.351-0.405-13.025-0.404-19.416c0-0.045,0.001-0.084,0.003-0.115
	c0.061-0.008,0.135-0.014,0.225-0.01c2.95,0.128,11.472,1.66,13.833-0.306c4.261-3.547-3.169-5.371-5.475-5.278
	c-2.812,0.049-5.563,0.1-8.358,0.1c-0.082,0-0.15-0.004-0.206-0.008c-0.015-0.131-0.025-0.328-0.022-0.569
	c0-1.757,0.118-3.134,0.367-4.147c0.405-1.541,0.915-2.188,1.938-2.727c1.042-0.533,2.829-0.809,5.469-0.799
	c2.6,0,7.276,1.838,9.358-0.391C47.947,171.883,47.336,170.646,45.758,169.87z M74.324,203.318c-0.134-0.126-0.28-0.239-0.437-0.336
	c-2.134-1.312-6.854-0.084-9.233-0.086c-2.548,0.002-8.955-1.596-10.762,0.779c-1.214,1.597-0.366,4.354,1.305,5.192
	c2.216,1.111,6.932-0.089,9.355-0.089c2.579,0,8.054,1.44,10.052-0.738C75.765,206.775,75.559,204.482,74.324,203.318z
	 M193.825,203.059c-0.408-0.262-0.889-0.367-1.34-0.363c-1.31,0.005-2.467,0.205-3.47,0.201c-1.003,0.004-2.16-0.196-3.474-0.201
	c-3.282-0.051-3.226,6.309,0.103,6.287c1.222-0.008,2.328-0.207,3.22-0.2c1.059-0.005,2.209,0.196,3.523,0.2
	C195.107,208.991,195.959,204.424,193.825,203.059z M232.694,208.816c-0.059-1.046-0.462-2.268-1-3.385
	c-2.171-4.499-4.357-8.945-6.925-13.238c-1.12-1.883-2.277-3.646-3.422-5.437c-0.176-0.312-0.159-0.327-0.162-0.368
	c0.006-0.119,0.002-0.146,0.241-0.539c0.737-1.078,1.485-2.127,2.261-3.266c2.129-3.295,4.162-6.698,5.948-10.22
	c1.231-2.428-1.958-4.101-3.998-3.672c-2.915,0.612-3.896,5.298-5.185,7.634c-3.174,5.753-7.093,11.214-11.412,16.18
	c-0.688,0.79-1.503,1.812-2.453,2.444c-0.55-2.095-0.192-4.702-0.192-6.901c0-5.602,0.201-11.186,0.202-16.85
	c0.004-0.48-0.137-1.008-0.448-1.416c-1.466-1.902-5.94-1.392-5.94,1.417c0,6.172,0.253,12.309,0.252,18.409
	c0.001,6.453-0.252,12.943-0.252,19.468c0,3.334,6.394,3.346,6.39-0.05c-0.002-1.666-0.103-3.227-0.102-4.78
	c0.001-1.78,3.622-4.368,4.733-5.593c1.427-1.531,2.8-3.156,4.124-4.735l0.023-0.03c0.645-0.845,1.273-1.664,1.933-2.419
	c2.711,3.665,5.621,9.75,7.401,13.998c1.025,2.445,1.18,5.08,4.136,5.751C231.87,211.905,232.795,210.623,232.694,208.816z
	 M186.117,198.691c1.264,2.648,6.194,1.633,6.193-1.34c-0.001-4.276-0.252-8.504-0.252-12.677c0-4.378,0.251-8.804,0.252-13.278
	c0.001-3.593-6.487-3.763-6.487,0c0,4.375,0.252,8.752,0.252,13.078c0,4.223-0.252,8.5-0.252,12.825
	C185.824,197.779,185.894,198.246,186.117,198.691z M139.706,204.136c-0.359-0.861-1.025-1.489-1.997-1.489
	c-2.897,0-5.715,0.252-8.452,0.25c-2.895,0.002-5.91-0.25-8.903-0.25c-0.479-0.01-1.016,0.181-1.369,0.512
	c-1.458,1.358-1.281,4.586,0.378,5.623c2.101,1.312,7.405-0.002,9.796-0.002c3.716,0,6.334,0.25,8.502,0.25
	C139.813,209.028,140.492,206.021,139.706,204.136z M171.325,168.762c-2.373-0.89-6.49,1.205-3.892,4.071
	c0.251,0.281,0.47,0.438,0.593,0.545c1.675,1.358,2.927,2.688,3.763,4.161c0.833,1.479,1.287,3.107,1.292,5.229
	c0.046,6.188-4.711,13.261-9.103,17.956c-3.16,3.379-4.541,5.168-6.528-0.165c-2.937-7.652-4.553-19.269-4.543-27.601
	c-0.002-0.489,0.05-0.931,0.054-1.438c0.034-4.701-6.594-2.646-6.594,1.739c0.002,4.912,0.767,11.793,2.187,18.517
	c1.43,6.728,3.474,13.252,6.229,17.521c0.297,0.455,0.657,1,1.199,1.492c0.526,0.483,1.317,0.929,2.283,0.929
	c1.646-0.043,2.738-0.986,3.504-1.52c-0.122-0.174-0.25-0.343-0.383-0.508c-0.022-0.063,0.293,0.424,0.315,0.461
	c4.686-2.704,8.766-7.801,11.81-12.157c3.459-4.951,6.041-10.479,6.057-15.83c0.005-3.004-0.816-5.683-2.263-7.949
	c-1.329-2.084-3.583-4.461-5.892-5.417C171.384,168.784,171.355,168.772,171.325,168.762z M170.112,228.998
	c-0.369-0.883-1.05-1.525-2.045-1.525c-2.962,0-49.738,0.258-52.538,0.256c-2.958,0.002-21.67-0.256-24.729-0.256
	c-0.489-0.01-1.038,0.187-1.4,0.523c-1.517,1.413-1.394,6.009,1.31,6.009c0.013,0,0.025,0,0.039,0
	c2.813-0.004,21.25-0.26,24.679-0.26c3.8,0,50.373,0.256,52.598,0.255C170.224,234.049,170.925,230.941,170.112,228.998z
	 M188.485,21.996c-15.924,0-30.051,16.264-30.051,38.371c0,7.437,2.505,14.536,5.048,21.521c0.832,2.285,0.122,3.094-0.555,3.245
	c-1.439,0.32-2.699-1.75-3.571-3.199c-3.306-5.491-10.165-6.267-10.165,20.634c0,0,0,12.417,0,20.816
	c0,19.554-1.186,22.22-1.614,22.541c-3.478,0.019-7.091,0.037-10.583,0.056c-0.016-21.414-2.858-26.735-2.858-36.015
	c0-7.397,0.828-12.829,4.67-18.417c-4.055-4.534-6.762-13.165-7.495-20.406l7.034,5.34l1.494-10.919l10.919-1.494l-6.664-8.777
	l6.665-8.778l-10.92-1.494l-1.494-10.919l-8.777,6.665l-8.776-6.665l-1.495,10.919l-10.919,1.494l6.665,8.778l-6.665,8.777
	l10.919,1.494l1.495,10.919l6.903-5.242c-0.748,7.221-3.449,15.794-7.484,20.308c3.841,5.588,4.669,11.02,4.669,18.417
	c0,9.29-2.851,14.613-2.858,36.091c-3.441,0.017-5.811,0.026-6.377,0.024c-0.724,0.002-2.393-0.015-4.543-0.037
	c-1.26-0.306-1.382-2.502-1.25-7.028c0.18-6.184,0-36.448,0-36.448c0-26.901-6.859-26.125-10.165-20.634
	c-0.872,1.448-2.132,3.519-3.572,3.199c-0.676-0.15-1.386-0.959-0.554-3.245c2.543-6.984,5.048-14.084,5.048-21.521
	c0-22.107-14.127-38.371-30.051-38.371c-3.916,0-6.771,2.732-6.771,6.101c0,3.37,2.563,6.818,6.092,6.818
	c2.63,0,5.131-2.116,4.834-4.14l0.096,0.039c9.079,3.194,13.86,14.479,13.86,24.471c0,6.963-2.749,12.768-6.728,19.372
	c-8.911,14.795-10.234,18.191-9.079,24.715c0.841,4.744,4.889,9.509,9.751,10.387c6.726,1.214,12.105-2.989,14.964-7.865
	c1.866-3.185,3.193-1.513,3.193,1.615v0.197c0,0,0,14.311,0,22.826c0,12.036-0.393,18.896-1.888,19.37
	c-2.738-0.031-7.419-1.152-9.439,1.248c-5.196,6.175,7.358,5.204,9.931,5.132c5.383-0.151,10.782-0.185,16.169-0.185
	c16.054,0,32.496-0.783,48.458,0.339c2.029,0.143,3.948,0.154,5.444-1.565c5.057-5.81-6.124-5.025-8.528-5.014
	c-2.545-0.166-2.645-1.23-2.645-3.578c0-2.566,0-38.573,0-38.573v-0.197c0-3.128,1.327-4.8,3.194-1.615
	c2.857,4.875,8.238,9.079,14.963,7.865c4.863-0.878,8.912-5.643,9.752-10.387c1.156-6.524-0.168-9.92-9.078-24.715
	c-3.979-6.604-6.727-12.409-6.727-19.372c0-9.993,4.78-21.277,13.859-24.471l0.096-0.039c-0.297,2.023,2.205,4.14,4.834,4.14
	c3.527,0,6.093-3.448,6.093-6.818C195.257,24.728,192.4,21.996,188.485,21.996z"/>
</svg>
