<?xml version="1.0" encoding="utf-8"?>
<!-- Generator: Adobe Illustrator 14.0.0, SVG Export Plug-In . SVG Version: 6.00 Build 43363)  -->
<!DOCTYPE svg PUBLIC "-//W3C//DTD SVG 1.1//EN" "http://www.w3.org/Graphics/SVG/1.1/DTD/svg11.dtd">
<svg version="1.1" id="svg2" xmlns:svg="http://www.w3.org/2000/svg"
	 xmlns="http://www.w3.org/2000/svg" xmlns:xlink="http://www.w3.org/1999/xlink" x="0px" y="0px" width="680px" height="500px"
	 viewBox="0 0 680 500" enable-background="new 0 0 680 500" xml:space="preserve">
<g id="layer1">
	<path id="path4749" d="M438.128,429.169c-62.798-3.164-155.202,7.896-186.204-31.398c-14.206-74.77-54.801-112.407-124.502-113.184
		c-42.796-82.648,34.889-95.6,87.991-116.834c3.373,38.416,1.306,78.347,62.068,100.77c2.438-11.888,7.423-21.594,23.366-21.907
		l89.816,0.365l63.529-49.655c10.266,16.328,30.638,37.25,30.67,48.925l96.388,0.365c7.02,5.978,12.972,21.843-1.096,37.606
		C522.413,282.469,417.468,288.777,438.128,429.169z"/>
	<path id="path5636" d="M281.453,113.138l0.258-34.043l38.122-5.174V46.902l-38.896,6.465c2.86-24.34,18.511-41.939,52.984-47.036
		c21.646,1.526,44.346,2.699,57.259,43.189c3.785,16.061,1.426,32.31-8.549,46.306c-32.288-17.699-56.453-5.617-78.498,14.239
		L281.453,113.138z"/>
	<path id="path6523" d="M215.048,186.738l113.548-85.8c15.263-8.141,32.094-9.689,52.211,2.556
		c17.194,15.622,46.243,58.898,69.369,88.355l-64.623,48.377l-62.069-86.348l-98.214,75.212
		C217.711,215.896,215.942,200.409,215.048,186.738z"/>
	<path id="path7410" fill="none" stroke="#000000" stroke-width="34.9997" stroke-linecap="round" stroke-linejoin="round" d="
		M220.153,393.54c0.011,44.997-36.458,81.483-81.455,81.494s-81.483-36.458-81.494-81.455c0-0.013,0-0.026,0-0.039
		c-0.011-44.997,36.458-81.483,81.455-81.494s81.483,36.457,81.494,81.454C220.153,393.514,220.153,393.526,220.153,393.54z"/>
	<path id="path8297" fill="none" stroke="#000000" stroke-width="34.9997" stroke-linecap="round" stroke-linejoin="round" d="
		M624.146,393.65c0.013,44.997-36.457,81.483-81.454,81.494c-44.996,0.011-81.483-36.457-81.494-81.454c0-0.014,0-0.026,0-0.04
		c-0.012-44.997,36.457-81.483,81.454-81.494s81.483,36.458,81.494,81.455C624.146,393.624,624.146,393.638,624.146,393.65z"/>
</g>
</svg>
