<?xml version="1.0" encoding="utf-8"?>
<!-- Generator: Adobe Illustrator 14.0.0, SVG Export Plug-In . SVG Version: 6.00 Build 43363)  -->
<!DOCTYPE svg PUBLIC "-//W3C//DTD SVG 1.1//EN" "http://www.w3.org/Graphics/SVG/1.1/DTD/svg11.dtd">
<svg version="1.1" id="Ebene_1" xmlns="http://www.w3.org/2000/svg" xmlns:xlink="http://www.w3.org/1999/xlink" x="0px" y="0px"
	 width="512px" height="512px" viewBox="0 0 512 512" enable-background="new 0 0 512 512" xml:space="preserve">
<g>
	<g>
		<path d="M457.678,249.902c-15.424-31.075-46.681-49.071-79.17-49.068c-13.188,0.001-26.583,2.967-39.195,9.227
			c-5.886,2.922-11.299,6.417-16.213,10.376c-11.271-15.21-22.892-33.413-32.646-54.023l5.318-0.085l2.722-0.042
			c1.915-0.035,3.757-1.072,4.734-2.876l5.324-9.807l1.887-3.476c0.234,0.015,0.468,0.035,0.705,0.035
			c5.833,0,10.562-4.728,10.562-10.561s-4.729-10.562-10.562-10.562s-10.561,4.729-10.561,10.562c0,0.528,0.051,1.042,0.126,1.549
			l-2.421,0.986l-3.185,1.296l-51.517,0.821L193.41,101.71l-11.78-9.432c-8.747-5.472-19.333-7.239-29.406-4.85
			c-0.052,0.012-0.103,0.028-0.156,0.041l-37.096-5.662c-1.659-0.254-3.348-0.382-5.02-0.382c-13.729,0-25.847,8.263-30.87,21.05
			l-12.83,32.661c-2.306,5.865-2.108,12.51,0.538,18.229c2.646,5.72,7.584,10.171,13.547,12.211l11.315,3.872l-8.086,14.308
			c-8.06,14.264-4.266,32.294,8.858,42.101l10.211,7.63l2.301,1.759l0.018-0.027l-0.018,0.027l15.378,12.579l18.067,14.819
			l12.863,10.605l-12.865,46.301c-5.613-1.108-11.347-1.682-17.12-1.681c-13.186,0.001-26.583,2.967-39.195,9.227
			c-43.687,21.686-61.523,74.68-39.84,118.366c15.424,31.074,46.681,49.067,79.17,49.067c13.187,0,26.583-2.968,39.195-9.229
			c31.315-15.544,49.339-47.174,49.052-79.933l-15.282,7.007c-0.499,5.786-1.688,11.553-3.588,17.197
			c-6.244,18.55-19.337,33.557-36.868,42.259c-10.239,5.082-21.177,7.659-32.509,7.659c-13.454,0-26.656-3.698-38.179-10.696
			c-11.82-7.178-21.336-17.558-27.521-30.019c-8.701-17.531-10.055-37.402-3.812-55.951c6.244-18.549,19.337-33.558,36.868-42.258
			c10.236-5.082,21.176-7.659,32.516-7.66h0.001c4.402,0,8.775,0.403,13.072,1.182l-19.533,70.299c-1,3.602,1.108,7.331,4.709,8.331
			c0.606,0.169,1.215,0.249,1.815,0.249c2.964,0,5.684-1.962,6.517-4.957l19.531-70.293c4.172,1.587,8.212,3.549,12.062,5.887
			c2.612,1.587,5.104,3.339,7.48,5.226c-0.01-0.081-0.021-0.161-0.03-0.242l-0.832-6.848l-0.874-6.85
			c-0.253-1.926-0.492-3.851-0.751-5.773c-4.177-2.331-8.532-4.314-13.015-5.938l11.255-40.505l7.249,5.979l1.408,18.936
			c0.338,4.564,0.68,9.128,1.066,13.692c0.401,4.562,0.805,9.128,1.234,13.691c0.416,4.565,0.847,9.13,1.211,13.693
			c0.185,2.282,0.351,4.563,0.504,6.846c0.152,2.281,0.28,4.563,0.4,6.845c0.105,2.281,0.213,4.562,0.286,6.845
			c0.088,2.28,0.137,4.561,0.188,6.842c0.022,2.281-0.147,4.56-0.568,6.835c-0.454,2.276-1.048,4.551-2.276,6.819
			c-1.118,2.086-1.413,4.642-0.582,7.057c1.088,3.16,3.797,5.302,6.877,5.817l41.771-19.153c2.942,1.037,6.078,1.597,9.295,1.597
			h0.001c4.047,0,7.975-0.859,11.677-2.558c6.81-3.123,11.997-8.711,14.604-15.735c2.607-7.022,2.323-14.643-0.799-21.452
			c-0.793-1.729-1.754-3.35-2.853-4.851l42.117-136.573c5.813,9.387,11.81,18.061,17.697,25.936
			c-23.718,26.132-30.347,65.127-13.71,98.646c15.424,31.074,46.681,49.067,79.17,49.067c13.188,0,26.583-2.967,39.195-9.228
			C461.525,346.583,479.362,293.589,457.678,249.902 M85.205,151.347c-2.099-0.717-3.836-2.284-4.768-4.297
			c-0.931-2.013-1.001-4.352-0.189-6.416l12.831-32.66c2.705-6.885,9.485-11.511,16.873-11.511c0.915,0,1.841,0.07,2.751,0.21
			l19.322,2.949c-1.709,1.959-3.231,4.097-4.53,6.397l-28.316,50.11L85.205,151.347z M247.621,363.232
			c-1.676,4.513-5.009,8.104-9.386,10.109c-2.381,1.093-4.903,1.646-7.496,1.646c-1.854-0.001-3.663-0.295-5.382-0.834l6.538-9.884
			c0.648-0.104,1.292-0.288,1.917-0.574c3.723-1.707,5.355-6.107,3.649-9.828c-1.706-3.722-6.106-5.355-9.828-3.648
			c-3.293,1.511-4.946,5.131-4.101,8.522l-6.536,9.88c-1.058-1.241-1.959-2.63-2.657-4.152c-2.006-4.376-2.189-9.271-0.513-13.784
			c1.675-4.515,5.008-8.104,9.384-10.11c2.382-1.092,4.905-1.646,7.499-1.646c7.032,0,13.468,4.128,16.397,10.519
			C249.114,353.823,249.297,358.718,247.621,363.232 M280.014,179.665l-92.038,55.997l15.374,19.983l61.466-37.396L230.69,328.904
			c-4.039,0.003-7.961,0.862-11.656,2.558c-6.812,3.122-11.997,8.711-14.605,15.734c-2.607,7.023-2.324,14.643,0.799,21.454
			c0.853,1.856,1.896,3.593,3.1,5.187l-0.033,0.004c-0.835,0.103-1.663,0.229-2.494,0.339l-2.063,0.287l-1.618,0.241l-1.293,0.198
			c-1.655,0.251-3.31,0.505-4.954,0.788c-0.724,0.125-1.444,0.255-2.165,0.386c0.094-2.235,0.186-4.471,0.315-6.707
			c0.117-2.279,0.269-4.557,0.418-6.836c0.164-2.279,0.336-4.557,0.532-6.836c0.197-2.278,0.407-4.557,0.635-6.834
			c0.453-4.557,0.973-9.112,1.477-13.667c0.518-4.557,1.009-9.112,1.498-13.667c0.475-4.557,0.904-9.113,1.331-13.669l2.563-27.339
			c0.324-3.606-0.799-7.381-3.424-10.275l-1.715-1.891l-31.4-34.604l-15.658-17.346l-15.362-17.065l49.751-67.125l47.885,32.663
			l0.534,0.365c1.873,1.28,4.146,2.014,6.588,1.975l35.989-0.573c1.872,4.176,3.819,8.261,5.832,12.253
			C280.988,179.123,280.493,179.373,280.014,179.665 M448.02,312.538c-6.242,18.549-19.337,33.557-36.868,42.259
			c-10.238,5.082-21.177,7.659-32.509,7.659c-13.454,0-26.656-3.699-38.179-10.696c-11.819-7.178-21.336-17.559-27.521-30.019
			c-8.701-17.532-10.055-37.402-3.812-55.951c2.997-8.903,7.575-16.986,13.46-23.951c4.962,6.103,9.726,11.578,14.092,16.36
			c20.533,22.488,36.664,34.846,37.341,35.361c1.226,0.933,2.664,1.383,4.093,1.383c2.038,0,4.057-0.92,5.389-2.666
			c2.264-2.973,1.688-7.219-1.28-9.483c-0.158-0.121-16.021-12.3-35.771-33.968c-4.375-4.801-9.166-10.325-14.155-16.504
			c4.179-3.389,8.765-6.34,13.702-8.791c10.235-5.081,21.176-7.658,32.516-7.659h0.001c13.451,0,26.651,3.699,38.173,10.697
			c11.819,7.178,21.336,17.558,27.521,30.018C452.91,274.118,454.263,293.989,448.02,312.538"/>
	</g>
	<g>
		<path d="M201.731,91.532c14.549,2.945,29.153-8.543,32.618-25.66c3.465-17.118-5.521-33.382-20.07-36.327
			c-4.73-0.958-9.468-0.389-13.824,1.403c-6.675,2.744-11.857,8.208-14.245,15.017c-2.389,6.808-1.748,14.31,1.741,20.626
			L201.731,91.532z"/>
	</g>
	<g>
		<path d="M218.947,187.419l-2.436-0.15l-52.327-3.225l-16.73-1.051l30.895,40.155l10.765-0.733l42.642-25.943
			C229.61,191.442,224.774,187.778,218.947,187.419"/>
	</g>
	<g>
		<path d="M221.293,274.152c0.697,2.224,1.377,4.451,2.043,6.682s1.309,4.467,1.942,6.704c0.621,2.239,1.242,4.479,1.831,6.728
			c0.604,2.244,1.168,4.497,1.736,6.749c0.221,0.928,0.402,1.862,0.556,2.806l11.704-37.952c-0.405-3.345-0.799-6.693-1.189-10.041
			c-0.409-3.584-0.834-7.164-1.263-10.743l-22.349,13.598c0.235,0.717,0.466,1.436,0.701,2.152
			C218.447,265.271,219.902,269.705,221.293,274.152"/>
	</g>
	<g>
		<path d="M279.032,295.975l-3.763,12.196c0.021-0.012,0.039-0.021,0.06-0.034c1.459-0.854,2.913-1.724,4.352-2.638
			c1.613-1.029,2.64-2.884,2.51-4.928C282.061,298.504,280.791,296.782,279.032,295.975"/>
	</g>
</g>
</svg>
