<?xml version="1.0" encoding="utf-8"?>
<!-- Generator: Adobe Illustrator 14.0.0, SVG Export Plug-In . SVG Version: 6.00 Build 43363)  -->
<!DOCTYPE svg PUBLIC "-//W3C//DTD SVG 1.1//EN" "http://www.w3.org/Graphics/SVG/1.1/DTD/svg11.dtd">
<svg version="1.1" id="Ebene_1" xmlns="http://www.w3.org/2000/svg" xmlns:xlink="http://www.w3.org/1999/xlink" x="0px" y="0px"
	 width="512px" height="512px" viewBox="0 0 512 512" enable-background="new 0 0 512 512" xml:space="preserve">
<g>
	<g>
		<path d="M253.526,95.634c17.979,1.675,34.149-14.113,36.119-35.264c1.971-21.15-11.007-39.654-28.984-41.329
			c-5.846-0.544-11.5,0.758-16.537,3.49c-7.715,4.184-13.274,11.465-15.279,20.009c-2.006,8.544-0.258,17.533,4.781,24.718
			L253.526,95.634z"/>
	</g>
	<g>
		<path d="M208.922,277.137l-0.367,23.749l-0.431,26.206l-0.394,21.433l-13.101,17.688l-9.056,12.285l-8.936,12.394l-4.469,6.195
			c-1.489,2.065-2.993,4.119-4.507,6.161c-1.514,2.045-3.043,4.073-4.585,6.092c-1.542,2.018-3.105,4.017-4.677,6.008
			c-1.583,1.981-3.165,3.963-4.776,5.918c-1.599,1.968-3.231,3.903-4.861,5.842c-1.657,1.913-3.487,3.672-5.543,5.227
			c-1.028,0.775-2.12,1.496-3.283,2.15c-1.171,0.646-2.39,1.252-3.802,1.683c-1.103,0.341-2.198,0.92-3.13,1.721
			c-3.634,3.124-4.048,8.604-0.924,12.236l3.639,4.233c0.786,0.915,1.604,1.805,2.428,2.688c0.828,0.88,1.669,1.749,2.522,2.608
			c1.704,1.722,3.449,3.407,5.223,5.07c1.772,1.665,3.581,3.3,5.411,4.916c1.83,1.617,3.665,3.23,5.538,4.812l2.903,2.454
			c0.706,0.597,1.605,0.975,2.601,1.022c1.507,0.074,3.006,0.18,4.521,0.228c1.512,0.053,3.017,0.132,4.535,0.157
			c1.516,0.042,3.032,0.072,4.557,0.079c1.521,0.017,3.05,0.001,4.585-0.035c2.252-0.062,4.43-1.267,5.619-3.371
			c1.804-3.191,0.679-7.242-2.515-9.047c-1.336-0.756-2.678-1.486-4.027-2.189c-1.348-0.711-2.7-1.398-4.057-2.075
			c-1.11-0.567-2.229-1.102-3.347-1.642c-0.98-1.732-1.976-3.45-2.981-5.161c-1.235-2.107-2.492-4.195-3.787-6.254
			c-1.004-1.601-2.031-3.179-3.076-4.744c0.688-0.87,1.408-1.711,2.167-2.518c1.763-1.817,3.523-3.64,5.318-5.429
			c1.781-1.802,3.593-3.577,5.402-5.353c1.823-1.766,3.653-3.522,5.503-5.262c1.853-1.738,3.715-3.467,5.596-5.18
			c1.878-1.714,3.769-3.418,5.673-5.107l5.71-5.074l11.424-10.146l11.304-10.254l22.554-20.557c2.264-2.062,3.9-4.854,4.5-8.095
			l0.65-3.512l0.25-1.349c-1.632-2.755-3.402-5.654-5.266-8.709C232.572,329.985,219.027,307.792,208.922,277.137"/>
	</g>
	<g>
		<path d="M334.254,495.868c1.02-0.07,2.042-0.167,3.062-0.257c1.021-0.093,2.043-0.176,3.066-0.286
			c2.046-0.203,4.096-0.429,6.15-0.71c2.304-0.32,4.379-1.852,5.271-4.177c1.311-3.406-0.392-7.229-3.798-8.538
			c-1.937-0.744-3.878-1.433-5.822-2.1c-0.973-0.343-1.947-0.658-2.921-0.98c-0.974-0.321-1.946-0.649-2.923-0.952l-2.927-0.924
			c-0.976-0.312-1.953-0.593-2.931-0.891c-1.952-0.593-3.908-1.173-5.865-1.729c-1.958-0.557-3.917-1.104-5.878-1.63
			c-1.964-0.518-3.928-1.021-5.896-1.485c-1.186-0.28-2.374-0.548-3.562-0.806c-0.203-1.343-0.335-2.689-0.402-4.042
			c-0.094-2.604-0.191-5.209-0.239-7.816c-0.066-2.605-0.094-5.217-0.119-7.825c-0.011-2.61-0.01-5.222,0.021-7.836
			c0.031-2.612,0.077-5.229,0.146-7.844c0.134-5.232,0.347-10.471,0.537-15.706l0.291-7.854l0.257-7.853
			c0.148-5.233,0.234-10.462,0.331-15.69l0.593-31.379c0.002-0.065-0.007-0.138-0.024-0.204l-1.81-6.889
			c-0.614-2.34-1.311-4.643-2.002-6.944c-0.711-2.295-1.425-4.589-2.18-6.861c-1.481-4.562-3.058-9.078-4.675-13.576
			c-3.243-8.992-6.699-17.886-10.318-26.702c-0.904-2.204-1.816-4.405-2.745-6.599c-0.916-2.198-1.865-4.383-2.8-6.572
			c-1.895-4.37-3.811-8.729-5.774-13.064c-0.979-2.17-1.962-4.338-2.966-6.496c-0.99-2.164-1.998-4.32-3.015-6.473
			c-1.809-3.853-3.652-7.69-5.516-11.518l-0.145-0.557l-2.736-10.617l15.782-98.099c1.054-6.55-0.788-13.235-5.046-18.321
			c-4.26-5.087-10.517-8.074-17.147-8.189c0,0-24.184-0.174-26.393,0.254l-26.094-4.606c-2.36-0.416-4.767-0.627-7.153-0.627
			c-16.544,0-31.39,9.857-37.821,25.113l-32.817,77.844c-3.591,8.517-2.75,18.242,2.249,26.016
			c4.998,7.773,13.498,12.574,22.737,12.841l11.85,0.343l0.155-14.893l-11.575-0.335c-4.324-0.125-8.302-2.372-10.642-6.011
			c-2.341-3.638-2.733-8.19-1.054-12.176l32.818-77.844c4.099-9.724,13.559-16.007,24.1-16.007c1.521,0,3.058,0.135,4.564,0.401
			l9.389,1.657c-0.942,1.186-0.16,0.502-0.16,0.502l-36.59,61.206l-2.331,3.899l-0.076,3.642l-1.707,81.996l-0.191,9.179
			l5.748,2.246l15.827,6.181l11.247-14.964l-4.695-6.125l1.529-73.4l41.191-53.6l-32.019,53.03
			c2.813,73.839,28.723,116.306,46.198,144.938c3.985,6.531,7.562,12.395,10.441,17.882c0.644,1.014,1.291,2.025,1.939,3.036
			c1.029,1.574,2.06,3.147,3.125,4.704l4.062,25.188c0.83,5.164,1.649,10.329,2.532,15.489l1.358,7.737l1.392,7.735
			c0.926,5.157,1.872,10.312,2.739,15.475c0.437,2.58,0.851,5.162,1.248,7.746c0.396,2.583,0.765,5.168,1.123,7.754
			c0.34,2.587,0.682,5.176,0.98,7.766c0.318,2.589,0.588,5.181,0.861,7.772c0.236,2.594,0.241,5.205-0.06,7.838
			c-0.148,1.315-0.385,2.639-0.716,3.968c-0.344,1.329-0.748,2.665-1.415,4.017c-0.436,0.892-0.737,1.902-0.841,2.947
			c-0.466,4.711,2.979,8.906,7.688,9.371L334.254,495.868z"/>
	</g>
	<g>
		<path d="M430.343,25.312c-2.132-0.618-4.287-1.171-6.458-1.659l-3.267-0.693l-3.288-0.591c-1.099-0.213-2.2-0.347-3.305-0.517
			c-1.103-0.151-2.207-0.348-3.313-0.461c-2.214-0.24-4.436-0.548-6.659-0.699l-3.341-0.275c-1.115-0.098-2.229-0.125-3.345-0.191
			l-3.354-0.171c-1.118-0.054-2.232-0.053-3.352-0.082c-2.236-0.042-4.479-0.112-6.714-0.059l-3.357,0.037
			c-1.121,0.008-2.242,0.022-3.359,0.081l-6.717,0.278l-13.242,0.732l-26.479,1.468l-8.786,0.487l3.869,8.744l4.767,10.772
			l12.552-6.48l-1.522-2.561l16.699-2.958l0.089-0.015l10.072,67.572l-3.27,6.639l-11.071,21.981l-18.448,30.575l-41.677-27.531
			l-4.515,30.405l42.941,28.367c0.143,0.094,0.334,0.216,0.479,0.304c6.586,3.975,15.148,1.858,19.122-4.729l23.461-38.878
			l5.271,35.349l4.93-0.571L373.186,28.337l-7.27,0.842l5.51-0.975l6.453-1.05c1.076-0.188,2.156-0.331,3.235-0.469l3.243-0.427
			c2.163-0.314,4.332-0.506,6.505-0.727c1.087-0.102,2.176-0.234,3.264-0.312l3.266-0.226c1.09-0.066,2.183-0.171,3.273-0.206
			l3.273-0.123c2.188-0.115,4.37-0.074,6.562-0.102c1.097-0.02,2.187,0.043,3.283,0.061c1.093,0.035,2.191,0.036,3.282,0.116
			l3.284,0.19l3.277,0.292c2.183,0.223,4.36,0.51,6.533,0.865c2.163,0.388,4.33,0.806,6.442,1.448
			C434.582,26.642,432.466,25.962,430.343,25.312"/>
	</g>
</g>
</svg>
