<?xml version="1.0" encoding="utf-8"?>
<!-- Generator: Adobe Illustrator 16.0.0, SVG Export Plug-In . SVG Version: 6.00 Build 0)  -->
<!DOCTYPE svg PUBLIC "-//W3C//DTD SVG 1.1//EN" "http://www.w3.org/Graphics/SVG/1.1/DTD/svg11.dtd">
<svg version="1.1" id="Layer_1" xmlns="http://www.w3.org/2000/svg" xmlns:xlink="http://www.w3.org/1999/xlink" x="0px" y="0px"
	 width="256px" height="256px" viewBox="0 0 256 256" enable-background="new 0 0 256 256" xml:space="preserve">
<g>
	<path id="path141" d="M235.837,221.36c0-0.006,0-0.006,0-0.006c-0.006,0-0.006,0-0.006,0.006c0,0,0,0.006,0.006,0.006V221.36z
		 M235.837,221.36c0-0.006,0-0.006,0-0.006c-0.006,0-0.006,0-0.006,0.006c0,0,0,0.006,0.006,0.006V221.36z M235.837,221.36
		c0-0.006,0-0.006,0-0.006c-0.006,0-0.006,0-0.006,0.006c0,0,0,0.006,0.006,0.006V221.36z"/>
	<path id="path153" d="M43.41,76.808h175.338l-87.672-49.565L43.41,76.808"/>
	<path id="path155" d="M38.669,202.592h184.814l-16.585-26.062H55.254L38.669,202.592"/>
	<path id="path157" stroke="#742E09" stroke-width="0.0603" stroke-linejoin="bevel" stroke-miterlimit="22.926" d="M38.669,202.592
		h184.814l-16.585-26.062H55.254L38.669,202.592z"/>
	<path id="path159" d="M183.205,176.53h23.693V86.698h-23.693V176.53z"/>
	<path id="path161" stroke="#742E09" stroke-width="0.0603" stroke-linejoin="bevel" stroke-miterlimit="22.926" d="M183.205,176.53
		h23.693V86.698h-23.693V176.53z"/>
	<path id="path163" d="M55.254,176.53h23.693V86.698H55.254V176.53z"/>
	<path id="path165" stroke="#742E09" stroke-width="0.0603" stroke-linejoin="bevel" stroke-miterlimit="22.926" d="M55.254,176.53
		h23.693V86.698H55.254V176.53z"/>
	<path id="path167" d="M97.906,176.53H121.6V86.698H97.906V176.53z"/>
	<path id="path169" stroke="#742E09" stroke-width="0.0603" stroke-linejoin="bevel" stroke-miterlimit="22.926" d="M97.906,176.53
		H121.6V86.698H97.906V176.53z"/>
	<path id="path171" d="M140.553,176.53h23.693V86.698h-23.693V176.53z"/>
	<path id="path173" stroke="#742E09" stroke-width="0.0603" stroke-linejoin="bevel" stroke-miterlimit="22.926" d="M140.553,176.53
		h23.693V86.698h-23.693V176.53z"/>
</g>
</svg>
