<?xml version="1.0" encoding="utf-8"?>
<!-- Generator: Adobe Illustrator 16.0.0, SVG Export Plug-In . SVG Version: 6.00 Build 0)  -->
<!DOCTYPE svg PUBLIC "-//W3C//DTD SVG 1.1//EN" "http://www.w3.org/Graphics/SVG/1.1/DTD/svg11.dtd">
<svg version="1.1" id="Layer_1" xmlns="http://www.w3.org/2000/svg" xmlns:xlink="http://www.w3.org/1999/xlink" x="0px" y="0px"
	 width="256px" height="256px" viewBox="0 0 256 256" enable-background="new 0 0 256 256" xml:space="preserve">
<path d="M236.684,28.619l-1.922-3.334l-2.549-2.861l-3.143-2.233l-3.488-1.568l-5.688-0.904H36.104l-7.494,1.568l-4.825,3.137
	l-2.549,2.861l-2.628,5.136l-0.784,3.765v187.629l0.784,3.765l2.628,5.095l4.04,4.076l5.136,2.628l5.692,0.903h183.79l3.843-0.431
	l5.333-2.041l3.143-2.274l2.549-2.855l2.628-5.101l0.784-3.765V34.186L236.684,28.619z M228.993,221.343l-0.898,2.705l-2.788,3.256
	l-2.551,1.335l-2.861,0.431l-185.245-0.114l-2.746-0.867l-3.256-2.783l-1.292-2.587l-0.354-1.375L26.923,36.107l0.432-2.861
	l1.292-2.55l2.041-2.036l3.962-1.646l184.161-0.151l3.945,0.503l2.551,1.293l2.04,2.036l1.646,3.962V221.343z"/>
<path d="M200.744,82.594l-1.9-7.696l-2.612-6.19l-5.333-8.609l-6.896-7.358l-8.174-5.878l-9.19-4.17l-9.851-2.259l-6.699-0.467
	H69.193V216.46h33.104v-0.005v-73.566l49.166,0.009l11.943-1.76l9.426-3.546l8.567-5.297l5.064-4.44l6.417-7.789l5.266-9.917
	l2.41-8.658l1.013-10.048L200.744,82.594z M167.453,97.44l-2.721,5.104l-4.17,4.01l-3.429,1.869l-3.697,1.09l-1.947,0.276h-49.191
	V73.07h47.79l5.723,0.935l5.142,2.649l4.091,4.128l2.565,5.177l0.856,5.759L167.453,97.44z"/>
</svg>
