<?xml version="1.0" encoding="utf-8"?>
<!-- Generator: Adobe Illustrator 16.0.0, SVG Export Plug-In . SVG Version: 6.00 Build 0)  -->
<!DOCTYPE svg PUBLIC "-//W3C//DTD SVG 1.1//EN" "http://www.w3.org/Graphics/SVG/1.1/DTD/svg11.dtd">
<svg version="1.1" id="Layer_1" xmlns="http://www.w3.org/2000/svg" xmlns:xlink="http://www.w3.org/1999/xlink" x="0px" y="0px"
	 width="256px" height="256px" viewBox="0 0 256 256" enable-background="new 0 0 256 256" xml:space="preserve">
<path d="M131,16.333c-61.856,0-112,50.144-112,112c0,61.854,50.144,112,112,112c61.854,0,112-50.146,112-112
	C243,66.477,192.854,16.333,131,16.333z M131,219.332c-50.177,0-91-40.824-91-91c0-50.177,40.823-91,91-91c50.176,0,91,40.822,91,91
	C222,178.508,181.176,219.332,131,219.332z"/>
<polygon points="116.98,170.259 89.178,170.332 89,86.332 116.999,87.013 "/>
<polygon points="172.98,170.259 145.178,170.332 145,86.332 173,87.013 "/>
</svg>
