<?xml version="1.0" encoding="utf-8"?>
<!-- Generator: Adobe Illustrator 14.0.0, SVG Export Plug-In . SVG Version: 6.00 Build 43363)  -->
<!DOCTYPE svg PUBLIC "-//W3C//DTD SVG 1.1//EN" "http://www.w3.org/Graphics/SVG/1.1/DTD/svg11.dtd">
<svg version="1.1"
	 id="svg2" xmlns:dc="http://purl.org/dc/elements/1.1/" sodipodi:docname="pushpin_font_awesome.svg" xmlns:sodipodi="http://sodipodi.sourceforge.net/DTD/sodipodi-0.dtd" xmlns:inkscape="http://www.inkscape.org/namespaces/inkscape" xmlns:cc="http://creativecommons.org/ns#" xmlns:rdf="http://www.w3.org/1999/02/22-rdf-syntax-ns#" inkscape:version="0.48.3.1 r9886" xmlns:svg="http://www.w3.org/2000/svg"
	 xmlns="http://www.w3.org/2000/svg" xmlns:xlink="http://www.w3.org/1999/xlink" x="0px" y="0px" width="484.721px"
	 height="416.689px" viewBox="0 0 484.721 416.689" enable-background="new 0 0 484.721 416.689" xml:space="preserve">
<sodipodi:namedview  id="namedview8" inkscape:current-layer="svg2" inkscape:window-y="25" inkscape:window-x="0" inkscape:cy="896" inkscape:cx="896" inkscape:zoom="0.13169643" showgrid="false" inkscape:window-height="480" inkscape:window-width="640" inkscape:pageshadow="2" inkscape:pageopacity="0" objecttolerance="10" borderopacity="1" guidetolerance="10" bordercolor="#666666" gridtolerance="10" pagecolor="#ffffff" inkscape:window-maximized="0">
	</sodipodi:namedview>
<g id="g4" transform="matrix(1,0,0,-1,318.91525,1209.4915)">
	<path id="path6" inkscape:connector-curvature="0" d="M-99.13,1013.983v104.172c0,2.17-0.698,3.953-2.093,5.348
		c-1.396,1.395-3.178,2.093-5.349,2.093c-2.17,0-3.953-0.698-5.348-2.093c-1.396-1.395-2.093-3.178-2.093-5.348v-104.172
		c0-2.17,0.697-3.953,2.093-5.348c1.395-1.395,3.178-2.093,5.348-2.093c2.171,0,3.953,0.698,5.349,2.093
		C-99.828,1010.03-99.13,1011.812-99.13,1013.983z M57.129,932.133c0-4.031-1.473-7.519-4.418-10.464s-6.434-4.419-10.464-4.419
		h-99.755L-69.366,804.94c-0.311-1.859-1.124-3.449-2.441-4.767c-1.318-1.317-2.907-1.977-4.768-1.977h-0.232
		c-4.186,0-6.666,2.093-7.44,6.278l-17.673,112.775h-93.94c-4.031,0-7.519,1.474-10.464,4.419s-4.418,6.433-4.418,10.464
		c0,19.066,6.084,36.235,18.253,51.504c12.169,15.27,25.927,22.905,41.273,22.905v119.054c-8.061,0-15.036,2.945-20.927,8.836
		s-8.836,12.867-8.836,20.928c0,8.061,2.945,15.037,8.836,20.927c5.891,5.891,12.866,8.836,20.927,8.836H-2.398
		c8.061,0,15.037-2.945,20.928-8.836c5.891-5.891,8.836-12.867,8.836-20.927c0-8.061-2.945-15.037-8.836-20.928
		s-12.867-8.836-20.928-8.836v-119.054c15.347,0,29.104-7.635,41.273-22.905C51.044,968.368,57.129,951.199,57.129,932.133z"/>
</g>
</svg>
