<?xml version="1.0" encoding="utf-8"?>
<!-- Generator: Adobe Illustrator 16.0.0, SVG Export Plug-In . SVG Version: 6.00 Build 0)  -->
<!DOCTYPE svg PUBLIC "-//W3C//DTD SVG 1.1//EN" "http://www.w3.org/Graphics/SVG/1.1/DTD/svg11.dtd">
<svg version="1.1" id="Layer_1" xmlns="http://www.w3.org/2000/svg" xmlns:xlink="http://www.w3.org/1999/xlink" x="0px" y="0px"
	 width="256px" height="256px" viewBox="0 0 256 256" enable-background="new 0 0 256 256" xml:space="preserve">
<g>
	<path d="M180.313,104.762l-24.024-17.73c-1.013-0.863-1.644-2.182-1.895-3.945l-2.507-19.354c-0.259-2.479-1.429-4.288-3.498-5.439
		l-37.094-22.241c-2.414-1.272-4.809-1.337-7.167-0.223l-17.525,8.782c-1.225,0.296-2.273,0.315-3.166,0.055l-11.557-2.107
		c-1.68,0.158-3.007,0.974-4.001,2.441l-7.175,12.123c-1.225,1.977-0.965,3.992,0.78,6.062l11.399,6.943h-0.01
		c-11.473,13.404,10.48,29.204,18.909,11.399l51.27,30.745c-11.53,14.257,11.417,28.683,18.908,11.344l7.945,4.669
		c1.921,0.511,3.557,0.166,4.893-1.002l7.333-14.454C183.265,109.877,182.66,107.195,180.313,104.762z M114.135,62.35L95.672,51.229
		l11.678-6.117l12.625,7.565L114.135,62.35z M122.974,67.631l5.781-9.672l13.461,8.113l1.783,14.23L122.974,67.631z"/>
	<path d="M90.929,171.162c8.011,3.897,16.472,3.897,25.067,0c6.154-4.121,12.236-4.121,18.095,0c9.142,4.548,17.927,4.548,26.272,0
		c5.689-4.121,11.743-4.121,18.147,0c8.17,4.112,16.866,4.112,26.038,0c4.78-4.483,10.329-4.483,17.105,0
		c2.95,1.434,5.346,2.258,7.346,2.729v-17.168c-1-0.138-3.15-0.446-7.342-2.623c-6.775-4.475-12.439-4.475-17.22,0
		c-9.183,4.113-17.8,4.113-25.969,0c-6.405-4.112-12.418-4.112-18.1,0c-8.354,4.55-17.083,4.55-26.217,0
		c-5.868-4.112-11.866-4.112-18.01,0c-8.597,3.899-17.208,3.899-25.22,0C86.413,151.223,83,150.247,79,151.148V89.251l-52,0.026V220
		h52v-22.337c4-0.909,7.416,0.065,11.929,2.943c8.011,3.899,16.472,3.899,25.067,0c6.154-4.112,12.236-4.112,18.095,0
		c9.142,4.547,17.927,4.547,26.272,0c5.689-4.112,11.743-4.112,18.147,0c8.17,4.121,16.866,4.121,26.038,0
		c4.78-4.475,10.329-4.475,17.105,0c2.707,1.318,5.346,2.173,7.346,2.688v-17.085c-2-0.438-4.875-1.262-7.342-2.656
		c-6.775-4.482-12.439-4.482-17.22,0c-9.183,4.113-17.8,4.113-25.969,0c-6.405-4.12-12.418-4.12-18.1,0
		c-8.354,4.55-17.083,4.55-26.217,0c-5.868-4.12-11.866-4.12-18.01,0c-8.597,3.899-17.208,3.899-25.22,0
		C86.413,180.676,83,179.693,79,180.602v-12.393C83,167.301,86.416,168.284,90.929,171.162z"/>
</g>
</svg>
