<?xml version="1.0" encoding="utf-8"?>
<!-- Generator: Adobe Illustrator 16.0.0, SVG Export Plug-In . SVG Version: 6.00 Build 0)  -->
<!DOCTYPE svg PUBLIC "-//W3C//DTD SVG 1.1//EN" "http://www.w3.org/Graphics/SVG/1.1/DTD/svg11.dtd">
<svg version="1.1" id="Layer_1" xmlns="http://www.w3.org/2000/svg" xmlns:xlink="http://www.w3.org/1999/xlink" x="0px" y="0px"
	 width="256px" height="256px" viewBox="0 0 256 256" enable-background="new 0 0 256 256" xml:space="preserve">
<g>
	<path id="path2253" d="M60.643,32.437c-2.543,0-2.465,5.493,0,5.493h10.958c9.266,4.165,14.735,10.088,17.284,18.05h4.207v-0.028
		h4.157c2.549-7.961,8.02-13.857,17.284-18.021h10.707c2.644,0,2.243-5.493,0-5.493H60.643z M82.939,37.93h20.206
		c-4.357,4.082-9.071,8.233-9.071,14.603h-0.982H92.06C92.06,46.142,87.306,42.023,82.939,37.93z"/>
	<g>
		<path d="M237.015,156.518c-43.828-8.934-82.049-34.721-101.394-87.69C132.832,60.877,126.213,58,120.091,55H52.686
			c-3.861,0-5.759,3.989-7.34,7.591C38.9,79.824,32.403,97.273,30.042,116.088c-0.488,16.508-1.217,33.295-1.025,50.183
			c0,9.984,10.466,25.729,19.239,25.729h186.015c1.204,0,2.779-1.852,2.779-3.113L237.015,156.518z M49.403,155.21
			c-4.273,0-7.737-3.854-7.737-8.61c0-4.755,3.464-8.608,7.737-8.608c4.275,0,7.739,3.854,7.739,8.608
			C57.142,151.356,53.678,155.21,49.403,155.21z M113.305,155.21c-4.273,0-7.738-3.854-7.738-8.61c0-4.755,3.464-8.608,7.738-8.608
			s7.738,3.854,7.738,8.608C121.043,151.356,117.579,155.21,113.305,155.21z M126.466,101H41.743c-1.949,0-2.76-3.092-1.942-6.683
			C43.919,85.285,48.626,68,52.156,68h65.13c4.238,0,7.971,16.999,11.03,26.094C129.289,97.05,128.523,101,126.466,101z M158,152.84
			l-13.297-6.576c-1.226-13.218-1.129-26.683-1.205-40.156c4.766,5.14,9.502,12.19,14.502,15.415V152.84z M164.547,156.97
			c-0.283-13.22,0.073-14.66-0.002-28.133c5.332,5.036,7.529,6.021,12.136,9.768l0.188,24.106L164.547,156.97z M195,168.171
			c-3-0.536-8-1.661-11-3.771v-21.514l11,5.468V168.171z M209,171.72c-3-0.164-6-0.588-10-1.921v-18.78l10,2.734V171.72z
			 M222,173.495c-2,0.193-4-0.246-6-1.036v-16.857l6,1.7V173.495z M233,175.343l-6-1.185v-15.969l6,0.961V175.343z"/>
		<path id="path2283" d="M29.023,204.803h16.072v-8.953H69.31v8.845h35.477v-8.874h132.302v9.009
			c-37.28,1.517-75.26,2.698-94.987,12.582H29L29.023,204.803z"/>
	</g>
</g>
</svg>
