<?xml version="1.0" encoding="utf-8"?>
<!-- Generator: Adobe Illustrator 14.0.0, SVG Export Plug-In . SVG Version: 6.00 Build 43363)  -->
<!DOCTYPE svg PUBLIC "-//W3C//DTD SVG 1.1//EN" "http://www.w3.org/Graphics/SVG/1.1/DTD/svg11.dtd">
<svg version="1.1" id="Ebene_1" xmlns="http://www.w3.org/2000/svg" xmlns:xlink="http://www.w3.org/1999/xlink" x="0px" y="0px"
	 width="484.72px" height="416.69px" viewBox="0 0 484.72 416.69" enable-background="new 0 0 484.72 416.69" xml:space="preserve">
<g>
	<g>
		<g>
			<path d="M103.556,289.517h-0.035H40.053v19.842c0,24.154-35.293,24.442-35.293,0v-19.842h-18.784V227.38
				c0-16.677,13.549-25.491,21.201-26.453l19.315-48.838c3.636-9.3,11.514-17.249,26.361-17.249H80.45v-12.752
				c0-5.1,2.794-7.689,7.339-7.689h15.732h0.035h-0.037h0.036h16.035c4.545,0,7.339,2.589,7.339,7.689v12.752h27.28
				c14.847,0,22.725,7.949,26.361,17.249l19.315,48.838c7.652,0.962,21.215,9.776,21.215,26.453v62.137h-18.784v19.842
				c0,24.442-35.293,24.154-35.293,0v-19.842H103.556h-0.037H103.556z"/>
		</g>
		<g>
			<g>
				<path fill="#FFFFFF" d="M103.519,199.777h-0.036H27.175l14.543-37.788c1.818-5.4,4.546-9.3,10.909-9.358h50.856h0.036h0.036
					h50.881c6.364,0.058,9.091,3.958,10.909,9.358l14.542,37.788h-76.332H103.519z"/>
			</g>
			<g>
				<g>
					<ellipse fill="#FFFFFF" cx="22.968" cy="235.062" rx="16.302" ry="16.47"/>
					<path fill="#FFFFFF" d="M22.968,235.061"/>
				</g>
				<g>
					<ellipse fill="#FFFFFF" cx="184.094" cy="235.062" rx="16.302" ry="16.47"/>
					<path fill="#FFFFFF" d="M184.094,235.061"/>
				</g>
			</g>
		</g>
	</g>
	<g>
		<g>
			<path d="M360.362,21.525c-28.819,0-68.619,8.11-85.088,14.868c-16.469,6.758-27.448,13.515-30.878,30.41l-12.351,93.661v129.057
				h21.271v20.239c0,24.677,36.667,24.677,36.667,0v-20.239h67.694h0.215h70.377v20.239c0,24.677,36.668,24.677,36.668,0v-20.239
				h21.271V160.464l-12.351-93.661c-3.431-16.895-14.41-23.652-30.879-30.41c-16.468-6.758-56.268-14.868-85.086-14.868"/>
		</g>
		<g>
			<g>
				<g>
					<ellipse fill="#FFFFFF" cx="446.588" cy="231.74" rx="17.588" ry="17.323"/>
					<path fill="#FFFFFF" d="M446.588,231.74"/>
				</g>
				<g>
					<ellipse fill="#FFFFFF" cx="271.664" cy="231.74" rx="17.588" ry="17.323"/>
					<path fill="#FFFFFF" d="M271.664,231.74"/>
				</g>
			</g>
			<g>
				<path fill="#FFFFFF" d="M357.766,60.382H306.84c-10.294,0-10.294-15.204,0-15.204h51.052h53.522
					c10.292,0,10.292,15.204,0,15.204H357.766z"/>
			</g>
			<g>
				<path fill="#FFFFFF" d="M357.766,75.734H279.09c-10.873,0-13.713,5.441-15.034,13.695l-9.613,67.931
					c-0.896,6.511,1.016,12.974,10.15,12.974h93.299h95.767c9.134,0,11.046-6.463,10.15-12.974l-9.613-67.931
					c-1.32-8.254-4.161-13.695-15.034-13.695H357.766z"/>
			</g>
		</g>
	</g>
</g>
</svg>
