<?xml version="1.0" encoding="utf-8"?>
<!-- Generator: Adobe Illustrator 14.0.0, SVG Export Plug-In . SVG Version: 6.00 Build 43363)  -->
<!DOCTYPE svg PUBLIC "-//W3C//DTD SVG 1.1//EN" "http://www.w3.org/Graphics/SVG/1.1/DTD/svg11.dtd">
<svg version="1.1" id="Ebene_1" xmlns="http://www.w3.org/2000/svg" xmlns:xlink="http://www.w3.org/1999/xlink" x="0px" y="0px"
	 width="512px" height="512px" viewBox="0 0 512 512" enable-background="new 0 0 512 512" xml:space="preserve">
<g>
	<g>
		<path d="M457.198,211.129l-19.24,2.091l-53.377-13.587l-15.646-54.601c-6.601,21.2-11.658,39.963-14.63,51.506l5.352,18.673
			c1.347,4.655,5.059,8.516,10.095,9.798l61.902,15.757l2.952,0.752c2.113,0.523,4.442,0.038,6.209-1.506l14.384-12.587l6.611-5.786
			L457.198,211.129z"/>
	</g>
	<g>
		<path d="M337.157,92.178c17.532,5.277,36.779-7.166,42.987-27.793c6.209-20.628-2.973-41.628-20.504-46.905
			c-5.701-1.716-11.583-1.558-17.141,0.145c-8.509,2.609-15.498,8.728-19.208,16.818c-3.71,8.09-3.778,17.376-0.215,25.531
			L337.157,92.178z"/>
	</g>
	<g>
		<path d="M250.715,249.443c-4.131,4.209-8.052,8.581-11.7,13.161c-1.827,2.287-44.393,61.875-46.029,64.311
			c-1.62,2.447-8.04,12.282-9.612,14.765c-0.192,0.303-0.378,0.605-0.569,0.907c0,0-58.362,2.219-63.361,2.286l-7.5,0.115
			l-7.498,0.079c-4.999,0.058-9.995,0.058-14.993,0.09c-2.5,0.024-4.991-0.154-7.473-0.62c-2.479-0.492-4.952-1.159-7.396-2.522
			c-0.547-0.301-1.173-0.568-1.796-0.751c-4.604-1.344-9.426,1.301-10.77,5.903l-1.055,3.617l-12.273,42.06
			c-1.25,4.272,0.609,8.985,4.689,11.175c4.683,2.512,10.515,0.75,13.026-3.934l17.138-31.955c1.676-0.062,3.348-0.019,5.017,0.127
			c4.98,0.418,22.412,1.904,22.412,1.904l74.627,8.441c2.484,0.367,4.968,0.729,7.451,1.13c4.461,0.688,9.263-0.701,12.652-4.182
			l3.141-3.226c1.028-1.057,27.464-30.581,29.36-32.817c1.907-2.226,33.398-40.788,33.398-40.788
			c0.683-0.859,1.36-1.723,2.035-2.588c-5.81-13.092-13.142-31.32-18.735-50.955C253.5,246.593,252.096,248.01,250.715,249.443"/>
	</g>
	<g>
		<path d="M418.425,480.449c-1.963-0.754-33.662-10.369-35.658-10.842c-0.998-0.234-1.996-0.47-2.996-0.688
			c-0.207-0.047-0.413-0.088-0.62-0.133c-0.261-1.58-0.43-3.167-0.517-4.761c-0.114-2.746-0.529-21.991-0.519-24.746
			c0.01-2.755,0.033-5.512,0.096-8.27c0.056-2.758,1.499-82.727,1.499-82.727c0.017-2.204-0.495-4.506-1.604-6.589l-1.475-2.774
			l-46.395-87.684l-3.848-7.319l-1.556-2.96l38.072-129.901L291.27,93.674c-0.396-0.096-19.553,3.066-19.553,3.066l-55.899,10.916
			l-1.194,0.231c-4.598,0.911-8.635,4.104-10.412,8.812l-30.941,81.939l-0.751,1.989c-0.479,1.27-0.553,2.703-0.117,4.098
			l6.189,19.778l2.908,9.294l14.582-1.136l1.434-9.632l2.185-14.411l27.636-73.189l48.617-1.714l0.092-0.004l-10.499,64.398
			c0.876,17.406,5.792,38.826,14.558,63.107c5.813,16.104,12.062,29.933,15.986,38.145l0.966,0.287l5.75,7.767l19.611,26.623
			l17.552,23.922l4.209,26.024l1.334,8.161c0,0,3.281,19.032,4.273,24.467c0,0,4.999,29.919,5.378,32.646
			c0.359,2.727,1.677,13.645,1.972,16.375c0.259,2.734,0.281,5.487-0.004,8.262c-0.144,1.389-0.373,2.782-0.699,4.185
			c-0.34,1.401-0.737,2.809-1.407,4.234c-0.402,0.87-0.688,1.854-0.787,2.863c-0.476,4.819,3.048,9.112,7.865,9.587
			c0,0,44.504-0.32,45.481-0.408c1.036-0.093,7.262-0.725,9.346-1.01c2.337-0.325,4.441-1.877,5.348-4.235
			C423.604,485.653,421.879,481.777,418.425,480.449"/>
	</g>
</g>
</svg>
