<?xml version="1.0" encoding="utf-8"?>
<!-- Generator: Adobe Illustrator 16.0.0, SVG Export Plug-In . SVG Version: 6.00 Build 0)  -->
<!DOCTYPE svg PUBLIC "-//W3C//DTD SVG 1.1//EN" "http://www.w3.org/Graphics/SVG/1.1/DTD/svg11.dtd">
<svg version="1.1" id="Layer_1" xmlns="http://www.w3.org/2000/svg" xmlns:xlink="http://www.w3.org/1999/xlink" x="0px" y="0px"
	 width="256px" height="256px" viewBox="0 0 256 256" enable-background="new 0 0 256 256" xml:space="preserve">
<path d="M127.999,23.384C70.299,23.384,23.384,70.3,23.384,128c0,57.701,46.915,104.616,104.615,104.616
	c57.701,0,104.618-46.915,104.617-104.616C232.616,70.3,185.7,23.384,127.999,23.384z M130.484,210.672
	c-23.079,0-49.484-10.404-64.484-23.459v-32.916c14,19.863,39.157,35.188,64.507,35.188c15.513,0,28.184-8.892,28.184-18.351
	c0-35.756-93.599-13.621-93.599-75.294c0-32.349,31.681-49.754,60.058-49.754c23.647,0,44.85,7.756,61.85,20.809v27.432
	c-15-15.702-36.688-29.513-62.417-29.513c-14.568,0-23.069,7.757-23.069,16.837c0,38.213,95.077,11.351,95.077,74.158
	C196.591,181.159,171.915,210.672,130.484,210.672z"/>
</svg>
