<?xml version="1.0" encoding="utf-8"?>
<!-- Generator: Adobe Illustrator 16.0.0, SVG Export Plug-In . SVG Version: 6.00 Build 0)  -->
<!DOCTYPE svg PUBLIC "-//W3C//DTD SVG 1.1//EN" "http://www.w3.org/Graphics/SVG/1.1/DTD/svg11.dtd">
<svg version="1.1" id="Layer_1" xmlns="http://www.w3.org/2000/svg" xmlns:xlink="http://www.w3.org/1999/xlink" x="0px" y="0px"
	 width="256px" height="256px" viewBox="0 0 256 256" enable-background="new 0 0 256 256" xml:space="preserve">
<g>
	<g>
		<path fill-rule="evenodd" clip-rule="evenodd" fill="none" d="M1.016,1.016c85.656,0,171.312,0,256.968,0
			c0,85.656,0,171.312,0,256.968c-85.656,0-171.312,0-256.968,0C1.016,172.327,1.016,86.672,1.016,1.016z M28.874,163.63
			c40.725,0,80.302,0,119.663,0c0-50.836,0-101.308,0-153.044C108.25,62.111,68.754,112.625,28.874,163.63z M231.623,163.796
			c5.938-52.995-36.999-102.612-71.339-116.902c0,38.88,0,77.792,0,116.902C184.159,163.796,207.745,163.796,231.623,163.796z
			 M57.017,175.208c0,9.606-0.078,18.898,0.108,28.185c0.021,1.053,1.314,2.586,2.379,3.032c9.784,4.101,19.7,4.994,29.747,0.764
			c7.767-3.27,15.693-3.731,23.495-0.329c10.362,4.521,20.54,3.724,30.811-0.216c7.199-2.761,14.412-2.785,21.664,0.148
			c13.568,5.491,26.644,5.15,37.079-6.11c7.096-7.657,12.8-16.604,19.504-25.474C166.628,175.208,112.214,175.208,57.017,175.208z
			 M22.367,249.686c4.663-1.172,8.628-1.654,12.161-3.155c9.67-4.105,19.389-4.172,28.867-0.245
			c8.161,3.382,15.836,3.278,23.93,0.073c9.017-3.569,18.301-4.339,27.453-0.329c8.84,3.874,17.509,3.754,26.387,0.021
			c8.408-3.533,17.023-3.728,25.521-0.109c9.112,3.881,18.156,3.896,27.272,0.008c9.403-4.008,18.634-2.831,27.896,0.824
			c3.354,1.322,7.069,1.727,10.962,2.629c0-7.685,0-14.31,0-20.925c-4.274-1.144-8.526-1.891-12.477-3.416
			c-9.355-3.61-18.625-3.987-27.756,0.269c-8.227,3.835-16.232,3.271-24.354-0.098c-9.421-3.908-18.854-4.246-28.191,0.281
			c-7.123,3.454-14.299,3.138-21.591,0.631c-2.626-0.902-5.389-1.424-7.985-2.397c-6.509-2.44-12.855-2.142-19.203,0.565
			c-9.197,3.923-18.328,5.409-28.051,1.046c-6.621-2.971-13.778-4.554-21.203-2.366c-5.667,1.67-11.429,3.029-17.06,4.807
			c-1.071,0.338-2.419,1.953-2.464,3.028C22.239,236.627,22.367,242.444,22.367,249.686z"/>
		<path fill-rule="evenodd" clip-rule="evenodd" d="M28.874,163.63c39.88-51.005,79.375-101.519,119.663-153.044
			c0,51.737,0,102.208,0,153.044C109.176,163.63,69.599,163.63,28.874,163.63z"/>
		<path fill-rule="evenodd" clip-rule="evenodd" d="M231.623,163.796c-23.878,0-47.464,0-71.339,0c0-39.11,0-78.022,0-116.902
			C194.624,61.184,237.562,110.801,231.623,163.796z"/>
		<path fill-rule="evenodd" clip-rule="evenodd" d="M57.017,175.208c55.197,0,109.611,0,164.787,0
			c-6.704,8.869-12.408,17.816-19.504,25.474c-10.436,11.261-23.511,11.602-37.079,6.11c-7.252-2.934-14.465-2.909-21.664-0.148
			c-10.271,3.939-20.449,4.736-30.811,0.216c-7.802-3.402-15.728-2.94-23.495,0.329c-10.047,4.23-19.963,3.337-29.747-0.764
			c-1.065-0.446-2.358-1.979-2.379-3.032C56.939,194.106,57.017,184.814,57.017,175.208z"/>
		<path fill-rule="evenodd" clip-rule="evenodd" d="M22.367,249.686c0-7.241-0.127-13.059,0.115-18.858
			c0.045-1.075,1.393-2.69,2.464-3.028c5.631-1.777,11.393-3.137,17.06-4.807c7.425-2.188,14.582-0.604,21.203,2.366
			c9.723,4.363,18.854,2.877,28.051-1.046c6.348-2.707,12.694-3.006,19.203-0.565c2.596,0.974,5.358,1.495,7.985,2.397
			c7.292,2.507,14.468,2.823,21.591-0.631c9.337-4.527,18.771-4.189,28.191-0.281c8.122,3.368,16.128,3.933,24.354,0.098
			c9.131-4.256,18.4-3.879,27.756-0.269c3.95,1.525,8.202,2.272,12.477,3.416c0,6.615,0,13.24,0,20.925
			c-3.893-0.902-7.608-1.307-10.962-2.629c-9.263-3.655-18.493-4.832-27.896-0.824c-9.116,3.888-18.16,3.873-27.272-0.008
			c-8.497-3.618-17.112-3.424-25.521,0.109c-8.878,3.732-17.547,3.853-26.387-0.021c-9.152-4.01-18.437-3.24-27.453,0.329
			c-8.094,3.205-15.769,3.309-23.93-0.073c-9.478-3.927-19.197-3.86-28.867,0.245C30.995,248.031,27.03,248.514,22.367,249.686z"/>
	</g>
</g>
</svg>
