<?xml version="1.0" encoding="utf-8"?>
<!-- Generator: Adobe Illustrator 16.0.0, SVG Export Plug-In . SVG Version: 6.00 Build 0)  -->
<!DOCTYPE svg PUBLIC "-//W3C//DTD SVG 1.1//EN" "http://www.w3.org/Graphics/SVG/1.1/DTD/svg11.dtd">
<svg version="1.1" id="Layer_1" xmlns="http://www.w3.org/2000/svg" xmlns:xlink="http://www.w3.org/1999/xlink" x="0px" y="0px"
	 width="256px" height="256px" viewBox="0 0 256 256" enable-background="new 0 0 256 256" xml:space="preserve">
<path d="M226.016,172.15l-3.784-7.012l-5.085-6.154l-6.213-5.052l-7.084-3.749l-7.681-1.354L188.19,149H165v-34h23.19l7.979-1.824
	l7.681-2.836l7.084-4.011l6.213-5.178l5.085-6.226l3.784-7.044l2.327-7.639l0.787-7.926l-0.787-7.921l-2.327-7.614l-3.784-7.03
	l-5.085-6.144l-6.213-5.052l-7.084-3.744l-7.681-2.321l-7.979-0.782l-7.991,0.782l-7.685,2.321l-7.074,3.744l-6.2,5.052
	l-5.098,6.144l-3.783,7.028l-3.955,7.611L144,72.307V93h-31.234H109V72.307l1.091-7.917l-1.389-7.611l-3.314-7.028l-4.852-6.144
	l-6.095-5.052l-7.02-3.744l-7.655-2.321L71.8,31.707l-7.983,0.782l-7.676,2.321l-7.075,3.744l-6.206,5.052l-5.092,6.144
	l-3.782,7.028l-2.329,7.611l-0.787,7.917l0.787,7.917l2.329,7.623l3.782,7.011l5.092,6.163l6.206,5.045l7.079,3.749l7.68,3.361
	L71.815,115H89v34H71.815l-7.991-0.17l-7.68,1.828l-7.079,3.514l-6.206,4.932l-5.092,6.095l-3.782,6.983l-2.329,7.606l-0.787,7.916
	l0.787,7.914l2.329,7.607l3.782,7.022l5.092,6.144l6.206,5.053l7.079,3.749l7.68,2.323l7.991,0.775l7.979-0.775l7.686-2.323
	l7.079-3.749l6.212-5.053l5.086-6.144l3.784-7.022l0.45-7.611L109,187.696V169h35v18.696l2.404,7.918l3.145,7.611l4.188,7.022
	l5.302,6.144l6.3,5.053l7.126,3.749l7.709,2.323l8.005,0.775l7.986-0.775l7.686-2.323l7.084-3.749l6.213-5.053l5.085-6.144
	l3.784-7.022l2.327-7.611l0.787-7.918l-0.787-7.923L226.016,172.15z M89,187.696l0.154,5.94l-2.294,5.352l-3.964,4.259l-5.258,2.731
	l-5.899,0.944l-5.957-0.944l-5.388-2.731l-4.288-4.259l-2.747-5.353l-0.949-5.941l0.953-5.943l2.752-5.37l4.299-4.256l5.409-2.461
	L71.821,169H89V187.696z M89,93H71.821l-5.998-1.673l-5.409-3.111l-4.299-4.423l-2.752-5.457l-0.95-5.985l0.951-5.962l2.752-5.369
	l4.3-4.264l5.412-2.732l6.003-0.942l5.992,0.94l5.443,2.729l4.335,4.26l1.551,5.357L89,72.307V93z M144,149h-35v-34h35V149z
	 M165,72.307l2.846-5.941l3.793-5.357l4.726-4.26l5.616-2.729l6.103-0.94l6.04,0.94l5.447,2.729l4.294,4.26l2.766,5.357l0.956,5.942
	l-0.95,5.942l-2.759,5.372l-4.281,4.253l-5.419,3.451L188.19,93h-19.392H165V72.307z M206.635,193.637l-2.76,5.352l-4.281,4.259
	l-5.423,2.731l-5.993,0.944l-6.009-0.944l-5.426-2.731l-4.347-4.259l-4.551-5.352l-2.846-5.94V169h3.799h19.392l5.986,0.664
	l5.419,2.624l4.281,4.175l2.759,5.33l0.952,5.923L206.635,193.637z"/>
</svg>
