<?xml version="1.0" encoding="utf-8"?>
<!-- Generator: Adobe Illustrator 14.0.0, SVG Export Plug-In . SVG Version: 6.00 Build 43363)  -->
<!DOCTYPE svg PUBLIC "-//W3C//DTD SVG 1.1//EN" "http://www.w3.org/Graphics/SVG/1.1/DTD/svg11.dtd">
<svg version="1.1"
	 id="svg8302" xmlns:sodipodi="http://sodipodi.sourceforge.net/DTD/sodipodi-0.dtd" xmlns:dc="http://purl.org/dc/elements/1.1/" xmlns:cc="http://creativecommons.org/ns#" inkscape:version="0.46" xmlns:svg="http://www.w3.org/2000/svg" xmlns:rdf="http://www.w3.org/1999/02/22-rdf-syntax-ns#" sodipodi:version="0.32" xmlns:inkscape="http://www.inkscape.org/namespaces/inkscape" sodipodi:docname="pictograms-nps-winter-chair_lift-ski_lift.svg" inkscape:output_extension="org.inkscape.output.svg.inkscape"
	 xmlns="http://www.w3.org/2000/svg" xmlns:xlink="http://www.w3.org/1999/xlink" x="0px" y="0px" width="183.793px"
	 height="222.297px" viewBox="0 0 183.793 222.297" enable-background="new 0 0 183.793 222.297" xml:space="preserve">
<defs>
	
	
		<inkscape:perspective  id="perspective8310" sodipodi:type="inkscape:persp3d" inkscape:vp_x="0 : 526.18109 : 1" inkscape:persp3d-origin="372.04724 : 350.78739 : 1" inkscape:vp_z="744.09448 : 526.18109 : 1" inkscape:vp_y="0 : 1000 : 0">
		</inkscape:perspective>
</defs>
<sodipodi:namedview  bordercolor="#666666" inkscape:window-x="0" inkscape:current-layer="layer1" inkscape:pageopacity="0.0" borderopacity="1.0" inkscape:pageshadow="2" pagecolor="#ffffff" inkscape:window-width="738" inkscape:window-height="674" inkscape:cy="136.73676" inkscape:window-y="198" inkscape:cx="61.634556" inkscape:zoom="0.7" inkscape:document-units="px" id="base" objecttolerance="10" showgrid="false" guidetolerance="10" gridtolerance="10000">
	</sodipodi:namedview>
<g id="g7262" transform="matrix(25.903066,0,0,-25.903066,223.28443,181.07238)">
	<path id="path7264" d="M-1.951,0.524c0.326,0.107,0.502,0.457,0.395,0.783l-0.237-0.076
		c0.065-0.195-0.043-0.406-0.236-0.471l-6.214-2.117l0.08-0.234L-1.951,0.524z"/>
</g>
<g id="g7266" transform="matrix(25.903066,0,0,-25.903066,75.074752,86.313574)">
	<path id="path7268" d="M-1.951,0.524c0.341,0.1,0.536,0.459,0.437,0.801c-0.1,0.342-0.458,0.537-0.8,0.437
		c-0.342-0.099-0.539-0.459-0.438-0.8C-2.652,0.62-2.295,0.424-1.951,0.524"/>
</g>
<g id="g7270" transform="matrix(25.903066,0,0,-25.903066,68.247118,109.48397)">
	<path id="path7272" d="M-1.951,0.524c-0.34,0.648,0.636,1.174,0.995,0.545l0.701-1.332l1.334,0.379
		C1.3,0.178,1.605-0.062,1.605-0.346l0.007-1.899c0.002-0.47-0.697-0.472-0.697,0.004C0.913-1.798,0.902-0.857,0.902-0.857
		l-1.393-0.418c-0.305-0.088-0.557,0.065-0.676,0.289L-1.951,0.524z"/>
</g>
<g id="g7274" transform="matrix(25.903066,0,0,-25.903066,124.1248,117.27603)">
	<path id="path7276" d="M-1.951,0.524v4.004H-2.23v-4.08L-1.951,0.524z"/>
</g>
<g id="g7278" transform="matrix(25.903066,0,0,-25.903066,51.650921,131.89551)">
	<path id="path7280" d="M-1.951,0.524c-0.191,0.377,0.303,0.627,0.494,0.25l0.603-1.18
		c0.131-0.244,0.386-0.41,0.681-0.41c0.092,0,0.178,0.024,0.262,0.041l0.76,0.223c0.402,0.121,0.558-0.41,0.152-0.529L0.202-1.315
		C0.083-1.351-0.046-1.372-0.179-1.372c-0.513,0-0.958,0.291-1.176,0.717L-1.951,0.524z"/>
</g>
</svg>
