<?xml version="1.0" encoding="utf-8"?>
<!-- Generator: Adobe Illustrator 14.0.0, SVG Export Plug-In . SVG Version: 6.00 Build 43363)  -->
<!DOCTYPE svg PUBLIC "-//W3C//DTD SVG 1.1//EN" "http://www.w3.org/Graphics/SVG/1.1/DTD/svg11.dtd">
<svg version="1.1" id="Ebene_1" xmlns="http://www.w3.org/2000/svg" xmlns:xlink="http://www.w3.org/1999/xlink" x="0px" y="0px"
	 width="512px" height="512px" viewBox="0 0 512 512" enable-background="new 0 0 512 512" xml:space="preserve">
<g>
	<g>
		<path d="M236.253,78.974c14.577,1.706,28.021-10.813,30.029-27.963c2.007-17.15-8.186-32.436-22.762-34.142
			c-4.738-0.555-9.358,0.394-13.506,2.518c-6.349,3.252-11.007,9.062-12.8,15.967c-1.794,6.904-0.546,14.243,3.411,20.179
			L236.253,78.974z"/>
	</g>
	<g>
		<path d="M364.566,361.367l1.573,8.969c3.205,0.331,5.044,1.158,5.64,1.691c-0.715,1.47-5.36,5.104-14.178,6.765
			c-2.436,0.459-4.819,0.691-7.09,0.691h-0.001c-5.054,0-7.818-1.158-8.576-1.841c0.39-0.799,1.949-2.236,4.701-3.649l-4.825-27.518
			c-3.53,1.59-7.133,3.21-10.811,4.866c-5.298,2.385-10.741,4.835-16.305,7.339c-2.551,1.161-5.129,2.335-7.729,3.52l-6.943-6.696
			l-3.603-14.35c0.152-2.159,0.312-4.319,0.49-6.479c0.387-4.742,0.839-9.483,1.272-14.226c0.448-4.741,0.866-9.483,1.281-14.227
			c0.4-4.741,0.749-9.481,1.105-14.224l2.154-28.449c0.226-3.081-0.695-6.28-2.83-8.841l-3.087-3.702
			c-1.233-1.479-2.513-2.904-3.79-4.33c-1.288-1.413-2.578-2.824-3.893-4.206c-1.303-1.397-2.632-2.76-3.956-4.131
			c-1.321-1.372-2.664-2.721-4.008-4.066c-5.384-5.377-10.888-10.607-16.484-15.725c-5.599-5.117-11.285-10.128-17.058-15.035
			c-0.323-0.275-0.649-0.547-0.974-0.822l2.273-18.083c-2.665-2-4.858-4.657-6.312-7.815l-27.25-59.237l35.428,55.229l0.337,0.526
			c1.945,2.988,5.273,5.009,9.109,5.131l33.062,1.052l-4.217,52.283l8.211,8.24l4.858-60.242l6.186,0.197l1.997,0.064
			c1.509,0.042,3.031-0.514,4.183-1.668l2.812-2.823L352.5,375.602l8.713-1.53l-36.252-206.187l0.256-0.258l-0.427-0.714
			l-4.168-23.704l-8.712,1.533l1.917,10.907l-5.541,1.668l-4.315-0.137l2.818-34.932l0.167-0.351l-0.131-0.102l0.704-8.743
			l-8.817-0.711l-0.554,6.874l-1.388,1.156c-0.866,0.722-1.72,1.455-2.549,2.205c-0.84,0.743-1.656,1.504-2.476,2.263
			c-0.817,0.76-1.614,1.536-2.422,2.303c-0.311,0.302-0.616,0.606-0.925,0.909c-0.847,0.445-1.681,0.91-2.521,1.364
			c-0.88,0.48-1.764,0.956-2.635,1.449l-5.246,2.933c-1.751,0.974-3.494,1.96-5.232,2.952l-5.221,2.971l-3.906,2.255l4.591,5.211
			c1.422,1.613,3.448,2.567,5.6,2.634l10.882,0.338c0.98-0.826,1.964-1.65,2.938-2.484l4.575-3.897
			c0.766-0.646,1.521-1.308,2.275-1.967c0.656-0.577,1.32-1.147,1.976-1.73l-1.355,16.818l-27.53-0.876l-12.121-23.478l3.594-28.591
			c0.429-3.412-0.592-6.847-2.812-9.472c-2.222-2.624-5.441-4.198-8.877-4.338l-44.617-1.636
			c-16.23-0.632-30.717,10.128-34.907,25.715l-17.827,66.316c-2.068,7.697-0.211,15.909,4.973,21.965
			c4.593,5.368,11.278,8.446,18.342,8.446c0.861,0,1.732-0.046,2.591-0.139l22.191-2.394c1.962,7.221,4.325,13.393,7.116,18.593
			c8.394,15.642,20.022,21.081,33.487,27.379c3.56,1.665,7.317,3.426,11.173,5.457l-0.113-0.67c1.263,0.899,2.528,1.794,3.799,2.685
			c4.242,2.41,8.567,5.211,12.859,8.638c1.416,0.914,2.85,1.81,4.284,2.7l1.598,18.926c0.397,4.736,0.788,9.476,1.229,14.214
			c0.456,4.738,0.915,9.476,1.405,14.214c0.475,4.738,0.968,9.477,1.396,14.214c0.121,1.324,0.226,2.648,0.336,3.974
			c-0.008,0.018-0.021,0.028-0.022,0.048l-5.462,39.802c-2.991,1.38-5.994,2.769-9.01,4.168
			c-7.979,3.681-16.032,7.435-24.107,11.207l-12.534-12.593l-6.506-6.201l6.562-26.118c0.191-0.324,0.376-0.649,0.567-0.973
			l3.13-5.286l6.263-10.57l6.144-10.624l12.232-21.271c1.35-2.349,1.93-5.175,1.441-8.052l-0.466-2.756l-2.396-14.147
			c-6.325-4.116-12.706-7.104-18.931-10.019c-9.241-4.32-18.688-8.742-26.998-16.652l1.53,4.586l13.336,40.231l-5.55,16.44
			l-3.898,11.636l-3.778,11.691l-1.891,5.845c-0.629,1.948-1.273,3.89-1.928,5.827c-0.063,0.185-0.129,0.368-0.192,0.553
			l-23.438,39.016c-0.041,0.067-0.048,0.15-0.017,0.224l3.511,8.433c0.029,0.069,0.09,0.122,0.161,0.145l34.252,9.719
			c-3.809,1.791-7.614,3.58-11.41,5.365c-2.948,1.396-5.892,2.79-8.827,4.18l-5.983-1.316l-13.522,7.065l-1.516,4.237
			c-2.062,0.981-4.127,1.967-6.173,2.939c-5.882,2.821-11.693,5.607-17.408,8.348c-11.433,5.478-22.436,10.874-32.889,15.953
			c-10.46,5.062-20.305,9.945-29.397,14.44c-9.104,4.473-17.411,8.652-24.778,12.347c-7.377,3.679-13.774,6.955-19.053,9.634
			c-5.281,2.671-9.403,4.827-12.227,6.271c-2.815,1.462-4.316,2.242-4.316,2.242l1.52,3.25c0,0,1.562-0.651,4.488-1.872
			c2.92-1.24,7.219-3.02,12.654-5.358c5.44-2.332,12.059-5.138,19.61-8.438c7.561-3.283,16.096-6.978,25.366-11.091
			c9.28-4.096,19.341-8.516,29.935-13.292c10.601-4.763,21.799-9.742,33.334-15c5.768-2.629,11.632-5.3,17.569-8.004
			c5.929-2.719,11.931-5.471,17.979-8.243c6.043-2.788,12.134-5.6,18.249-8.42c6.107-2.838,12.238-5.688,18.369-8.535
			c12.249-5.729,24.503-11.442,36.533-17.139c2.314-1.091,4.619-2.179,6.917-3.266l1.015,0.986c-2.05,1.07-4.102,2.143-6.146,3.212
			c-5.96,3.134-11.896,6.255-17.788,9.352c-5.883,3.112-11.719,6.198-17.485,9.247c-5.759,3.064-11.448,6.091-17.043,9.068
			c-11.193,5.951-21.961,11.803-32.19,17.314c-10.238,5.496-19.869,10.787-28.767,15.658c-8.907,4.853-17.033,9.374-24.239,13.374
			c-7.216,3.983-13.47,7.525-18.631,10.422c-5.166,2.891-9.192,5.219-11.953,6.778c-2.751,1.579-4.218,2.422-4.218,2.422
			l1.654,3.184c0,0,1.532-0.717,4.406-2.06c2.863-1.36,7.085-3.316,12.418-5.882c5.338-2.559,11.832-5.638,19.238-9.252
			c7.416-3.598,15.789-7.646,24.879-12.145c9.102-4.479,18.968-9.315,29.351-14.532c10.393-5.2,21.372-10.646,32.676-16.384
			c5.653-2.864,11.4-5.778,17.218-8.729c5.811-2.965,11.691-5.966,17.619-8.99c5.921-3.039,11.888-6.102,17.879-9.177
			c5.982-3.09,11.989-6.193,17.996-9.296c11.997-6.235,24.001-12.458,35.78-18.653c3.014-1.576,6.012-3.147,8.992-4.717
			c-2.521,2.556-3.835,5.524-3.227,8.756c1.064,5.653,7.556,9.028,17.359,9.028c2.818,0,5.755-0.284,8.729-0.845
			c5.747-1.083,11.031-3.103,14.878-5.686c6.642-4.46,6.889-9.076,6.445-11.43C379.547,364.984,373.605,361.669,364.566,361.367
			 M174.33,196.015c-0.33,0.036-0.664,0.053-0.995,0.053c-2.709,0-5.274-1.181-7.036-3.24c-1.988-2.324-2.701-5.474-1.907-8.427
			l17.826-66.316c1.967-7.317,7.897-12.772,15.094-14.295c-1.763,3.553-2.725,7.491-2.761,11.536l-0.639,71.828
			c0.316,2.286,0.661,4.494,1.026,6.638L174.33,196.015z"/>
	</g>
	<g>
		<path d="M465.968,274.891c0,0-0.146,0.396-0.43,1.166c-0.142,0.385-0.317,0.862-0.526,1.43c-0.103,0.274-0.213,0.572-0.332,0.892
			c-0.123,0.321-0.254,0.688-0.395,1.034c-1.104,2.765-3.001,6.861-6.267,11.412c-1.635,2.273-3.639,4.648-6.058,6.974
			c-2.402,2.339-5.234,4.621-8.502,6.658c-1.642,1.024-3.348,1.961-5.239,2.86c-1.966,0.964-3.986,1.955-6.062,2.974
			c-4.146,2.048-8.501,4.201-13.048,6.448c-4.545,2.25-9.277,4.596-14.179,7.021c-3.191,1.603-6.464,3.242-9.792,4.912
			c1.384-1.153,2.671-2.331,3.855-3.519c2.659-2.688,4.819-5.41,6.57-7.987c1.751-2.58,3.114-5.007,4.146-7.186
			c1.046-2.184,1.775-4.057,2.345-5.668c0.126-0.376,0.245-0.729,0.356-1.062c0.133-0.385,0.214-0.658,0.31-0.958
			c0.183-0.577,0.335-1.062,0.458-1.453c0.247-0.782,0.374-1.186,0.374-1.186l-3.996-1.473c0,0-0.657,1.547-1.893,4.448
			c-0.603,1.333-1.44,3.048-2.546,4.925c-1.111,1.885-2.476,4.001-4.219,6.195c-1.733,2.199-3.843,4.479-6.359,6.697
			c-2.503,2.23-5.436,4.385-8.788,6.275c-0.836,0.478-1.705,0.924-2.591,1.367c-0.449,0.211-0.896,0.432-1.355,0.637
			c-0.471,0.208-0.944,0.417-1.423,0.628c-2.004,0.881-4.064,1.787-6.181,2.718c-4.228,1.872-8.67,3.843-13.307,5.896
			c-0.135,0.06-0.271,0.12-0.404,0.179l3.154,17.984c5.013-2.668,9.95-5.297,14.792-7.873c5.372-2.89,10.63-5.717,15.746-8.469
			c5.117-2.752,10.097-5.429,14.91-8.02c4.803-2.612,9.442-5.138,13.897-7.562c4.452-2.429,8.719-4.755,12.775-6.969
			c2.026-1.112,3.999-2.196,5.92-3.251c2.004-1.097,3.966-2.325,5.744-3.594c3.585-2.54,6.637-5.312,9.184-8.104
			c2.539-2.803,4.576-5.617,6.212-8.27c1.635-2.654,2.891-5.138,3.824-7.358c0.944-2.229,1.597-4.132,2.09-5.763
			c0.124-0.4,0.214-0.746,0.312-1.088c0.051-0.178,0.101-0.35,0.146-0.516c0.042-0.157,0.082-0.311,0.121-0.455
			c0.152-0.585,0.284-1.077,0.389-1.473c0.209-0.793,0.317-1.201,0.317-1.201L465.968,274.891z"/>
	</g>
</g>
</svg>
