<?xml version="1.0" encoding="utf-8"?>
<!-- Generator: Adobe Illustrator 14.0.0, SVG Export Plug-In . SVG Version: 6.00 Build 43363)  -->
<!DOCTYPE svg PUBLIC "-//W3C//DTD SVG 1.1//EN" "http://www.w3.org/Graphics/SVG/1.1/DTD/svg11.dtd">
<svg version="1.1" id="Ebene_1" xmlns="http://www.w3.org/2000/svg" xmlns:xlink="http://www.w3.org/1999/xlink" x="0px" y="0px"
	 width="342.157px" height="346.568px" viewBox="0 0 342.157 346.568" enable-background="new 0 0 342.157 346.568"
	 xml:space="preserve">
<g>
	<g transform="matrix(25.88211,0,0,-25.88211,182.91636,64.26053)">
		<path d="M3.371-0.301c0.594,0,1.078,0.483,1.078,1.078c0,0.594-0.483,1.078-1.078,1.078
			c-0.594,0-1.078-0.483-1.078-1.078C2.293,0.183,2.777-0.301,3.371-0.301"/>
	</g>
	<g transform="matrix(25.88211,0,0,-25.88211,141.01032,110.4131)">
		<path d="M2.354-1.42l2.288,1.128L6.77-2.25C6.865-2.341,6.993-2.4,7.137-2.4c0.285,0.003,0.514,0.236,0.511,0.523
			c0,0.151-0.07,0.288-0.174,0.381L4.436,1.295c-0.101,0.099-0.218,0.177-0.35,0.236L1.721,2.372L0.647,3.93
			c-0.083,0.111-0.21,0.19-0.36,0.21C0.006,4.173-0.25,3.969-0.284,3.686c-0.013-0.12,0.016-0.236,0.076-0.33l1.097-1.587
			c0.05-0.067,0.114-0.117,0.19-0.153l1.271-0.501L0.26,0.045c-0.29-0.168-0.5-0.457-0.557-0.801l0.013-1.911l-1.932-0.871
			C-2.434-3.639-2.591-3.859-2.6-4.116c-0.016-0.369,0.27-0.68,0.64-0.697c0.114-0.003,0.225,0.023,0.321,0.07l2.367,1.068
			c0.169,0.093,0.296,0.254,0.337,0.449L1.057-2.037l1.644-1.465L2.398-6.01c0-0.013-0.003-0.029-0.003-0.046
			c-0.015-0.368,0.27-0.68,0.64-0.695c0.347-0.016,0.645,0.238,0.69,0.575l0.353,2.858c0.003,0.013,0.003,0.026,0.003,0.037
			c0.008,0.2-0.07,0.386-0.207,0.513L2.354-1.42z"/>
	</g>
	<g transform="matrix(25.88211,0,0,-25.88211,27.34642,139.78185)">
		<path d="M-0.402-2.132C-0.757-2.251-0.947-2.637-0.829-2.99c0.197-0.588,0.643-1.05,1.218-1.27l9.045-3.439
			c0.578-0.221,1.218-0.171,1.75,0.135c0.324,0.186,0.436,0.599,0.249,0.923c-0.186,0.326-0.599,0.436-0.923,0.251
			c-0.179-0.104-0.397-0.119-0.594-0.044L0.871-2.993C0.675-2.919,0.522-2.761,0.456-2.559C0.337-2.204-0.047-2.014-0.402-2.132"/>
	</g>
</g>
</svg>
