<?xml version="1.0" encoding="utf-8"?>
<!-- Generator: Adobe Illustrator 16.0.0, SVG Export Plug-In . SVG Version: 6.00 Build 0)  -->
<!DOCTYPE svg PUBLIC "-//W3C//DTD SVG 1.1//EN" "http://www.w3.org/Graphics/SVG/1.1/DTD/svg11.dtd">
<svg version="1.1" id="Layer_1" xmlns="http://www.w3.org/2000/svg" xmlns:xlink="http://www.w3.org/1999/xlink" x="0px" y="0px"
	 width="256px" height="256px" viewBox="0 0 256 256" enable-background="new 0 0 256 256" xml:space="preserve">
<path d="M128,19.333c-61.856,0-112,50.144-112,112c0,61.854,50.144,112,112,112c61.854,0,112-50.146,112-112
	C240,69.477,189.854,19.333,128,19.333z M128,222.332c-50.177,0-91-40.824-91-91c0-50.177,40.823-91,91-91c50.176,0,91,40.822,91,91
	C219,181.508,178.176,222.332,128,222.332z"/>
<polygon id="polygon53" points="96,78.332 175.5,131.332 96,184.332 "/>
</svg>
