<?xml version="1.0" encoding="utf-8"?>
<!-- Generator: Adobe Illustrator 16.0.0, SVG Export Plug-In . SVG Version: 6.00 Build 0)  -->
<!DOCTYPE svg PUBLIC "-//W3C//DTD SVG 1.1//EN" "http://www.w3.org/Graphics/SVG/1.1/DTD/svg11.dtd">
<svg version="1.1" id="Layer_1" xmlns="http://www.w3.org/2000/svg" xmlns:xlink="http://www.w3.org/1999/xlink" x="0px" y="0px"
	 width="256px" height="256px" viewBox="0 0 256 256" enable-background="new 0 0 256 256" xml:space="preserve">
<g>
	<path id="path3474" d="M54.747,142.998l1.61-4.355c4.677-10.798,13.588-19.202,24.635-23.231l29.293-11.125
		c2.83-1.068,4.654-3.838,4.521-6.867c-0.126-3.029-2.179-5.628-5.086-6.462c-1.794-0.512-3.605-0.941-5.435-1.297
		c-3.306-0.643-5.633-3.643-5.423-7.023c0.565-2.453,0.064-5.033-1.385-7.086c-2.649-4.507-3.574-9.819-2.619-14.964
		c0.649-2.346,0.996-4.771,1.016-7.204c0.667-3.278-0.303-6.672-2.605-9.101c-1.688-4.766-1.854-9.94-0.488-14.803
		c0.332-3.683,2.355-7.014,5.477-8.989c3.735-2.663,7.886-4.677,12.295-5.965c12.067-4.058,25.266-3.019,36.561,2.873
		c11.979,13.93,15.481,33.263,9.149,50.519l-6.607,13.139c-1.801,3.585-2.986,7.443-3.512,11.413
		c-0.469,3.542,1.199,7.023,4.243,8.887c6.853,1.317,13.339,4.106,19.011,8.169c7.892,3.848,14.638,9.701,19.554,16.983
		c4.39,5.121,8.067,10.822,10.944,16.929l-3.286-0.113c-2.635-0.088-5.214-0.805-7.517-2.088l-15.417-7.193
		c-6.315-2.955-13.608-2.955-19.919,0l-15.417,7.193c-6.317,2.957-13.608,2.957-19.924,0l-15.407-7.193
		c-6.322-2.955-13.613-2.955-19.929,0l-14.141,6.604C64.58,142.924,59.611,143.748,54.747,142.998"/>
	<path id="path3476" d="M32.253,148.047l15.491,7.236c6.311,2.957,13.607,2.957,19.924,0l15.412-7.203
		c6.315-2.951,13.607-2.951,19.918,0l15.417,7.203c6.311,2.957,13.611,2.957,19.924,0l15.417-7.203
		c6.311-2.951,13.604-2.951,19.919,0l15.417,7.203c6.311,2.957,13.608,2.957,19.918,0l15.379-7.184
		c3.132-1.469,6.54-2.225,9.999-2.215v28.41c-3.439,0-6.848,0.758-9.965,2.209l-15.413,7.205c-6.31,2.955-13.607,2.955-19.918,0
		l-15.417-7.205c-6.315-2.945-13.608-2.945-19.919,0l-15.417,7.205c-6.313,2.955-13.613,2.955-19.924,0l-15.417-7.205
		c-6.312-2.945-13.603-2.945-19.918,0l-15.412,7.205c-6.317,2.955-13.613,2.955-19.924,0l-15.524-7.252
		c-3.088-1.445-6.443-2.201-9.853-2.211v-28.414C25.786,145.846,29.161,146.602,32.253,148.047l15.491,7.236L32.253,148.047"/>
	<path id="path3478" d="M31.502,196.033l15.486,7.244c6.321,2.949,13.612,2.949,19.929,0l15.407-7.205
		c6.315-2.955,13.617-2.955,19.928,0l15.413,7.205c6.306,2.949,13.606,2.949,19.924,0l15.412-7.205
		c6.311-2.955,13.602-2.955,19.918,0l15.418,7.205c6.315,2.949,13.608,2.949,19.923,0l15.379-7.195
		c3.127-1.457,6.545-2.219,9.994-2.209v28.406c-3.439,0-6.845,0.76-9.965,2.209l-15.408,7.203c-6.314,2.957-13.607,2.957-19.923,0
		l-15.418-7.203c-6.316-2.945-13.607-2.945-19.918,0l-15.412,7.203c-6.317,2.957-13.618,2.957-19.924,0l-15.413-7.203
		c-6.312-2.945-13.613-2.945-19.928,0l-15.407,7.203c-6.317,2.957-13.608,2.957-19.929,0l-15.52-7.252
		c-3.083-1.434-6.448-2.189-9.857-2.205v-28.41C25.03,193.83,28.41,194.59,31.502,196.033l15.486,7.244L31.502,196.033"/>
</g>
</svg>
