<?xml version="1.0" encoding="utf-8"?>
<!-- Generator: Adobe Illustrator 14.0.0, SVG Export Plug-In . SVG Version: 6.00 Build 43363)  -->
<!DOCTYPE svg PUBLIC "-//W3C//DTD SVG 1.1//EN" "http://www.w3.org/Graphics/SVG/1.1/DTD/svg11.dtd">
<svg version="1.1"
	 id="svg2" xmlns:dc="http://purl.org/dc/elements/1.1/" sodipodi:docname="sport_swimming_outdoor.svg" xmlns:sodipodi="http://sodipodi.sourceforge.net/DTD/sodipodi-0.dtd" xmlns:inkscape="http://www.inkscape.org/namespaces/inkscape" xmlns:cc="http://creativecommons.org/ns#" xmlns:rdf="http://www.w3.org/1999/02/22-rdf-syntax-ns#" inkscape:version="0.48.0 r9654" xmlns:svg="http://www.w3.org/2000/svg" inkscape:output_extension="org.inkscape.output.svg.inkscape" sodipodi:version="0.32"
	 xmlns="http://www.w3.org/2000/svg" xmlns:xlink="http://www.w3.org/1999/xlink" x="0px" y="0px" width="580px" height="580px"
	 viewBox="0 0 580 580" enable-background="new 0 0 580 580" xml:space="preserve">
<sodipodi:namedview  id="base" inkscape:current-layer="svg2" inkscape:window-y="24" inkscape:window-x="638" inkscape:cy="565.18449" inkscape:cx="707.83076" inkscape:zoom="0.32586207" showgrid="false" inkscape:window-height="1002" inkscape:window-width="1280" inkscape:pageshadow="2" inkscape:pageopacity="0.0" objecttolerance="10.0" borderopacity="1.0" guidetolerance="10.0" bordercolor="#666666" gridtolerance="10.0" pagecolor="#ffffff" inkscape:window-maximized="0">
	</sodipodi:namedview>
<defs>
	
	
		<inkscape:perspective  id="perspective3653" sodipodi:type="inkscape:persp3d" inkscape:vp_z="580 : 290 : 1" inkscape:persp3d-origin="290 : 193.33333 : 1" inkscape:vp_x="0 : 290 : 1" inkscape:vp_y="0 : 1000 : 0">
		</inkscape:perspective>
</defs>
<path id="path113" d="M520.671,338.458c-4.073,1.243-9.332,1.005-16.231-0.471c-7.014-1.598-13.404-9.036-25.055-8.625
	c-11.934,0.414-28.788,11.104-45.075,11.104c-16.517-0.352-35.065-11.578-51.92-11.578c-16.797,0.12-32.066,11.753-48.186,12.108
	c-16.4,0.058-32.745-10.866-48.808-11.103c-16.289-0.412-31.729,9.688-46.941,9.567c-14.987-0.294-28.278-11.046-43.153-10.574
	c-15.271,0.595-32.011,12.404-46.941,13.113c-15.044,0.237-28.675-10.983-41.965-11.104c-13.401-0.236-28.446,8.209-37.497,10.1
	c-9.049,1.716-14.761,1.893-16.91,0.532v31.304c2.149,1.357,7.861,1.182,16.91-0.532c9.051-1.891,24.094-10.336,37.497-10.1
	c13.291,0.119,26.921,11.34,41.965,11.102c14.932-0.589,31.672-12.698,46.941-13.111c14.875-0.591,28.165,10.396,43.153,10.632
	c15.214,0.12,30.652-9.92,46.941-9.625c16.062,0.233,32.407,11.159,48.808,11.103c16.118-0.354,31.389-11.991,48.186-12.108
	c16.854-0.058,35.403,11.342,51.92,11.639c16.287,0,33.144-10.693,45.075-11.105c11.649-0.532,18.041,7.028,25.055,8.563
	c6.899,1.477,12.158,1.713,16.231,0.472V338.458z"/>
<path id="path115" d="M252.65,321.805l129.398-69.042c-10.176-22.326-17.361-39.157-21.547-51.147
	c-4.299-11.931-6.108-14.588-3.675-20.258c2.486-5.847-0.964-6.733,17.983-14.469c18.944-8.033,75.615-31.067,94.107-32.188
	c18.1-0.945,17.364,19.018,14.368,25.751c-3.283,6.555-20.137,8.208-32.918,13.407c-12.951,4.961-27.204,10.512-43.662,16.655
	l59.215,130.289c-7.635,6.555-17.759,9.098-31.445,8.09c-13.914-1.354-32.465-14.585-49.77-14.646
	c-17.25,0.062-36.933,14.827-52.709,15.121c-15.837-0.062-28.393-12.816-41.626-14.113
	C277.081,313.948,264.583,316.133,252.65,321.805z"/>
<path id="path117" d="M485.134,209.063c19.95,0,36.138,16.906,36.138,37.739s-16.188,37.739-36.138,37.739
	s-36.139-16.906-36.139-37.739C448.995,225.97,465.184,209.063,485.134,209.063"/>
<path id="path119" d="M165.327,324.344c-15.327-2.836-30.938-7.202-47.902-13.112c-17.081-6.258-46.207-14.646-53.107-22.856
	c-6.898-8.445-1.865-25.336,12.049-26.104c13.968-0.768,41.681,11.635,70.469,21.912c28.616,10.161,61.361,22.858,99.991,38.745
	c-4.751,2.6-11.028,3.426-19.061,2.244c-8.145-1.36-18.438-8.861-28.899-9.096C188.346,315.898,177.317,318.733,165.327,324.344z"/>
<path id="path121" d="M520.671,390.848c-4.073,1.121-9.332,0.945-16.231-0.53c-7.014-1.535-13.404-9.1-25.055-8.566
	c-11.934,0.413-28.788,11.103-45.075,11.103c-16.517-0.353-35.065-11.573-51.92-11.573c-16.797,0.119-32.066,11.754-48.186,12.105
	c-16.4,0.062-32.745-10.865-48.808-11.103c-16.289-0.414-31.729,9.687-46.941,9.567c-14.987-0.295-28.278-11.045-43.153-10.571
	c-15.271,0.59-32.011,12.4-46.941,13.112c-15.044,0.234-28.675-10.987-41.965-11.104c-13.401-0.235-28.446,8.209-37.497,10.101
	c-9.049,1.833-14.761,1.771-16.91,0.474v31.303c2.149,1.298,7.861,1.359,16.91-0.474c9.051-1.893,24.094-10.335,37.497-10.102
	c13.291,0.118,26.921,11.341,41.965,11.105c14.932-0.711,31.672-12.522,46.941-13.112c14.875-0.474,28.165,10.277,43.153,10.572
	c15.214,0.116,30.652-9.982,46.941-9.568c16.062,0.236,32.407,11.163,48.808,11.104c16.118-0.354,31.389-11.991,48.186-12.106
	c16.854,0,35.403,11.222,51.92,11.574c16.287,0,33.144-10.69,45.075-11.104c11.649-0.414,18.041,7.026,25.055,8.623
	c6.899,1.479,12.158,1.714,16.231,0.476V390.848z"/>
<path id="path4736" d="M518.988,442.223c-4.073,1.12-9.332,0.944-16.232-0.531c-7.012-1.534-13.404-9.099-25.054-8.566
	c-11.935,0.413-28.788,11.104-45.075,11.104c-16.518-0.353-35.066-11.574-51.92-11.574c-16.797,0.119-32.067,11.754-48.186,12.105
	c-16.4,0.062-32.746-10.865-48.808-11.103c-16.289-0.414-31.729,9.687-46.942,9.567c-14.986-0.295-28.277-11.045-43.151-10.571
	c-15.271,0.59-32.013,12.4-46.942,13.112c-15.044,0.234-28.675-10.986-41.965-11.104c-13.402-0.234-28.447,8.209-37.496,10.101
	c-9.05,1.833-14.762,1.771-16.91,0.474v31.303c2.148,1.299,7.86,1.36,16.91-0.474c9.049-1.893,24.093-10.336,37.496-10.101
	c13.291,0.117,26.921,11.34,41.965,11.105c14.931-0.712,31.672-12.523,46.942-13.113c14.874-0.473,28.164,10.277,43.151,10.572
	c15.214,0.117,30.653-9.982,46.942-9.568c16.062,0.237,32.407,11.163,48.808,11.103c16.117-0.353,31.389-11.99,48.186-12.105
	c16.854,0,35.402,11.222,51.92,11.574c16.287,0,33.142-10.689,45.075-11.104c11.648-0.414,18.042,7.026,25.054,8.624
	c6.9,1.478,12.159,1.714,16.232,0.475V442.223z"/>
</svg>
