<?xml version="1.0" encoding="utf-8"?>
<!-- Generator: Adobe Illustrator 14.0.0, SVG Export Plug-In . SVG Version: 6.00 Build 43363)  -->
<!DOCTYPE svg PUBLIC "-//W3C//DTD SVG 1.1//EN" "http://www.w3.org/Graphics/SVG/1.1/DTD/svg11.dtd">
<svg version="1.1" id="Ebene_1" xmlns="http://www.w3.org/2000/svg" xmlns:xlink="http://www.w3.org/1999/xlink" x="0px" y="0px"
	 width="484.72px" height="416.69px" viewBox="0 0 484.72 416.69" enable-background="new 0 0 484.72 416.69" xml:space="preserve">
<g>
	<g>
		<path d="M232.042,330.045h-0.058H127.251v33.069c0,40.257-58.238,40.736-58.238,0v-33.069H38.016v-103.56
			c0-27.796,22.358-42.485,34.984-44.088L104.874,101c6-15.5,19-28.748,43.5-28.748h45.539V51c0-8.5,4.61-12.816,12.11-12.816
			h25.961h0.058h-0.062h0.059H258.5c7.5,0,12.11,4.316,12.11,12.816v21.252h45.016c24.5,0,37.5,13.248,43.5,28.748L391,182.397
			c12.626,1.603,35.007,16.292,35.007,44.088v103.56H395.01v33.069c0,40.736-58.238,40.257-58.238,0v-33.069H232.039h-0.059H232.042
			z"/>
	</g>
	<g>
		<g>
			<path fill="#FFFFFF" d="M231.98,180.48h-0.059H106l23.998-62.98c3-9,7.502-15.5,18.002-15.597h83.921h0.059h0.059h83.963
				c10.5,0.097,15,6.597,18,15.597L358,180.48H232.039H231.98z"/>
		</g>
		<g>
			<g>
				<ellipse fill="#FFFFFF" cx="99.059" cy="239.286" rx="26.901" ry="27.449"/>
				<path fill="#FFFFFF" d="M99.059,239.286"/>
			</g>
			<g>
				<ellipse fill="#FFFFFF" cx="364.942" cy="239.286" rx="26.9" ry="27.449"/>
				<path fill="#FFFFFF" d="M364.942,239.286"/>
			</g>
		</g>
	</g>
</g>
</svg>
