<?xml version="1.0" encoding="utf-8"?>
<!-- Generator: Adobe Illustrator 14.0.0, SVG Export Plug-In . SVG Version: 6.00 Build 43363)  -->
<!DOCTYPE svg PUBLIC "-//W3C//DTD SVG 1.1//EN" "http://www.w3.org/Graphics/SVG/1.1/DTD/svg11.dtd">
<svg version="1.1" id="Ebene_1" xmlns="http://www.w3.org/2000/svg" xmlns:xlink="http://www.w3.org/1999/xlink" x="0px" y="0px"
	 width="456px" height="430.69px" viewBox="0 0 456 430.69" enable-background="new 0 0 456 430.69" xml:space="preserve">
<g>
	<g>
		<rect x="212.419" y="13.228" width="37.042" height="393.261"/>
		<path d="M230.94,209.859"/>
	</g>
	<g>
		<g>
			<path d="M95.861,74.478c17.902,0,32.415-14.511,32.415-32.414c0-17.9-14.513-32.414-32.415-32.414
				c-17.899,0-32.413,14.514-32.413,32.414C63.448,59.967,77.962,74.478,95.861,74.478z"/>
			<path d="M95.861,42.064"/>
		</g>
		<g>
			<path d="M91.069,280l0.013,113.385c0,20.4-30.565,20.4-30.565,0L60.504,280H20l43.339-150.343h-6.812l-25.523,85.881
				c-6.075,18.732-31.792,11.037-25.908-9.021l28.338-93.303c3.038-10.64,16.494-29.503,39.786-29.503h21.477l0,0h23.115
				c23.084,0,36.601,19.022,40.094,29.503l28.35,93.212c5.67,20.047-19.845,28.35-25.92,8.809l-25.514-85.578h-7.376L171.25,280
				h-40.681v113.535c0,20.25-30.437,20.149-30.437,0V280H91.069z"/>
		</g>
	</g>
	<g>
		<g>
			<path d="M327.174,83.59c-22.808,0-41.151,18.867-41.151,42.4v100.3c0,19.5,28.136,19.5,28.136,0v-91.714h6.661v254.127
				c0,26.072,37.468,25.305,37.468,0V239.927h6.453v148.776c0,25.305,37.673,26.072,37.673,0V134.576h6.505v91.714
				c0,19.651,27.99,19.65,27.939,0v-99.7c0-21.7-16.614-42.955-41.656-42.955L327.174,83.59z"/>
		</g>
		<g>
			<circle cx="361.361" cy="42.064" r="32.414"/>
			<path d="M361.361,42.064"/>
		</g>
	</g>
</g>
</svg>
