<?xml version="1.0" encoding="utf-8"?>
<!-- Generator: Adobe Illustrator 14.0.0, SVG Export Plug-In . SVG Version: 6.00 Build 43363)  -->
<!DOCTYPE svg PUBLIC "-//W3C//DTD SVG 1.1//EN" "http://www.w3.org/Graphics/SVG/1.1/DTD/svg11.dtd">
<svg version="1.1" id="svg2" xmlns:svg="http://www.w3.org/2000/svg"
	 xmlns="http://www.w3.org/2000/svg" xmlns:xlink="http://www.w3.org/1999/xlink" x="0px" y="0px" width="740px" height="360px"
	 viewBox="0 0 740 360" enable-background="new 0 0 740 360" xml:space="preserve">
<g id="layer1">
	<path id="path30859" fill="none" stroke="#000000" stroke-width="7" d="M141.294,64.772l85.327-56.204l83.47,56.159l-83.412,56.185
		L141.294,64.772z"/>
	<path id="path30855" d="M545.768,224.857c-1.218,6.9-6.268,7.752-10.088,11.571c7.844-0.015,20.602-0.101,20.63-0.826l0.413-10.613
		L545.768,224.857z"/>
	<path id="path29926" d="M68.158,321.23c0.297,46.36,66.7,46.361,66.7,0.417"/>
	<path id="path30815" d="M205.727,321.217c0.297,46.36,66.7,46.361,66.7,0.417"/>
	<path id="path30817" d="M467.106,321.217c0.297,46.36,66.699,46.361,66.699,0.417"/>
	<path id="path30819" d="M605.091,321.217c0.298,46.36,66.701,46.361,66.701,0.417"/>
	<path id="path30821" d="M142.049,342.387h55.861c-2.843-4.924-4.14-10.145-3.96-20.844h-47.003
		C146.615,332.392,144.914,337.425,142.049,342.387z"/>
	<path id="path30825" d="M541.101,342.491h55.86c-2.842-4.925-4.14-10.145-3.96-20.844h-47.003
		C545.668,332.496,543.966,337.529,541.101,342.491z"/>
	<path id="path30841" d="M570.251,144.889c-5.204,3.673-10.004,6.78-10.004,9.94l0.061,129.103c1.219,6.9,6.123,8.043,9.943,11.862
		l-23.734-0.181l-0.298-141.053c0-2.791-4.942-6.059-10.043-9.661L570.251,144.889z"/>
	<path id="path30827" d="M34.777,124.527h669.261v21.112H34.954L34.777,124.527z"/>
	<path id="path30829" d="M405.025,144.772c5.202,3.673,10.003,6.78,10.003,9.94l-0.061,70.255
		c-1.219,6.901-6.123,8.043-9.942,11.862h34.073c-3.827-3.828-8.894-4.735-10.026-11.692l-0.017-70.693
		c0-2.792,4.942-6.06,10.043-9.661L405.025,144.772z"/>
	<path id="path30833" d="M273.99,144.667c5.202,3.673,10.003,6.78,10.003,9.94l-0.061,70.254c-1.218,6.902-6.123,8.044-9.942,11.863
		h34.074c-3.829-3.828-8.895-4.736-10.027-11.693l-0.017-70.692c0-2.792,4.942-6.06,10.044-9.661L273.99,144.667z"/>
	<path id="path30839" d="M143.856,144.889c5.202,3.673,10.003,6.78,10.003,9.94l-0.061,129.103c-1.218,6.9-6.123,8.043-9.942,11.862
		l23.734-0.181l0.296-141.053c0-2.791,4.943-6.059,10.044-9.661L143.856,144.889z"/>
	<path id="path30845" d="M628.059,144.889c5.204,3.673,10.004,6.78,10.004,9.94l-0.061,129.103c-1.217,6.9-6.123,8.043-9.943,11.862
		l23.736-0.181l-0.146-150.644L628.059,144.889z"/>
	<path id="path30849" d="M112.141,144.77c-5.202,3.673-10.003,6.78-10.003,9.94l0.061,129.102c1.218,6.9,6.123,8.043,9.942,11.863
		l-23.734-0.004l0.146-150.821L112.141,144.77z"/>
	<path id="path30853" d="M48.471,144.526L3.218,234.568v54.628c0,9.866,11.636,20.143,20.518,20.115h692.749
		c8.705,0,20.517-12.181,20.517-20.115V233.68l-45.934-89.505h-13.15l30.924,60.942c5.275,19.889-11.033,28.476-19.311,31.383
		l-38.939-0.16l0.319,59.295H547.116v-59.297H166.951v59.216H89.065v-59.137H49.884c-8.884,0-23.886-10.663-18.508-30.737
		l30.103-61.154H48.471z"/>
	<path id="path30857" d="M168.369,224.926c1.218,6.901,6.269,7.752,10.089,11.572c-7.845-0.016-20.603-0.102-20.631-0.827
		l-0.413-10.612L168.369,224.926z"/>
	<path id="path31750" d="M298.811,124.959l-7.144-7.492H159.424l-6.099,7.318L298.811,124.959z"/>
</g>
</svg>
