<?xml version="1.0" encoding="utf-8"?>
<!-- Generator: Adobe Illustrator 14.0.0, SVG Export Plug-In . SVG Version: 6.00 Build 43363)  -->
<!DOCTYPE svg PUBLIC "-//W3C//DTD SVG 1.1//EN" "http://www.w3.org/Graphics/SVG/1.1/DTD/svg11.dtd">
<svg version="1.1"
	 id="svg3643" xmlns:dc="http://purl.org/dc/elements/1.1/" sodipodi:docname="truck_font_awesome.svg" xmlns:sodipodi="http://sodipodi.sourceforge.net/DTD/sodipodi-0.dtd" xmlns:inkscape="http://www.inkscape.org/namespaces/inkscape" xmlns:cc="http://creativecommons.org/ns#" xmlns:rdf="http://www.w3.org/1999/02/22-rdf-syntax-ns#" inkscape:version="0.48.3.1 r9886" xmlns:svg="http://www.w3.org/2000/svg"
	 xmlns="http://www.w3.org/2000/svg" xmlns:xlink="http://www.w3.org/1999/xlink" x="0px" y="0px" width="484.721px"
	 height="416.689px" viewBox="0 0 484.721 416.689" enable-background="new 0 0 484.721 416.689" xml:space="preserve">
<sodipodi:namedview  id="namedview3649" inkscape:current-layer="svg3643" inkscape:window-y="25" inkscape:window-x="0" inkscape:cy="896" inkscape:cx="896" inkscape:zoom="0.13169643" showgrid="false" inkscape:window-height="480" inkscape:window-width="640" inkscape:pageshadow="2" inkscape:pageopacity="0" objecttolerance="10" borderopacity="1" guidetolerance="10" bordercolor="#666666" gridtolerance="10" pagecolor="#ffffff" inkscape:window-maximized="0">
	</sodipodi:namedview>
<g id="g3645" transform="matrix(1,0,0,-1,-30.372881,1224.678)">
	<path id="path3647" inkscape:connector-curvature="0" d="M197.144,905.143c0,8.061-2.945,15.036-8.836,20.927
		c-5.892,5.891-12.867,8.836-20.928,8.836c-8.062,0-15.037-2.945-20.928-8.836s-8.836-12.866-8.836-20.927
		c0-8.062,2.945-15.037,8.836-20.928s12.866-8.836,20.928-8.836c8.061,0,15.036,2.945,20.928,8.836
		C194.198,890.106,197.144,897.081,197.144,905.143z M107.853,1024.197h89.291v59.527h-36.739c-2.016,0-3.721-0.697-5.116-2.093
		l-45.343-45.343c-1.396-1.395-2.093-3.101-2.093-5.116V1024.197z M405.488,905.143c0,8.061-2.945,15.036-8.836,20.927
		s-12.867,8.836-20.928,8.836s-15.037-2.945-20.928-8.836s-8.836-12.866-8.836-20.927c0-8.062,2.945-15.037,8.836-20.928
		s12.867-8.836,20.928-8.836s15.037,2.945,20.928,8.836S405.488,897.081,405.488,905.143z M465.016,1158.133V920.025
		c0-2.326-0.311-4.379-0.93-6.162c-0.62-1.783-1.667-3.217-3.14-4.302s-2.752-1.977-3.837-2.675
		c-1.085-0.697-2.906-1.162-5.464-1.395s-4.302-0.388-5.232-0.465c-0.93-0.078-2.906-0.078-5.93,0
		c-3.022,0.077-4.767,0.116-5.231,0.116c0-16.433-5.813-30.462-17.439-42.088c-11.627-11.626-25.656-17.439-42.088-17.439
		s-30.461,5.813-42.088,17.439c-11.626,11.626-17.439,25.655-17.439,42.088h-89.29c0-16.433-5.813-30.462-17.44-42.088
		c-11.626-11.626-25.655-17.439-42.087-17.439c-16.433,0-30.461,5.813-42.088,17.439c-11.626,11.626-17.439,25.655-17.439,42.088
		H92.971c-0.465,0-2.209-0.039-5.231-0.116c-3.023-0.078-5-0.078-5.93,0c-0.931,0.077-2.674,0.232-5.232,0.465
		c-2.558,0.232-4.379,0.697-5.464,1.395c-1.085,0.698-2.364,1.59-3.837,2.675s-2.519,2.519-3.139,4.302s-0.931,3.836-0.931,6.162
		c0,4.03,1.473,7.518,4.418,10.463s6.434,4.418,10.464,4.418v74.41c0,1.24-0.039,3.952-0.116,8.138s-0.077,7.131,0,8.836
		c0.077,1.705,0.271,4.379,0.581,8.022c0.311,3.643,0.814,6.511,1.512,8.604s1.783,4.457,3.256,7.092s3.216,4.96,5.231,6.976
		l46.04,46.041c2.946,2.945,6.86,5.426,11.743,7.441s9.417,3.023,13.603,3.023h37.205v44.646c0,4.03,1.473,7.519,4.418,10.464
		s6.433,4.418,10.464,4.418h238.108c4.03,0,7.519-1.473,10.464-4.418S465.016,1162.163,465.016,1158.133z"/>
</g>
</svg>
