<?xml version="1.0" encoding="utf-8"?>
<!-- Generator: Adobe Illustrator 16.0.0, SVG Export Plug-In . SVG Version: 6.00 Build 0)  -->
<!DOCTYPE svg PUBLIC "-//W3C//DTD SVG 1.1//EN" "http://www.w3.org/Graphics/SVG/1.1/DTD/svg11.dtd">
<svg version="1.1" id="Layer_1" xmlns="http://www.w3.org/2000/svg" xmlns:xlink="http://www.w3.org/1999/xlink" x="0px" y="0px"
	 width="256px" height="256px" viewBox="0 0 256 256" enable-background="new 0 0 256 256" xml:space="preserve">
<path d="M136.466,222.077c14.468-1.412,27.985-6.015,38.719-13.186c5.395-3.604,13.002-11.065,16.31-15.995
	c4.835-7.205,8.345-15.862,10.223-25.21c0.728-3.62,0.815-9.982,0.964-69.083l0.165-65.095h-44.601V93.11
	c0,39.18-0.172,61.142-0.502,64.098c-0.591,5.298-2.333,11.628-4.102,14.906c-2.22,4.113-6.314,8.027-10.587,10.119
	c-11.756,5.755-28.957,3.684-37.11-4.47c-4.152-4.152-7.005-10.84-8.202-19.226c-0.293-2.049-0.473-26.161-0.478-64.156
	l-0.009-60.873H53.155v61.644c0,61.846,0.119,67.066,1.7,74.879c3.907,19.297,15.945,34.654,34.375,43.854
	C102.739,220.63,120.226,223.662,136.466,222.077z"/>
</svg>
