<?xml version="1.0" encoding="utf-8"?>
<!-- Generator: Adobe Illustrator 14.0.0, SVG Export Plug-In . SVG Version: 6.00 Build 43363)  -->
<!DOCTYPE svg PUBLIC "-//W3C//DTD SVG 1.1//EN" "http://www.w3.org/Graphics/SVG/1.1/DTD/svg11.dtd">
<svg version="1.1" id="Layer_1" xmlns="http://www.w3.org/2000/svg" xmlns:xlink="http://www.w3.org/1999/xlink" x="0px" y="0px"
	 width="256px" height="132.5px" viewBox="0 0 256 132.5" enable-background="new 0 0 256 132.5" xml:space="preserve">
<path id="path3476" d="M31.876,24.427c0,0,15.488,7.235,15.491,7.236c12.147,5.674,24.465-2.063,35.336-7.203
	c6.312-2.951,13.604-2.951,19.918,0c11.216,5.24,22.719,13.112,35.341,7.203c11.222-5.244,22.702-13.107,35.334-7.203l15.419,7.203
	c6.311,2.957,13.605,2.957,19.919,0l15.379-7.184c3.129-1.471,6.537-2.227,9.996-2.217v28.41c-3.438,0-6.847,0.758-9.963,2.209
	l-15.412,7.205c-6.312,2.955-13.608,2.955-19.919,0c0,0-15.414-7.203-15.419-7.205c-12.351-5.771-24.334,1.981-35.334,7.205
	c-6.312,2.955-13.615,2.955-19.924,0l-15.417-7.205c-6.312-2.943-13.604-2.943-19.918,0c0,0-15.405,7.202-15.412,7.205
	c-12.331,5.764-24.447-2.043-35.448-7.252c-3.088-1.445-6.443-2.201-9.854-2.211V22.21C25.409,22.226,28.784,22.982,31.876,24.427
	l15.491,7.236L31.876,24.427"/>
<path id="path3478" d="M31.125,72.414c0,0,15.479,7.242,15.482,7.244c12.293,5.752,24.371-2.01,35.338-7.205
	c6.313-2.955,13.615-2.955,19.93,0c11.167,5.221,22.817,13.047,35.337,7.205l15.409-7.205c6.312-2.955,13.604-2.955,19.921,0
	c11.195,5.233,22.767,13.075,35.342,7.205c1.679,0,4.669-2.186,6.216-2.91c2.338-1.094,4.676-2.185,7.013-3.276
	c3.911-1.827,7.757-3.23,12.142-3.218V98.66c-3.438,0-6.846,0.76-9.962,2.209l-15.408,7.203c-6.317,2.957-13.608,2.957-19.926,0
	l-15.416-7.203c-6.317-2.945-13.608-2.945-19.921,0l-15.409,7.203c-6.316,2.957-13.62,2.957-19.924,0l-15.413-7.203
	c-6.312-2.945-13.613-2.945-19.93,0l-15.405,7.203c-6.317,2.957-13.608,2.957-19.933,0c-7.867-3.677-16.435-9.416-25.377-9.457
	v-28.41C24.652,70.211,28.033,70.971,31.125,72.414l15.482,7.244L31.125,72.414"/>
</svg>
