<?xml version="1.0" encoding="utf-8"?>
<!-- Generator: Adobe Illustrator 14.0.0, SVG Export Plug-In . SVG Version: 6.00 Build 43363)  -->
<!DOCTYPE svg PUBLIC "-//W3C//DTD SVG 1.1//EN" "http://www.w3.org/Graphics/SVG/1.1/DTD/svg11.dtd">
<svg version="1.1" id="Ebene_1" xmlns="http://www.w3.org/2000/svg" xmlns:xlink="http://www.w3.org/1999/xlink" x="0px" y="0px"
	 width="512px" height="512px" viewBox="0 0 512 512" enable-background="new 0 0 512 512" xml:space="preserve">
<g>
	<g>
		<path d="M318.519,175.961l31.175,30.52c0.085,0.082,0.199,0.19,0.287,0.27c3.956,3.568,10.057,3.254,13.625-0.702l16.646-18.455
			l-31.89,159.817c-1.243-0.134-2.471-0.205-3.669-0.205c-7.463,0-12.428,2.581-13.279,6.903
			c-1.271,6.442,7.317,11.64,16.458,13.441c2.405,0.475,4.776,0.715,7.049,0.715h0.001c7.463,0,12.428-2.58,13.279-6.901
			c1.112-5.644-5.335-10.329-13.095-12.617l36.843-184.637l1.357-5.337l1.438-5.659l-8.227-3.96l-3.526,4.654l-11.946,15.767
			l1.529-2.276l-16.566,18.365l-30.02-29.388L318.519,175.961z M361.385,360.018c-0.581,0.511-2.668,1.374-6.464,1.374h-0.001
			c-1.826-0.001-3.75-0.197-5.719-0.586c-6.841-1.349-10.428-4.203-10.974-5.35c0.581-0.511,2.669-1.374,6.465-1.374
			c0.757,0,1.531,0.042,2.315,0.108l-0.573,2.872l6.742,1.348l0.578-2.896C358.43,356.98,360.938,359.076,361.385,360.018"/>
	</g>
	<g>
		<path d="M296.39,138.303c12.005,3.502,25.076-5.108,29.196-19.231c4.12-14.123-2.271-28.411-14.275-31.913
			c-3.902-1.139-7.921-0.997-11.704,0.199c-5.796,1.831-10.532,6.051-13.021,11.597c-2.487,5.546-2.479,11.888,0.002,17.437
			L296.39,138.303z"/>
	</g>
	<g>
		<path d="M239.372,186.386l-11.314,1.124l-8.912,21.519c-2.334,5.636-1.852,12.268,1.289,17.742
			c3.172,5.528,8.662,9.203,14.685,9.832l4.644,0.484c-0.313-3.268-0.519-6.645-0.597-10.14l-3.007-0.314
			c-2.828-0.295-5.457-2.109-7.031-4.851c-1.605-2.798-1.875-6.132-0.721-8.918L239.372,186.386z"/>
	</g>
	<g>
		<defs>
			
				<rect id="SVGID_1_" x="155.334" y="255.638" transform="matrix(0.9811 0.1936 -0.1936 0.9811 106.834 -69.9539)" width="512.01" height="512.01"/>
		</defs>
		<clipPath id="SVGID_2_">
			<use xlink:href="#SVGID_1_"  overflow="visible"/>
		</clipPath>
		
			<rect x="342.725" y="370.672" transform="matrix(0.9811 0.1936 -0.1936 0.9811 79.3751 -59.8925)" clip-path="url(#SVGID_2_)" width="6.876" height="11.103"/>
	</g>
	<g>
		<defs>
			
				<rect id="SVGID_3_" x="-123.388" y="-109.559" transform="matrix(-0.7571 0.6533 -0.6533 -0.7571 328.6815 170.676)" width="512" height="512.001"/>
		</defs>
		<clipPath id="SVGID_4_">
			<use xlink:href="#SVGID_3_"  overflow="visible"/>
		</clipPath>
		
			<rect x="41.434" y="363.72" transform="matrix(-0.7571 0.6533 -0.6533 -0.7571 322.4212 614.437)" clip-path="url(#SVGID_4_)" width="11.102" height="6.875"/>
	</g>
	<g>
		<path d="M493.769,403.722c0,0-0.292,0.268-0.857,0.781c-0.283,0.258-0.635,0.578-1.053,0.958
			c-0.413,0.371-0.893,0.801-1.435,1.288c-0.265,0.223-0.543,0.46-0.839,0.71c-0.307,0.248-0.629,0.508-0.967,0.782
			c-0.688,0.531-1.441,1.104-2.283,1.687c-1.68,1.166-3.663,2.424-5.999,3.611c-2.328,1.191-5.007,2.311-8.006,3.219
			c-2.993,0.924-6.314,1.634-9.897,1.956c-1.792,0.159-3.646,0.223-5.549,0.175c-2.038-0.048-4.136-0.098-6.287-0.148
			c-4.315-0.089-8.854-0.183-13.59-0.278c-4.735-0.095-9.67-0.193-14.773-0.295c-5.106-0.082-10.385-0.166-15.812-0.253
			c-5.427-0.071-11-0.146-16.698-0.22c-5.697-0.059-11.519-0.117-17.438-0.18c-11.839-0.098-24.073-0.191-36.504-0.229
			c-3.3-0.019-6.614-0.028-9.938-0.036c0.078-1.715-0.812-3.403-2.433-4.255c-1.298-0.686-2.604-1.329-3.915-1.96
			c-0.652-0.322-1.312-0.625-1.969-0.936c-0.656-0.308-1.312-0.618-1.974-0.913l-1.979-0.896c-0.442-0.202-0.89-0.396-1.335-0.589
			h71.474c3.128-0.614,6.03-1.463,8.67-2.453c3.297-1.262,6.191-2.728,8.681-4.234c2.49-1.509,4.594-3.034,6.319-4.479
			c0.868-0.717,1.641-1.413,2.341-2.059c0.344-0.327,0.671-0.642,0.982-0.939c0.312-0.312,0.604-0.608,0.885-0.889
			c0.255-0.271,0.496-0.523,0.722-0.764c0.118-0.125,0.232-0.247,0.344-0.364c0.103-0.111,0.2-0.222,0.296-0.324
			c0.38-0.418,0.699-0.771,0.957-1.055c0.516-0.564,0.78-0.856,0.78-0.856l-2.855-2.857c0,0-0.293,0.267-0.858,0.781
			c-0.283,0.257-0.635,0.577-1.053,0.957c-0.413,0.371-0.893,0.801-1.434,1.288c-0.266,0.224-0.544,0.461-0.839,0.71
			c-0.307,0.248-0.63,0.509-0.968,0.782c-0.688,0.53-1.44,1.104-2.283,1.688c-1.68,1.165-3.663,2.424-5.997,3.611
			c-2.33,1.19-5.008,2.311-8.008,3.219c-2.991,0.924-6.314,1.633-9.897,1.956c-1.791,0.159-3.646,0.223-5.549,0.175
			c-2.038-0.049-4.136-0.099-6.286-0.148c-4.316-0.09-8.854-0.184-13.591-0.278c-4.735-0.095-9.668-0.194-14.773-0.296
			c-5.106-0.082-10.385-0.166-15.811-0.253c-5.428-0.071-11.002-0.146-16.698-0.219c-3.06-0.031-6.155-0.062-9.28-0.096
			c0.037-0.186,0.069-0.371,0.11-0.556c0.431-1.812,0.855-3.622,1.315-5.427c0.447-1.809,0.923-3.609,1.397-5.411
			c0.486-1.799,0.98-3.599,1.494-5.393c0.516-1.794,3.788-12.519,4.903-16.089l3.331-10.713c1.088-3.576,9.505-32.239,9.505-32.239
			c0.481-1.627,0.503-3.4-0.035-5.144l-1.254-4.05c-0.496-1.608-2.726-7.914-3.318-9.474c-0.577-1.564-1.189-3.112-1.795-4.666
			c-0.603-1.553-1.229-3.094-1.857-4.634c-2.521-6.154-5.188-12.234-7.963-18.258c-2.778-6.021-5.659-11.99-8.644-17.906
			c-1.489-2.959-3-5.907-4.538-8.841c-0.66-1.264-1.326-2.525-1.996-3.784l26.123-96.107l-30.211-6.383l-14.211-3.716
			c-2.176-0.568-4.396-0.857-6.601-0.857c-8.903,0-17.019,4.76-21.611,12.391l-29.602,6.571l-5.658,1.255l-1.8,4.971l-20.689,57.13
			l-1.581,4.369l1.588,2.217l6.441,8.994L66.481,345.825c-4.358-4.236-9.11-6.78-12.884-6.78c-1.784,0-3.372,0.556-4.59,1.605
			c-1.41,1.218-3.494,4.144-1.617,10.069c1.087,3.436,3.322,7.221,6.291,10.661c4.931,5.715,10.768,9.266,15.232,9.266
			c1.783,0,3.371-0.556,4.59-1.605c1.41-1.217,3.494-4.143,1.617-10.07c-0.808-2.547-2.247-5.288-4.148-7.938l136.266-117.048
			l-3.674-4.277l-0.1-1.299l18.252-50.403l39.133-4.616l1.812,10.683l-8.33,0.828l-4.88,36.826
			c-0.197,14.155,1.787,27.369,5.969,39.908c6.076,18.219,15.812,31.865,23.635,42.83c4.756,6.664,12.112,19.163,12.434,19.62
			c0.316,0.441,0.636,0.883,0.952,1.324l-1.786,15.804c-0.421,3.71-0.849,7.419-1.234,11.136l-1.087,11.167
			c-0.356,3.725-1.502,14.879-1.725,16.731s-0.466,3.701-0.715,5.549c-0.262,1.844-0.521,3.689-0.812,5.529
			c-0.275,1.842-0.586,3.677-0.894,5.513c-0.203,1.123-0.476,2.231-0.81,3.33c-9.648-0.077-19.523-0.146-29.53-0.174
			c-7.339-0.037-14.751-0.049-22.187-0.053c-0.373-0.946-1.06-1.776-2.014-2.315c-0.926-0.523-1.855-1.03-2.79-1.518
			c-0.934-0.491-1.871-0.969-2.81-1.438c-0.771-0.395-1.545-0.764-2.32-1.139c-0.681-1.197-1.377-2.381-2.063-3.571
			c-0.853-1.462-1.727-2.906-2.622-4.333c-0.695-1.108-1.407-2.201-2.13-3.286c0.477-0.602,0.975-1.185,1.501-1.743
			c1.221-1.259,2.439-2.52,3.683-3.759c1.234-1.248,2.488-2.477,3.742-3.707c1.262-1.222,2.529-2.439,3.811-3.644
			c1.283-1.204,2.573-2.401,3.875-3.588c1.302-1.188,2.61-2.366,3.93-3.537l3.955-3.516l7.911-7.025l7.828-7.104l15.621-14.238
			c1.566-1.427,2.701-3.359,3.117-5.604l0.449-2.433l0.992-5.356c-1.439-2.109-3.019-4.322-4.669-6.635
			c-7.599-10.649-16.993-23.823-23.543-41.318l-0.221,14.177l-0.298,18.15l-0.271,14.843l-9.074,12.25l-6.271,8.508l-6.188,8.584
			l-3.096,4.291c-1.03,1.433-2.072,2.854-3.121,4.269c-1.048,1.416-2.107,2.82-3.176,4.219c-1.067,1.397-2.15,2.782-3.237,4.161
			c-1.098,1.372-2.193,2.745-3.31,4.098c-1.106,1.363-2.237,2.704-3.367,4.046c-1.146,1.326-2.414,2.543-3.838,3.619
			c-0.715,0.536-1.471,1.034-2.273,1.49c-0.812,0.448-1.655,0.867-2.634,1.165c-0.765,0.236-1.522,0.637-2.168,1.191
			c-2.517,2.162-2.804,5.958-0.64,8.476l2.521,2.932c0.545,0.634,1.109,1.249,1.682,1.86c0.573,0.61,1.156,1.212,1.746,1.808
			c1.181,1.191,2.389,2.36,3.618,3.514c1.145,1.072,2.311,2.131,3.494,3.175c-3.256,0.007-6.507,0.015-9.751,0.021
			c-6.289,0.031-12.555,0.062-18.771,0.095c-6.216,0.046-12.382,0.092-18.474,0.137c-6.093,0.06-12.111,0.121-18.03,0.18
			c-11.839,0.127-23.284,0.298-34.136,0.479c-10.854,0.173-21.114,0.41-30.585,0.621c-4.736,0.11-9.274,0.188-13.591,0.314
			c-4.316,0.121-8.41,0.235-12.259,0.342c-7.694,0.198-14.403,0.445-19.929,0.628c-5.525,0.174-9.866,0.371-12.826,0.479
			c-2.96,0.127-4.538,0.194-4.538,0.194v3.401c0,0,1.578,0.068,4.538,0.194c2.96,0.107,7.301,0.306,12.826,0.479
			c1.646,0.055,3.413,0.113,5.265,0.178H279.45c-0.517,0.697-0.918,1.513-1.119,2.406c-0.666,2.953,0.831,5.887,3.439,7.156
			c-0.864,0.002-1.732,0.004-2.597,0.006c-6.29,0.031-12.556,0.062-18.771,0.095c-6.216,0.046-12.382,0.092-18.474,0.137
			c-6.093,0.061-12.111,0.121-18.03,0.18c-11.839,0.128-23.283,0.298-34.137,0.479c-10.852,0.174-21.113,0.411-30.584,0.621
			c-4.736,0.11-9.274,0.188-13.591,0.315c-4.316,0.12-8.41,0.234-12.258,0.343c-7.696,0.196-14.404,0.443-19.93,0.626
			c-5.524,0.174-9.865,0.372-12.825,0.479c-2.96,0.127-4.538,0.195-4.538,0.195v3.401c0,0,1.578,0.067,4.538,0.194
			c2.96,0.106,7.301,0.306,12.825,0.479c5.525,0.183,12.233,0.43,19.93,0.626c2.046,0.058,4.168,0.116,6.35,0.179h322.034
			c0.516-0.062,1.026-0.131,1.532-0.206c4.059-0.609,7.768-1.635,11.07-2.874c3.297-1.262,6.19-2.727,8.681-4.234
			s4.594-3.033,6.319-4.479c0.867-0.715,1.64-1.412,2.341-2.058c0.343-0.328,0.671-0.643,0.982-0.939
			c0.311-0.312,0.604-0.608,0.884-0.889c0.256-0.271,0.497-0.524,0.723-0.764c0.118-0.126,0.231-0.248,0.343-0.364
			c0.104-0.112,0.201-0.222,0.297-0.325c0.38-0.418,0.699-0.771,0.957-1.054c0.516-0.565,0.78-0.857,0.78-0.857L493.769,403.722z
			 M68.968,363.771c-0.017,0-0.035,0.001-0.055,0.001c-1.581,0-5.701-1.869-10.027-6.883c-4.544-5.267-5.615-9.718-5.344-10.969
			c0.017,0,0.035,0,0.055,0c1.287,0,4.255,1.238,7.648,4.402l-2.23,1.915l4.48,5.216l2.238-1.923
			C68.503,359.555,69.19,362.743,68.968,363.771"/>
	</g>
</g>
</svg>
